M48
;GenerationSoftware,Autodesk,EAGLE,9.6.2*%
;CreationDate,2022-05-08T13:00:53Z*%
FMAT,2
ICI,OFF
METRIC,TZ,000.000
T5C0.350
T4C0.813
T3C0.950
T2C1.016
T1C1.321
%
G90
M71
T1
X59690Y25425
X59690Y30455
X59690Y37490
X59690Y42520
T2
X39370Y40005
X41910Y40005
X44450Y40005
X18796Y50800
X21336Y50800
X23876Y50800
X26416Y50800
X28956Y50800
X31496Y50800
X34036Y50800
X36576Y50800
X39116Y50800
X41656Y50800
X27965Y2540
X30505Y2540
X33045Y2540
X35585Y2540
X38125Y2540
X40665Y2540
X43205Y2540
X45745Y2540
X45720Y50800
X48260Y50800
X50800Y50800
X53340Y50800
X55880Y50800
X58420Y50800
X60960Y50800
X63500Y50800
X50800Y2515
X53340Y2515
X55880Y2515
X58420Y2515
X60960Y2515
X63500Y2515
X46990Y40005
X49530Y40005
X12700Y43815
X12700Y41275
X12700Y38735
X12700Y36195
X16510Y12065
X19050Y12065
X21590Y12065
X24130Y12065
X51435Y9525
X51435Y12065
X51435Y14605
X51435Y17145
X12573Y20752
X12573Y18212
X12573Y15672
X12573Y11862
X12573Y9322
X12573Y6782
T3
X18034Y31420
X20574Y31420
X23114Y31420
X25654Y31420
X28194Y31420
X30734Y31420
X18034Y41681
X20574Y41681
X23114Y41681
X25654Y41681
X28194Y41681
X30734Y41681
X18034Y16281
X20574Y16281
X34696Y34747
X34696Y32207
X34696Y29667
X34696Y27127
X34696Y24587
X34696Y22047
X34696Y19507
X34696Y16967
X30734Y26543
X28194Y26543
X25654Y26543
X23114Y26543
X20574Y26543
X18034Y26543
X30734Y16281
X28194Y16281
X25654Y16281
X23114Y16281
T4
X3734Y28321
X6274Y28321
T5
X20320Y35560
X31750Y37465
X19050Y36195
X23495Y44450
X24765Y45720
X39370Y27305
X14605Y34290
M30