G04 EAGLE Gerber RS-274X export*
G75*
%MOMM*%
%FSLAX34Y34*%
%LPD*%
%INSilk top*%
%IPPOS*%
%AMOC8*
5,1,8,0,0,1.08239X$1,22.5*%
G01*
%ADD10C,0.254000*%
%ADD11C,0.152400*%
%ADD12C,0.127000*%
%ADD13C,0.203200*%
%ADD14C,0.101600*%
%ADD15C,0.762000*%
%ADD16R,0.508000X0.762000*%
%ADD17R,1.016000X0.762000*%
%ADD18R,0.762000X0.508000*%
%ADD19R,0.762000X1.016000*%
%ADD20R,3.810000X0.762000*%


D10*
X660400Y10000D02*
X660400Y520700D01*
X647700Y533400D01*
X10000Y533400D01*
X9758Y533397D01*
X9517Y533388D01*
X9276Y533374D01*
X9035Y533353D01*
X8795Y533327D01*
X8555Y533295D01*
X8316Y533257D01*
X8079Y533214D01*
X7842Y533164D01*
X7607Y533109D01*
X7373Y533049D01*
X7141Y532982D01*
X6910Y532911D01*
X6681Y532833D01*
X6454Y532750D01*
X6229Y532662D01*
X6006Y532568D01*
X5786Y532469D01*
X5568Y532364D01*
X5353Y532255D01*
X5140Y532140D01*
X4930Y532020D01*
X4724Y531895D01*
X4520Y531765D01*
X4319Y531630D01*
X4122Y531490D01*
X3928Y531346D01*
X3738Y531197D01*
X3552Y531043D01*
X3369Y530885D01*
X3190Y530723D01*
X3015Y530556D01*
X2844Y530385D01*
X2677Y530210D01*
X2515Y530031D01*
X2357Y529848D01*
X2203Y529662D01*
X2054Y529472D01*
X1910Y529278D01*
X1770Y529081D01*
X1635Y528880D01*
X1505Y528676D01*
X1380Y528470D01*
X1260Y528260D01*
X1145Y528047D01*
X1036Y527832D01*
X931Y527614D01*
X832Y527394D01*
X738Y527171D01*
X650Y526946D01*
X567Y526719D01*
X489Y526490D01*
X418Y526259D01*
X351Y526027D01*
X291Y525793D01*
X236Y525558D01*
X186Y525321D01*
X143Y525084D01*
X105Y524845D01*
X73Y524605D01*
X47Y524365D01*
X26Y524124D01*
X12Y523883D01*
X3Y523642D01*
X0Y523400D01*
X0Y10000D01*
X3Y9758D01*
X12Y9517D01*
X26Y9276D01*
X47Y9035D01*
X73Y8795D01*
X105Y8555D01*
X143Y8316D01*
X186Y8079D01*
X236Y7842D01*
X291Y7607D01*
X351Y7373D01*
X418Y7141D01*
X489Y6910D01*
X567Y6681D01*
X650Y6454D01*
X738Y6229D01*
X832Y6006D01*
X931Y5786D01*
X1036Y5568D01*
X1145Y5353D01*
X1260Y5140D01*
X1380Y4930D01*
X1505Y4724D01*
X1635Y4520D01*
X1770Y4319D01*
X1910Y4122D01*
X2054Y3928D01*
X2203Y3738D01*
X2357Y3552D01*
X2515Y3369D01*
X2677Y3190D01*
X2844Y3015D01*
X3015Y2844D01*
X3190Y2677D01*
X3369Y2515D01*
X3552Y2357D01*
X3738Y2203D01*
X3928Y2054D01*
X4122Y1910D01*
X4319Y1770D01*
X4520Y1635D01*
X4724Y1505D01*
X4930Y1380D01*
X5140Y1260D01*
X5353Y1145D01*
X5568Y1036D01*
X5786Y931D01*
X6006Y832D01*
X6229Y738D01*
X6454Y650D01*
X6681Y567D01*
X6910Y489D01*
X7141Y418D01*
X7373Y351D01*
X7607Y291D01*
X7842Y236D01*
X8079Y186D01*
X8316Y143D01*
X8555Y105D01*
X8795Y73D01*
X9035Y47D01*
X9276Y26D01*
X9517Y12D01*
X9758Y3D01*
X10000Y0D01*
X650400Y0D01*
X650642Y3D01*
X650883Y12D01*
X651124Y26D01*
X651365Y47D01*
X651605Y73D01*
X651845Y105D01*
X652084Y143D01*
X652321Y186D01*
X652558Y236D01*
X652793Y291D01*
X653027Y351D01*
X653259Y418D01*
X653490Y489D01*
X653719Y567D01*
X653946Y650D01*
X654171Y738D01*
X654394Y832D01*
X654614Y931D01*
X654832Y1036D01*
X655047Y1145D01*
X655260Y1260D01*
X655470Y1380D01*
X655676Y1505D01*
X655880Y1635D01*
X656081Y1770D01*
X656278Y1910D01*
X656472Y2054D01*
X656662Y2203D01*
X656848Y2357D01*
X657031Y2515D01*
X657210Y2677D01*
X657385Y2844D01*
X657556Y3015D01*
X657723Y3190D01*
X657885Y3369D01*
X658043Y3552D01*
X658197Y3738D01*
X658346Y3928D01*
X658490Y4122D01*
X658630Y4319D01*
X658765Y4520D01*
X658895Y4724D01*
X659020Y4930D01*
X659140Y5140D01*
X659255Y5353D01*
X659364Y5568D01*
X659469Y5786D01*
X659568Y6006D01*
X659662Y6229D01*
X659750Y6454D01*
X659833Y6681D01*
X659911Y6910D01*
X659982Y7141D01*
X660049Y7373D01*
X660109Y7607D01*
X660164Y7842D01*
X660214Y8079D01*
X660257Y8316D01*
X660295Y8555D01*
X660327Y8795D01*
X660353Y9035D01*
X660374Y9276D01*
X660388Y9517D01*
X660397Y9758D01*
X660400Y10000D01*
D11*
X515874Y51562D02*
X507400Y51562D01*
X503163Y55799D01*
X507400Y60036D01*
X515874Y60036D01*
X509519Y60036D02*
X509519Y51562D01*
X513756Y64659D02*
X505282Y64659D01*
X503163Y66778D01*
X503163Y71015D01*
X505282Y73133D01*
X513756Y73133D01*
X515874Y71015D01*
X515874Y66778D01*
X513756Y64659D01*
X505282Y73133D01*
X259832Y457683D02*
X261697Y459547D01*
X259832Y457683D02*
X259832Y453954D01*
X261697Y452090D01*
X269154Y452090D01*
X271018Y453954D01*
X271018Y457683D01*
X269154Y459547D01*
X265425Y459547D01*
X265425Y455819D01*
X271018Y463784D02*
X259832Y463784D01*
X271018Y471241D01*
X259832Y471241D01*
X259832Y475478D02*
X271018Y475478D01*
X271018Y481071D01*
X269154Y482935D01*
X261697Y482935D01*
X259832Y481071D01*
X259832Y475478D01*
D12*
X605145Y463657D02*
X616585Y463657D01*
X616585Y469377D01*
X614678Y471284D01*
X607052Y471284D01*
X605145Y469377D01*
X605145Y463657D01*
X608959Y475351D02*
X605145Y479164D01*
X616585Y479164D01*
X616585Y475351D02*
X616585Y482978D01*
X629275Y463657D02*
X640715Y463657D01*
X640715Y469377D01*
X638808Y471284D01*
X631182Y471284D01*
X629275Y469377D01*
X629275Y463657D01*
X631182Y475351D02*
X638808Y475351D01*
X631182Y475351D02*
X629275Y477258D01*
X629275Y481071D01*
X631182Y482978D01*
X638808Y482978D01*
X640715Y481071D01*
X640715Y477258D01*
X638808Y475351D01*
X631182Y482978D01*
D11*
X372618Y452090D02*
X361432Y452090D01*
X372618Y452090D02*
X372618Y457683D01*
X370754Y459547D01*
X363297Y459547D01*
X361432Y457683D01*
X361432Y452090D01*
X365161Y463784D02*
X361432Y467513D01*
X372618Y467513D01*
X372618Y471241D02*
X372618Y463784D01*
X370754Y475478D02*
X363297Y475478D01*
X361432Y477342D01*
X361432Y481071D01*
X363297Y482935D01*
X370754Y482935D01*
X372618Y481071D01*
X372618Y477342D01*
X370754Y475478D01*
X363297Y482935D01*
X337058Y47752D02*
X325872Y47752D01*
X325872Y53345D01*
X327737Y55209D01*
X331465Y55209D01*
X333330Y53345D01*
X333330Y47752D01*
X333330Y51481D02*
X337058Y55209D01*
X325872Y59446D02*
X325872Y66903D01*
X325872Y59446D02*
X337058Y59446D01*
X337058Y66903D01*
X331465Y63174D02*
X331465Y59446D01*
X325872Y76733D02*
X327737Y78597D01*
X325872Y76733D02*
X325872Y73004D01*
X327737Y71140D01*
X329601Y71140D01*
X331465Y73004D01*
X331465Y76733D01*
X333330Y78597D01*
X335194Y78597D01*
X337058Y76733D01*
X337058Y73004D01*
X335194Y71140D01*
X351272Y49616D02*
X353137Y47752D01*
X351272Y49616D02*
X351272Y53345D01*
X353137Y55209D01*
X355001Y55209D01*
X356865Y53345D01*
X356865Y51481D01*
X356865Y53345D02*
X358730Y55209D01*
X360594Y55209D01*
X362458Y53345D01*
X362458Y49616D01*
X360594Y47752D01*
X358730Y59446D02*
X351272Y59446D01*
X358730Y59446D02*
X362458Y63174D01*
X358730Y66903D01*
X351272Y66903D01*
X353137Y71140D02*
X351272Y73004D01*
X351272Y76733D01*
X353137Y78597D01*
X355001Y78597D01*
X356865Y76733D01*
X356865Y74868D01*
X356865Y76733D02*
X358730Y78597D01*
X360594Y78597D01*
X362458Y76733D01*
X362458Y73004D01*
X360594Y71140D01*
X306065Y55209D02*
X306065Y47752D01*
X302337Y51481D02*
X309794Y51481D01*
X300472Y59446D02*
X300472Y66903D01*
X300472Y59446D02*
X306065Y59446D01*
X304201Y63174D01*
X304201Y65039D01*
X306065Y66903D01*
X309794Y66903D01*
X311658Y65039D01*
X311658Y61310D01*
X309794Y59446D01*
X307930Y71140D02*
X300472Y71140D01*
X307930Y71140D02*
X311658Y74868D01*
X307930Y78597D01*
X300472Y78597D01*
X310632Y452090D02*
X321818Y452090D01*
X321818Y457683D01*
X319954Y459547D01*
X312497Y459547D01*
X310632Y457683D01*
X310632Y452090D01*
X314361Y463784D02*
X310632Y467513D01*
X321818Y467513D01*
X321818Y471241D02*
X321818Y463784D01*
X321818Y475478D02*
X321818Y482935D01*
X321818Y475478D02*
X314361Y482935D01*
X312497Y482935D01*
X310632Y481071D01*
X310632Y477342D01*
X312497Y475478D01*
X336032Y452090D02*
X347218Y452090D01*
X347218Y457683D01*
X345354Y459547D01*
X337897Y459547D01*
X336032Y457683D01*
X336032Y452090D01*
X339761Y463784D02*
X336032Y467513D01*
X347218Y467513D01*
X347218Y471241D02*
X347218Y463784D01*
X339761Y475478D02*
X336032Y479206D01*
X347218Y479206D01*
X347218Y475478D02*
X347218Y482935D01*
X210897Y459547D02*
X209032Y457683D01*
X209032Y453954D01*
X210897Y452090D01*
X212761Y452090D01*
X214625Y453954D01*
X214625Y457683D01*
X216490Y459547D01*
X218354Y459547D01*
X220218Y457683D01*
X220218Y453954D01*
X218354Y452090D01*
X220218Y463784D02*
X209032Y463784D01*
X220218Y463784D02*
X220218Y469377D01*
X218354Y471241D01*
X210897Y471241D01*
X209032Y469377D01*
X209032Y463784D01*
X212761Y475478D02*
X220218Y475478D01*
X212761Y475478D02*
X209032Y479206D01*
X212761Y482935D01*
X220218Y482935D01*
X214625Y482935D02*
X214625Y475478D01*
X185497Y459547D02*
X183632Y457683D01*
X183632Y453954D01*
X185497Y452090D01*
X187361Y452090D01*
X189225Y453954D01*
X189225Y457683D01*
X191090Y459547D01*
X192954Y459547D01*
X194818Y457683D01*
X194818Y453954D01*
X192954Y452090D01*
X183632Y469377D02*
X185497Y471241D01*
X183632Y469377D02*
X183632Y465648D01*
X185497Y463784D01*
X192954Y463784D01*
X194818Y465648D01*
X194818Y469377D01*
X192954Y471241D01*
X194818Y475478D02*
X183632Y475478D01*
X194818Y475478D02*
X194818Y482935D01*
X285232Y452090D02*
X296418Y452090D01*
X296418Y457683D01*
X294554Y459547D01*
X287097Y459547D01*
X285232Y457683D01*
X285232Y452090D01*
X288961Y463784D02*
X285232Y467513D01*
X296418Y467513D01*
X296418Y471241D02*
X296418Y463784D01*
X287097Y475478D02*
X285232Y477342D01*
X285232Y481071D01*
X287097Y482935D01*
X288961Y482935D01*
X290825Y481071D01*
X290825Y479206D01*
X290825Y481071D02*
X292690Y482935D01*
X294554Y482935D01*
X296418Y481071D01*
X296418Y477342D01*
X294554Y475478D01*
X386832Y463784D02*
X398018Y463784D01*
X398018Y469377D01*
X396154Y471241D01*
X388697Y471241D01*
X386832Y469377D01*
X386832Y463784D01*
X396154Y475478D02*
X398018Y477342D01*
X398018Y481071D01*
X396154Y482935D01*
X388697Y482935D01*
X386832Y481071D01*
X386832Y477342D01*
X388697Y475478D01*
X390561Y475478D01*
X392425Y477342D01*
X392425Y482935D01*
X412232Y463784D02*
X423418Y463784D01*
X423418Y469377D01*
X421554Y471241D01*
X414097Y471241D01*
X412232Y469377D01*
X412232Y463784D01*
X414097Y475478D02*
X412232Y477342D01*
X412232Y481071D01*
X414097Y482935D01*
X415961Y482935D01*
X417825Y481071D01*
X419690Y482935D01*
X421554Y482935D01*
X423418Y481071D01*
X423418Y477342D01*
X421554Y475478D01*
X419690Y475478D01*
X417825Y477342D01*
X415961Y475478D01*
X414097Y475478D01*
X417825Y477342D02*
X417825Y481071D01*
X452872Y463784D02*
X464058Y463784D01*
X464058Y469377D01*
X462194Y471241D01*
X454737Y471241D01*
X452872Y469377D01*
X452872Y463784D01*
X452872Y475478D02*
X452872Y482935D01*
X454737Y482935D01*
X462194Y475478D01*
X464058Y475478D01*
X478272Y463784D02*
X489458Y463784D01*
X489458Y469377D01*
X487594Y471241D01*
X480137Y471241D01*
X478272Y469377D01*
X478272Y463784D01*
X480137Y479207D02*
X478272Y482935D01*
X480137Y479207D02*
X483865Y475478D01*
X487594Y475478D01*
X489458Y477342D01*
X489458Y481071D01*
X487594Y482935D01*
X485730Y482935D01*
X483865Y481071D01*
X483865Y475478D01*
X503672Y463784D02*
X514858Y463784D01*
X514858Y469377D01*
X512994Y471241D01*
X505537Y471241D01*
X503672Y469377D01*
X503672Y463784D01*
X503672Y475478D02*
X503672Y482935D01*
X503672Y475478D02*
X509265Y475478D01*
X507401Y479207D01*
X507401Y481071D01*
X509265Y482935D01*
X512994Y482935D01*
X514858Y481071D01*
X514858Y477342D01*
X512994Y475478D01*
X554472Y463784D02*
X565658Y463784D01*
X565658Y469377D01*
X563794Y471241D01*
X556337Y471241D01*
X554472Y469377D01*
X554472Y463784D01*
X556337Y475478D02*
X554472Y477342D01*
X554472Y481071D01*
X556337Y482935D01*
X558201Y482935D01*
X560065Y481071D01*
X560065Y479207D01*
X560065Y481071D02*
X561930Y482935D01*
X563794Y482935D01*
X565658Y481071D01*
X565658Y477342D01*
X563794Y475478D01*
X540258Y463784D02*
X529072Y463784D01*
X540258Y463784D02*
X540258Y469377D01*
X538394Y471241D01*
X530937Y471241D01*
X529072Y469377D01*
X529072Y463784D01*
X529072Y481071D02*
X540258Y481071D01*
X534665Y475478D02*
X529072Y481071D01*
X534665Y482935D02*
X534665Y475478D01*
D13*
X307086Y123457D02*
X307086Y107696D01*
X307086Y123457D02*
X314967Y123457D01*
X317594Y120831D01*
X317594Y118204D01*
X314967Y115577D01*
X317594Y112950D01*
X317594Y110323D01*
X314967Y107696D01*
X307086Y107696D01*
X307086Y115577D02*
X314967Y115577D01*
X326084Y123457D02*
X331338Y123457D01*
X326084Y123457D02*
X323458Y120831D01*
X323458Y110323D01*
X326084Y107696D01*
X331338Y107696D01*
X333965Y110323D01*
X333965Y120831D01*
X331338Y123457D01*
X339829Y123457D02*
X339829Y107696D01*
X339829Y123457D02*
X347710Y123457D01*
X350337Y120831D01*
X350337Y118204D01*
X347710Y115577D01*
X350337Y112950D01*
X350337Y110323D01*
X347710Y107696D01*
X339829Y107696D01*
X339829Y115577D02*
X347710Y115577D01*
X372572Y118204D02*
X372572Y107696D01*
X372572Y112950D02*
X377826Y118204D01*
X380453Y118204D01*
X388842Y107696D02*
X394096Y107696D01*
X388842Y107696D02*
X386215Y110323D01*
X386215Y115577D01*
X388842Y118204D01*
X394096Y118204D01*
X396723Y115577D01*
X396723Y112950D01*
X386215Y112950D01*
X402587Y118204D02*
X407841Y107696D01*
X413094Y118204D01*
X418958Y110323D02*
X418958Y107696D01*
X418958Y110323D02*
X421585Y110323D01*
X421585Y107696D01*
X418958Y107696D01*
X427144Y107696D02*
X437652Y107696D01*
X427144Y107696D02*
X437652Y118204D01*
X437652Y120831D01*
X435025Y123457D01*
X429771Y123457D01*
X427144Y120831D01*
X443516Y110323D02*
X443516Y107696D01*
X443516Y110323D02*
X446143Y110323D01*
X446143Y107696D01*
X443516Y107696D01*
X451701Y110323D02*
X451701Y120831D01*
X454328Y123457D01*
X459582Y123457D01*
X462209Y120831D01*
X462209Y110323D01*
X459582Y107696D01*
X454328Y107696D01*
X451701Y110323D01*
X462209Y120831D01*
D11*
X382265Y55209D02*
X382265Y47752D01*
X378537Y51481D02*
X385994Y51481D01*
X376672Y59446D02*
X376672Y66903D01*
X376672Y59446D02*
X382265Y59446D01*
X380401Y63174D01*
X380401Y65039D01*
X382265Y66903D01*
X385994Y66903D01*
X387858Y65039D01*
X387858Y61310D01*
X385994Y59446D01*
X384130Y71140D02*
X376672Y71140D01*
X384130Y71140D02*
X387858Y74868D01*
X384130Y78597D01*
X376672Y78597D01*
X452872Y47752D02*
X460330Y47752D01*
X464058Y51481D01*
X460330Y55209D01*
X452872Y55209D01*
X464058Y59446D02*
X464058Y63174D01*
X464058Y61310D02*
X452872Y61310D01*
X452872Y59446D02*
X452872Y63174D01*
X452872Y67242D02*
X464058Y67242D01*
X464058Y74699D02*
X452872Y67242D01*
X452872Y74699D02*
X464058Y74699D01*
D12*
X579745Y463657D02*
X591185Y463657D01*
X591185Y469377D01*
X589278Y471284D01*
X581652Y471284D01*
X579745Y469377D01*
X579745Y463657D01*
X591185Y475351D02*
X591185Y482978D01*
X583559Y482978D02*
X591185Y475351D01*
X583559Y482978D02*
X581652Y482978D01*
X579745Y481071D01*
X579745Y477258D01*
X581652Y475351D01*
D11*
X403937Y55209D02*
X402072Y53345D01*
X402072Y49616D01*
X403937Y47752D01*
X411394Y47752D01*
X413258Y49616D01*
X413258Y53345D01*
X411394Y55209D01*
X407665Y55209D01*
X407665Y51481D01*
X413258Y59446D02*
X402072Y59446D01*
X413258Y66903D01*
X402072Y66903D01*
X402072Y71140D02*
X413258Y71140D01*
X413258Y76733D01*
X411394Y78597D01*
X403937Y78597D01*
X402072Y76733D01*
X402072Y71140D01*
X427472Y53345D02*
X429337Y55209D01*
X427472Y53345D02*
X427472Y49616D01*
X429337Y47752D01*
X436794Y47752D01*
X438658Y49616D01*
X438658Y53345D01*
X436794Y55209D01*
X433065Y55209D01*
X433065Y51481D01*
X438658Y59446D02*
X427472Y59446D01*
X438658Y66903D01*
X427472Y66903D01*
X427472Y71140D02*
X438658Y71140D01*
X438658Y76733D01*
X436794Y78597D01*
X429337Y78597D01*
X427472Y76733D01*
X427472Y71140D01*
D12*
X365125Y349680D02*
X366608Y351163D01*
X369574Y351163D01*
X371057Y349680D01*
X371057Y348197D01*
X369574Y346714D01*
X368091Y346714D01*
X369574Y346714D02*
X371057Y345231D01*
X371057Y343748D01*
X369574Y342265D01*
X366608Y342265D01*
X365125Y343748D01*
X374480Y345231D02*
X374480Y351163D01*
X374480Y345231D02*
X377446Y342265D01*
X380412Y345231D01*
X380412Y351163D01*
X383835Y349680D02*
X385318Y351163D01*
X388284Y351163D01*
X389767Y349680D01*
X389767Y348197D01*
X388284Y346714D01*
X386801Y346714D01*
X388284Y346714D02*
X389767Y345231D01*
X389767Y343748D01*
X388284Y342265D01*
X385318Y342265D01*
X383835Y343748D01*
X369574Y325763D02*
X371057Y324280D01*
X369574Y325763D02*
X366608Y325763D01*
X365125Y324280D01*
X365125Y318348D01*
X366608Y316865D01*
X369574Y316865D01*
X371057Y318348D01*
X371057Y321314D01*
X368091Y321314D01*
X374480Y316865D02*
X374480Y325763D01*
X380412Y316865D01*
X380412Y325763D01*
X383835Y325763D02*
X383835Y316865D01*
X388284Y316865D01*
X389767Y318348D01*
X389767Y324280D01*
X388284Y325763D01*
X383835Y325763D01*
X369574Y300363D02*
X371057Y298880D01*
X369574Y300363D02*
X366608Y300363D01*
X365125Y298880D01*
X365125Y297397D01*
X366608Y295914D01*
X369574Y295914D01*
X371057Y294431D01*
X371057Y292948D01*
X369574Y291465D01*
X366608Y291465D01*
X365125Y292948D01*
X378929Y300363D02*
X380412Y298880D01*
X378929Y300363D02*
X375963Y300363D01*
X374480Y298880D01*
X374480Y292948D01*
X375963Y291465D01*
X378929Y291465D01*
X380412Y292948D01*
X383835Y291465D02*
X383835Y300363D01*
X383835Y291465D02*
X389767Y291465D01*
X371057Y273480D02*
X369574Y274963D01*
X366608Y274963D01*
X365125Y273480D01*
X365125Y271997D01*
X366608Y270514D01*
X369574Y270514D01*
X371057Y269031D01*
X371057Y267548D01*
X369574Y266065D01*
X366608Y266065D01*
X365125Y267548D01*
X374480Y266065D02*
X374480Y274963D01*
X374480Y266065D02*
X378929Y266065D01*
X380412Y267548D01*
X380412Y273480D01*
X378929Y274963D01*
X374480Y274963D01*
X383835Y271997D02*
X383835Y266065D01*
X383835Y271997D02*
X386801Y274963D01*
X389767Y271997D01*
X389767Y266065D01*
X389767Y270514D02*
X383835Y270514D01*
D11*
X642615Y358902D02*
X642615Y366359D01*
X638887Y362631D02*
X646344Y362631D01*
X637022Y370596D02*
X637022Y378053D01*
X637022Y370596D02*
X642615Y370596D01*
X640751Y374324D01*
X640751Y376189D01*
X642615Y378053D01*
X646344Y378053D01*
X648208Y376189D01*
X648208Y372460D01*
X646344Y370596D01*
X644480Y382290D02*
X637022Y382290D01*
X644480Y382290D02*
X648208Y386018D01*
X644480Y389747D01*
X637022Y389747D01*
X648208Y248331D02*
X648208Y244602D01*
X648208Y246466D02*
X637022Y246466D01*
X637022Y244602D02*
X637022Y248331D01*
X637022Y252398D02*
X648208Y252398D01*
X648208Y259855D02*
X637022Y252398D01*
X637022Y259855D02*
X648208Y259855D01*
X642615Y264092D02*
X642615Y271549D01*
X648208Y289052D02*
X648208Y292781D01*
X648208Y290916D02*
X637022Y290916D01*
X637022Y289052D02*
X637022Y292781D01*
X637022Y296848D02*
X648208Y296848D01*
X648208Y304305D02*
X637022Y296848D01*
X637022Y304305D02*
X648208Y304305D01*
X642615Y308542D02*
X642615Y315999D01*
X638887Y312270D02*
X646344Y312270D01*
X637022Y408945D02*
X638887Y410809D01*
X637022Y408945D02*
X637022Y405216D01*
X638887Y403352D01*
X646344Y403352D01*
X648208Y405216D01*
X648208Y408945D01*
X646344Y410809D01*
X642615Y410809D01*
X642615Y407081D01*
X648208Y415046D02*
X637022Y415046D01*
X648208Y422503D01*
X637022Y422503D01*
X637022Y426740D02*
X648208Y426740D01*
X648208Y432333D01*
X646344Y434197D01*
X638887Y434197D01*
X637022Y432333D01*
X637022Y426740D01*
D12*
X66257Y257814D02*
X60325Y257814D01*
X63291Y260780D02*
X63291Y254848D01*
X40857Y257814D02*
X34925Y257814D01*
D14*
X22994Y54360D02*
X16892Y54360D01*
X19943Y57411D02*
X19943Y51309D01*
X26248Y58936D02*
X32349Y58936D01*
X26248Y58936D02*
X26248Y54360D01*
X29298Y55885D01*
X30824Y55885D01*
X32349Y54360D01*
X32349Y51309D01*
X30824Y49784D01*
X27773Y49784D01*
X26248Y51309D01*
X35603Y52835D02*
X35603Y58936D01*
X35603Y52835D02*
X38653Y49784D01*
X41704Y52835D01*
X41704Y58936D01*
X22994Y82811D02*
X21468Y84336D01*
X18418Y84336D01*
X16892Y82811D01*
X16892Y76709D01*
X18418Y75184D01*
X21468Y75184D01*
X22994Y76709D01*
X22994Y79760D01*
X19943Y79760D01*
X26248Y75184D02*
X26248Y84336D01*
X32349Y75184D01*
X32349Y84336D01*
X35603Y84336D02*
X35603Y75184D01*
X40179Y75184D01*
X41704Y76709D01*
X41704Y82811D01*
X40179Y84336D01*
X35603Y84336D01*
X26248Y100584D02*
X26248Y106685D01*
X29298Y109736D01*
X32349Y106685D01*
X32349Y100584D01*
X32349Y105160D02*
X26248Y105160D01*
X35603Y102109D02*
X35603Y108211D01*
X37128Y109736D01*
X40179Y109736D01*
X41704Y108211D01*
X41704Y102109D01*
X40179Y100584D01*
X37128Y100584D01*
X35603Y102109D01*
X41704Y108211D01*
X22994Y146311D02*
X21468Y147836D01*
X18418Y147836D01*
X16892Y146311D01*
X16892Y144785D01*
X18418Y143260D01*
X21468Y143260D01*
X22994Y141735D01*
X22994Y140209D01*
X21468Y138684D01*
X18418Y138684D01*
X16892Y140209D01*
X26248Y138684D02*
X26248Y147836D01*
X30824Y147836D01*
X32349Y146311D01*
X32349Y143260D01*
X30824Y141735D01*
X26248Y141735D01*
X29298Y141735D02*
X32349Y138684D01*
X35603Y141735D02*
X35603Y147836D01*
X35603Y141735D02*
X38653Y138684D01*
X41704Y141735D01*
X41704Y147836D01*
X22994Y168660D02*
X16892Y168660D01*
X19943Y171711D02*
X19943Y165609D01*
X26248Y173236D02*
X32349Y173236D01*
X26248Y173236D02*
X26248Y168660D01*
X29298Y170185D01*
X30824Y170185D01*
X32349Y168660D01*
X32349Y165609D01*
X30824Y164084D01*
X27773Y164084D01*
X26248Y165609D01*
X35603Y167135D02*
X35603Y173236D01*
X35603Y167135D02*
X38653Y164084D01*
X41704Y167135D01*
X41704Y173236D01*
X22994Y197111D02*
X21468Y198636D01*
X18418Y198636D01*
X16892Y197111D01*
X16892Y191009D01*
X18418Y189484D01*
X21468Y189484D01*
X22994Y191009D01*
X22994Y194060D01*
X19943Y194060D01*
X26248Y189484D02*
X26248Y198636D01*
X32349Y189484D01*
X32349Y198636D01*
X35603Y198636D02*
X35603Y189484D01*
X40179Y189484D01*
X41704Y191009D01*
X41704Y197111D01*
X40179Y198636D01*
X35603Y198636D01*
X22994Y349511D02*
X21468Y351036D01*
X18418Y351036D01*
X16892Y349511D01*
X16892Y343409D01*
X18418Y341884D01*
X21468Y341884D01*
X22994Y343409D01*
X22994Y346460D01*
X19943Y346460D01*
X26248Y341884D02*
X26248Y351036D01*
X32349Y341884D01*
X32349Y351036D01*
X35603Y351036D02*
X35603Y341884D01*
X40179Y341884D01*
X41704Y343409D01*
X41704Y349511D01*
X40179Y351036D01*
X35603Y351036D01*
X22994Y401836D02*
X16892Y401836D01*
X16892Y392684D01*
X22994Y392684D01*
X19943Y397260D02*
X16892Y397260D01*
X30824Y401836D02*
X32349Y400311D01*
X30824Y401836D02*
X27773Y401836D01*
X26248Y400311D01*
X26248Y394209D01*
X27773Y392684D01*
X30824Y392684D01*
X32349Y394209D01*
X35603Y392684D02*
X41704Y392684D01*
X35603Y392684D02*
X41704Y398785D01*
X41704Y400311D01*
X40179Y401836D01*
X37128Y401836D01*
X35603Y400311D01*
X22994Y422660D02*
X16892Y422660D01*
X19943Y425711D02*
X19943Y419609D01*
X26248Y427236D02*
X32349Y427236D01*
X26248Y427236D02*
X26248Y422660D01*
X29298Y424185D01*
X30824Y424185D01*
X32349Y422660D01*
X32349Y419609D01*
X30824Y418084D01*
X27773Y418084D01*
X26248Y419609D01*
X35603Y421135D02*
X35603Y427236D01*
X35603Y421135D02*
X38653Y418084D01*
X41704Y421135D01*
X41704Y427236D01*
X597861Y75184D02*
X600911Y75184D01*
X599386Y75184D02*
X599386Y84336D01*
X597861Y84336D02*
X600911Y84336D01*
X604098Y84336D02*
X604098Y75184D01*
X610199Y75184D02*
X604098Y84336D01*
X610199Y84336D02*
X610199Y75184D01*
X618029Y75184D02*
X618029Y84336D01*
X613453Y79760D01*
X619554Y79760D01*
X600911Y100584D02*
X597861Y100584D01*
X599386Y100584D02*
X599386Y109736D01*
X597861Y109736D02*
X600911Y109736D01*
X604098Y109736D02*
X604098Y100584D01*
X610199Y100584D02*
X604098Y109736D01*
X610199Y109736D02*
X610199Y100584D01*
X613453Y108211D02*
X614978Y109736D01*
X618029Y109736D01*
X619554Y108211D01*
X619554Y106685D01*
X618029Y105160D01*
X616503Y105160D01*
X618029Y105160D02*
X619554Y103635D01*
X619554Y102109D01*
X618029Y100584D01*
X614978Y100584D01*
X613453Y102109D01*
X600911Y125984D02*
X597861Y125984D01*
X599386Y125984D02*
X599386Y135136D01*
X597861Y135136D02*
X600911Y135136D01*
X604098Y135136D02*
X604098Y125984D01*
X610199Y125984D02*
X604098Y135136D01*
X610199Y135136D02*
X610199Y125984D01*
X613453Y125984D02*
X619554Y125984D01*
X613453Y125984D02*
X619554Y132085D01*
X619554Y133611D01*
X618029Y135136D01*
X614978Y135136D01*
X613453Y133611D01*
X600911Y151384D02*
X597861Y151384D01*
X599386Y151384D02*
X599386Y160536D01*
X597861Y160536D02*
X600911Y160536D01*
X604098Y160536D02*
X604098Y151384D01*
X610199Y151384D02*
X604098Y160536D01*
X610199Y160536D02*
X610199Y151384D01*
X613453Y157485D02*
X616503Y160536D01*
X616503Y151384D01*
X613453Y151384D02*
X619554Y151384D01*
X155190Y16644D02*
X155190Y10542D01*
X152140Y13593D02*
X158241Y13593D01*
X150614Y19898D02*
X150614Y25999D01*
X150614Y19898D02*
X155190Y19898D01*
X153665Y22948D01*
X153665Y24474D01*
X155190Y25999D01*
X158241Y25999D01*
X159766Y24474D01*
X159766Y21423D01*
X158241Y19898D01*
X156715Y29253D02*
X150614Y29253D01*
X156715Y29253D02*
X159766Y32303D01*
X156715Y35354D01*
X150614Y35354D01*
X176014Y16644D02*
X176014Y10542D01*
X185166Y10542D01*
X185166Y16644D01*
X180590Y13593D02*
X180590Y10542D01*
X176014Y24474D02*
X177540Y25999D01*
X176014Y24474D02*
X176014Y21423D01*
X177540Y19898D01*
X183641Y19898D01*
X185166Y21423D01*
X185166Y24474D01*
X183641Y25999D01*
X179065Y29253D02*
X176014Y32303D01*
X185166Y32303D01*
X185166Y29253D02*
X185166Y35354D01*
X226814Y15118D02*
X228340Y16644D01*
X226814Y15118D02*
X226814Y12068D01*
X228340Y10542D01*
X234441Y10542D01*
X235966Y12068D01*
X235966Y15118D01*
X234441Y16644D01*
X231390Y16644D01*
X231390Y13593D01*
X235966Y19898D02*
X226814Y19898D01*
X235966Y25999D01*
X226814Y25999D01*
X226814Y29253D02*
X235966Y29253D01*
X235966Y33829D01*
X234441Y35354D01*
X228340Y35354D01*
X226814Y33829D01*
X226814Y29253D01*
D12*
X33655Y462664D02*
X33655Y465630D01*
X33655Y464147D02*
X24757Y464147D01*
X24757Y462664D02*
X24757Y465630D01*
X24757Y468901D02*
X33655Y468901D01*
X33655Y474832D02*
X24757Y468901D01*
X24757Y474832D02*
X33655Y474832D01*
X27723Y478256D02*
X24757Y481222D01*
X33655Y481222D01*
X33655Y478256D02*
X33655Y484188D01*
X29206Y487611D02*
X29206Y493543D01*
X32172Y496966D02*
X26240Y496966D01*
X24757Y498449D01*
X24757Y501415D01*
X26240Y502898D01*
X32172Y502898D01*
X33655Y501415D01*
X33655Y498449D01*
X32172Y496966D01*
X26240Y502898D01*
X26240Y506321D02*
X24757Y507804D01*
X24757Y510770D01*
X26240Y512253D01*
X27723Y512253D01*
X29206Y510770D01*
X29206Y509287D01*
X29206Y510770D02*
X30689Y512253D01*
X32172Y512253D01*
X33655Y510770D01*
X33655Y507804D01*
X32172Y506321D01*
X48895Y465630D02*
X48895Y462664D01*
X48895Y464147D02*
X39997Y464147D01*
X39997Y462664D02*
X39997Y465630D01*
X39997Y468901D02*
X48895Y468901D01*
X48895Y474832D02*
X39997Y468901D01*
X39997Y474832D02*
X48895Y474832D01*
X48895Y478256D02*
X48895Y484188D01*
X48895Y478256D02*
X42963Y484188D01*
X41480Y484188D01*
X39997Y482705D01*
X39997Y479739D01*
X41480Y478256D01*
X44446Y487611D02*
X44446Y493543D01*
X47412Y496966D02*
X41480Y496966D01*
X39997Y498449D01*
X39997Y501415D01*
X41480Y502898D01*
X47412Y502898D01*
X48895Y501415D01*
X48895Y498449D01*
X47412Y496966D01*
X41480Y502898D01*
X42963Y506321D02*
X39997Y509287D01*
X48895Y509287D01*
X48895Y506321D02*
X48895Y512253D01*
X64135Y465630D02*
X64135Y462664D01*
X64135Y464147D02*
X55237Y464147D01*
X55237Y462664D02*
X55237Y465630D01*
X55237Y468901D02*
X64135Y468901D01*
X64135Y474832D02*
X55237Y468901D01*
X55237Y474832D02*
X64135Y474832D01*
X56720Y478256D02*
X55237Y479739D01*
X55237Y482705D01*
X56720Y484188D01*
X58203Y484188D01*
X59686Y482705D01*
X59686Y481222D01*
X59686Y482705D02*
X61169Y484188D01*
X62652Y484188D01*
X64135Y482705D01*
X64135Y479739D01*
X62652Y478256D01*
X59686Y487611D02*
X59686Y493543D01*
X58203Y496966D02*
X55237Y499932D01*
X64135Y499932D01*
X64135Y496966D02*
X64135Y502898D01*
X56720Y509287D02*
X55237Y512253D01*
X56720Y509287D02*
X59686Y506321D01*
X62652Y506321D01*
X64135Y507804D01*
X64135Y510770D01*
X62652Y512253D01*
X61169Y512253D01*
X59686Y510770D01*
X59686Y506321D01*
X79375Y465630D02*
X79375Y462664D01*
X79375Y464147D02*
X70477Y464147D01*
X70477Y462664D02*
X70477Y465630D01*
X70477Y468901D02*
X79375Y468901D01*
X79375Y474832D02*
X70477Y468901D01*
X70477Y474832D02*
X79375Y474832D01*
X79375Y482705D02*
X70477Y482705D01*
X74926Y478256D01*
X74926Y484188D01*
X74926Y487611D02*
X74926Y493543D01*
X73443Y496966D02*
X70477Y499932D01*
X79375Y499932D01*
X79375Y496966D02*
X79375Y502898D01*
X71960Y506321D02*
X70477Y507804D01*
X70477Y510770D01*
X71960Y512253D01*
X73443Y512253D01*
X74926Y510770D01*
X74926Y509287D01*
X74926Y510770D02*
X76409Y512253D01*
X77892Y512253D01*
X79375Y510770D01*
X79375Y507804D01*
X77892Y506321D01*
X87200Y468596D02*
X85717Y467113D01*
X85717Y464147D01*
X87200Y462664D01*
X88683Y462664D01*
X90166Y464147D01*
X90166Y467113D01*
X91649Y468596D01*
X93132Y468596D01*
X94615Y467113D01*
X94615Y464147D01*
X93132Y462664D01*
X94615Y472019D02*
X85717Y472019D01*
X85717Y476468D01*
X87200Y477951D01*
X90166Y477951D01*
X91649Y476468D01*
X91649Y472019D01*
X91649Y474985D02*
X94615Y477951D01*
X91649Y481374D02*
X85717Y481374D01*
X91649Y481374D02*
X94615Y484340D01*
X91649Y487306D01*
X85717Y487306D01*
X90166Y490729D02*
X90166Y496661D01*
X93132Y500085D02*
X87200Y500085D01*
X85717Y501568D01*
X85717Y504533D01*
X87200Y506016D01*
X93132Y506016D01*
X94615Y504533D01*
X94615Y501568D01*
X93132Y500085D01*
X87200Y506016D01*
X87200Y509440D02*
X93132Y509440D01*
X87200Y509440D02*
X85717Y510923D01*
X85717Y513889D01*
X87200Y515372D01*
X93132Y515372D01*
X94615Y513889D01*
X94615Y510923D01*
X93132Y509440D01*
X87200Y515372D01*
X100957Y468596D02*
X100957Y462664D01*
X109855Y462664D01*
X109855Y468596D01*
X105406Y465630D02*
X105406Y462664D01*
X100957Y476468D02*
X102440Y477951D01*
X100957Y476468D02*
X100957Y473502D01*
X102440Y472019D01*
X108372Y472019D01*
X109855Y473502D01*
X109855Y476468D01*
X108372Y477951D01*
X103923Y481374D02*
X100957Y484340D01*
X109855Y484340D01*
X109855Y481374D02*
X109855Y487306D01*
X105406Y490729D02*
X105406Y496661D01*
X103923Y500085D02*
X100957Y503050D01*
X109855Y503050D01*
X109855Y500085D02*
X109855Y506016D01*
X109855Y509440D02*
X109855Y515372D01*
X109855Y509440D02*
X103923Y515372D01*
X102440Y515372D01*
X100957Y513889D01*
X100957Y510923D01*
X102440Y509440D01*
X116197Y468596D02*
X116197Y462664D01*
X125095Y462664D01*
X125095Y468596D01*
X120646Y465630D02*
X120646Y462664D01*
X116197Y476468D02*
X117680Y477951D01*
X116197Y476468D02*
X116197Y473502D01*
X117680Y472019D01*
X123612Y472019D01*
X125095Y473502D01*
X125095Y476468D01*
X123612Y477951D01*
X125095Y481374D02*
X125095Y487306D01*
X125095Y481374D02*
X119163Y487306D01*
X117680Y487306D01*
X116197Y485823D01*
X116197Y482857D01*
X117680Y481374D01*
X120646Y490729D02*
X120646Y496661D01*
X119163Y500085D02*
X116197Y503050D01*
X125095Y503050D01*
X125095Y500085D02*
X125095Y506016D01*
X125095Y513889D02*
X116197Y513889D01*
X120646Y509440D01*
X120646Y515372D01*
X131437Y462664D02*
X140335Y462664D01*
X140335Y468596D01*
X131437Y472019D02*
X131437Y477951D01*
X131437Y472019D02*
X140335Y472019D01*
X140335Y477951D01*
X135886Y474985D02*
X135886Y472019D01*
X131437Y481374D02*
X140335Y481374D01*
X140335Y485823D01*
X138852Y487306D01*
X132920Y487306D01*
X131437Y485823D01*
X131437Y481374D01*
X135886Y490729D02*
X135886Y496661D01*
X138852Y500085D02*
X132920Y500085D01*
X131437Y501568D01*
X131437Y504533D01*
X132920Y506016D01*
X138852Y506016D01*
X140335Y504533D01*
X140335Y501568D01*
X138852Y500085D01*
X132920Y506016D01*
X140335Y509440D02*
X140335Y515372D01*
X140335Y509440D02*
X134403Y515372D01*
X132920Y515372D01*
X131437Y513889D01*
X131437Y510923D01*
X132920Y509440D01*
X148160Y468596D02*
X146677Y467113D01*
X146677Y464147D01*
X148160Y462664D01*
X149643Y462664D01*
X151126Y464147D01*
X151126Y467113D01*
X152609Y468596D01*
X154092Y468596D01*
X155575Y467113D01*
X155575Y464147D01*
X154092Y462664D01*
X155575Y472019D02*
X146677Y472019D01*
X146677Y476468D01*
X148160Y477951D01*
X151126Y477951D01*
X152609Y476468D01*
X152609Y472019D01*
X152609Y474985D02*
X155575Y477951D01*
X155575Y481374D02*
X146677Y481374D01*
X146677Y485823D01*
X148160Y487306D01*
X151126Y487306D01*
X152609Y485823D01*
X152609Y481374D01*
X151126Y490729D02*
X151126Y496661D01*
X149643Y500085D02*
X155575Y500085D01*
X149643Y500085D02*
X146677Y503050D01*
X149643Y506016D01*
X155575Y506016D01*
X151126Y506016D02*
X151126Y500085D01*
X154092Y509440D02*
X148160Y509440D01*
X146677Y510923D01*
X146677Y513889D01*
X148160Y515372D01*
X154092Y515372D01*
X155575Y513889D01*
X155575Y510923D01*
X154092Y509440D01*
X148160Y515372D01*
D11*
X165100Y457200D02*
X12700Y457200D01*
X165100Y457200D02*
X165100Y520700D01*
X12700Y520700D02*
X12700Y457200D01*
X12700Y520700D02*
X165100Y520700D01*
D12*
X391787Y353908D02*
X393270Y352425D01*
X391787Y353908D02*
X391787Y356874D01*
X393270Y358357D01*
X394753Y358357D01*
X396236Y356874D01*
X396236Y355391D01*
X396236Y356874D02*
X397719Y358357D01*
X399202Y358357D01*
X400685Y356874D01*
X400685Y353908D01*
X399202Y352425D01*
X397719Y361780D02*
X391787Y361780D01*
X397719Y361780D02*
X400685Y364746D01*
X397719Y367712D01*
X391787Y367712D01*
X393270Y371135D02*
X391787Y372618D01*
X391787Y375584D01*
X393270Y377067D01*
X394753Y377067D01*
X396236Y375584D01*
X396236Y374101D01*
X396236Y375584D02*
X397719Y377067D01*
X399202Y377067D01*
X400685Y375584D01*
X400685Y372618D01*
X399202Y371135D01*
X417187Y356874D02*
X418670Y358357D01*
X417187Y356874D02*
X417187Y353908D01*
X418670Y352425D01*
X424602Y352425D01*
X426085Y353908D01*
X426085Y356874D01*
X424602Y358357D01*
X421636Y358357D01*
X421636Y355391D01*
X426085Y361780D02*
X417187Y361780D01*
X426085Y367712D01*
X417187Y367712D01*
X417187Y371135D02*
X426085Y371135D01*
X426085Y375584D01*
X424602Y377067D01*
X418670Y377067D01*
X417187Y375584D01*
X417187Y371135D01*
X442587Y356874D02*
X444070Y358357D01*
X442587Y356874D02*
X442587Y353908D01*
X444070Y352425D01*
X445553Y352425D01*
X447036Y353908D01*
X447036Y356874D01*
X448519Y358357D01*
X450002Y358357D01*
X451485Y356874D01*
X451485Y353908D01*
X450002Y352425D01*
X442587Y366229D02*
X444070Y367712D01*
X442587Y366229D02*
X442587Y363263D01*
X444070Y361780D01*
X450002Y361780D01*
X451485Y363263D01*
X451485Y366229D01*
X450002Y367712D01*
X451485Y371135D02*
X442587Y371135D01*
X451485Y371135D02*
X451485Y377067D01*
X469470Y358357D02*
X467987Y356874D01*
X467987Y353908D01*
X469470Y352425D01*
X470953Y352425D01*
X472436Y353908D01*
X472436Y356874D01*
X473919Y358357D01*
X475402Y358357D01*
X476885Y356874D01*
X476885Y353908D01*
X475402Y352425D01*
X476885Y361780D02*
X467987Y361780D01*
X476885Y361780D02*
X476885Y366229D01*
X475402Y367712D01*
X469470Y367712D01*
X467987Y366229D01*
X467987Y361780D01*
X470953Y371135D02*
X476885Y371135D01*
X470953Y371135D02*
X467987Y374101D01*
X470953Y377067D01*
X476885Y377067D01*
X472436Y377067D02*
X472436Y371135D01*
D11*
X378460Y514350D02*
X384810Y520700D01*
X397510Y520700D01*
X403860Y514350D01*
X403860Y501650D01*
X397510Y495300D01*
X384810Y495300D01*
X378460Y501650D01*
X346710Y520700D02*
X334010Y520700D01*
X346710Y520700D02*
X353060Y514350D01*
X353060Y501650D01*
X346710Y495300D01*
X353060Y514350D02*
X359410Y520700D01*
X372110Y520700D01*
X378460Y514350D01*
X378460Y501650D01*
X372110Y495300D01*
X359410Y495300D01*
X353060Y501650D01*
X308610Y520700D02*
X302260Y514350D01*
X308610Y520700D02*
X321310Y520700D01*
X327660Y514350D01*
X327660Y501650D01*
X321310Y495300D01*
X308610Y495300D01*
X302260Y501650D01*
X327660Y514350D02*
X334010Y520700D01*
X327660Y501650D02*
X334010Y495300D01*
X346710Y495300D01*
X270510Y520700D02*
X257810Y520700D01*
X270510Y520700D02*
X276860Y514350D01*
X276860Y501650D01*
X270510Y495300D01*
X276860Y514350D02*
X283210Y520700D01*
X295910Y520700D01*
X302260Y514350D01*
X302260Y501650D01*
X295910Y495300D01*
X283210Y495300D01*
X276860Y501650D01*
X232410Y520700D02*
X226060Y514350D01*
X232410Y520700D02*
X245110Y520700D01*
X251460Y514350D01*
X251460Y501650D01*
X245110Y495300D01*
X232410Y495300D01*
X226060Y501650D01*
X251460Y514350D02*
X257810Y520700D01*
X251460Y501650D02*
X257810Y495300D01*
X270510Y495300D01*
X194310Y520700D02*
X181610Y520700D01*
X194310Y520700D02*
X200660Y514350D01*
X200660Y501650D01*
X194310Y495300D01*
X200660Y514350D02*
X207010Y520700D01*
X219710Y520700D01*
X226060Y514350D01*
X226060Y501650D01*
X219710Y495300D01*
X207010Y495300D01*
X200660Y501650D01*
X175260Y501650D02*
X175260Y514350D01*
X181610Y520700D01*
X175260Y501650D02*
X181610Y495300D01*
X194310Y495300D01*
X410210Y520700D02*
X422910Y520700D01*
X429260Y514350D01*
X429260Y501650D01*
X422910Y495300D01*
X403860Y514350D02*
X410210Y520700D01*
X403860Y501650D02*
X410210Y495300D01*
X422910Y495300D01*
X425704Y38100D02*
X438404Y38100D01*
X444754Y31750D01*
X444754Y19050D01*
X438404Y12700D01*
X400304Y38100D02*
X393954Y31750D01*
X400304Y38100D02*
X413004Y38100D01*
X419354Y31750D01*
X419354Y19050D01*
X413004Y12700D01*
X400304Y12700D01*
X393954Y19050D01*
X419354Y31750D02*
X425704Y38100D01*
X419354Y19050D02*
X425704Y12700D01*
X438404Y12700D01*
X362204Y38100D02*
X349504Y38100D01*
X362204Y38100D02*
X368554Y31750D01*
X368554Y19050D01*
X362204Y12700D01*
X368554Y31750D02*
X374904Y38100D01*
X387604Y38100D01*
X393954Y31750D01*
X393954Y19050D01*
X387604Y12700D01*
X374904Y12700D01*
X368554Y19050D01*
X324104Y38100D02*
X317754Y31750D01*
X324104Y38100D02*
X336804Y38100D01*
X343154Y31750D01*
X343154Y19050D01*
X336804Y12700D01*
X324104Y12700D01*
X317754Y19050D01*
X343154Y31750D02*
X349504Y38100D01*
X343154Y19050D02*
X349504Y12700D01*
X362204Y12700D01*
X286004Y38100D02*
X273304Y38100D01*
X286004Y38100D02*
X292354Y31750D01*
X292354Y19050D01*
X286004Y12700D01*
X292354Y31750D02*
X298704Y38100D01*
X311404Y38100D01*
X317754Y31750D01*
X317754Y19050D01*
X311404Y12700D01*
X298704Y12700D01*
X292354Y19050D01*
X266954Y19050D02*
X266954Y31750D01*
X273304Y38100D01*
X266954Y19050D02*
X273304Y12700D01*
X286004Y12700D01*
X451104Y38100D02*
X463804Y38100D01*
X470154Y31750D01*
X470154Y19050D01*
X463804Y12700D01*
X444754Y31750D02*
X451104Y38100D01*
X444754Y19050D02*
X451104Y12700D01*
X463804Y12700D01*
X603250Y520700D02*
X615950Y520700D01*
X622300Y514350D01*
X622300Y501650D01*
X615950Y495300D01*
X577850Y520700D02*
X571500Y514350D01*
X577850Y520700D02*
X590550Y520700D01*
X596900Y514350D01*
X596900Y501650D01*
X590550Y495300D01*
X577850Y495300D01*
X571500Y501650D01*
X596900Y514350D02*
X603250Y520700D01*
X596900Y501650D02*
X603250Y495300D01*
X615950Y495300D01*
X539750Y520700D02*
X527050Y520700D01*
X539750Y520700D02*
X546100Y514350D01*
X546100Y501650D01*
X539750Y495300D01*
X546100Y514350D02*
X552450Y520700D01*
X565150Y520700D01*
X571500Y514350D01*
X571500Y501650D01*
X565150Y495300D01*
X552450Y495300D01*
X546100Y501650D01*
X501650Y520700D02*
X495300Y514350D01*
X501650Y520700D02*
X514350Y520700D01*
X520700Y514350D01*
X520700Y501650D01*
X514350Y495300D01*
X501650Y495300D01*
X495300Y501650D01*
X520700Y514350D02*
X527050Y520700D01*
X520700Y501650D02*
X527050Y495300D01*
X539750Y495300D01*
X463550Y520700D02*
X450850Y520700D01*
X463550Y520700D02*
X469900Y514350D01*
X469900Y501650D01*
X463550Y495300D01*
X469900Y514350D02*
X476250Y520700D01*
X488950Y520700D01*
X495300Y514350D01*
X495300Y501650D01*
X488950Y495300D01*
X476250Y495300D01*
X469900Y501650D01*
X444500Y501650D02*
X444500Y514350D01*
X450850Y520700D01*
X444500Y501650D02*
X450850Y495300D01*
X463550Y495300D01*
X628650Y520700D02*
X641350Y520700D01*
X647700Y514350D01*
X647700Y501650D01*
X641350Y495300D01*
X622300Y514350D02*
X628650Y520700D01*
X622300Y501650D02*
X628650Y495300D01*
X641350Y495300D01*
X590550Y37846D02*
X577850Y37846D01*
X590550Y37846D02*
X596900Y31496D01*
X596900Y18796D01*
X590550Y12446D01*
X596900Y31496D02*
X603250Y37846D01*
X615950Y37846D01*
X622300Y31496D01*
X622300Y18796D01*
X615950Y12446D01*
X603250Y12446D01*
X596900Y18796D01*
X552450Y37846D02*
X546100Y31496D01*
X552450Y37846D02*
X565150Y37846D01*
X571500Y31496D01*
X571500Y18796D01*
X565150Y12446D01*
X552450Y12446D01*
X546100Y18796D01*
X571500Y31496D02*
X577850Y37846D01*
X571500Y18796D02*
X577850Y12446D01*
X590550Y12446D01*
X514350Y37846D02*
X501650Y37846D01*
X514350Y37846D02*
X520700Y31496D01*
X520700Y18796D01*
X514350Y12446D01*
X520700Y31496D02*
X527050Y37846D01*
X539750Y37846D01*
X546100Y31496D01*
X546100Y18796D01*
X539750Y12446D01*
X527050Y12446D01*
X520700Y18796D01*
X495300Y18796D02*
X495300Y31496D01*
X501650Y37846D01*
X495300Y18796D02*
X501650Y12446D01*
X514350Y12446D01*
X628650Y37846D02*
X641350Y37846D01*
X647700Y31496D01*
X647700Y18796D01*
X641350Y12446D01*
X622300Y31496D02*
X628650Y37846D01*
X622300Y18796D02*
X628650Y12446D01*
X641350Y12446D01*
X262890Y175514D02*
X250190Y175514D01*
X262890Y175514D02*
X269240Y169164D01*
X269240Y156464D01*
X262890Y150114D01*
X269240Y169164D02*
X275590Y175514D01*
X288290Y175514D01*
X294640Y169164D01*
X294640Y156464D01*
X288290Y150114D01*
X275590Y150114D01*
X269240Y156464D01*
X224790Y175514D02*
X218440Y169164D01*
X224790Y175514D02*
X237490Y175514D01*
X243840Y169164D01*
X243840Y156464D01*
X237490Y150114D01*
X224790Y150114D01*
X218440Y156464D01*
X243840Y169164D02*
X250190Y175514D01*
X243840Y156464D02*
X250190Y150114D01*
X262890Y150114D01*
X186690Y175514D02*
X173990Y175514D01*
X186690Y175514D02*
X193040Y169164D01*
X193040Y156464D01*
X186690Y150114D01*
X193040Y169164D02*
X199390Y175514D01*
X212090Y175514D01*
X218440Y169164D01*
X218440Y156464D01*
X212090Y150114D01*
X199390Y150114D01*
X193040Y156464D01*
X167640Y156464D02*
X167640Y169164D01*
X173990Y175514D01*
X167640Y156464D02*
X173990Y150114D01*
X186690Y150114D01*
X300990Y175514D02*
X313690Y175514D01*
X320040Y169164D01*
X320040Y156464D01*
X313690Y150114D01*
X294640Y169164D02*
X300990Y175514D01*
X294640Y156464D02*
X300990Y150114D01*
X313690Y150114D01*
D12*
X167513Y181737D02*
X167513Y193177D01*
X167513Y181737D02*
X175140Y181737D01*
X179207Y181737D02*
X179207Y193177D01*
X179207Y181737D02*
X186833Y181737D01*
X190901Y187457D02*
X198527Y187457D01*
X202595Y183644D02*
X202595Y191270D01*
X204502Y193177D01*
X208315Y193177D01*
X210221Y191270D01*
X210221Y183644D01*
X208315Y181737D01*
X204502Y181737D01*
X202595Y183644D01*
X210221Y191270D01*
X214289Y189364D02*
X218102Y193177D01*
X218102Y181737D01*
X214289Y181737D02*
X221915Y181737D01*
X225983Y187457D02*
X233609Y187457D01*
X237677Y181737D02*
X237677Y193177D01*
X237677Y187457D02*
X245303Y187457D01*
X245303Y193177D02*
X245303Y181737D01*
X249371Y185550D02*
X249371Y193177D01*
X249371Y185550D02*
X253184Y181737D01*
X256997Y185550D01*
X256997Y193177D01*
D11*
X262890Y278130D02*
X250190Y278130D01*
X262890Y278130D02*
X269240Y271780D01*
X269240Y259080D01*
X262890Y252730D01*
X269240Y271780D02*
X275590Y278130D01*
X288290Y278130D01*
X294640Y271780D01*
X294640Y259080D01*
X288290Y252730D01*
X275590Y252730D01*
X269240Y259080D01*
X224790Y278130D02*
X218440Y271780D01*
X224790Y278130D02*
X237490Y278130D01*
X243840Y271780D01*
X243840Y259080D01*
X237490Y252730D01*
X224790Y252730D01*
X218440Y259080D01*
X243840Y271780D02*
X250190Y278130D01*
X243840Y259080D02*
X250190Y252730D01*
X262890Y252730D01*
X186690Y278130D02*
X173990Y278130D01*
X186690Y278130D02*
X193040Y271780D01*
X193040Y259080D01*
X186690Y252730D01*
X193040Y271780D02*
X199390Y278130D01*
X212090Y278130D01*
X218440Y271780D01*
X218440Y259080D01*
X212090Y252730D01*
X199390Y252730D01*
X193040Y259080D01*
X167640Y259080D02*
X167640Y271780D01*
X173990Y278130D01*
X167640Y259080D02*
X173990Y252730D01*
X186690Y252730D01*
X300990Y278130D02*
X313690Y278130D01*
X320040Y271780D01*
X320040Y259080D01*
X313690Y252730D01*
X294640Y271780D02*
X300990Y278130D01*
X294640Y259080D02*
X300990Y252730D01*
X313690Y252730D01*
D12*
X167513Y244993D02*
X167513Y233553D01*
X175140Y233553D01*
X179207Y233553D02*
X179207Y244993D01*
X179207Y233553D02*
X186833Y233553D01*
X190901Y239273D02*
X198527Y239273D01*
X202595Y235460D02*
X202595Y243086D01*
X204502Y244993D01*
X208315Y244993D01*
X210221Y243086D01*
X210221Y235460D01*
X208315Y233553D01*
X204502Y233553D01*
X202595Y235460D01*
X210221Y243086D01*
X214289Y241180D02*
X218102Y244993D01*
X218102Y233553D01*
X214289Y233553D02*
X221915Y233553D01*
X225983Y239273D02*
X233609Y239273D01*
X237677Y244993D02*
X237677Y233553D01*
X245303Y233553D01*
X249371Y237366D02*
X249371Y244993D01*
X249371Y237366D02*
X253184Y233553D01*
X256997Y237366D01*
X256997Y244993D01*
D11*
X334264Y315722D02*
X334264Y328422D01*
X340614Y334772D01*
X353314Y334772D01*
X359664Y328422D01*
X334264Y290322D02*
X340614Y283972D01*
X334264Y290322D02*
X334264Y303022D01*
X340614Y309372D01*
X353314Y309372D01*
X359664Y303022D01*
X359664Y290322D01*
X353314Y283972D01*
X340614Y309372D02*
X334264Y315722D01*
X353314Y309372D02*
X359664Y315722D01*
X359664Y328422D01*
X334264Y252222D02*
X334264Y239522D01*
X334264Y252222D02*
X340614Y258572D01*
X353314Y258572D01*
X359664Y252222D01*
X340614Y258572D02*
X334264Y264922D01*
X334264Y277622D01*
X340614Y283972D01*
X353314Y283972D01*
X359664Y277622D01*
X359664Y264922D01*
X353314Y258572D01*
X334264Y214122D02*
X340614Y207772D01*
X334264Y214122D02*
X334264Y226822D01*
X340614Y233172D01*
X353314Y233172D01*
X359664Y226822D01*
X359664Y214122D01*
X353314Y207772D01*
X340614Y233172D02*
X334264Y239522D01*
X353314Y233172D02*
X359664Y239522D01*
X359664Y252222D01*
X334264Y176022D02*
X334264Y163322D01*
X334264Y176022D02*
X340614Y182372D01*
X353314Y182372D01*
X359664Y176022D01*
X340614Y182372D02*
X334264Y188722D01*
X334264Y201422D01*
X340614Y207772D01*
X353314Y207772D01*
X359664Y201422D01*
X359664Y188722D01*
X353314Y182372D01*
X353314Y156972D02*
X340614Y156972D01*
X334264Y163322D01*
X353314Y156972D02*
X359664Y163322D01*
X359664Y176022D01*
X334264Y341122D02*
X334264Y353822D01*
X340614Y360172D01*
X353314Y360172D01*
X359664Y353822D01*
X340614Y334772D02*
X334264Y341122D01*
X353314Y334772D02*
X359664Y341122D01*
X359664Y353822D01*
D12*
X367401Y156845D02*
X378841Y156845D01*
X371215Y160658D02*
X367401Y156845D01*
X371215Y160658D02*
X367401Y164472D01*
X378841Y164472D01*
X378841Y168539D02*
X367401Y168539D01*
X367401Y174259D01*
X369308Y176165D01*
X373121Y176165D01*
X375028Y174259D01*
X375028Y168539D01*
X376934Y180233D02*
X367401Y180233D01*
X376934Y180233D02*
X378841Y182140D01*
X378841Y185953D01*
X376934Y187859D01*
X367401Y187859D01*
X369308Y195740D02*
X367401Y199553D01*
X369308Y195740D02*
X373121Y191927D01*
X376934Y191927D01*
X378841Y193834D01*
X378841Y197647D01*
X376934Y199553D01*
X375028Y199553D01*
X373121Y197647D01*
X373121Y191927D01*
X376934Y203621D02*
X369308Y203621D01*
X367401Y205528D01*
X367401Y209341D01*
X369308Y211247D01*
X376934Y211247D01*
X378841Y209341D01*
X378841Y205528D01*
X376934Y203621D01*
X369308Y211247D01*
X367401Y215315D02*
X367401Y222941D01*
X367401Y215315D02*
X373121Y215315D01*
X371215Y219128D01*
X371215Y221035D01*
X373121Y222941D01*
X376934Y222941D01*
X378841Y221035D01*
X378841Y217221D01*
X376934Y215315D01*
X376934Y227009D02*
X369308Y227009D01*
X367401Y228915D01*
X367401Y232729D01*
X369308Y234635D01*
X376934Y234635D01*
X378841Y232729D01*
X378841Y228915D01*
X376934Y227009D01*
X369308Y234635D01*
D11*
X262890Y326898D02*
X250190Y326898D01*
X262890Y326898D02*
X269240Y320548D01*
X269240Y307848D01*
X262890Y301498D01*
X269240Y320548D02*
X275590Y326898D01*
X288290Y326898D01*
X294640Y320548D01*
X294640Y307848D01*
X288290Y301498D01*
X275590Y301498D01*
X269240Y307848D01*
X224790Y326898D02*
X218440Y320548D01*
X224790Y326898D02*
X237490Y326898D01*
X243840Y320548D01*
X243840Y307848D01*
X237490Y301498D01*
X224790Y301498D01*
X218440Y307848D01*
X243840Y320548D02*
X250190Y326898D01*
X243840Y307848D02*
X250190Y301498D01*
X262890Y301498D01*
X186690Y326898D02*
X173990Y326898D01*
X186690Y326898D02*
X193040Y320548D01*
X193040Y307848D01*
X186690Y301498D01*
X193040Y320548D02*
X199390Y326898D01*
X212090Y326898D01*
X218440Y320548D01*
X218440Y307848D01*
X212090Y301498D01*
X199390Y301498D01*
X193040Y307848D01*
X167640Y307848D02*
X167640Y320548D01*
X173990Y326898D01*
X167640Y307848D02*
X173990Y301498D01*
X186690Y301498D01*
X300990Y326898D02*
X313690Y326898D01*
X320040Y320548D01*
X320040Y307848D01*
X313690Y301498D01*
X294640Y320548D02*
X300990Y326898D01*
X294640Y307848D02*
X300990Y301498D01*
X313690Y301498D01*
D12*
X167513Y333121D02*
X167513Y344561D01*
X167513Y333121D02*
X175140Y333121D01*
X179207Y333121D02*
X179207Y344561D01*
X179207Y333121D02*
X186833Y333121D01*
X190901Y338841D02*
X198527Y338841D01*
X202595Y335028D02*
X202595Y342654D01*
X204502Y344561D01*
X208315Y344561D01*
X210221Y342654D01*
X210221Y335028D01*
X208315Y333121D01*
X204502Y333121D01*
X202595Y335028D01*
X210221Y342654D01*
X214289Y333121D02*
X221915Y333121D01*
X214289Y333121D02*
X221915Y340748D01*
X221915Y342654D01*
X220009Y344561D01*
X216196Y344561D01*
X214289Y342654D01*
X225983Y338841D02*
X233609Y338841D01*
X237677Y333121D02*
X237677Y344561D01*
X237677Y338841D02*
X245303Y338841D01*
X245303Y344561D02*
X245303Y333121D01*
X249371Y336934D02*
X249371Y344561D01*
X249371Y336934D02*
X253184Y333121D01*
X256997Y336934D01*
X256997Y344561D01*
X261065Y340748D02*
X264878Y344561D01*
X264878Y333121D01*
X261065Y333121D02*
X268691Y333121D01*
D11*
X262890Y429514D02*
X250190Y429514D01*
X262890Y429514D02*
X269240Y423164D01*
X269240Y410464D01*
X262890Y404114D01*
X269240Y423164D02*
X275590Y429514D01*
X288290Y429514D01*
X294640Y423164D01*
X294640Y410464D01*
X288290Y404114D01*
X275590Y404114D01*
X269240Y410464D01*
X224790Y429514D02*
X218440Y423164D01*
X224790Y429514D02*
X237490Y429514D01*
X243840Y423164D01*
X243840Y410464D01*
X237490Y404114D01*
X224790Y404114D01*
X218440Y410464D01*
X243840Y423164D02*
X250190Y429514D01*
X243840Y410464D02*
X250190Y404114D01*
X262890Y404114D01*
X186690Y429514D02*
X173990Y429514D01*
X186690Y429514D02*
X193040Y423164D01*
X193040Y410464D01*
X186690Y404114D01*
X193040Y423164D02*
X199390Y429514D01*
X212090Y429514D01*
X218440Y423164D01*
X218440Y410464D01*
X212090Y404114D01*
X199390Y404114D01*
X193040Y410464D01*
X167640Y410464D02*
X167640Y423164D01*
X173990Y429514D01*
X167640Y410464D02*
X173990Y404114D01*
X186690Y404114D01*
X300990Y429514D02*
X313690Y429514D01*
X320040Y423164D01*
X320040Y410464D01*
X313690Y404114D01*
X294640Y423164D02*
X300990Y429514D01*
X294640Y410464D02*
X300990Y404114D01*
X313690Y404114D01*
D12*
X167513Y396377D02*
X167513Y384937D01*
X175140Y384937D01*
X179207Y384937D02*
X179207Y396377D01*
X179207Y384937D02*
X186833Y384937D01*
X190901Y390657D02*
X198527Y390657D01*
X202595Y386844D02*
X202595Y394470D01*
X204502Y396377D01*
X208315Y396377D01*
X210221Y394470D01*
X210221Y386844D01*
X208315Y384937D01*
X204502Y384937D01*
X202595Y386844D01*
X210221Y394470D01*
X214289Y384937D02*
X221915Y384937D01*
X214289Y384937D02*
X221915Y392564D01*
X221915Y394470D01*
X220009Y396377D01*
X216196Y396377D01*
X214289Y394470D01*
X225983Y390657D02*
X233609Y390657D01*
X237677Y396377D02*
X237677Y384937D01*
X245303Y384937D01*
X249371Y388750D02*
X249371Y396377D01*
X249371Y388750D02*
X253184Y384937D01*
X256997Y388750D01*
X256997Y396377D01*
X261065Y392564D02*
X264878Y396377D01*
X264878Y384937D01*
X261065Y384937D02*
X268691Y384937D01*
D11*
X50038Y267970D02*
X49666Y267975D01*
X49295Y267988D01*
X48924Y268011D01*
X48554Y268042D01*
X48185Y268083D01*
X47817Y268133D01*
X47450Y268191D01*
X47085Y268259D01*
X46721Y268335D01*
X46360Y268420D01*
X46001Y268515D01*
X45644Y268617D01*
X45289Y268729D01*
X44938Y268849D01*
X44589Y268977D01*
X44244Y269114D01*
X43902Y269260D01*
X43564Y269413D01*
X43230Y269575D01*
X42900Y269745D01*
X42574Y269923D01*
X42252Y270109D01*
X41935Y270303D01*
X41623Y270504D01*
X41316Y270713D01*
X41014Y270929D01*
X40717Y271153D01*
X40426Y271383D01*
X40141Y271621D01*
X39861Y271866D01*
X39588Y272117D01*
X39321Y272375D01*
X39060Y272639D01*
X38805Y272910D01*
X38558Y273187D01*
X38317Y273470D01*
X38083Y273758D01*
X37856Y274052D01*
X37637Y274352D01*
X50038Y267970D02*
X50410Y267975D01*
X50781Y267988D01*
X51153Y268011D01*
X51523Y268043D01*
X51893Y268083D01*
X52261Y268133D01*
X52629Y268192D01*
X52994Y268259D01*
X53358Y268336D01*
X53720Y268422D01*
X54080Y268516D01*
X54437Y268619D01*
X54792Y268730D01*
X55144Y268851D01*
X55493Y268980D01*
X55838Y269117D01*
X56180Y269263D01*
X56519Y269417D01*
X56854Y269579D01*
X57184Y269749D01*
X57510Y269928D01*
X57832Y270114D01*
X58150Y270308D01*
X58462Y270510D01*
X58769Y270719D01*
X59071Y270936D01*
X59368Y271160D01*
X59660Y271391D01*
X59945Y271629D01*
X60225Y271875D01*
X60498Y272127D01*
X60766Y272385D01*
X61026Y272650D01*
X61281Y272921D01*
X61529Y273199D01*
X61769Y273482D01*
X62003Y273771D01*
X62230Y274066D01*
X50038Y298450D02*
X49673Y298446D01*
X49308Y298433D01*
X48944Y298411D01*
X48581Y298380D01*
X48218Y298341D01*
X47856Y298293D01*
X47496Y298236D01*
X47137Y298171D01*
X46779Y298098D01*
X46424Y298015D01*
X46071Y297925D01*
X45719Y297825D01*
X45371Y297718D01*
X45025Y297602D01*
X44682Y297478D01*
X44342Y297345D01*
X44005Y297205D01*
X43672Y297057D01*
X43342Y296900D01*
X43016Y296736D01*
X42694Y296564D01*
X42377Y296384D01*
X42064Y296197D01*
X41755Y296003D01*
X41451Y295801D01*
X41152Y295591D01*
X40858Y295375D01*
X40570Y295152D01*
X40287Y294922D01*
X40009Y294685D01*
X39737Y294442D01*
X39471Y294192D01*
X39211Y293936D01*
X38958Y293673D01*
X38710Y293405D01*
X38470Y293131D01*
X38235Y292851D01*
X38008Y292566D01*
X50038Y298450D02*
X50403Y298446D01*
X50768Y298433D01*
X51132Y298411D01*
X51495Y298380D01*
X51858Y298341D01*
X52220Y298293D01*
X52580Y298236D01*
X52939Y298171D01*
X53297Y298098D01*
X53652Y298015D01*
X54005Y297925D01*
X54357Y297825D01*
X54705Y297718D01*
X55051Y297602D01*
X55394Y297478D01*
X55734Y297345D01*
X56071Y297205D01*
X56404Y297057D01*
X56734Y296900D01*
X57060Y296736D01*
X57382Y296564D01*
X57699Y296384D01*
X58012Y296197D01*
X58321Y296003D01*
X58625Y295801D01*
X58924Y295591D01*
X59218Y295375D01*
X59506Y295152D01*
X59789Y294922D01*
X60067Y294685D01*
X60339Y294442D01*
X60605Y294192D01*
X60865Y293936D01*
X61118Y293673D01*
X61366Y293405D01*
X61606Y293131D01*
X61841Y292851D01*
X62068Y292566D01*
D10*
X50038Y262890D02*
X49544Y262896D01*
X49050Y262914D01*
X48556Y262944D01*
X48063Y262986D01*
X47572Y263040D01*
X47082Y263106D01*
X46594Y263184D01*
X46107Y263274D01*
X45623Y263375D01*
X45142Y263489D01*
X44664Y263614D01*
X44188Y263750D01*
X43717Y263898D01*
X43249Y264058D01*
X42785Y264229D01*
X42325Y264411D01*
X41870Y264604D01*
X41419Y264808D01*
X40974Y265023D01*
X40534Y265249D01*
X40100Y265486D01*
X39672Y265733D01*
X39250Y265990D01*
X38834Y266258D01*
X38425Y266536D01*
X38023Y266823D01*
X37627Y267120D01*
X37240Y267427D01*
X36859Y267743D01*
X36487Y268068D01*
X36122Y268403D01*
X35766Y268746D01*
X35419Y269097D01*
X35079Y269457D01*
X34749Y269825D01*
X34428Y270201D01*
X50038Y262890D02*
X50526Y262896D01*
X51013Y262913D01*
X51500Y262943D01*
X51987Y262984D01*
X52472Y263036D01*
X52956Y263101D01*
X53438Y263177D01*
X53918Y263264D01*
X54396Y263363D01*
X54871Y263473D01*
X55344Y263595D01*
X55813Y263728D01*
X56280Y263873D01*
X56742Y264028D01*
X57201Y264195D01*
X57656Y264372D01*
X58106Y264561D01*
X58551Y264760D01*
X58992Y264970D01*
X59428Y265190D01*
X59858Y265421D01*
X60282Y265662D01*
X60700Y265913D01*
X61113Y266174D01*
X61519Y266445D01*
X61918Y266725D01*
X62311Y267015D01*
X62696Y267315D01*
X63074Y267624D01*
X63445Y267941D01*
X63807Y268268D01*
X64162Y268603D01*
X64509Y268946D01*
X64847Y269298D01*
X65177Y269657D01*
X65498Y270025D01*
X65811Y270400D01*
X66114Y270783D01*
X66408Y271172D01*
X66692Y271569D01*
X66967Y271972D01*
X67232Y272382D01*
X67487Y272798D01*
X67732Y273220D01*
X67967Y273648D01*
X50038Y303530D02*
X49548Y303524D01*
X49058Y303506D01*
X48569Y303477D01*
X48080Y303435D01*
X47593Y303382D01*
X47107Y303318D01*
X46623Y303241D01*
X46141Y303153D01*
X45661Y303053D01*
X45183Y302942D01*
X44709Y302819D01*
X44237Y302684D01*
X43769Y302539D01*
X43305Y302382D01*
X42844Y302214D01*
X42388Y302035D01*
X41936Y301845D01*
X41489Y301644D01*
X41047Y301432D01*
X40610Y301210D01*
X40178Y300978D01*
X39752Y300735D01*
X39333Y300481D01*
X38919Y300218D01*
X38512Y299945D01*
X38112Y299662D01*
X37718Y299369D01*
X37332Y299068D01*
X36953Y298756D01*
X36582Y298436D01*
X36219Y298107D01*
X35863Y297770D01*
X35516Y297423D01*
X35178Y297069D01*
X34848Y296706D01*
X34526Y296336D01*
X50038Y303530D02*
X50535Y303524D01*
X51032Y303506D01*
X51528Y303475D01*
X52023Y303433D01*
X52517Y303378D01*
X53010Y303312D01*
X53500Y303233D01*
X53989Y303142D01*
X54475Y303040D01*
X54959Y302925D01*
X55439Y302799D01*
X55917Y302661D01*
X56391Y302512D01*
X56861Y302351D01*
X57327Y302178D01*
X57789Y301994D01*
X58246Y301799D01*
X58698Y301593D01*
X59145Y301376D01*
X59586Y301147D01*
X60022Y300909D01*
X60452Y300659D01*
X60875Y300399D01*
X61293Y300129D01*
X61703Y299849D01*
X62106Y299559D01*
X62503Y299259D01*
X62891Y298949D01*
X63272Y298630D01*
X63645Y298302D01*
X64010Y297965D01*
X64367Y297619D01*
X64715Y297264D01*
X65054Y296901D01*
X65385Y296530D01*
X65706Y296150D01*
X66018Y295763D01*
X66320Y295369D01*
X66612Y294967D01*
X66895Y294558D01*
X67167Y294143D01*
X67430Y293720D01*
X67681Y293292D01*
D12*
X76825Y257897D02*
X88265Y257897D01*
X88265Y265524D01*
X76825Y269591D02*
X76825Y277218D01*
X76825Y269591D02*
X88265Y269591D01*
X88265Y277218D01*
X82545Y273404D02*
X82545Y269591D01*
X76825Y281285D02*
X88265Y281285D01*
X88265Y287005D01*
X86358Y288911D01*
X78732Y288911D01*
X76825Y287005D01*
X76825Y281285D01*
X80639Y292979D02*
X76825Y296792D01*
X88265Y296792D01*
X88265Y292979D02*
X88265Y300605D01*
D11*
X106680Y80518D02*
X106680Y55118D01*
X106680Y80518D02*
X81280Y80518D01*
X81280Y55118D01*
X106680Y55118D01*
D15*
X74930Y67818D02*
X17780Y67818D01*
D11*
X106680Y80518D02*
X106680Y105918D01*
X81280Y105918D01*
X81280Y80518D01*
D15*
X74930Y93218D02*
X17780Y93218D01*
D11*
X106680Y105918D02*
X106680Y131318D01*
X81280Y131318D01*
X81280Y105918D01*
D15*
X74930Y118618D02*
X17780Y118618D01*
D16*
X78740Y67818D03*
X78740Y93218D03*
X78740Y118618D03*
D17*
X111760Y67818D03*
X111760Y93218D03*
X111760Y118618D03*
D12*
X73615Y48143D02*
X75522Y46236D01*
X73615Y48143D02*
X69802Y48143D01*
X67895Y46236D01*
X67895Y44330D01*
X69802Y42423D01*
X73615Y42423D01*
X75522Y40516D01*
X75522Y38610D01*
X73615Y36703D01*
X69802Y36703D01*
X67895Y38610D01*
X79589Y36703D02*
X79589Y48143D01*
X79589Y42423D02*
X87216Y42423D01*
X87216Y48143D02*
X87216Y36703D01*
X91283Y36703D02*
X91283Y44330D01*
X95096Y48143D01*
X98909Y44330D01*
X98909Y36703D01*
X98909Y42423D02*
X91283Y42423D01*
X102977Y36703D02*
X102977Y48143D01*
X108697Y48143D01*
X110603Y46236D01*
X110603Y42423D01*
X108697Y40516D01*
X102977Y40516D01*
X106790Y40516D02*
X110603Y36703D01*
X114671Y36703D02*
X114671Y48143D01*
X120391Y48143D01*
X122297Y46236D01*
X122297Y42423D01*
X120391Y40516D01*
X114671Y40516D01*
D11*
X106680Y144018D02*
X106680Y169418D01*
X81280Y169418D01*
X81280Y144018D01*
X106680Y144018D01*
D15*
X74930Y156718D02*
X17780Y156718D01*
D11*
X106680Y169418D02*
X106680Y194818D01*
X81280Y194818D01*
X81280Y169418D01*
D15*
X74930Y182118D02*
X17780Y182118D01*
D11*
X106680Y194818D02*
X106680Y220218D01*
X81280Y220218D01*
X81280Y194818D01*
D15*
X74930Y207518D02*
X17780Y207518D01*
D16*
X78740Y156718D03*
X78740Y182118D03*
X78740Y207518D03*
D17*
X111760Y156718D03*
X111760Y182118D03*
X111760Y207518D03*
D12*
X75522Y236736D02*
X73615Y238643D01*
X69802Y238643D01*
X67895Y236736D01*
X67895Y234830D01*
X69802Y232923D01*
X73615Y232923D01*
X75522Y231016D01*
X75522Y229110D01*
X73615Y227203D01*
X69802Y227203D01*
X67895Y229110D01*
X79589Y238643D02*
X87216Y238643D01*
X79589Y238643D02*
X79589Y227203D01*
X87216Y227203D01*
X83402Y232923D02*
X79589Y232923D01*
X91283Y227203D02*
X91283Y238643D01*
X97003Y238643D01*
X98909Y236736D01*
X98909Y232923D01*
X97003Y231016D01*
X91283Y231016D01*
X95096Y231016D02*
X98909Y227203D01*
X102977Y231016D02*
X102977Y238643D01*
X102977Y231016D02*
X106790Y227203D01*
X110603Y231016D01*
X110603Y238643D01*
X116578Y238643D02*
X120391Y238643D01*
X116578Y238643D02*
X114671Y236736D01*
X114671Y229110D01*
X116578Y227203D01*
X120391Y227203D01*
X122297Y229110D01*
X122297Y236736D01*
X120391Y238643D01*
D11*
X533400Y184150D02*
X533400Y158750D01*
X558800Y158750D01*
X558800Y184150D01*
X533400Y184150D01*
D15*
X565150Y171450D02*
X622300Y171450D01*
D11*
X533400Y158750D02*
X533400Y133350D01*
X558800Y133350D01*
X558800Y158750D01*
D15*
X565150Y146050D02*
X622300Y146050D01*
D11*
X533400Y133350D02*
X533400Y107950D01*
X558800Y107950D01*
X558800Y133350D01*
D15*
X565150Y120650D02*
X622300Y120650D01*
D11*
X533400Y107950D02*
X533400Y82550D01*
X558800Y82550D01*
X558800Y107950D01*
D15*
X565150Y95250D02*
X622300Y95250D01*
D16*
X561340Y171450D03*
X561340Y146050D03*
X561340Y120650D03*
X561340Y95250D03*
D17*
X528320Y171450D03*
X528320Y146050D03*
X528320Y120650D03*
X528320Y95250D03*
D12*
X534035Y191135D02*
X534035Y202575D01*
X534035Y196855D02*
X541662Y196855D01*
X541662Y202575D02*
X541662Y191135D01*
X545729Y196855D02*
X553355Y196855D01*
X557423Y191135D02*
X557423Y202575D01*
X563143Y202575D01*
X565049Y200668D01*
X565049Y198762D01*
X563143Y196855D01*
X565049Y194948D01*
X565049Y193042D01*
X563143Y191135D01*
X557423Y191135D01*
X557423Y196855D02*
X563143Y196855D01*
X569117Y191135D02*
X569117Y202575D01*
X574837Y202575D01*
X576743Y200668D01*
X576743Y196855D01*
X574837Y194948D01*
X569117Y194948D01*
X572930Y194948D02*
X576743Y191135D01*
X580811Y191135D02*
X584624Y191135D01*
X582718Y191135D02*
X582718Y202575D01*
X584624Y202575D02*
X580811Y202575D01*
X588607Y202575D02*
X588607Y191135D01*
X594327Y191135D01*
X596233Y193042D01*
X596233Y200668D01*
X594327Y202575D01*
X588607Y202575D01*
X606021Y202575D02*
X607927Y200668D01*
X606021Y202575D02*
X602207Y202575D01*
X600301Y200668D01*
X600301Y193042D01*
X602207Y191135D01*
X606021Y191135D01*
X607927Y193042D01*
X607927Y196855D01*
X604114Y196855D01*
X611995Y202575D02*
X619621Y202575D01*
X611995Y202575D02*
X611995Y191135D01*
X619621Y191135D01*
X615808Y196855D02*
X611995Y196855D01*
D11*
X254000Y101600D02*
X228600Y101600D01*
X228600Y76200D01*
X254000Y76200D01*
X254000Y101600D01*
D15*
X241300Y69850D02*
X241300Y12700D01*
D11*
X228600Y101600D02*
X203200Y101600D01*
X203200Y76200D01*
X228600Y76200D01*
D15*
X215900Y69850D02*
X215900Y12700D01*
D11*
X203200Y101600D02*
X177800Y101600D01*
X177800Y76200D01*
X203200Y76200D01*
D15*
X190500Y69850D02*
X190500Y12700D01*
D11*
X177800Y101600D02*
X152400Y101600D01*
X152400Y76200D01*
X177800Y76200D01*
D15*
X165100Y69850D02*
X165100Y12700D01*
D18*
X241300Y73660D03*
X215900Y73660D03*
X190500Y73660D03*
X165100Y73660D03*
D19*
X241300Y106680D03*
X215900Y106680D03*
X190500Y106680D03*
X165100Y106680D03*
D12*
X260975Y88486D02*
X260975Y80859D01*
X272415Y80859D01*
X272415Y88486D01*
X266695Y84672D02*
X266695Y80859D01*
X272415Y92553D02*
X260975Y92553D01*
X272415Y100180D01*
X260975Y100180D01*
X260975Y109967D02*
X262882Y111873D01*
X260975Y109967D02*
X260975Y106154D01*
X262882Y104247D01*
X270508Y104247D01*
X272415Y106154D01*
X272415Y109967D01*
X270508Y111873D01*
X264789Y115941D02*
X260975Y119754D01*
X272415Y119754D01*
X272415Y115941D02*
X272415Y123567D01*
D11*
X107950Y349250D02*
X107950Y374650D01*
X82550Y374650D01*
X82550Y349250D01*
X107950Y349250D01*
D15*
X76200Y361950D02*
X19050Y361950D01*
D11*
X107950Y374650D02*
X107950Y400050D01*
X82550Y400050D01*
X82550Y374650D01*
D15*
X76200Y387350D02*
X19050Y387350D01*
D11*
X107950Y400050D02*
X107950Y425450D01*
X82550Y425450D01*
X82550Y400050D01*
D15*
X76200Y412750D02*
X19050Y412750D01*
D11*
X107950Y425450D02*
X107950Y450850D01*
X82550Y450850D01*
X82550Y425450D01*
D15*
X76200Y438150D02*
X19050Y438150D01*
D16*
X80010Y361950D03*
X80010Y387350D03*
X80010Y412750D03*
X80010Y438150D03*
D17*
X113030Y361950D03*
X113030Y387350D03*
X113030Y412750D03*
X113030Y438150D03*
D12*
X88486Y342275D02*
X80859Y342275D01*
X80859Y330835D01*
X88486Y330835D01*
X84672Y336555D02*
X80859Y336555D01*
X92553Y330835D02*
X92553Y342275D01*
X100180Y330835D01*
X100180Y342275D01*
X109967Y342275D02*
X111873Y340368D01*
X109967Y342275D02*
X106154Y342275D01*
X104247Y340368D01*
X104247Y332742D01*
X106154Y330835D01*
X109967Y330835D01*
X111873Y332742D01*
X115941Y330835D02*
X123567Y330835D01*
X115941Y330835D02*
X123567Y338462D01*
X123567Y340368D01*
X121661Y342275D01*
X117848Y342275D01*
X115941Y340368D01*
D11*
X618490Y228600D02*
X632460Y228600D01*
X557530Y228600D02*
X557530Y330200D01*
X575310Y330200D01*
X632460Y330200D02*
X632460Y228600D01*
X566420Y228600D02*
X565150Y223520D01*
X566420Y228600D02*
X557530Y228600D01*
X565150Y223520D02*
X576580Y223520D01*
X575310Y228600D01*
X566420Y228600D01*
X575310Y228600D02*
X575310Y330200D01*
X618490Y330200D01*
X618490Y228600D01*
X575310Y228600D01*
X618490Y330200D02*
X632460Y330200D01*
X561340Y304546D02*
X561342Y304688D01*
X561348Y304831D01*
X561358Y304973D01*
X561372Y305115D01*
X561390Y305256D01*
X561412Y305397D01*
X561438Y305537D01*
X561467Y305676D01*
X561501Y305815D01*
X561539Y305952D01*
X561580Y306089D01*
X561625Y306224D01*
X561674Y306358D01*
X561727Y306490D01*
X561783Y306621D01*
X561843Y306750D01*
X561907Y306878D01*
X561974Y307003D01*
X562045Y307127D01*
X562119Y307249D01*
X562196Y307368D01*
X562277Y307486D01*
X562361Y307601D01*
X562448Y307713D01*
X562539Y307823D01*
X562632Y307931D01*
X562729Y308036D01*
X562828Y308138D01*
X562930Y308237D01*
X563035Y308334D01*
X563143Y308427D01*
X563253Y308518D01*
X563365Y308605D01*
X563480Y308689D01*
X563598Y308770D01*
X563717Y308847D01*
X563839Y308921D01*
X563963Y308992D01*
X564088Y309059D01*
X564216Y309123D01*
X564345Y309183D01*
X564476Y309239D01*
X564608Y309292D01*
X564742Y309341D01*
X564877Y309386D01*
X565014Y309427D01*
X565151Y309465D01*
X565290Y309499D01*
X565429Y309528D01*
X565569Y309554D01*
X565710Y309576D01*
X565851Y309594D01*
X565993Y309608D01*
X566135Y309618D01*
X566278Y309624D01*
X566420Y309626D01*
X566562Y309624D01*
X566705Y309618D01*
X566847Y309608D01*
X566989Y309594D01*
X567130Y309576D01*
X567271Y309554D01*
X567411Y309528D01*
X567550Y309499D01*
X567689Y309465D01*
X567826Y309427D01*
X567963Y309386D01*
X568098Y309341D01*
X568232Y309292D01*
X568364Y309239D01*
X568495Y309183D01*
X568624Y309123D01*
X568752Y309059D01*
X568877Y308992D01*
X569001Y308921D01*
X569123Y308847D01*
X569242Y308770D01*
X569360Y308689D01*
X569475Y308605D01*
X569587Y308518D01*
X569697Y308427D01*
X569805Y308334D01*
X569910Y308237D01*
X570012Y308138D01*
X570111Y308036D01*
X570208Y307931D01*
X570301Y307823D01*
X570392Y307713D01*
X570479Y307601D01*
X570563Y307486D01*
X570644Y307368D01*
X570721Y307249D01*
X570795Y307127D01*
X570866Y307003D01*
X570933Y306878D01*
X570997Y306750D01*
X571057Y306621D01*
X571113Y306490D01*
X571166Y306358D01*
X571215Y306224D01*
X571260Y306089D01*
X571301Y305952D01*
X571339Y305815D01*
X571373Y305676D01*
X571402Y305537D01*
X571428Y305397D01*
X571450Y305256D01*
X571468Y305115D01*
X571482Y304973D01*
X571492Y304831D01*
X571498Y304688D01*
X571500Y304546D01*
X571498Y304404D01*
X571492Y304261D01*
X571482Y304119D01*
X571468Y303977D01*
X571450Y303836D01*
X571428Y303695D01*
X571402Y303555D01*
X571373Y303416D01*
X571339Y303277D01*
X571301Y303140D01*
X571260Y303003D01*
X571215Y302868D01*
X571166Y302734D01*
X571113Y302602D01*
X571057Y302471D01*
X570997Y302342D01*
X570933Y302214D01*
X570866Y302089D01*
X570795Y301965D01*
X570721Y301843D01*
X570644Y301724D01*
X570563Y301606D01*
X570479Y301491D01*
X570392Y301379D01*
X570301Y301269D01*
X570208Y301161D01*
X570111Y301056D01*
X570012Y300954D01*
X569910Y300855D01*
X569805Y300758D01*
X569697Y300665D01*
X569587Y300574D01*
X569475Y300487D01*
X569360Y300403D01*
X569242Y300322D01*
X569123Y300245D01*
X569001Y300171D01*
X568877Y300100D01*
X568752Y300033D01*
X568624Y299969D01*
X568495Y299909D01*
X568364Y299853D01*
X568232Y299800D01*
X568098Y299751D01*
X567963Y299706D01*
X567826Y299665D01*
X567689Y299627D01*
X567550Y299593D01*
X567411Y299564D01*
X567271Y299538D01*
X567130Y299516D01*
X566989Y299498D01*
X566847Y299484D01*
X566705Y299474D01*
X566562Y299468D01*
X566420Y299466D01*
X566278Y299468D01*
X566135Y299474D01*
X565993Y299484D01*
X565851Y299498D01*
X565710Y299516D01*
X565569Y299538D01*
X565429Y299564D01*
X565290Y299593D01*
X565151Y299627D01*
X565014Y299665D01*
X564877Y299706D01*
X564742Y299751D01*
X564608Y299800D01*
X564476Y299853D01*
X564345Y299909D01*
X564216Y299969D01*
X564088Y300033D01*
X563963Y300100D01*
X563839Y300171D01*
X563717Y300245D01*
X563598Y300322D01*
X563480Y300403D01*
X563365Y300487D01*
X563253Y300574D01*
X563143Y300665D01*
X563035Y300758D01*
X562930Y300855D01*
X562828Y300954D01*
X562729Y301056D01*
X562632Y301161D01*
X562539Y301269D01*
X562448Y301379D01*
X562361Y301491D01*
X562277Y301606D01*
X562196Y301724D01*
X562119Y301843D01*
X562045Y301965D01*
X561974Y302089D01*
X561907Y302214D01*
X561843Y302342D01*
X561783Y302471D01*
X561727Y302602D01*
X561674Y302734D01*
X561625Y302868D01*
X561580Y303003D01*
X561539Y303140D01*
X561501Y303277D01*
X561467Y303416D01*
X561438Y303555D01*
X561412Y303695D01*
X561390Y303836D01*
X561372Y303977D01*
X561358Y304119D01*
X561348Y304261D01*
X561342Y304404D01*
X561340Y304546D01*
X561340Y254254D02*
X561342Y254396D01*
X561348Y254539D01*
X561358Y254681D01*
X561372Y254823D01*
X561390Y254964D01*
X561412Y255105D01*
X561438Y255245D01*
X561467Y255384D01*
X561501Y255523D01*
X561539Y255660D01*
X561580Y255797D01*
X561625Y255932D01*
X561674Y256066D01*
X561727Y256198D01*
X561783Y256329D01*
X561843Y256458D01*
X561907Y256586D01*
X561974Y256711D01*
X562045Y256835D01*
X562119Y256957D01*
X562196Y257076D01*
X562277Y257194D01*
X562361Y257309D01*
X562448Y257421D01*
X562539Y257531D01*
X562632Y257639D01*
X562729Y257744D01*
X562828Y257846D01*
X562930Y257945D01*
X563035Y258042D01*
X563143Y258135D01*
X563253Y258226D01*
X563365Y258313D01*
X563480Y258397D01*
X563598Y258478D01*
X563717Y258555D01*
X563839Y258629D01*
X563963Y258700D01*
X564088Y258767D01*
X564216Y258831D01*
X564345Y258891D01*
X564476Y258947D01*
X564608Y259000D01*
X564742Y259049D01*
X564877Y259094D01*
X565014Y259135D01*
X565151Y259173D01*
X565290Y259207D01*
X565429Y259236D01*
X565569Y259262D01*
X565710Y259284D01*
X565851Y259302D01*
X565993Y259316D01*
X566135Y259326D01*
X566278Y259332D01*
X566420Y259334D01*
X566562Y259332D01*
X566705Y259326D01*
X566847Y259316D01*
X566989Y259302D01*
X567130Y259284D01*
X567271Y259262D01*
X567411Y259236D01*
X567550Y259207D01*
X567689Y259173D01*
X567826Y259135D01*
X567963Y259094D01*
X568098Y259049D01*
X568232Y259000D01*
X568364Y258947D01*
X568495Y258891D01*
X568624Y258831D01*
X568752Y258767D01*
X568877Y258700D01*
X569001Y258629D01*
X569123Y258555D01*
X569242Y258478D01*
X569360Y258397D01*
X569475Y258313D01*
X569587Y258226D01*
X569697Y258135D01*
X569805Y258042D01*
X569910Y257945D01*
X570012Y257846D01*
X570111Y257744D01*
X570208Y257639D01*
X570301Y257531D01*
X570392Y257421D01*
X570479Y257309D01*
X570563Y257194D01*
X570644Y257076D01*
X570721Y256957D01*
X570795Y256835D01*
X570866Y256711D01*
X570933Y256586D01*
X570997Y256458D01*
X571057Y256329D01*
X571113Y256198D01*
X571166Y256066D01*
X571215Y255932D01*
X571260Y255797D01*
X571301Y255660D01*
X571339Y255523D01*
X571373Y255384D01*
X571402Y255245D01*
X571428Y255105D01*
X571450Y254964D01*
X571468Y254823D01*
X571482Y254681D01*
X571492Y254539D01*
X571498Y254396D01*
X571500Y254254D01*
X571498Y254112D01*
X571492Y253969D01*
X571482Y253827D01*
X571468Y253685D01*
X571450Y253544D01*
X571428Y253403D01*
X571402Y253263D01*
X571373Y253124D01*
X571339Y252985D01*
X571301Y252848D01*
X571260Y252711D01*
X571215Y252576D01*
X571166Y252442D01*
X571113Y252310D01*
X571057Y252179D01*
X570997Y252050D01*
X570933Y251922D01*
X570866Y251797D01*
X570795Y251673D01*
X570721Y251551D01*
X570644Y251432D01*
X570563Y251314D01*
X570479Y251199D01*
X570392Y251087D01*
X570301Y250977D01*
X570208Y250869D01*
X570111Y250764D01*
X570012Y250662D01*
X569910Y250563D01*
X569805Y250466D01*
X569697Y250373D01*
X569587Y250282D01*
X569475Y250195D01*
X569360Y250111D01*
X569242Y250030D01*
X569123Y249953D01*
X569001Y249879D01*
X568877Y249808D01*
X568752Y249741D01*
X568624Y249677D01*
X568495Y249617D01*
X568364Y249561D01*
X568232Y249508D01*
X568098Y249459D01*
X567963Y249414D01*
X567826Y249373D01*
X567689Y249335D01*
X567550Y249301D01*
X567411Y249272D01*
X567271Y249246D01*
X567130Y249224D01*
X566989Y249206D01*
X566847Y249192D01*
X566705Y249182D01*
X566562Y249176D01*
X566420Y249174D01*
X566278Y249176D01*
X566135Y249182D01*
X565993Y249192D01*
X565851Y249206D01*
X565710Y249224D01*
X565569Y249246D01*
X565429Y249272D01*
X565290Y249301D01*
X565151Y249335D01*
X565014Y249373D01*
X564877Y249414D01*
X564742Y249459D01*
X564608Y249508D01*
X564476Y249561D01*
X564345Y249617D01*
X564216Y249677D01*
X564088Y249741D01*
X563963Y249808D01*
X563839Y249879D01*
X563717Y249953D01*
X563598Y250030D01*
X563480Y250111D01*
X563365Y250195D01*
X563253Y250282D01*
X563143Y250373D01*
X563035Y250466D01*
X562930Y250563D01*
X562828Y250662D01*
X562729Y250764D01*
X562632Y250869D01*
X562539Y250977D01*
X562448Y251087D01*
X562361Y251199D01*
X562277Y251314D01*
X562196Y251432D01*
X562119Y251551D01*
X562045Y251673D01*
X561974Y251797D01*
X561907Y251922D01*
X561843Y252050D01*
X561783Y252179D01*
X561727Y252310D01*
X561674Y252442D01*
X561625Y252576D01*
X561580Y252711D01*
X561539Y252848D01*
X561501Y252985D01*
X561467Y253124D01*
X561438Y253263D01*
X561412Y253403D01*
X561390Y253544D01*
X561372Y253685D01*
X561358Y253827D01*
X561348Y253969D01*
X561342Y254112D01*
X561340Y254254D01*
D12*
X562222Y238466D02*
X565103Y235585D01*
X562222Y238466D02*
X570865Y238466D01*
X570865Y235585D02*
X570865Y241347D01*
X570865Y286385D02*
X570865Y292147D01*
X570865Y286385D02*
X565103Y292147D01*
X563662Y292147D01*
X562222Y290707D01*
X562222Y287826D01*
X563662Y286385D01*
D20*
X596900Y279400D03*
D11*
X549570Y229362D02*
X538977Y229362D01*
X549570Y229362D02*
X551688Y231480D01*
X551688Y235717D01*
X549570Y237836D01*
X538977Y237836D01*
X538977Y242459D02*
X551688Y242459D01*
X538977Y242459D02*
X538977Y248815D01*
X541096Y250933D01*
X545333Y250933D01*
X547451Y248815D01*
X547451Y242459D01*
X551688Y255557D02*
X538977Y255557D01*
X547451Y259793D02*
X551688Y255557D01*
X547451Y259793D02*
X551688Y264030D01*
X538977Y264030D01*
X538977Y268654D02*
X551688Y268654D01*
X538977Y268654D02*
X538977Y275009D01*
X541096Y277128D01*
X545333Y277128D01*
X547451Y275009D01*
X547451Y268654D01*
X547451Y272891D02*
X551688Y277128D01*
X618490Y349250D02*
X632460Y349250D01*
X557530Y349250D02*
X557530Y450850D01*
X575310Y450850D01*
X632460Y450850D02*
X632460Y349250D01*
X566420Y349250D02*
X565150Y344170D01*
X566420Y349250D02*
X557530Y349250D01*
X565150Y344170D02*
X576580Y344170D01*
X575310Y349250D01*
X566420Y349250D01*
X575310Y349250D02*
X575310Y450850D01*
X618490Y450850D01*
X618490Y349250D01*
X575310Y349250D01*
X618490Y450850D02*
X632460Y450850D01*
X561340Y425196D02*
X561342Y425338D01*
X561348Y425481D01*
X561358Y425623D01*
X561372Y425765D01*
X561390Y425906D01*
X561412Y426047D01*
X561438Y426187D01*
X561467Y426326D01*
X561501Y426465D01*
X561539Y426602D01*
X561580Y426739D01*
X561625Y426874D01*
X561674Y427008D01*
X561727Y427140D01*
X561783Y427271D01*
X561843Y427400D01*
X561907Y427528D01*
X561974Y427653D01*
X562045Y427777D01*
X562119Y427899D01*
X562196Y428018D01*
X562277Y428136D01*
X562361Y428251D01*
X562448Y428363D01*
X562539Y428473D01*
X562632Y428581D01*
X562729Y428686D01*
X562828Y428788D01*
X562930Y428887D01*
X563035Y428984D01*
X563143Y429077D01*
X563253Y429168D01*
X563365Y429255D01*
X563480Y429339D01*
X563598Y429420D01*
X563717Y429497D01*
X563839Y429571D01*
X563963Y429642D01*
X564088Y429709D01*
X564216Y429773D01*
X564345Y429833D01*
X564476Y429889D01*
X564608Y429942D01*
X564742Y429991D01*
X564877Y430036D01*
X565014Y430077D01*
X565151Y430115D01*
X565290Y430149D01*
X565429Y430178D01*
X565569Y430204D01*
X565710Y430226D01*
X565851Y430244D01*
X565993Y430258D01*
X566135Y430268D01*
X566278Y430274D01*
X566420Y430276D01*
X566562Y430274D01*
X566705Y430268D01*
X566847Y430258D01*
X566989Y430244D01*
X567130Y430226D01*
X567271Y430204D01*
X567411Y430178D01*
X567550Y430149D01*
X567689Y430115D01*
X567826Y430077D01*
X567963Y430036D01*
X568098Y429991D01*
X568232Y429942D01*
X568364Y429889D01*
X568495Y429833D01*
X568624Y429773D01*
X568752Y429709D01*
X568877Y429642D01*
X569001Y429571D01*
X569123Y429497D01*
X569242Y429420D01*
X569360Y429339D01*
X569475Y429255D01*
X569587Y429168D01*
X569697Y429077D01*
X569805Y428984D01*
X569910Y428887D01*
X570012Y428788D01*
X570111Y428686D01*
X570208Y428581D01*
X570301Y428473D01*
X570392Y428363D01*
X570479Y428251D01*
X570563Y428136D01*
X570644Y428018D01*
X570721Y427899D01*
X570795Y427777D01*
X570866Y427653D01*
X570933Y427528D01*
X570997Y427400D01*
X571057Y427271D01*
X571113Y427140D01*
X571166Y427008D01*
X571215Y426874D01*
X571260Y426739D01*
X571301Y426602D01*
X571339Y426465D01*
X571373Y426326D01*
X571402Y426187D01*
X571428Y426047D01*
X571450Y425906D01*
X571468Y425765D01*
X571482Y425623D01*
X571492Y425481D01*
X571498Y425338D01*
X571500Y425196D01*
X571498Y425054D01*
X571492Y424911D01*
X571482Y424769D01*
X571468Y424627D01*
X571450Y424486D01*
X571428Y424345D01*
X571402Y424205D01*
X571373Y424066D01*
X571339Y423927D01*
X571301Y423790D01*
X571260Y423653D01*
X571215Y423518D01*
X571166Y423384D01*
X571113Y423252D01*
X571057Y423121D01*
X570997Y422992D01*
X570933Y422864D01*
X570866Y422739D01*
X570795Y422615D01*
X570721Y422493D01*
X570644Y422374D01*
X570563Y422256D01*
X570479Y422141D01*
X570392Y422029D01*
X570301Y421919D01*
X570208Y421811D01*
X570111Y421706D01*
X570012Y421604D01*
X569910Y421505D01*
X569805Y421408D01*
X569697Y421315D01*
X569587Y421224D01*
X569475Y421137D01*
X569360Y421053D01*
X569242Y420972D01*
X569123Y420895D01*
X569001Y420821D01*
X568877Y420750D01*
X568752Y420683D01*
X568624Y420619D01*
X568495Y420559D01*
X568364Y420503D01*
X568232Y420450D01*
X568098Y420401D01*
X567963Y420356D01*
X567826Y420315D01*
X567689Y420277D01*
X567550Y420243D01*
X567411Y420214D01*
X567271Y420188D01*
X567130Y420166D01*
X566989Y420148D01*
X566847Y420134D01*
X566705Y420124D01*
X566562Y420118D01*
X566420Y420116D01*
X566278Y420118D01*
X566135Y420124D01*
X565993Y420134D01*
X565851Y420148D01*
X565710Y420166D01*
X565569Y420188D01*
X565429Y420214D01*
X565290Y420243D01*
X565151Y420277D01*
X565014Y420315D01*
X564877Y420356D01*
X564742Y420401D01*
X564608Y420450D01*
X564476Y420503D01*
X564345Y420559D01*
X564216Y420619D01*
X564088Y420683D01*
X563963Y420750D01*
X563839Y420821D01*
X563717Y420895D01*
X563598Y420972D01*
X563480Y421053D01*
X563365Y421137D01*
X563253Y421224D01*
X563143Y421315D01*
X563035Y421408D01*
X562930Y421505D01*
X562828Y421604D01*
X562729Y421706D01*
X562632Y421811D01*
X562539Y421919D01*
X562448Y422029D01*
X562361Y422141D01*
X562277Y422256D01*
X562196Y422374D01*
X562119Y422493D01*
X562045Y422615D01*
X561974Y422739D01*
X561907Y422864D01*
X561843Y422992D01*
X561783Y423121D01*
X561727Y423252D01*
X561674Y423384D01*
X561625Y423518D01*
X561580Y423653D01*
X561539Y423790D01*
X561501Y423927D01*
X561467Y424066D01*
X561438Y424205D01*
X561412Y424345D01*
X561390Y424486D01*
X561372Y424627D01*
X561358Y424769D01*
X561348Y424911D01*
X561342Y425054D01*
X561340Y425196D01*
X561340Y374904D02*
X561342Y375046D01*
X561348Y375189D01*
X561358Y375331D01*
X561372Y375473D01*
X561390Y375614D01*
X561412Y375755D01*
X561438Y375895D01*
X561467Y376034D01*
X561501Y376173D01*
X561539Y376310D01*
X561580Y376447D01*
X561625Y376582D01*
X561674Y376716D01*
X561727Y376848D01*
X561783Y376979D01*
X561843Y377108D01*
X561907Y377236D01*
X561974Y377361D01*
X562045Y377485D01*
X562119Y377607D01*
X562196Y377726D01*
X562277Y377844D01*
X562361Y377959D01*
X562448Y378071D01*
X562539Y378181D01*
X562632Y378289D01*
X562729Y378394D01*
X562828Y378496D01*
X562930Y378595D01*
X563035Y378692D01*
X563143Y378785D01*
X563253Y378876D01*
X563365Y378963D01*
X563480Y379047D01*
X563598Y379128D01*
X563717Y379205D01*
X563839Y379279D01*
X563963Y379350D01*
X564088Y379417D01*
X564216Y379481D01*
X564345Y379541D01*
X564476Y379597D01*
X564608Y379650D01*
X564742Y379699D01*
X564877Y379744D01*
X565014Y379785D01*
X565151Y379823D01*
X565290Y379857D01*
X565429Y379886D01*
X565569Y379912D01*
X565710Y379934D01*
X565851Y379952D01*
X565993Y379966D01*
X566135Y379976D01*
X566278Y379982D01*
X566420Y379984D01*
X566562Y379982D01*
X566705Y379976D01*
X566847Y379966D01*
X566989Y379952D01*
X567130Y379934D01*
X567271Y379912D01*
X567411Y379886D01*
X567550Y379857D01*
X567689Y379823D01*
X567826Y379785D01*
X567963Y379744D01*
X568098Y379699D01*
X568232Y379650D01*
X568364Y379597D01*
X568495Y379541D01*
X568624Y379481D01*
X568752Y379417D01*
X568877Y379350D01*
X569001Y379279D01*
X569123Y379205D01*
X569242Y379128D01*
X569360Y379047D01*
X569475Y378963D01*
X569587Y378876D01*
X569697Y378785D01*
X569805Y378692D01*
X569910Y378595D01*
X570012Y378496D01*
X570111Y378394D01*
X570208Y378289D01*
X570301Y378181D01*
X570392Y378071D01*
X570479Y377959D01*
X570563Y377844D01*
X570644Y377726D01*
X570721Y377607D01*
X570795Y377485D01*
X570866Y377361D01*
X570933Y377236D01*
X570997Y377108D01*
X571057Y376979D01*
X571113Y376848D01*
X571166Y376716D01*
X571215Y376582D01*
X571260Y376447D01*
X571301Y376310D01*
X571339Y376173D01*
X571373Y376034D01*
X571402Y375895D01*
X571428Y375755D01*
X571450Y375614D01*
X571468Y375473D01*
X571482Y375331D01*
X571492Y375189D01*
X571498Y375046D01*
X571500Y374904D01*
X571498Y374762D01*
X571492Y374619D01*
X571482Y374477D01*
X571468Y374335D01*
X571450Y374194D01*
X571428Y374053D01*
X571402Y373913D01*
X571373Y373774D01*
X571339Y373635D01*
X571301Y373498D01*
X571260Y373361D01*
X571215Y373226D01*
X571166Y373092D01*
X571113Y372960D01*
X571057Y372829D01*
X570997Y372700D01*
X570933Y372572D01*
X570866Y372447D01*
X570795Y372323D01*
X570721Y372201D01*
X570644Y372082D01*
X570563Y371964D01*
X570479Y371849D01*
X570392Y371737D01*
X570301Y371627D01*
X570208Y371519D01*
X570111Y371414D01*
X570012Y371312D01*
X569910Y371213D01*
X569805Y371116D01*
X569697Y371023D01*
X569587Y370932D01*
X569475Y370845D01*
X569360Y370761D01*
X569242Y370680D01*
X569123Y370603D01*
X569001Y370529D01*
X568877Y370458D01*
X568752Y370391D01*
X568624Y370327D01*
X568495Y370267D01*
X568364Y370211D01*
X568232Y370158D01*
X568098Y370109D01*
X567963Y370064D01*
X567826Y370023D01*
X567689Y369985D01*
X567550Y369951D01*
X567411Y369922D01*
X567271Y369896D01*
X567130Y369874D01*
X566989Y369856D01*
X566847Y369842D01*
X566705Y369832D01*
X566562Y369826D01*
X566420Y369824D01*
X566278Y369826D01*
X566135Y369832D01*
X565993Y369842D01*
X565851Y369856D01*
X565710Y369874D01*
X565569Y369896D01*
X565429Y369922D01*
X565290Y369951D01*
X565151Y369985D01*
X565014Y370023D01*
X564877Y370064D01*
X564742Y370109D01*
X564608Y370158D01*
X564476Y370211D01*
X564345Y370267D01*
X564216Y370327D01*
X564088Y370391D01*
X563963Y370458D01*
X563839Y370529D01*
X563717Y370603D01*
X563598Y370680D01*
X563480Y370761D01*
X563365Y370845D01*
X563253Y370932D01*
X563143Y371023D01*
X563035Y371116D01*
X562930Y371213D01*
X562828Y371312D01*
X562729Y371414D01*
X562632Y371519D01*
X562539Y371627D01*
X562448Y371737D01*
X562361Y371849D01*
X562277Y371964D01*
X562196Y372082D01*
X562119Y372201D01*
X562045Y372323D01*
X561974Y372447D01*
X561907Y372572D01*
X561843Y372700D01*
X561783Y372829D01*
X561727Y372960D01*
X561674Y373092D01*
X561625Y373226D01*
X561580Y373361D01*
X561539Y373498D01*
X561501Y373635D01*
X561467Y373774D01*
X561438Y373913D01*
X561412Y374053D01*
X561390Y374194D01*
X561372Y374335D01*
X561358Y374477D01*
X561348Y374619D01*
X561342Y374762D01*
X561340Y374904D01*
D12*
X562222Y359116D02*
X565103Y356235D01*
X562222Y359116D02*
X570865Y359116D01*
X570865Y356235D02*
X570865Y361997D01*
X570865Y407035D02*
X570865Y412797D01*
X570865Y407035D02*
X565103Y412797D01*
X563662Y412797D01*
X562222Y411357D01*
X562222Y408476D01*
X563662Y407035D01*
D20*
X596900Y400050D03*
D11*
X551688Y350012D02*
X538977Y350012D01*
X545333Y350012D02*
X545333Y358486D01*
X551688Y358486D02*
X538977Y358486D01*
X538977Y363109D02*
X551688Y363109D01*
X538977Y363109D02*
X538977Y369465D01*
X541096Y371583D01*
X545333Y371583D01*
X547451Y369465D01*
X547451Y363109D01*
X551688Y376207D02*
X538977Y376207D01*
X547451Y380443D02*
X551688Y376207D01*
X547451Y380443D02*
X551688Y384680D01*
X538977Y384680D01*
X538977Y389304D02*
X551688Y389304D01*
X538977Y389304D02*
X538977Y395659D01*
X541096Y397778D01*
X545333Y397778D01*
X547451Y395659D01*
X547451Y389304D01*
X547451Y393541D02*
X551688Y397778D01*
X476250Y412750D02*
X463550Y412750D01*
X476250Y412750D02*
X482600Y406400D01*
X482600Y393700D01*
X476250Y387350D01*
X438150Y412750D02*
X431800Y406400D01*
X438150Y412750D02*
X450850Y412750D01*
X457200Y406400D01*
X457200Y393700D01*
X450850Y387350D01*
X438150Y387350D01*
X431800Y393700D01*
X457200Y406400D02*
X463550Y412750D01*
X457200Y393700D02*
X463550Y387350D01*
X476250Y387350D01*
X400050Y412750D02*
X387350Y412750D01*
X400050Y412750D02*
X406400Y406400D01*
X406400Y393700D01*
X400050Y387350D01*
X406400Y406400D02*
X412750Y412750D01*
X425450Y412750D01*
X431800Y406400D01*
X431800Y393700D01*
X425450Y387350D01*
X412750Y387350D01*
X406400Y393700D01*
X381000Y393700D02*
X381000Y406400D01*
X387350Y412750D01*
X381000Y393700D02*
X387350Y387350D01*
X400050Y387350D01*
X488950Y412750D02*
X501650Y412750D01*
X508000Y406400D01*
X508000Y393700D01*
X501650Y387350D01*
X482600Y406400D02*
X488950Y412750D01*
X482600Y393700D02*
X488950Y387350D01*
X501650Y387350D01*
D12*
X399923Y418973D02*
X399923Y430413D01*
X399923Y424693D02*
X407550Y424693D01*
X407550Y430413D02*
X407550Y418973D01*
X411617Y418973D02*
X411617Y430413D01*
X415430Y426600D01*
X419243Y430413D01*
X419243Y418973D01*
X429031Y430413D02*
X430937Y428506D01*
X429031Y430413D02*
X425218Y430413D01*
X423311Y428506D01*
X423311Y420880D01*
X425218Y418973D01*
X429031Y418973D01*
X430937Y420880D01*
X435005Y430413D02*
X442631Y430413D01*
X435005Y430413D02*
X435005Y424693D01*
X438818Y426600D01*
X440725Y426600D01*
X442631Y424693D01*
X442631Y420880D01*
X440725Y418973D01*
X436912Y418973D01*
X435005Y420880D01*
X446699Y428506D02*
X448606Y430413D01*
X452419Y430413D01*
X454325Y428506D01*
X454325Y426600D01*
X452419Y424693D01*
X454325Y422786D01*
X454325Y420880D01*
X452419Y418973D01*
X448606Y418973D01*
X446699Y420880D01*
X446699Y422786D01*
X448606Y424693D01*
X446699Y426600D01*
X446699Y428506D01*
X448606Y424693D02*
X452419Y424693D01*
X458393Y428506D02*
X460299Y430413D01*
X464113Y430413D01*
X466019Y428506D01*
X466019Y426600D01*
X464113Y424693D01*
X466019Y422786D01*
X466019Y420880D01*
X464113Y418973D01*
X460299Y418973D01*
X458393Y420880D01*
X458393Y422786D01*
X460299Y424693D01*
X458393Y426600D01*
X458393Y428506D01*
X460299Y424693D02*
X464113Y424693D01*
X470087Y428506D02*
X471993Y430413D01*
X475807Y430413D01*
X477713Y428506D01*
X477713Y426600D01*
X475807Y424693D01*
X473900Y424693D01*
X475807Y424693D02*
X477713Y422786D01*
X477713Y420880D01*
X475807Y418973D01*
X471993Y418973D01*
X470087Y420880D01*
X481781Y418973D02*
X481781Y430413D01*
X481781Y418973D02*
X489407Y418973D01*
M02*
