G04 EAGLE Gerber RS-274X export*
G75*
%MOMM*%
%FSLAX34Y34*%
%LPD*%
%INTop Layer*%
%IPPOS*%
%AMOC8*
5,1,8,0,0,1.08239X$1,22.5*%
G01*
%ADD10C,0.254000*%
%ADD11C,1.524000*%
%ADD12C,1.458000*%
%ADD13P,1.429621X8X202.500000*%
%ADD14C,1.981200*%
%ADD15C,0.406400*%
%ADD16C,0.756400*%
%ADD17C,0.609600*%

G36*
X401437Y6353D02*
X401437Y6353D01*
X401457Y6351D01*
X401595Y6373D01*
X401733Y6391D01*
X401752Y6398D01*
X401771Y6401D01*
X401899Y6456D01*
X402029Y6508D01*
X402045Y6519D01*
X402063Y6527D01*
X402173Y6612D01*
X402286Y6694D01*
X402299Y6710D01*
X402315Y6722D01*
X402400Y6832D01*
X402489Y6939D01*
X402497Y6958D01*
X402510Y6973D01*
X402565Y7101D01*
X402624Y7227D01*
X402628Y7247D01*
X402636Y7265D01*
X402658Y7403D01*
X402684Y7539D01*
X402683Y7559D01*
X402686Y7579D01*
X402673Y7718D01*
X402664Y7857D01*
X402658Y7876D01*
X402656Y7896D01*
X402609Y8027D01*
X402566Y8159D01*
X402556Y8176D01*
X402549Y8195D01*
X402471Y8310D01*
X402396Y8428D01*
X402382Y8442D01*
X402371Y8458D01*
X402266Y8550D01*
X402165Y8646D01*
X402147Y8656D01*
X402132Y8669D01*
X401994Y8751D01*
X401329Y9090D01*
X400035Y10030D01*
X398904Y11161D01*
X397964Y12455D01*
X397238Y13880D01*
X396743Y15401D01*
X396493Y16980D01*
X396493Y22861D01*
X405384Y22861D01*
X405502Y22876D01*
X405621Y22883D01*
X405659Y22896D01*
X405699Y22901D01*
X405810Y22944D01*
X405923Y22981D01*
X405957Y23003D01*
X405995Y23018D01*
X406091Y23088D01*
X406192Y23151D01*
X406220Y23181D01*
X406252Y23204D01*
X406328Y23296D01*
X406410Y23383D01*
X406429Y23418D01*
X406455Y23449D01*
X406506Y23557D01*
X406563Y23661D01*
X406574Y23701D01*
X406591Y23737D01*
X406613Y23854D01*
X406643Y23969D01*
X406647Y24030D01*
X406651Y24050D01*
X406649Y24070D01*
X406653Y24130D01*
X406653Y25401D01*
X406655Y25401D01*
X406655Y24130D01*
X406670Y24012D01*
X406677Y23893D01*
X406690Y23855D01*
X406695Y23814D01*
X406739Y23704D01*
X406775Y23591D01*
X406797Y23556D01*
X406812Y23519D01*
X406882Y23423D01*
X406945Y23322D01*
X406975Y23294D01*
X406999Y23261D01*
X407090Y23186D01*
X407177Y23104D01*
X407212Y23084D01*
X407244Y23059D01*
X407351Y23008D01*
X407456Y22950D01*
X407495Y22940D01*
X407531Y22923D01*
X407648Y22901D01*
X407763Y22871D01*
X407824Y22867D01*
X407844Y22863D01*
X407864Y22865D01*
X407924Y22861D01*
X416815Y22861D01*
X416815Y16980D01*
X416565Y15401D01*
X416070Y13880D01*
X415344Y12455D01*
X414404Y11161D01*
X413273Y10030D01*
X411979Y9090D01*
X411314Y8751D01*
X411298Y8740D01*
X411279Y8732D01*
X411167Y8651D01*
X411051Y8572D01*
X411038Y8557D01*
X411022Y8546D01*
X410933Y8438D01*
X410841Y8334D01*
X410832Y8316D01*
X410819Y8301D01*
X410760Y8175D01*
X410696Y8050D01*
X410692Y8031D01*
X410684Y8013D01*
X410657Y7876D01*
X410627Y7740D01*
X410628Y7720D01*
X410624Y7700D01*
X410632Y7561D01*
X410637Y7422D01*
X410642Y7403D01*
X410644Y7383D01*
X410687Y7250D01*
X410725Y7117D01*
X410735Y7099D01*
X410742Y7081D01*
X410816Y6963D01*
X410887Y6843D01*
X410901Y6829D01*
X410912Y6812D01*
X411013Y6716D01*
X411112Y6618D01*
X411129Y6608D01*
X411143Y6594D01*
X411265Y6527D01*
X411385Y6456D01*
X411404Y6450D01*
X411422Y6440D01*
X411557Y6406D01*
X411691Y6367D01*
X411711Y6366D01*
X411730Y6361D01*
X411890Y6351D01*
X426818Y6351D01*
X426837Y6353D01*
X426857Y6351D01*
X426995Y6373D01*
X427133Y6391D01*
X427152Y6398D01*
X427171Y6401D01*
X427299Y6456D01*
X427429Y6508D01*
X427445Y6519D01*
X427463Y6527D01*
X427573Y6612D01*
X427686Y6694D01*
X427699Y6710D01*
X427715Y6722D01*
X427800Y6832D01*
X427889Y6939D01*
X427897Y6958D01*
X427910Y6973D01*
X427965Y7101D01*
X428024Y7227D01*
X428028Y7247D01*
X428036Y7265D01*
X428058Y7403D01*
X428084Y7539D01*
X428083Y7559D01*
X428086Y7579D01*
X428073Y7718D01*
X428064Y7857D01*
X428058Y7876D01*
X428056Y7896D01*
X428009Y8027D01*
X427966Y8159D01*
X427956Y8176D01*
X427949Y8195D01*
X427871Y8310D01*
X427796Y8428D01*
X427782Y8442D01*
X427771Y8458D01*
X427666Y8550D01*
X427565Y8646D01*
X427547Y8656D01*
X427532Y8669D01*
X427394Y8751D01*
X426729Y9090D01*
X425435Y10030D01*
X424304Y11161D01*
X423364Y12455D01*
X422638Y13880D01*
X422143Y15401D01*
X421893Y16980D01*
X421893Y22861D01*
X430784Y22861D01*
X430902Y22876D01*
X431021Y22883D01*
X431059Y22896D01*
X431099Y22901D01*
X431210Y22944D01*
X431323Y22981D01*
X431357Y23003D01*
X431395Y23018D01*
X431491Y23088D01*
X431592Y23151D01*
X431620Y23181D01*
X431652Y23204D01*
X431728Y23296D01*
X431810Y23383D01*
X431829Y23418D01*
X431855Y23449D01*
X431906Y23557D01*
X431963Y23661D01*
X431974Y23701D01*
X431991Y23737D01*
X432013Y23854D01*
X432043Y23969D01*
X432047Y24030D01*
X432051Y24050D01*
X432049Y24070D01*
X432053Y24130D01*
X432053Y25401D01*
X432055Y25401D01*
X432055Y24130D01*
X432070Y24012D01*
X432077Y23893D01*
X432090Y23855D01*
X432095Y23814D01*
X432139Y23704D01*
X432175Y23591D01*
X432197Y23556D01*
X432212Y23519D01*
X432282Y23423D01*
X432345Y23322D01*
X432375Y23294D01*
X432399Y23261D01*
X432490Y23186D01*
X432577Y23104D01*
X432612Y23084D01*
X432644Y23059D01*
X432751Y23008D01*
X432856Y22950D01*
X432895Y22940D01*
X432931Y22923D01*
X433048Y22901D01*
X433163Y22871D01*
X433224Y22867D01*
X433244Y22863D01*
X433264Y22865D01*
X433324Y22861D01*
X442215Y22861D01*
X442215Y16980D01*
X441965Y15401D01*
X441470Y13880D01*
X440744Y12455D01*
X439804Y11161D01*
X438673Y10030D01*
X437379Y9090D01*
X436714Y8751D01*
X436698Y8740D01*
X436679Y8732D01*
X436567Y8651D01*
X436451Y8572D01*
X436438Y8557D01*
X436422Y8546D01*
X436333Y8438D01*
X436241Y8334D01*
X436232Y8316D01*
X436219Y8301D01*
X436160Y8175D01*
X436096Y8050D01*
X436092Y8031D01*
X436084Y8013D01*
X436057Y7876D01*
X436027Y7740D01*
X436028Y7720D01*
X436024Y7700D01*
X436032Y7561D01*
X436037Y7422D01*
X436042Y7403D01*
X436044Y7383D01*
X436087Y7250D01*
X436125Y7117D01*
X436135Y7099D01*
X436142Y7081D01*
X436216Y6963D01*
X436287Y6843D01*
X436301Y6829D01*
X436312Y6812D01*
X436413Y6716D01*
X436512Y6618D01*
X436529Y6608D01*
X436543Y6594D01*
X436665Y6527D01*
X436785Y6456D01*
X436804Y6450D01*
X436822Y6440D01*
X436957Y6406D01*
X437091Y6367D01*
X437111Y6366D01*
X437130Y6361D01*
X437290Y6351D01*
X449294Y6351D01*
X449432Y6368D01*
X449571Y6381D01*
X449590Y6388D01*
X449610Y6391D01*
X449739Y6442D01*
X449870Y6489D01*
X449887Y6500D01*
X449906Y6508D01*
X450018Y6589D01*
X450133Y6667D01*
X450146Y6683D01*
X450163Y6694D01*
X450252Y6802D01*
X450344Y6906D01*
X450353Y6924D01*
X450366Y6939D01*
X450425Y7065D01*
X450488Y7189D01*
X450493Y7209D01*
X450501Y7227D01*
X450527Y7363D01*
X450558Y7499D01*
X450557Y7520D01*
X450561Y7539D01*
X450552Y7678D01*
X450548Y7817D01*
X450543Y7837D01*
X450541Y7857D01*
X450498Y7989D01*
X450460Y8123D01*
X450449Y8140D01*
X450443Y8159D01*
X450369Y8277D01*
X450298Y8397D01*
X450280Y8418D01*
X450273Y8428D01*
X450258Y8442D01*
X450192Y8517D01*
X447548Y11161D01*
X445769Y15456D01*
X445769Y35344D01*
X447548Y39639D01*
X450835Y42926D01*
X455130Y44705D01*
X459778Y44705D01*
X464073Y42926D01*
X467360Y39639D01*
X469139Y35344D01*
X469139Y32766D01*
X469154Y32648D01*
X469161Y32529D01*
X469174Y32491D01*
X469179Y32450D01*
X469222Y32340D01*
X469259Y32227D01*
X469281Y32192D01*
X469296Y32155D01*
X469365Y32059D01*
X469429Y31958D01*
X469459Y31930D01*
X469482Y31897D01*
X469574Y31821D01*
X469661Y31740D01*
X469696Y31720D01*
X469727Y31695D01*
X469835Y31644D01*
X469939Y31586D01*
X469979Y31576D01*
X470015Y31559D01*
X470132Y31537D01*
X470247Y31507D01*
X470307Y31503D01*
X470327Y31499D01*
X470348Y31501D01*
X470408Y31497D01*
X475234Y31497D01*
X475352Y31512D01*
X475471Y31519D01*
X475509Y31532D01*
X475550Y31537D01*
X475660Y31580D01*
X475773Y31617D01*
X475808Y31639D01*
X475845Y31654D01*
X475941Y31723D01*
X476042Y31787D01*
X476070Y31817D01*
X476103Y31840D01*
X476179Y31932D01*
X476260Y32019D01*
X476280Y32054D01*
X476305Y32085D01*
X476356Y32193D01*
X476414Y32297D01*
X476424Y32337D01*
X476441Y32373D01*
X476463Y32490D01*
X476493Y32605D01*
X476497Y32665D01*
X476501Y32685D01*
X476499Y32706D01*
X476503Y32766D01*
X476503Y179013D01*
X477431Y181254D01*
X529946Y233769D01*
X532187Y234697D01*
X589534Y234697D01*
X589652Y234712D01*
X589771Y234719D01*
X589809Y234732D01*
X589850Y234737D01*
X589960Y234780D01*
X590073Y234817D01*
X590108Y234839D01*
X590145Y234854D01*
X590241Y234923D01*
X590342Y234987D01*
X590370Y235017D01*
X590403Y235040D01*
X590479Y235132D01*
X590560Y235219D01*
X590580Y235254D01*
X590605Y235285D01*
X590656Y235393D01*
X590714Y235497D01*
X590724Y235537D01*
X590741Y235573D01*
X590763Y235690D01*
X590793Y235805D01*
X590797Y235865D01*
X590801Y235885D01*
X590799Y235906D01*
X590803Y235966D01*
X590803Y239014D01*
X590788Y239132D01*
X590781Y239251D01*
X590768Y239289D01*
X590763Y239330D01*
X590720Y239440D01*
X590683Y239553D01*
X590661Y239588D01*
X590646Y239625D01*
X590577Y239721D01*
X590513Y239822D01*
X590483Y239850D01*
X590460Y239883D01*
X590368Y239959D01*
X590281Y240040D01*
X590246Y240060D01*
X590215Y240085D01*
X590107Y240136D01*
X590003Y240194D01*
X589963Y240204D01*
X589927Y240221D01*
X589810Y240243D01*
X589695Y240273D01*
X589635Y240277D01*
X589615Y240281D01*
X589594Y240279D01*
X589534Y240283D01*
X584215Y240283D01*
X579080Y242410D01*
X575150Y246340D01*
X573023Y251475D01*
X573023Y257033D01*
X575150Y262168D01*
X579080Y266098D01*
X584215Y268225D01*
X609585Y268225D01*
X614720Y266098D01*
X618650Y262168D01*
X620777Y257033D01*
X620777Y251475D01*
X618650Y246340D01*
X614720Y242410D01*
X609585Y240283D01*
X604266Y240283D01*
X604148Y240268D01*
X604029Y240261D01*
X603991Y240248D01*
X603950Y240243D01*
X603840Y240200D01*
X603727Y240163D01*
X603692Y240141D01*
X603655Y240126D01*
X603559Y240057D01*
X603458Y239993D01*
X603430Y239963D01*
X603397Y239940D01*
X603321Y239848D01*
X603240Y239761D01*
X603220Y239726D01*
X603195Y239695D01*
X603144Y239587D01*
X603086Y239483D01*
X603076Y239443D01*
X603059Y239407D01*
X603037Y239290D01*
X603007Y239175D01*
X603003Y239115D01*
X602999Y239095D01*
X603001Y239074D01*
X602997Y239014D01*
X602997Y227387D01*
X602069Y225146D01*
X600354Y223431D01*
X598113Y222503D01*
X536451Y222503D01*
X536353Y222491D01*
X536254Y222488D01*
X536196Y222471D01*
X536136Y222463D01*
X536043Y222427D01*
X535948Y222399D01*
X535896Y222369D01*
X535840Y222346D01*
X535760Y222288D01*
X535674Y222238D01*
X535599Y222172D01*
X535583Y222160D01*
X535575Y222150D01*
X535554Y222132D01*
X489068Y175646D01*
X489008Y175568D01*
X488940Y175496D01*
X488911Y175443D01*
X488874Y175395D01*
X488834Y175304D01*
X488786Y175218D01*
X488771Y175159D01*
X488747Y175103D01*
X488732Y175005D01*
X488707Y174910D01*
X488701Y174810D01*
X488697Y174789D01*
X488699Y174777D01*
X488697Y174749D01*
X488697Y24187D01*
X487769Y21946D01*
X486054Y20231D01*
X483813Y19303D01*
X470408Y19303D01*
X470290Y19288D01*
X470171Y19281D01*
X470133Y19268D01*
X470092Y19263D01*
X469982Y19220D01*
X469869Y19183D01*
X469834Y19161D01*
X469797Y19146D01*
X469701Y19077D01*
X469600Y19013D01*
X469572Y18983D01*
X469539Y18960D01*
X469463Y18868D01*
X469382Y18781D01*
X469362Y18746D01*
X469337Y18715D01*
X469286Y18607D01*
X469228Y18503D01*
X469218Y18463D01*
X469201Y18427D01*
X469179Y18310D01*
X469149Y18195D01*
X469145Y18135D01*
X469141Y18115D01*
X469143Y18094D01*
X469139Y18034D01*
X469139Y15456D01*
X467360Y11161D01*
X464716Y8517D01*
X464631Y8408D01*
X464542Y8301D01*
X464534Y8282D01*
X464521Y8266D01*
X464466Y8138D01*
X464407Y8013D01*
X464403Y7993D01*
X464395Y7974D01*
X464373Y7836D01*
X464347Y7700D01*
X464348Y7680D01*
X464345Y7660D01*
X464358Y7521D01*
X464367Y7383D01*
X464373Y7364D01*
X464375Y7344D01*
X464422Y7212D01*
X464465Y7081D01*
X464476Y7063D01*
X464482Y7044D01*
X464561Y6929D01*
X464635Y6812D01*
X464650Y6798D01*
X464661Y6781D01*
X464765Y6689D01*
X464867Y6594D01*
X464884Y6584D01*
X464899Y6571D01*
X465024Y6507D01*
X465145Y6440D01*
X465165Y6435D01*
X465183Y6426D01*
X465319Y6396D01*
X465453Y6361D01*
X465481Y6359D01*
X465493Y6356D01*
X465513Y6357D01*
X465614Y6351D01*
X499586Y6351D01*
X499724Y6368D01*
X499863Y6381D01*
X499882Y6388D01*
X499902Y6391D01*
X500031Y6442D01*
X500162Y6489D01*
X500179Y6500D01*
X500198Y6508D01*
X500310Y6589D01*
X500425Y6667D01*
X500438Y6683D01*
X500455Y6694D01*
X500544Y6802D01*
X500636Y6906D01*
X500645Y6924D01*
X500658Y6939D01*
X500717Y7065D01*
X500780Y7189D01*
X500785Y7209D01*
X500793Y7227D01*
X500819Y7363D01*
X500850Y7499D01*
X500849Y7520D01*
X500853Y7539D01*
X500844Y7678D01*
X500840Y7817D01*
X500835Y7837D01*
X500833Y7857D01*
X500790Y7989D01*
X500752Y8123D01*
X500741Y8140D01*
X500735Y8159D01*
X500661Y8277D01*
X500590Y8397D01*
X500572Y8418D01*
X500565Y8428D01*
X500550Y8442D01*
X500484Y8517D01*
X498094Y10907D01*
X496315Y15202D01*
X496315Y35090D01*
X498094Y39385D01*
X501381Y42672D01*
X505676Y44451D01*
X510324Y44451D01*
X514619Y42672D01*
X517906Y39385D01*
X519527Y35470D01*
X519596Y35350D01*
X519661Y35227D01*
X519675Y35212D01*
X519685Y35194D01*
X519782Y35094D01*
X519875Y34991D01*
X519892Y34980D01*
X519906Y34966D01*
X520024Y34893D01*
X520141Y34816D01*
X520160Y34810D01*
X520177Y34799D01*
X520310Y34758D01*
X520442Y34713D01*
X520462Y34712D01*
X520481Y34706D01*
X520620Y34699D01*
X520759Y34688D01*
X520779Y34691D01*
X520799Y34691D01*
X520935Y34719D01*
X521072Y34742D01*
X521090Y34751D01*
X521110Y34755D01*
X521236Y34816D01*
X521362Y34873D01*
X521378Y34886D01*
X521396Y34895D01*
X521502Y34985D01*
X521610Y35072D01*
X521623Y35088D01*
X521638Y35101D01*
X521718Y35215D01*
X521802Y35326D01*
X521814Y35351D01*
X521821Y35361D01*
X521828Y35380D01*
X521873Y35470D01*
X523494Y39385D01*
X526781Y42672D01*
X531076Y44451D01*
X535724Y44451D01*
X540019Y42672D01*
X543306Y39385D01*
X544927Y35470D01*
X544996Y35350D01*
X545061Y35227D01*
X545075Y35212D01*
X545085Y35194D01*
X545182Y35094D01*
X545275Y34991D01*
X545292Y34980D01*
X545306Y34966D01*
X545424Y34893D01*
X545541Y34816D01*
X545560Y34810D01*
X545577Y34799D01*
X545710Y34758D01*
X545842Y34713D01*
X545862Y34712D01*
X545881Y34706D01*
X546020Y34699D01*
X546159Y34688D01*
X546179Y34691D01*
X546199Y34691D01*
X546335Y34719D01*
X546472Y34742D01*
X546490Y34751D01*
X546510Y34755D01*
X546636Y34816D01*
X546762Y34873D01*
X546778Y34886D01*
X546796Y34895D01*
X546902Y34985D01*
X547010Y35072D01*
X547023Y35088D01*
X547038Y35101D01*
X547118Y35215D01*
X547202Y35326D01*
X547214Y35351D01*
X547221Y35361D01*
X547228Y35380D01*
X547273Y35470D01*
X548894Y39385D01*
X552181Y42672D01*
X556476Y44451D01*
X561124Y44451D01*
X565419Y42672D01*
X568706Y39385D01*
X570327Y35470D01*
X570396Y35350D01*
X570461Y35227D01*
X570475Y35212D01*
X570485Y35194D01*
X570582Y35094D01*
X570675Y34991D01*
X570692Y34980D01*
X570706Y34966D01*
X570824Y34893D01*
X570941Y34816D01*
X570960Y34810D01*
X570977Y34799D01*
X571110Y34758D01*
X571242Y34713D01*
X571262Y34712D01*
X571281Y34706D01*
X571420Y34699D01*
X571559Y34688D01*
X571579Y34691D01*
X571599Y34691D01*
X571735Y34719D01*
X571872Y34742D01*
X571890Y34751D01*
X571910Y34755D01*
X572036Y34816D01*
X572162Y34873D01*
X572178Y34886D01*
X572196Y34895D01*
X572302Y34985D01*
X572410Y35072D01*
X572423Y35088D01*
X572438Y35101D01*
X572518Y35215D01*
X572602Y35326D01*
X572614Y35351D01*
X572621Y35361D01*
X572628Y35380D01*
X572673Y35470D01*
X574294Y39385D01*
X577581Y42672D01*
X581876Y44451D01*
X586524Y44451D01*
X590819Y42672D01*
X594106Y39385D01*
X595727Y35470D01*
X595796Y35350D01*
X595861Y35227D01*
X595875Y35212D01*
X595885Y35194D01*
X595982Y35094D01*
X596075Y34991D01*
X596092Y34980D01*
X596106Y34966D01*
X596224Y34893D01*
X596341Y34816D01*
X596360Y34810D01*
X596377Y34799D01*
X596510Y34758D01*
X596642Y34713D01*
X596662Y34712D01*
X596681Y34706D01*
X596820Y34699D01*
X596959Y34688D01*
X596979Y34691D01*
X596999Y34691D01*
X597135Y34719D01*
X597272Y34742D01*
X597290Y34751D01*
X597310Y34755D01*
X597436Y34816D01*
X597562Y34873D01*
X597578Y34886D01*
X597596Y34895D01*
X597702Y34985D01*
X597810Y35072D01*
X597823Y35088D01*
X597838Y35101D01*
X597918Y35215D01*
X598002Y35326D01*
X598014Y35351D01*
X598021Y35361D01*
X598028Y35380D01*
X598073Y35470D01*
X599694Y39385D01*
X602981Y42672D01*
X607276Y44451D01*
X611924Y44451D01*
X616219Y42672D01*
X619506Y39385D01*
X621127Y35470D01*
X621196Y35350D01*
X621261Y35227D01*
X621275Y35212D01*
X621285Y35194D01*
X621382Y35094D01*
X621475Y34991D01*
X621492Y34980D01*
X621506Y34966D01*
X621624Y34893D01*
X621741Y34816D01*
X621760Y34810D01*
X621777Y34799D01*
X621910Y34758D01*
X622042Y34713D01*
X622062Y34712D01*
X622081Y34706D01*
X622220Y34699D01*
X622359Y34688D01*
X622379Y34691D01*
X622399Y34691D01*
X622535Y34719D01*
X622672Y34742D01*
X622690Y34751D01*
X622710Y34755D01*
X622836Y34816D01*
X622962Y34873D01*
X622978Y34886D01*
X622996Y34895D01*
X623102Y34985D01*
X623210Y35072D01*
X623223Y35088D01*
X623238Y35101D01*
X623318Y35215D01*
X623402Y35326D01*
X623414Y35351D01*
X623421Y35361D01*
X623428Y35380D01*
X623473Y35470D01*
X625094Y39385D01*
X628381Y42672D01*
X632676Y44451D01*
X637324Y44451D01*
X641619Y42672D01*
X644906Y39385D01*
X646685Y35090D01*
X646685Y15202D01*
X644906Y10907D01*
X642516Y8517D01*
X642431Y8408D01*
X642342Y8301D01*
X642334Y8282D01*
X642321Y8266D01*
X642266Y8138D01*
X642207Y8013D01*
X642203Y7993D01*
X642195Y7974D01*
X642173Y7836D01*
X642147Y7700D01*
X642148Y7680D01*
X642145Y7660D01*
X642158Y7521D01*
X642167Y7383D01*
X642173Y7364D01*
X642175Y7344D01*
X642222Y7212D01*
X642265Y7081D01*
X642276Y7063D01*
X642282Y7044D01*
X642361Y6929D01*
X642435Y6812D01*
X642450Y6798D01*
X642461Y6781D01*
X642565Y6689D01*
X642667Y6594D01*
X642684Y6584D01*
X642699Y6571D01*
X642824Y6507D01*
X642945Y6440D01*
X642965Y6435D01*
X642983Y6426D01*
X643119Y6396D01*
X643253Y6361D01*
X643281Y6359D01*
X643293Y6356D01*
X643313Y6357D01*
X643414Y6351D01*
X650400Y6351D01*
X650420Y6353D01*
X650524Y6357D01*
X650989Y6403D01*
X651092Y6426D01*
X651198Y6441D01*
X651278Y6468D01*
X651299Y6473D01*
X651313Y6480D01*
X651350Y6493D01*
X652208Y6848D01*
X652216Y6853D01*
X652225Y6856D01*
X652354Y6932D01*
X652484Y7006D01*
X652491Y7012D01*
X652499Y7017D01*
X652620Y7124D01*
X653276Y7780D01*
X653282Y7788D01*
X653289Y7793D01*
X653379Y7913D01*
X653471Y8032D01*
X653475Y8040D01*
X653481Y8047D01*
X653552Y8192D01*
X653907Y9050D01*
X653935Y9153D01*
X653972Y9252D01*
X653985Y9336D01*
X653991Y9357D01*
X653991Y9373D01*
X653997Y9411D01*
X654043Y9876D01*
X654043Y9895D01*
X654049Y10000D01*
X654049Y517544D01*
X654037Y517642D01*
X654034Y517741D01*
X654017Y517799D01*
X654009Y517859D01*
X653973Y517951D01*
X653945Y518046D01*
X653915Y518099D01*
X653892Y518155D01*
X653834Y518235D01*
X653784Y518320D01*
X653718Y518396D01*
X653706Y518412D01*
X653696Y518420D01*
X653678Y518441D01*
X645441Y526678D01*
X645363Y526738D01*
X645291Y526806D01*
X645238Y526835D01*
X645190Y526872D01*
X645099Y526912D01*
X645012Y526960D01*
X644954Y526975D01*
X644898Y526999D01*
X644800Y527014D01*
X644704Y527039D01*
X644604Y527045D01*
X644584Y527049D01*
X644572Y527047D01*
X644544Y527049D01*
X643160Y527049D01*
X643022Y527032D01*
X642883Y527019D01*
X642864Y527012D01*
X642844Y527009D01*
X642715Y526958D01*
X642584Y526911D01*
X642567Y526900D01*
X642548Y526892D01*
X642436Y526811D01*
X642321Y526733D01*
X642308Y526717D01*
X642291Y526706D01*
X642202Y526598D01*
X642110Y526494D01*
X642101Y526476D01*
X642088Y526461D01*
X642029Y526335D01*
X641966Y526211D01*
X641961Y526191D01*
X641953Y526173D01*
X641927Y526037D01*
X641896Y525901D01*
X641897Y525880D01*
X641893Y525861D01*
X641902Y525722D01*
X641906Y525583D01*
X641911Y525563D01*
X641913Y525543D01*
X641956Y525411D01*
X641994Y525277D01*
X642005Y525260D01*
X642011Y525241D01*
X642085Y525123D01*
X642156Y525003D01*
X642174Y524982D01*
X642181Y524972D01*
X642196Y524958D01*
X642262Y524883D01*
X644906Y522239D01*
X646685Y517944D01*
X646685Y498056D01*
X644906Y493761D01*
X641619Y490474D01*
X637324Y488695D01*
X632676Y488695D01*
X628381Y490474D01*
X625094Y493761D01*
X623473Y497676D01*
X623404Y497797D01*
X623339Y497919D01*
X623325Y497934D01*
X623315Y497952D01*
X623218Y498052D01*
X623125Y498155D01*
X623108Y498166D01*
X623094Y498181D01*
X622975Y498253D01*
X622859Y498330D01*
X622840Y498336D01*
X622823Y498347D01*
X622690Y498388D01*
X622558Y498433D01*
X622538Y498434D01*
X622519Y498440D01*
X622380Y498447D01*
X622241Y498458D01*
X622221Y498455D01*
X622201Y498455D01*
X622065Y498427D01*
X621928Y498404D01*
X621909Y498395D01*
X621890Y498391D01*
X621764Y498330D01*
X621638Y498273D01*
X621622Y498260D01*
X621604Y498251D01*
X621498Y498161D01*
X621390Y498074D01*
X621377Y498058D01*
X621362Y498045D01*
X621282Y497931D01*
X621198Y497820D01*
X621186Y497795D01*
X621179Y497785D01*
X621172Y497766D01*
X621127Y497676D01*
X619506Y493761D01*
X616219Y490474D01*
X611828Y488656D01*
X611828Y488655D01*
X611735Y488619D01*
X611640Y488591D01*
X611588Y488561D01*
X611532Y488538D01*
X611452Y488480D01*
X611366Y488430D01*
X611291Y488364D01*
X611275Y488352D01*
X611267Y488342D01*
X611246Y488324D01*
X609718Y486796D01*
X609658Y486718D01*
X609590Y486646D01*
X609561Y486593D01*
X609524Y486545D01*
X609484Y486454D01*
X609436Y486368D01*
X609421Y486309D01*
X609397Y486253D01*
X609382Y486155D01*
X609357Y486060D01*
X609351Y485960D01*
X609347Y485939D01*
X609349Y485927D01*
X609347Y485899D01*
X609347Y455987D01*
X608419Y453746D01*
X606704Y452031D01*
X604463Y451103D01*
X428501Y451103D01*
X428403Y451091D01*
X428304Y451088D01*
X428246Y451071D01*
X428186Y451063D01*
X428093Y451027D01*
X427998Y450999D01*
X427946Y450969D01*
X427890Y450946D01*
X427810Y450888D01*
X427724Y450838D01*
X427649Y450772D01*
X427633Y450760D01*
X427625Y450750D01*
X427604Y450732D01*
X397511Y420639D01*
X397480Y420599D01*
X397443Y420566D01*
X397383Y420474D01*
X397316Y420387D01*
X397296Y420342D01*
X397269Y420300D01*
X397233Y420196D01*
X397189Y420095D01*
X397182Y420046D01*
X397165Y419999D01*
X397157Y419890D01*
X397140Y419781D01*
X397144Y419732D01*
X397140Y419682D01*
X397159Y419574D01*
X397169Y419465D01*
X397186Y419418D01*
X397195Y419369D01*
X397240Y419269D01*
X397277Y419165D01*
X397305Y419124D01*
X397325Y419079D01*
X397394Y418993D01*
X397456Y418902D01*
X397493Y418869D01*
X397524Y418831D01*
X397612Y418764D01*
X397694Y418692D01*
X397738Y418669D01*
X397778Y418639D01*
X397922Y418568D01*
X400319Y417576D01*
X403606Y414289D01*
X405385Y409994D01*
X405385Y390106D01*
X403606Y385811D01*
X400319Y382524D01*
X396024Y380745D01*
X391376Y380745D01*
X387081Y382524D01*
X383794Y385811D01*
X382015Y390106D01*
X382015Y395729D01*
X381998Y395867D01*
X381985Y396005D01*
X381978Y396024D01*
X381975Y396044D01*
X381924Y396174D01*
X381877Y396305D01*
X381866Y396321D01*
X381858Y396340D01*
X381777Y396453D01*
X381699Y396568D01*
X381683Y396581D01*
X381672Y396598D01*
X381564Y396686D01*
X381460Y396778D01*
X381442Y396787D01*
X381427Y396800D01*
X381301Y396859D01*
X381177Y396923D01*
X381157Y396927D01*
X381139Y396936D01*
X381003Y396962D01*
X380867Y396992D01*
X380846Y396992D01*
X380827Y396996D01*
X380688Y396987D01*
X380549Y396983D01*
X380529Y396977D01*
X380509Y396976D01*
X380377Y396933D01*
X380243Y396894D01*
X380226Y396884D01*
X380207Y396878D01*
X380089Y396804D01*
X379969Y396733D01*
X379948Y396714D01*
X379938Y396708D01*
X379924Y396693D01*
X379849Y396626D01*
X344216Y360993D01*
X344130Y360884D01*
X344042Y360777D01*
X344033Y360758D01*
X344021Y360742D01*
X343965Y360614D01*
X343906Y360489D01*
X343902Y360469D01*
X343894Y360450D01*
X343872Y360312D01*
X343846Y360176D01*
X343848Y360156D01*
X343844Y360136D01*
X343858Y359997D01*
X343866Y359859D01*
X343872Y359840D01*
X343874Y359820D01*
X343921Y359688D01*
X343964Y359557D01*
X343975Y359539D01*
X343982Y359520D01*
X344060Y359405D01*
X344134Y359288D01*
X344149Y359274D01*
X344160Y359257D01*
X344264Y359165D01*
X344366Y359070D01*
X344384Y359060D01*
X344399Y359047D01*
X344523Y358983D01*
X344644Y358916D01*
X344664Y358911D01*
X344682Y358902D01*
X344818Y358872D01*
X344952Y358837D01*
X344980Y358835D01*
X344992Y358832D01*
X345013Y358833D01*
X345113Y358827D01*
X356513Y358827D01*
X360686Y357098D01*
X361050Y356734D01*
X361128Y356674D01*
X361200Y356606D01*
X361253Y356577D01*
X361301Y356540D01*
X361392Y356500D01*
X361478Y356452D01*
X361537Y356437D01*
X361593Y356413D01*
X361691Y356398D01*
X361786Y356373D01*
X361886Y356367D01*
X361907Y356363D01*
X361919Y356365D01*
X361947Y356363D01*
X376065Y356363D01*
X378679Y355280D01*
X387030Y346929D01*
X388113Y344315D01*
X388113Y281128D01*
X388119Y281079D01*
X388117Y281030D01*
X388139Y280922D01*
X388153Y280813D01*
X388171Y280767D01*
X388181Y280718D01*
X388229Y280619D01*
X388270Y280517D01*
X388299Y280477D01*
X388321Y280432D01*
X388392Y280349D01*
X388456Y280260D01*
X388495Y280228D01*
X388527Y280190D01*
X388617Y280127D01*
X388701Y280057D01*
X388746Y280036D01*
X388787Y280007D01*
X388890Y279968D01*
X388989Y279922D01*
X389038Y279912D01*
X389084Y279895D01*
X389194Y279882D01*
X389301Y279862D01*
X389351Y279865D01*
X389400Y279859D01*
X389509Y279875D01*
X389619Y279882D01*
X389666Y279897D01*
X389715Y279904D01*
X389868Y279956D01*
X392139Y280897D01*
X392399Y280897D01*
X392497Y280909D01*
X392596Y280912D01*
X392654Y280929D01*
X392714Y280937D01*
X392807Y280973D01*
X392902Y281001D01*
X392954Y281031D01*
X393010Y281054D01*
X393090Y281112D01*
X393176Y281162D01*
X393251Y281228D01*
X393267Y281240D01*
X393275Y281250D01*
X393296Y281268D01*
X457082Y345054D01*
X457142Y345132D01*
X457210Y345204D01*
X457239Y345257D01*
X457276Y345305D01*
X457316Y345396D01*
X457364Y345482D01*
X457379Y345541D01*
X457403Y345597D01*
X457418Y345695D01*
X457443Y345790D01*
X457449Y345890D01*
X457453Y345911D01*
X457451Y345923D01*
X457453Y345951D01*
X457453Y382213D01*
X458381Y384454D01*
X459320Y385392D01*
X459338Y385415D01*
X459360Y385434D01*
X459435Y385541D01*
X459515Y385643D01*
X459526Y385670D01*
X459543Y385694D01*
X459589Y385816D01*
X459641Y385935D01*
X459646Y385964D01*
X459656Y385992D01*
X459671Y386121D01*
X459691Y386249D01*
X459688Y386278D01*
X459691Y386308D01*
X459673Y386436D01*
X459661Y386566D01*
X459651Y386593D01*
X459647Y386623D01*
X459595Y386775D01*
X458373Y389726D01*
X458304Y389846D01*
X458239Y389969D01*
X458225Y389985D01*
X458215Y390002D01*
X458119Y390102D01*
X458025Y390205D01*
X458008Y390216D01*
X457994Y390231D01*
X457875Y390303D01*
X457759Y390380D01*
X457740Y390386D01*
X457723Y390397D01*
X457590Y390438D01*
X457458Y390483D01*
X457438Y390484D01*
X457419Y390490D01*
X457280Y390497D01*
X457141Y390508D01*
X457121Y390505D01*
X457101Y390505D01*
X456966Y390478D01*
X456828Y390454D01*
X456809Y390445D01*
X456790Y390441D01*
X456665Y390380D01*
X456538Y390323D01*
X456522Y390310D01*
X456504Y390301D01*
X456398Y390211D01*
X456290Y390124D01*
X456277Y390108D01*
X456262Y390095D01*
X456182Y389982D01*
X456098Y389870D01*
X456086Y389845D01*
X456079Y389835D01*
X456072Y389816D01*
X456027Y389726D01*
X454406Y385811D01*
X451119Y382524D01*
X446824Y380745D01*
X442176Y380745D01*
X437881Y382524D01*
X434594Y385811D01*
X432815Y390106D01*
X432815Y409994D01*
X434594Y414289D01*
X437881Y417576D01*
X442176Y419355D01*
X446824Y419355D01*
X451119Y417576D01*
X454406Y414289D01*
X456027Y410374D01*
X456096Y410254D01*
X456161Y410131D01*
X456175Y410116D01*
X456185Y410098D01*
X456282Y409998D01*
X456375Y409895D01*
X456392Y409884D01*
X456406Y409870D01*
X456524Y409797D01*
X456641Y409720D01*
X456660Y409714D01*
X456677Y409703D01*
X456810Y409662D01*
X456942Y409617D01*
X456962Y409616D01*
X456981Y409610D01*
X457120Y409603D01*
X457259Y409592D01*
X457279Y409595D01*
X457299Y409595D01*
X457435Y409623D01*
X457572Y409646D01*
X457590Y409655D01*
X457610Y409659D01*
X457736Y409720D01*
X457862Y409777D01*
X457878Y409790D01*
X457896Y409799D01*
X458002Y409889D01*
X458110Y409976D01*
X458123Y409992D01*
X458138Y410005D01*
X458218Y410119D01*
X458302Y410230D01*
X458314Y410255D01*
X458321Y410265D01*
X458328Y410284D01*
X458373Y410374D01*
X459994Y414289D01*
X463281Y417576D01*
X467576Y419355D01*
X472224Y419355D01*
X476519Y417576D01*
X479806Y414289D01*
X481427Y410374D01*
X481496Y410254D01*
X481561Y410131D01*
X481575Y410116D01*
X481585Y410098D01*
X481682Y409998D01*
X481775Y409895D01*
X481792Y409884D01*
X481806Y409870D01*
X481924Y409797D01*
X482041Y409720D01*
X482060Y409714D01*
X482077Y409703D01*
X482210Y409662D01*
X482342Y409617D01*
X482362Y409616D01*
X482381Y409610D01*
X482520Y409603D01*
X482659Y409592D01*
X482679Y409595D01*
X482699Y409595D01*
X482835Y409623D01*
X482972Y409646D01*
X482990Y409655D01*
X483010Y409659D01*
X483136Y409720D01*
X483262Y409777D01*
X483278Y409790D01*
X483296Y409799D01*
X483402Y409889D01*
X483510Y409976D01*
X483523Y409992D01*
X483538Y410005D01*
X483618Y410119D01*
X483702Y410230D01*
X483714Y410255D01*
X483721Y410265D01*
X483728Y410284D01*
X483773Y410374D01*
X485394Y414289D01*
X488681Y417576D01*
X492976Y419355D01*
X497624Y419355D01*
X501919Y417576D01*
X505206Y414289D01*
X506985Y409994D01*
X506985Y390106D01*
X505206Y385811D01*
X501919Y382524D01*
X497624Y380745D01*
X492976Y380745D01*
X488681Y382524D01*
X485394Y385811D01*
X483773Y389726D01*
X483704Y389847D01*
X483639Y389969D01*
X483625Y389984D01*
X483615Y390002D01*
X483518Y390102D01*
X483425Y390205D01*
X483408Y390216D01*
X483394Y390231D01*
X483275Y390303D01*
X483159Y390380D01*
X483140Y390386D01*
X483123Y390397D01*
X482990Y390438D01*
X482858Y390483D01*
X482838Y390484D01*
X482819Y390490D01*
X482680Y390497D01*
X482541Y390508D01*
X482521Y390505D01*
X482501Y390505D01*
X482365Y390477D01*
X482228Y390454D01*
X482209Y390445D01*
X482190Y390441D01*
X482064Y390380D01*
X481938Y390323D01*
X481922Y390310D01*
X481904Y390301D01*
X481798Y390211D01*
X481690Y390124D01*
X481677Y390108D01*
X481662Y390095D01*
X481582Y389981D01*
X481498Y389870D01*
X481486Y389845D01*
X481479Y389835D01*
X481472Y389816D01*
X481427Y389726D01*
X479806Y385811D01*
X476519Y382524D01*
X472128Y380706D01*
X472128Y380705D01*
X472036Y380669D01*
X471940Y380641D01*
X471888Y380611D01*
X471832Y380588D01*
X471752Y380530D01*
X471666Y380480D01*
X471591Y380414D01*
X471575Y380402D01*
X471567Y380392D01*
X471546Y380374D01*
X470018Y378846D01*
X469958Y378768D01*
X469890Y378696D01*
X469861Y378643D01*
X469824Y378595D01*
X469784Y378504D01*
X469736Y378418D01*
X469721Y378359D01*
X469697Y378303D01*
X469682Y378205D01*
X469657Y378110D01*
X469651Y378009D01*
X469647Y377989D01*
X469649Y377977D01*
X469647Y377949D01*
X469647Y341687D01*
X468719Y339446D01*
X466825Y337553D01*
X401918Y272646D01*
X401858Y272568D01*
X401790Y272496D01*
X401761Y272443D01*
X401724Y272395D01*
X401684Y272304D01*
X401636Y272218D01*
X401621Y272159D01*
X401597Y272103D01*
X401582Y272005D01*
X401557Y271910D01*
X401551Y271810D01*
X401547Y271789D01*
X401549Y271777D01*
X401547Y271749D01*
X401547Y271489D01*
X400352Y268605D01*
X398145Y266398D01*
X395261Y265203D01*
X392139Y265203D01*
X389868Y266144D01*
X389820Y266157D01*
X389775Y266178D01*
X389667Y266199D01*
X389561Y266228D01*
X389511Y266229D01*
X389462Y266238D01*
X389353Y266231D01*
X389243Y266233D01*
X389195Y266222D01*
X389145Y266218D01*
X389041Y266185D01*
X388934Y266159D01*
X388890Y266136D01*
X388843Y266120D01*
X388750Y266062D01*
X388653Y266010D01*
X388616Y265977D01*
X388574Y265950D01*
X388499Y265870D01*
X388417Y265796D01*
X388390Y265755D01*
X388356Y265719D01*
X388303Y265622D01*
X388243Y265531D01*
X388226Y265484D01*
X388202Y265440D01*
X388175Y265334D01*
X388139Y265230D01*
X388135Y265180D01*
X388123Y265132D01*
X388113Y264972D01*
X388113Y178986D01*
X388130Y178848D01*
X388143Y178710D01*
X388150Y178690D01*
X388153Y178670D01*
X388204Y178541D01*
X388251Y178410D01*
X388262Y178393D01*
X388270Y178375D01*
X388351Y178262D01*
X388429Y178147D01*
X388445Y178134D01*
X388456Y178117D01*
X388564Y178028D01*
X388668Y177937D01*
X388686Y177927D01*
X388701Y177914D01*
X388827Y177855D01*
X388951Y177792D01*
X388971Y177788D01*
X388989Y177779D01*
X389125Y177753D01*
X389261Y177722D01*
X389282Y177723D01*
X389301Y177719D01*
X389440Y177728D01*
X389579Y177732D01*
X389599Y177738D01*
X389619Y177739D01*
X389751Y177782D01*
X389885Y177820D01*
X389902Y177831D01*
X389921Y177837D01*
X390039Y177911D01*
X390159Y177982D01*
X390180Y178001D01*
X390190Y178007D01*
X390204Y178022D01*
X390279Y178088D01*
X576268Y364077D01*
X576341Y364171D01*
X576420Y364260D01*
X576438Y364296D01*
X576463Y364328D01*
X576511Y364438D01*
X576565Y364544D01*
X576573Y364583D01*
X576590Y364620D01*
X576608Y364738D01*
X576634Y364854D01*
X576633Y364894D01*
X576639Y364934D01*
X576628Y365053D01*
X576625Y365172D01*
X576613Y365211D01*
X576610Y365251D01*
X576569Y365363D01*
X576536Y365477D01*
X576516Y365512D01*
X576502Y365550D01*
X576435Y365649D01*
X576375Y365751D01*
X576335Y365797D01*
X576323Y365813D01*
X576308Y365827D01*
X576268Y365872D01*
X575150Y366990D01*
X573023Y372125D01*
X573023Y377683D01*
X575150Y382818D01*
X579080Y386748D01*
X584215Y388875D01*
X609585Y388875D01*
X614720Y386748D01*
X618650Y382818D01*
X620777Y377683D01*
X620777Y372125D01*
X618650Y366990D01*
X614720Y363060D01*
X609585Y360933D01*
X593768Y360933D01*
X593670Y360921D01*
X593571Y360918D01*
X593512Y360901D01*
X593452Y360893D01*
X593360Y360857D01*
X593265Y360829D01*
X593213Y360799D01*
X593157Y360776D01*
X593077Y360718D01*
X592991Y360668D01*
X592916Y360602D01*
X592899Y360590D01*
X592892Y360580D01*
X592870Y360562D01*
X401184Y168876D01*
X401124Y168797D01*
X401056Y168725D01*
X401027Y168672D01*
X400990Y168624D01*
X400950Y168533D01*
X400902Y168447D01*
X400887Y168388D01*
X400863Y168332D01*
X400848Y168234D01*
X400823Y168139D01*
X400817Y168039D01*
X400813Y168018D01*
X400815Y168006D01*
X400813Y167978D01*
X400813Y49385D01*
X399730Y46771D01*
X392181Y39222D01*
X392163Y39198D01*
X392140Y39179D01*
X392066Y39073D01*
X391986Y38971D01*
X391974Y38943D01*
X391957Y38919D01*
X391911Y38798D01*
X391859Y38679D01*
X391855Y38649D01*
X391844Y38622D01*
X391830Y38493D01*
X391810Y38365D01*
X391812Y38335D01*
X391809Y38306D01*
X391827Y38177D01*
X391839Y38048D01*
X391849Y38020D01*
X391853Y37991D01*
X391906Y37839D01*
X392939Y35344D01*
X392939Y15456D01*
X391160Y11161D01*
X388516Y8517D01*
X388431Y8408D01*
X388342Y8301D01*
X388334Y8282D01*
X388321Y8266D01*
X388266Y8138D01*
X388207Y8013D01*
X388203Y7993D01*
X388195Y7974D01*
X388173Y7836D01*
X388147Y7700D01*
X388148Y7680D01*
X388145Y7660D01*
X388158Y7521D01*
X388167Y7383D01*
X388173Y7364D01*
X388175Y7344D01*
X388222Y7212D01*
X388265Y7081D01*
X388276Y7063D01*
X388282Y7044D01*
X388361Y6929D01*
X388435Y6812D01*
X388450Y6798D01*
X388461Y6781D01*
X388565Y6689D01*
X388667Y6594D01*
X388684Y6584D01*
X388699Y6571D01*
X388824Y6507D01*
X388945Y6440D01*
X388965Y6435D01*
X388983Y6426D01*
X389119Y6396D01*
X389253Y6361D01*
X389281Y6359D01*
X389293Y6356D01*
X389313Y6357D01*
X389414Y6351D01*
X401418Y6351D01*
X401437Y6353D01*
G37*
G36*
X271632Y6368D02*
X271632Y6368D01*
X271771Y6381D01*
X271790Y6388D01*
X271810Y6391D01*
X271939Y6442D01*
X272070Y6489D01*
X272087Y6500D01*
X272106Y6508D01*
X272218Y6589D01*
X272333Y6667D01*
X272346Y6683D01*
X272363Y6694D01*
X272452Y6802D01*
X272544Y6906D01*
X272553Y6924D01*
X272566Y6939D01*
X272625Y7065D01*
X272688Y7189D01*
X272693Y7209D01*
X272701Y7227D01*
X272727Y7363D01*
X272758Y7499D01*
X272757Y7520D01*
X272761Y7539D01*
X272752Y7678D01*
X272748Y7817D01*
X272743Y7837D01*
X272741Y7857D01*
X272698Y7989D01*
X272660Y8123D01*
X272649Y8140D01*
X272643Y8159D01*
X272569Y8277D01*
X272498Y8397D01*
X272480Y8418D01*
X272473Y8428D01*
X272458Y8442D01*
X272392Y8517D01*
X269748Y11161D01*
X267969Y15456D01*
X267969Y35344D01*
X269748Y39639D01*
X273035Y42926D01*
X277330Y44705D01*
X281978Y44705D01*
X286273Y42926D01*
X289560Y39639D01*
X291181Y35724D01*
X291250Y35604D01*
X291315Y35480D01*
X291329Y35466D01*
X291339Y35448D01*
X291436Y35348D01*
X291529Y35245D01*
X291546Y35234D01*
X291560Y35219D01*
X291678Y35147D01*
X291795Y35070D01*
X291814Y35064D01*
X291831Y35053D01*
X291964Y35012D01*
X292096Y34967D01*
X292116Y34966D01*
X292135Y34960D01*
X292274Y34953D01*
X292413Y34942D01*
X292433Y34945D01*
X292453Y34944D01*
X292589Y34973D01*
X292726Y34996D01*
X292744Y35005D01*
X292764Y35009D01*
X292890Y35070D01*
X293016Y35127D01*
X293032Y35140D01*
X293050Y35148D01*
X293156Y35239D01*
X293264Y35326D01*
X293277Y35342D01*
X293292Y35355D01*
X293372Y35469D01*
X293456Y35580D01*
X293468Y35605D01*
X293475Y35615D01*
X293482Y35634D01*
X293527Y35724D01*
X295148Y39639D01*
X297316Y41806D01*
X297376Y41884D01*
X297444Y41957D01*
X297473Y42010D01*
X297510Y42057D01*
X297550Y42148D01*
X297598Y42235D01*
X297613Y42294D01*
X297637Y42349D01*
X297652Y42447D01*
X297677Y42543D01*
X297683Y42643D01*
X297687Y42663D01*
X297685Y42676D01*
X297687Y42704D01*
X297687Y55118D01*
X297672Y55236D01*
X297665Y55355D01*
X297652Y55393D01*
X297647Y55434D01*
X297604Y55544D01*
X297567Y55657D01*
X297545Y55692D01*
X297530Y55729D01*
X297461Y55825D01*
X297397Y55926D01*
X297367Y55954D01*
X297344Y55987D01*
X297252Y56063D01*
X297165Y56144D01*
X297130Y56164D01*
X297099Y56189D01*
X296991Y56240D01*
X296887Y56298D01*
X296847Y56308D01*
X296811Y56325D01*
X296694Y56347D01*
X296579Y56377D01*
X296519Y56381D01*
X296499Y56385D01*
X296478Y56383D01*
X296418Y56387D01*
X136540Y56387D01*
X136531Y56386D01*
X136521Y56387D01*
X136373Y56366D01*
X136224Y56347D01*
X136216Y56344D01*
X136207Y56343D01*
X136054Y56291D01*
X135674Y56133D01*
X115786Y56133D01*
X111491Y57912D01*
X108204Y61199D01*
X106425Y65494D01*
X106425Y70142D01*
X108204Y74437D01*
X111491Y77724D01*
X115786Y79503D01*
X135674Y79503D01*
X139969Y77724D01*
X143256Y74437D01*
X144515Y71396D01*
X144530Y71371D01*
X144539Y71343D01*
X144608Y71233D01*
X144673Y71120D01*
X144693Y71099D01*
X144709Y71074D01*
X144804Y70985D01*
X144894Y70892D01*
X144919Y70876D01*
X144941Y70856D01*
X145055Y70793D01*
X145165Y70725D01*
X145193Y70717D01*
X145219Y70702D01*
X145345Y70670D01*
X145469Y70632D01*
X145499Y70630D01*
X145527Y70623D01*
X145688Y70613D01*
X150368Y70613D01*
X150486Y70628D01*
X150605Y70635D01*
X150643Y70648D01*
X150684Y70653D01*
X150794Y70696D01*
X150907Y70733D01*
X150942Y70755D01*
X150979Y70770D01*
X151075Y70839D01*
X151176Y70903D01*
X151204Y70933D01*
X151237Y70956D01*
X151313Y71048D01*
X151394Y71135D01*
X151414Y71170D01*
X151439Y71201D01*
X151490Y71309D01*
X151548Y71413D01*
X151558Y71453D01*
X151575Y71489D01*
X151597Y71606D01*
X151627Y71721D01*
X151631Y71781D01*
X151635Y71801D01*
X151633Y71822D01*
X151637Y71882D01*
X151637Y109365D01*
X152720Y111979D01*
X153044Y112302D01*
X153104Y112381D01*
X153172Y112453D01*
X153201Y112506D01*
X153238Y112554D01*
X153278Y112645D01*
X153326Y112731D01*
X153341Y112790D01*
X153365Y112846D01*
X153380Y112944D01*
X153405Y113039D01*
X153411Y113139D01*
X153415Y113160D01*
X153413Y113172D01*
X153415Y113200D01*
X153415Y128100D01*
X153403Y128198D01*
X153400Y128297D01*
X153383Y128356D01*
X153375Y128416D01*
X153339Y128508D01*
X153311Y128603D01*
X153281Y128655D01*
X153258Y128711D01*
X153200Y128791D01*
X153150Y128877D01*
X153084Y128952D01*
X153072Y128969D01*
X153062Y128976D01*
X153044Y128998D01*
X152720Y129321D01*
X151637Y131935D01*
X151637Y169418D01*
X151622Y169536D01*
X151615Y169655D01*
X151602Y169693D01*
X151597Y169734D01*
X151554Y169844D01*
X151517Y169957D01*
X151495Y169992D01*
X151480Y170029D01*
X151411Y170125D01*
X151347Y170226D01*
X151317Y170254D01*
X151294Y170287D01*
X151202Y170363D01*
X151115Y170444D01*
X151080Y170464D01*
X151049Y170489D01*
X150941Y170540D01*
X150837Y170598D01*
X150797Y170608D01*
X150761Y170625D01*
X150644Y170647D01*
X150529Y170677D01*
X150469Y170681D01*
X150449Y170685D01*
X150428Y170683D01*
X150368Y170687D01*
X136540Y170687D01*
X136471Y170678D01*
X136401Y170680D01*
X136348Y170667D01*
X136294Y170663D01*
X136243Y170650D01*
X136224Y170647D01*
X136205Y170640D01*
X136139Y170622D01*
X136138Y170622D01*
X136116Y170611D01*
X136092Y170605D01*
X136012Y170563D01*
X135929Y170530D01*
X135892Y170504D01*
X135852Y170485D01*
X135833Y170468D01*
X135810Y170457D01*
X135744Y170396D01*
X135671Y170344D01*
X135643Y170309D01*
X135608Y170280D01*
X135594Y170260D01*
X135575Y170243D01*
X135526Y170167D01*
X135469Y170099D01*
X135450Y170058D01*
X135423Y170021D01*
X135414Y169998D01*
X135400Y169977D01*
X135371Y169891D01*
X135333Y169811D01*
X135325Y169767D01*
X135308Y169725D01*
X135305Y169700D01*
X135297Y169676D01*
X135290Y169586D01*
X135273Y169499D01*
X135276Y169454D01*
X135271Y169409D01*
X135274Y169384D01*
X135272Y169359D01*
X135288Y169270D01*
X135293Y169181D01*
X135307Y169139D01*
X135313Y169094D01*
X135322Y169071D01*
X135326Y169046D01*
X135364Y168963D01*
X135391Y168879D01*
X135415Y168841D01*
X135432Y168799D01*
X135447Y168779D01*
X135457Y168756D01*
X135514Y168685D01*
X135561Y168610D01*
X135594Y168579D01*
X135620Y168543D01*
X135640Y168527D01*
X135656Y168508D01*
X135728Y168453D01*
X135793Y168392D01*
X135832Y168370D01*
X135867Y168342D01*
X135890Y168331D01*
X135910Y168316D01*
X136054Y168245D01*
X139969Y166624D01*
X143256Y163337D01*
X145035Y159042D01*
X145035Y154394D01*
X143256Y150099D01*
X139969Y146812D01*
X135674Y145033D01*
X115786Y145033D01*
X111491Y146812D01*
X108204Y150099D01*
X107432Y151963D01*
X107383Y152049D01*
X107342Y152139D01*
X107305Y152187D01*
X107275Y152239D01*
X107206Y152310D01*
X107144Y152388D01*
X107095Y152424D01*
X107053Y152468D01*
X106969Y152519D01*
X106890Y152579D01*
X106800Y152623D01*
X106782Y152634D01*
X106770Y152638D01*
X106745Y152650D01*
X104496Y153581D01*
X102603Y155475D01*
X91975Y166103D01*
X90081Y167996D01*
X89153Y170237D01*
X89153Y293313D01*
X90081Y295554D01*
X137832Y343304D01*
X137892Y343382D01*
X137960Y343454D01*
X137989Y343507D01*
X138026Y343555D01*
X138066Y343646D01*
X138114Y343732D01*
X138129Y343791D01*
X138153Y343847D01*
X138168Y343945D01*
X138193Y344040D01*
X138199Y344140D01*
X138203Y344161D01*
X138201Y344173D01*
X138203Y344201D01*
X138203Y344461D01*
X139398Y347345D01*
X141605Y349552D01*
X144489Y350747D01*
X147611Y350747D01*
X149882Y349806D01*
X149930Y349793D01*
X149975Y349772D01*
X150083Y349751D01*
X150189Y349722D01*
X150239Y349721D01*
X150288Y349712D01*
X150397Y349719D01*
X150507Y349717D01*
X150555Y349728D01*
X150605Y349732D01*
X150709Y349765D01*
X150816Y349791D01*
X150860Y349814D01*
X150907Y349830D01*
X151000Y349888D01*
X151097Y349940D01*
X151134Y349973D01*
X151176Y350000D01*
X151251Y350080D01*
X151333Y350154D01*
X151360Y350195D01*
X151394Y350231D01*
X151447Y350328D01*
X151507Y350419D01*
X151524Y350466D01*
X151548Y350510D01*
X151575Y350616D01*
X151611Y350720D01*
X151615Y350770D01*
X151627Y350818D01*
X151637Y350978D01*
X151637Y415628D01*
X151625Y415726D01*
X151622Y415825D01*
X151605Y415884D01*
X151597Y415944D01*
X151561Y416036D01*
X151533Y416131D01*
X151503Y416183D01*
X151480Y416239D01*
X151422Y416319D01*
X151372Y416405D01*
X151306Y416480D01*
X151294Y416497D01*
X151284Y416504D01*
X151266Y416526D01*
X140642Y427149D01*
X140619Y427167D01*
X140600Y427189D01*
X140494Y427264D01*
X140391Y427344D01*
X140364Y427356D01*
X140340Y427373D01*
X140218Y427419D01*
X140099Y427470D01*
X140070Y427475D01*
X140042Y427485D01*
X139913Y427500D01*
X139785Y427520D01*
X139756Y427517D01*
X139726Y427521D01*
X139598Y427502D01*
X139468Y427490D01*
X139441Y427480D01*
X139411Y427476D01*
X139259Y427424D01*
X137324Y426623D01*
X137204Y426554D01*
X137080Y426489D01*
X137065Y426475D01*
X137048Y426465D01*
X136948Y426369D01*
X136845Y426275D01*
X136834Y426258D01*
X136819Y426244D01*
X136747Y426125D01*
X136670Y426009D01*
X136664Y425990D01*
X136653Y425973D01*
X136612Y425840D01*
X136567Y425708D01*
X136566Y425688D01*
X136560Y425669D01*
X136553Y425530D01*
X136542Y425391D01*
X136545Y425371D01*
X136544Y425351D01*
X136572Y425216D01*
X136596Y425078D01*
X136605Y425059D01*
X136609Y425040D01*
X136670Y424915D01*
X136727Y424788D01*
X136740Y424772D01*
X136748Y424754D01*
X136839Y424648D01*
X136926Y424540D01*
X136942Y424527D01*
X136955Y424512D01*
X137068Y424432D01*
X137180Y424348D01*
X137205Y424336D01*
X137215Y424329D01*
X137234Y424322D01*
X137324Y424277D01*
X141239Y422656D01*
X144526Y419369D01*
X146305Y415074D01*
X146305Y410426D01*
X144526Y406131D01*
X141239Y402844D01*
X137324Y401223D01*
X137203Y401154D01*
X137080Y401089D01*
X137065Y401075D01*
X137048Y401065D01*
X136948Y400968D01*
X136845Y400875D01*
X136834Y400858D01*
X136819Y400844D01*
X136747Y400725D01*
X136670Y400609D01*
X136664Y400590D01*
X136653Y400573D01*
X136612Y400440D01*
X136567Y400308D01*
X136566Y400288D01*
X136560Y400269D01*
X136553Y400130D01*
X136542Y399991D01*
X136545Y399971D01*
X136544Y399951D01*
X136573Y399815D01*
X136596Y399678D01*
X136605Y399659D01*
X136609Y399640D01*
X136670Y399514D01*
X136727Y399388D01*
X136740Y399372D01*
X136748Y399354D01*
X136839Y399248D01*
X136926Y399140D01*
X136942Y399127D01*
X136955Y399112D01*
X137069Y399032D01*
X137180Y398948D01*
X137205Y398936D01*
X137215Y398929D01*
X137234Y398922D01*
X137324Y398877D01*
X141239Y397256D01*
X144526Y393969D01*
X146305Y389674D01*
X146305Y385026D01*
X144526Y380731D01*
X141239Y377444D01*
X136944Y375665D01*
X117056Y375665D01*
X112761Y377444D01*
X109474Y380731D01*
X107695Y385026D01*
X107695Y389674D01*
X109474Y393969D01*
X112761Y397256D01*
X116676Y398877D01*
X116796Y398946D01*
X116920Y399011D01*
X116934Y399025D01*
X116952Y399035D01*
X117052Y399132D01*
X117155Y399225D01*
X117166Y399242D01*
X117181Y399256D01*
X117253Y399374D01*
X117330Y399491D01*
X117336Y399510D01*
X117347Y399527D01*
X117388Y399660D01*
X117433Y399792D01*
X117434Y399812D01*
X117440Y399831D01*
X117447Y399970D01*
X117458Y400109D01*
X117455Y400129D01*
X117456Y400149D01*
X117427Y400285D01*
X117404Y400422D01*
X117395Y400440D01*
X117391Y400460D01*
X117330Y400586D01*
X117273Y400712D01*
X117260Y400728D01*
X117252Y400746D01*
X117161Y400852D01*
X117074Y400960D01*
X117058Y400973D01*
X117045Y400988D01*
X116931Y401068D01*
X116820Y401152D01*
X116795Y401164D01*
X116785Y401171D01*
X116766Y401178D01*
X116676Y401223D01*
X112761Y402844D01*
X109474Y406131D01*
X107695Y410426D01*
X107695Y415074D01*
X109474Y419369D01*
X112761Y422656D01*
X116676Y424277D01*
X116796Y424346D01*
X116920Y424411D01*
X116934Y424425D01*
X116952Y424435D01*
X117052Y424532D01*
X117155Y424625D01*
X117166Y424642D01*
X117181Y424656D01*
X117253Y424774D01*
X117330Y424891D01*
X117336Y424910D01*
X117347Y424927D01*
X117388Y425060D01*
X117433Y425192D01*
X117434Y425212D01*
X117440Y425231D01*
X117447Y425370D01*
X117458Y425509D01*
X117455Y425529D01*
X117456Y425549D01*
X117427Y425685D01*
X117404Y425822D01*
X117395Y425840D01*
X117391Y425860D01*
X117330Y425986D01*
X117273Y426112D01*
X117260Y426128D01*
X117252Y426146D01*
X117161Y426252D01*
X117074Y426360D01*
X117058Y426373D01*
X117045Y426388D01*
X116931Y426468D01*
X116820Y426552D01*
X116795Y426564D01*
X116785Y426571D01*
X116766Y426578D01*
X116676Y426623D01*
X112761Y428244D01*
X109474Y431531D01*
X107695Y435826D01*
X107695Y440474D01*
X109474Y444769D01*
X112761Y448056D01*
X117056Y449835D01*
X136944Y449835D01*
X141239Y448056D01*
X144526Y444769D01*
X145409Y442636D01*
X145414Y442628D01*
X145416Y442619D01*
X145492Y442490D01*
X145567Y442360D01*
X145573Y442354D01*
X145578Y442345D01*
X145684Y442225D01*
X164780Y423129D01*
X165863Y420515D01*
X165863Y383032D01*
X165878Y382914D01*
X165885Y382795D01*
X165898Y382757D01*
X165903Y382716D01*
X165946Y382606D01*
X165983Y382493D01*
X166005Y382458D01*
X166020Y382421D01*
X166089Y382325D01*
X166153Y382224D01*
X166183Y382196D01*
X166206Y382163D01*
X166298Y382087D01*
X166385Y382006D01*
X166420Y381986D01*
X166451Y381961D01*
X166559Y381910D01*
X166663Y381852D01*
X166703Y381842D01*
X166739Y381825D01*
X166856Y381803D01*
X166971Y381773D01*
X167031Y381769D01*
X167051Y381765D01*
X167072Y381767D01*
X167132Y381763D01*
X190751Y381763D01*
X190889Y381780D01*
X191027Y381793D01*
X191047Y381800D01*
X191066Y381803D01*
X191195Y381854D01*
X191327Y381901D01*
X191343Y381912D01*
X191362Y381920D01*
X191474Y382001D01*
X191590Y382079D01*
X191603Y382095D01*
X191620Y382106D01*
X191708Y382214D01*
X191800Y382318D01*
X191809Y382336D01*
X191822Y382351D01*
X191882Y382477D01*
X191945Y382601D01*
X191949Y382621D01*
X191958Y382639D01*
X191984Y382775D01*
X192014Y382911D01*
X192014Y382932D01*
X192018Y382951D01*
X192009Y383090D01*
X192005Y383229D01*
X191999Y383249D01*
X191998Y383269D01*
X191955Y383401D01*
X191916Y383535D01*
X191906Y383552D01*
X191900Y383571D01*
X191826Y383689D01*
X191755Y383809D01*
X191736Y383830D01*
X191730Y383840D01*
X191715Y383854D01*
X191648Y383930D01*
X191503Y384075D01*
X178981Y396596D01*
X178583Y397559D01*
X178534Y397645D01*
X178493Y397736D01*
X178455Y397783D01*
X178425Y397836D01*
X178356Y397907D01*
X178294Y397984D01*
X178246Y398020D01*
X178204Y398064D01*
X178119Y398116D01*
X178040Y398175D01*
X177950Y398219D01*
X177933Y398230D01*
X177921Y398234D01*
X177896Y398246D01*
X173908Y399898D01*
X170714Y403092D01*
X168985Y407265D01*
X168985Y426363D01*
X170714Y430536D01*
X173908Y433730D01*
X178081Y435459D01*
X182599Y435459D01*
X186772Y433730D01*
X189966Y430536D01*
X191695Y426363D01*
X191695Y407265D01*
X190343Y404003D01*
X190341Y403994D01*
X190336Y403986D01*
X190299Y403841D01*
X190259Y403696D01*
X190259Y403687D01*
X190257Y403678D01*
X190247Y403517D01*
X190247Y403101D01*
X190259Y403003D01*
X190262Y402904D01*
X190279Y402846D01*
X190287Y402786D01*
X190323Y402693D01*
X190351Y402598D01*
X190381Y402546D01*
X190404Y402490D01*
X190462Y402410D01*
X190512Y402324D01*
X190578Y402249D01*
X190590Y402233D01*
X190600Y402225D01*
X190618Y402204D01*
X199004Y393818D01*
X199082Y393758D01*
X199154Y393690D01*
X199207Y393661D01*
X199255Y393624D01*
X199346Y393584D01*
X199432Y393536D01*
X199491Y393521D01*
X199547Y393497D01*
X199645Y393482D01*
X199740Y393457D01*
X199840Y393451D01*
X199861Y393447D01*
X199873Y393449D01*
X199901Y393447D01*
X306013Y393447D01*
X308254Y392519D01*
X309969Y390804D01*
X310897Y388563D01*
X310897Y382208D01*
X310914Y382070D01*
X310927Y381931D01*
X310934Y381912D01*
X310937Y381892D01*
X310988Y381763D01*
X311035Y381632D01*
X311046Y381615D01*
X311054Y381597D01*
X311135Y381484D01*
X311213Y381369D01*
X311229Y381356D01*
X311240Y381339D01*
X311348Y381250D01*
X311452Y381159D01*
X311470Y381149D01*
X311485Y381137D01*
X311611Y381077D01*
X311735Y381014D01*
X311755Y381010D01*
X311773Y381001D01*
X311910Y380975D01*
X312045Y380944D01*
X312066Y380945D01*
X312085Y380941D01*
X312224Y380950D01*
X312363Y380954D01*
X312383Y380960D01*
X312403Y380961D01*
X312535Y381004D01*
X312669Y381043D01*
X312686Y381053D01*
X312705Y381059D01*
X312823Y381133D01*
X312943Y381204D01*
X312964Y381223D01*
X312974Y381229D01*
X312988Y381244D01*
X313053Y381301D01*
X315939Y382497D01*
X316199Y382497D01*
X316297Y382509D01*
X316396Y382512D01*
X316454Y382529D01*
X316514Y382537D01*
X316607Y382573D01*
X316702Y382601D01*
X316754Y382631D01*
X316810Y382654D01*
X316890Y382712D01*
X316976Y382762D01*
X317051Y382828D01*
X317067Y382840D01*
X317075Y382850D01*
X317096Y382868D01*
X402214Y467987D01*
X402300Y468096D01*
X402388Y468203D01*
X402397Y468222D01*
X402409Y468238D01*
X402465Y468366D01*
X402524Y468491D01*
X402528Y468511D01*
X402536Y468530D01*
X402558Y468668D01*
X402584Y468804D01*
X402582Y468824D01*
X402586Y468844D01*
X402572Y468983D01*
X402564Y469121D01*
X402558Y469140D01*
X402556Y469160D01*
X402509Y469292D01*
X402466Y469423D01*
X402455Y469441D01*
X402448Y469460D01*
X402370Y469575D01*
X402296Y469692D01*
X402281Y469706D01*
X402270Y469723D01*
X402166Y469815D01*
X402064Y469910D01*
X402046Y469920D01*
X402031Y469933D01*
X401907Y469996D01*
X401786Y470064D01*
X401766Y470069D01*
X401748Y470078D01*
X401612Y470108D01*
X401478Y470143D01*
X401450Y470145D01*
X401438Y470148D01*
X401417Y470147D01*
X401317Y470153D01*
X333251Y470153D01*
X333153Y470141D01*
X333054Y470138D01*
X332996Y470121D01*
X332936Y470113D01*
X332843Y470077D01*
X332748Y470049D01*
X332696Y470019D01*
X332640Y469996D01*
X332560Y469938D01*
X332474Y469888D01*
X332399Y469822D01*
X332383Y469810D01*
X332375Y469800D01*
X332354Y469782D01*
X292617Y430045D01*
X292599Y430022D01*
X292577Y430003D01*
X292502Y429897D01*
X292422Y429794D01*
X292411Y429767D01*
X292394Y429743D01*
X292348Y429621D01*
X292296Y429502D01*
X292291Y429473D01*
X292281Y429445D01*
X292267Y429316D01*
X292246Y429188D01*
X292249Y429159D01*
X292246Y429129D01*
X292264Y429001D01*
X292276Y428871D01*
X292286Y428844D01*
X292290Y428814D01*
X292342Y428662D01*
X293295Y426363D01*
X293295Y407265D01*
X291566Y403092D01*
X288372Y399898D01*
X284199Y398169D01*
X279681Y398169D01*
X275508Y399898D01*
X272314Y403092D01*
X270585Y407265D01*
X270585Y426363D01*
X272314Y430536D01*
X275508Y433730D01*
X279681Y435459D01*
X280261Y435459D01*
X280359Y435471D01*
X280458Y435474D01*
X280516Y435491D01*
X280576Y435499D01*
X280669Y435535D01*
X280764Y435563D01*
X280816Y435593D01*
X280872Y435616D01*
X280952Y435674D01*
X281038Y435724D01*
X281113Y435790D01*
X281129Y435802D01*
X281137Y435812D01*
X281158Y435830D01*
X324853Y479525D01*
X326746Y481419D01*
X328987Y482347D01*
X405384Y482347D01*
X405502Y482362D01*
X405621Y482369D01*
X405659Y482382D01*
X405700Y482387D01*
X405810Y482430D01*
X405923Y482467D01*
X405958Y482489D01*
X405995Y482504D01*
X406091Y482573D01*
X406192Y482637D01*
X406220Y482667D01*
X406253Y482690D01*
X406329Y482782D01*
X406410Y482869D01*
X406430Y482904D01*
X406455Y482935D01*
X406506Y483043D01*
X406564Y483147D01*
X406574Y483187D01*
X406591Y483223D01*
X406613Y483340D01*
X406643Y483455D01*
X406647Y483515D01*
X406651Y483535D01*
X406649Y483556D01*
X406653Y483616D01*
X406653Y493511D01*
X406652Y493520D01*
X406653Y493529D01*
X406632Y493678D01*
X406613Y493826D01*
X406610Y493835D01*
X406609Y493844D01*
X406557Y493997D01*
X405033Y497676D01*
X404964Y497797D01*
X404899Y497920D01*
X404885Y497935D01*
X404875Y497952D01*
X404778Y498052D01*
X404685Y498155D01*
X404668Y498166D01*
X404654Y498181D01*
X404535Y498253D01*
X404419Y498330D01*
X404400Y498336D01*
X404383Y498347D01*
X404250Y498388D01*
X404118Y498433D01*
X404098Y498434D01*
X404079Y498440D01*
X403940Y498447D01*
X403801Y498458D01*
X403781Y498455D01*
X403761Y498456D01*
X403625Y498427D01*
X403488Y498404D01*
X403469Y498395D01*
X403450Y498391D01*
X403324Y498330D01*
X403198Y498273D01*
X403182Y498260D01*
X403164Y498252D01*
X403058Y498161D01*
X402950Y498074D01*
X402937Y498058D01*
X402922Y498045D01*
X402842Y497932D01*
X402758Y497820D01*
X402746Y497795D01*
X402739Y497785D01*
X402732Y497766D01*
X402687Y497676D01*
X401066Y493761D01*
X397779Y490474D01*
X393484Y488695D01*
X388836Y488695D01*
X384541Y490474D01*
X381254Y493761D01*
X379633Y497676D01*
X379564Y497797D01*
X379499Y497920D01*
X379485Y497935D01*
X379475Y497952D01*
X379378Y498052D01*
X379285Y498155D01*
X379268Y498166D01*
X379254Y498181D01*
X379135Y498253D01*
X379019Y498330D01*
X379000Y498336D01*
X378983Y498347D01*
X378850Y498388D01*
X378718Y498433D01*
X378698Y498434D01*
X378679Y498440D01*
X378540Y498447D01*
X378401Y498458D01*
X378381Y498455D01*
X378361Y498456D01*
X378225Y498427D01*
X378088Y498404D01*
X378069Y498395D01*
X378050Y498391D01*
X377924Y498330D01*
X377798Y498273D01*
X377782Y498260D01*
X377764Y498252D01*
X377658Y498161D01*
X377550Y498074D01*
X377537Y498058D01*
X377522Y498045D01*
X377442Y497931D01*
X377358Y497820D01*
X377346Y497795D01*
X377339Y497785D01*
X377332Y497766D01*
X377287Y497676D01*
X375666Y493761D01*
X372379Y490474D01*
X368084Y488695D01*
X363436Y488695D01*
X359141Y490474D01*
X355854Y493761D01*
X354233Y497676D01*
X354164Y497796D01*
X354099Y497920D01*
X354085Y497934D01*
X354075Y497952D01*
X353978Y498052D01*
X353885Y498155D01*
X353868Y498166D01*
X353854Y498181D01*
X353736Y498253D01*
X353619Y498330D01*
X353600Y498336D01*
X353583Y498347D01*
X353450Y498388D01*
X353318Y498433D01*
X353298Y498434D01*
X353279Y498440D01*
X353140Y498447D01*
X353001Y498458D01*
X352981Y498455D01*
X352961Y498456D01*
X352825Y498427D01*
X352688Y498404D01*
X352670Y498395D01*
X352650Y498391D01*
X352524Y498330D01*
X352398Y498273D01*
X352382Y498260D01*
X352364Y498252D01*
X352258Y498161D01*
X352150Y498074D01*
X352137Y498058D01*
X352122Y498045D01*
X352042Y497931D01*
X351958Y497820D01*
X351946Y497795D01*
X351939Y497785D01*
X351932Y497766D01*
X351887Y497676D01*
X350266Y493761D01*
X346979Y490474D01*
X342684Y488695D01*
X338036Y488695D01*
X333741Y490474D01*
X330454Y493761D01*
X328833Y497676D01*
X328764Y497797D01*
X328699Y497919D01*
X328685Y497934D01*
X328675Y497952D01*
X328578Y498052D01*
X328485Y498155D01*
X328468Y498166D01*
X328454Y498181D01*
X328335Y498253D01*
X328219Y498330D01*
X328200Y498336D01*
X328183Y498347D01*
X328050Y498388D01*
X327918Y498433D01*
X327898Y498434D01*
X327879Y498440D01*
X327740Y498447D01*
X327601Y498458D01*
X327581Y498455D01*
X327561Y498455D01*
X327425Y498427D01*
X327288Y498404D01*
X327269Y498395D01*
X327250Y498391D01*
X327124Y498330D01*
X326998Y498273D01*
X326982Y498260D01*
X326964Y498251D01*
X326858Y498161D01*
X326750Y498074D01*
X326737Y498058D01*
X326722Y498045D01*
X326642Y497931D01*
X326558Y497820D01*
X326546Y497795D01*
X326539Y497785D01*
X326532Y497766D01*
X326487Y497676D01*
X324866Y493761D01*
X321579Y490474D01*
X317284Y488695D01*
X312636Y488695D01*
X308341Y490474D01*
X305054Y493761D01*
X303433Y497676D01*
X303364Y497797D01*
X303299Y497919D01*
X303285Y497934D01*
X303275Y497952D01*
X303178Y498052D01*
X303085Y498155D01*
X303068Y498166D01*
X303054Y498181D01*
X302935Y498253D01*
X302819Y498330D01*
X302800Y498336D01*
X302783Y498347D01*
X302650Y498388D01*
X302518Y498433D01*
X302498Y498434D01*
X302479Y498440D01*
X302340Y498447D01*
X302201Y498458D01*
X302181Y498455D01*
X302161Y498455D01*
X302025Y498427D01*
X301888Y498404D01*
X301869Y498395D01*
X301850Y498391D01*
X301724Y498330D01*
X301598Y498273D01*
X301582Y498260D01*
X301564Y498251D01*
X301458Y498161D01*
X301350Y498074D01*
X301337Y498058D01*
X301322Y498045D01*
X301242Y497931D01*
X301158Y497820D01*
X301146Y497795D01*
X301139Y497785D01*
X301132Y497766D01*
X301087Y497676D01*
X299466Y493761D01*
X296179Y490474D01*
X291884Y488695D01*
X287236Y488695D01*
X282941Y490474D01*
X279654Y493761D01*
X277875Y498056D01*
X277875Y517944D01*
X279654Y522239D01*
X282298Y524883D01*
X282383Y524992D01*
X282472Y525099D01*
X282480Y525118D01*
X282493Y525134D01*
X282548Y525262D01*
X282607Y525387D01*
X282611Y525407D01*
X282619Y525426D01*
X282641Y525564D01*
X282667Y525700D01*
X282666Y525720D01*
X282669Y525740D01*
X282656Y525879D01*
X282647Y526017D01*
X282641Y526036D01*
X282639Y526056D01*
X282592Y526188D01*
X282549Y526319D01*
X282538Y526337D01*
X282532Y526356D01*
X282453Y526471D01*
X282379Y526588D01*
X282364Y526602D01*
X282353Y526619D01*
X282249Y526711D01*
X282147Y526806D01*
X282130Y526816D01*
X282115Y526829D01*
X281990Y526893D01*
X281869Y526960D01*
X281849Y526965D01*
X281831Y526974D01*
X281695Y527004D01*
X281561Y527039D01*
X281533Y527041D01*
X281521Y527044D01*
X281501Y527043D01*
X281400Y527049D01*
X269396Y527049D01*
X269377Y527047D01*
X269357Y527049D01*
X269219Y527027D01*
X269081Y527009D01*
X269062Y527002D01*
X269043Y526999D01*
X268915Y526944D01*
X268785Y526892D01*
X268769Y526881D01*
X268751Y526873D01*
X268641Y526788D01*
X268528Y526706D01*
X268515Y526690D01*
X268499Y526678D01*
X268414Y526568D01*
X268325Y526461D01*
X268317Y526442D01*
X268304Y526427D01*
X268249Y526299D01*
X268190Y526173D01*
X268186Y526153D01*
X268178Y526135D01*
X268156Y525997D01*
X268130Y525861D01*
X268131Y525841D01*
X268128Y525821D01*
X268141Y525682D01*
X268150Y525543D01*
X268156Y525524D01*
X268158Y525504D01*
X268205Y525373D01*
X268248Y525241D01*
X268258Y525224D01*
X268265Y525205D01*
X268343Y525090D01*
X268418Y524972D01*
X268432Y524958D01*
X268443Y524942D01*
X268548Y524850D01*
X268649Y524754D01*
X268667Y524744D01*
X268682Y524731D01*
X268820Y524649D01*
X269485Y524310D01*
X270779Y523370D01*
X271910Y522239D01*
X272850Y520945D01*
X273576Y519520D01*
X274071Y517999D01*
X274321Y516420D01*
X274321Y510539D01*
X265430Y510539D01*
X265312Y510524D01*
X265193Y510517D01*
X265155Y510504D01*
X265115Y510499D01*
X265004Y510456D01*
X264891Y510419D01*
X264857Y510397D01*
X264819Y510382D01*
X264723Y510312D01*
X264622Y510249D01*
X264594Y510219D01*
X264562Y510195D01*
X264486Y510104D01*
X264404Y510017D01*
X264385Y509982D01*
X264359Y509951D01*
X264308Y509843D01*
X264251Y509739D01*
X264240Y509699D01*
X264223Y509663D01*
X264201Y509546D01*
X264171Y509431D01*
X264167Y509370D01*
X264163Y509350D01*
X264165Y509330D01*
X264161Y509270D01*
X264161Y507999D01*
X264159Y507999D01*
X264159Y509270D01*
X264144Y509388D01*
X264137Y509507D01*
X264124Y509545D01*
X264119Y509585D01*
X264075Y509696D01*
X264039Y509809D01*
X264017Y509844D01*
X264002Y509881D01*
X263932Y509977D01*
X263869Y510078D01*
X263839Y510106D01*
X263815Y510139D01*
X263724Y510214D01*
X263637Y510296D01*
X263602Y510316D01*
X263570Y510341D01*
X263463Y510392D01*
X263358Y510450D01*
X263319Y510460D01*
X263283Y510477D01*
X263166Y510499D01*
X263051Y510529D01*
X262990Y510533D01*
X262970Y510537D01*
X262950Y510535D01*
X262890Y510539D01*
X253999Y510539D01*
X253999Y516420D01*
X254249Y517999D01*
X254744Y519520D01*
X255470Y520945D01*
X256410Y522239D01*
X257541Y523370D01*
X258835Y524310D01*
X259500Y524649D01*
X259516Y524660D01*
X259535Y524668D01*
X259647Y524749D01*
X259763Y524828D01*
X259776Y524843D01*
X259792Y524854D01*
X259881Y524962D01*
X259973Y525066D01*
X259982Y525084D01*
X259995Y525099D01*
X260054Y525225D01*
X260118Y525350D01*
X260122Y525369D01*
X260130Y525387D01*
X260157Y525524D01*
X260187Y525660D01*
X260186Y525680D01*
X260190Y525700D01*
X260182Y525839D01*
X260177Y525978D01*
X260172Y525997D01*
X260170Y526017D01*
X260127Y526150D01*
X260089Y526283D01*
X260079Y526301D01*
X260072Y526319D01*
X259998Y526437D01*
X259927Y526557D01*
X259913Y526571D01*
X259902Y526588D01*
X259801Y526684D01*
X259702Y526782D01*
X259685Y526792D01*
X259671Y526806D01*
X259549Y526873D01*
X259429Y526944D01*
X259410Y526950D01*
X259392Y526960D01*
X259257Y526994D01*
X259123Y527033D01*
X259103Y527034D01*
X259084Y527039D01*
X258924Y527049D01*
X246920Y527049D01*
X246782Y527032D01*
X246643Y527019D01*
X246624Y527012D01*
X246604Y527009D01*
X246475Y526958D01*
X246344Y526911D01*
X246327Y526900D01*
X246308Y526892D01*
X246196Y526811D01*
X246081Y526733D01*
X246068Y526717D01*
X246051Y526706D01*
X245962Y526598D01*
X245870Y526494D01*
X245861Y526476D01*
X245848Y526461D01*
X245789Y526335D01*
X245726Y526211D01*
X245721Y526191D01*
X245713Y526173D01*
X245687Y526037D01*
X245656Y525901D01*
X245657Y525880D01*
X245653Y525861D01*
X245662Y525722D01*
X245666Y525583D01*
X245671Y525563D01*
X245673Y525543D01*
X245716Y525411D01*
X245754Y525277D01*
X245765Y525260D01*
X245771Y525241D01*
X245845Y525123D01*
X245916Y525003D01*
X245934Y524982D01*
X245941Y524972D01*
X245956Y524958D01*
X246022Y524883D01*
X248666Y522239D01*
X250445Y517944D01*
X250445Y498056D01*
X248666Y493761D01*
X245379Y490474D01*
X241084Y488695D01*
X236436Y488695D01*
X232141Y490474D01*
X228854Y493761D01*
X227233Y497676D01*
X227164Y497797D01*
X227099Y497919D01*
X227085Y497934D01*
X227075Y497952D01*
X226978Y498052D01*
X226885Y498155D01*
X226868Y498166D01*
X226854Y498181D01*
X226735Y498253D01*
X226619Y498330D01*
X226600Y498336D01*
X226583Y498347D01*
X226450Y498388D01*
X226318Y498433D01*
X226298Y498434D01*
X226279Y498440D01*
X226140Y498447D01*
X226001Y498458D01*
X225981Y498455D01*
X225961Y498455D01*
X225825Y498427D01*
X225688Y498404D01*
X225669Y498395D01*
X225650Y498391D01*
X225524Y498330D01*
X225398Y498273D01*
X225382Y498260D01*
X225364Y498251D01*
X225258Y498161D01*
X225150Y498074D01*
X225137Y498058D01*
X225122Y498045D01*
X225042Y497931D01*
X224958Y497820D01*
X224946Y497795D01*
X224939Y497785D01*
X224932Y497766D01*
X224887Y497676D01*
X223266Y493761D01*
X222386Y492881D01*
X222313Y492787D01*
X222234Y492698D01*
X222216Y492662D01*
X222191Y492630D01*
X222144Y492520D01*
X222090Y492415D01*
X222081Y492375D01*
X222065Y492338D01*
X222046Y492220D01*
X222020Y492104D01*
X222021Y492064D01*
X222015Y492024D01*
X222026Y491905D01*
X222030Y491786D01*
X222041Y491748D01*
X222045Y491707D01*
X222085Y491595D01*
X222118Y491481D01*
X222138Y491446D01*
X222152Y491408D01*
X222219Y491310D01*
X222279Y491207D01*
X222319Y491162D01*
X222331Y491145D01*
X222346Y491131D01*
X222386Y491086D01*
X248054Y465418D01*
X248132Y465358D01*
X248204Y465290D01*
X248257Y465261D01*
X248305Y465224D01*
X248396Y465184D01*
X248482Y465136D01*
X248541Y465121D01*
X248597Y465097D01*
X248695Y465082D01*
X248790Y465057D01*
X248890Y465051D01*
X248911Y465047D01*
X248923Y465049D01*
X248951Y465047D01*
X249211Y465047D01*
X252095Y463852D01*
X254302Y461645D01*
X255497Y458761D01*
X255497Y455639D01*
X254302Y452755D01*
X252095Y450548D01*
X249211Y449353D01*
X246089Y449353D01*
X243300Y450509D01*
X243166Y450545D01*
X243033Y450586D01*
X243012Y450587D01*
X242993Y450593D01*
X242853Y450595D01*
X242715Y450601D01*
X242695Y450597D01*
X242675Y450598D01*
X242539Y450565D01*
X242404Y450537D01*
X242385Y450528D01*
X242366Y450524D01*
X242243Y450459D01*
X242118Y450397D01*
X242102Y450384D01*
X242085Y450375D01*
X241982Y450281D01*
X241876Y450191D01*
X241864Y450175D01*
X241849Y450161D01*
X241773Y450045D01*
X241693Y449931D01*
X241686Y449912D01*
X241674Y449895D01*
X241629Y449764D01*
X241580Y449634D01*
X241578Y449614D01*
X241571Y449594D01*
X241560Y449456D01*
X241545Y449318D01*
X241548Y449298D01*
X241546Y449277D01*
X241570Y449140D01*
X241571Y449132D01*
X241574Y449082D01*
X241581Y449061D01*
X241589Y449003D01*
X241598Y448976D01*
X241600Y448964D01*
X241609Y448945D01*
X241641Y448850D01*
X242797Y446061D01*
X242797Y442939D01*
X241602Y440055D01*
X239395Y437848D01*
X236511Y436653D01*
X233389Y436653D01*
X230505Y437848D01*
X228298Y440055D01*
X227103Y442939D01*
X227103Y443199D01*
X227091Y443297D01*
X227088Y443396D01*
X227071Y443454D01*
X227063Y443514D01*
X227027Y443607D01*
X226999Y443702D01*
X226969Y443754D01*
X226946Y443810D01*
X226888Y443890D01*
X226838Y443976D01*
X226772Y444051D01*
X226760Y444067D01*
X226750Y444075D01*
X226732Y444096D01*
X185331Y485496D01*
X184403Y487737D01*
X184403Y488358D01*
X184400Y488387D01*
X184402Y488416D01*
X184380Y488545D01*
X184363Y488673D01*
X184353Y488701D01*
X184348Y488730D01*
X184294Y488848D01*
X184246Y488969D01*
X184229Y488993D01*
X184217Y489020D01*
X184136Y489121D01*
X184060Y489226D01*
X184037Y489245D01*
X184018Y489268D01*
X183915Y489346D01*
X183815Y489429D01*
X183788Y489442D01*
X183764Y489459D01*
X183620Y489530D01*
X181341Y490474D01*
X178054Y493761D01*
X176275Y498056D01*
X176275Y517944D01*
X178054Y522239D01*
X180698Y524883D01*
X180783Y524992D01*
X180872Y525099D01*
X180880Y525118D01*
X180893Y525134D01*
X180948Y525262D01*
X181007Y525387D01*
X181011Y525407D01*
X181019Y525426D01*
X181041Y525564D01*
X181067Y525700D01*
X181066Y525720D01*
X181069Y525740D01*
X181056Y525879D01*
X181047Y526017D01*
X181041Y526036D01*
X181039Y526056D01*
X180992Y526188D01*
X180949Y526319D01*
X180938Y526337D01*
X180932Y526356D01*
X180853Y526471D01*
X180779Y526588D01*
X180764Y526602D01*
X180753Y526619D01*
X180649Y526711D01*
X180547Y526806D01*
X180530Y526816D01*
X180515Y526829D01*
X180390Y526893D01*
X180269Y526960D01*
X180249Y526965D01*
X180231Y526974D01*
X180095Y527004D01*
X179961Y527039D01*
X179933Y527041D01*
X179921Y527044D01*
X179901Y527043D01*
X179800Y527049D01*
X10000Y527049D01*
X9980Y527047D01*
X9876Y527043D01*
X9411Y526997D01*
X9308Y526974D01*
X9202Y526959D01*
X9123Y526932D01*
X9101Y526927D01*
X9087Y526920D01*
X9050Y526907D01*
X8192Y526552D01*
X8184Y526547D01*
X8175Y526544D01*
X8046Y526468D01*
X7916Y526394D01*
X7909Y526388D01*
X7901Y526383D01*
X7780Y526276D01*
X7124Y525620D01*
X7118Y525612D01*
X7111Y525607D01*
X7021Y525487D01*
X6929Y525368D01*
X6925Y525360D01*
X6919Y525353D01*
X6848Y525208D01*
X6493Y524350D01*
X6465Y524247D01*
X6428Y524148D01*
X6415Y524064D01*
X6409Y524043D01*
X6409Y524028D01*
X6403Y523989D01*
X6357Y523524D01*
X6357Y523504D01*
X6351Y523400D01*
X6351Y10000D01*
X6353Y9980D01*
X6357Y9876D01*
X6403Y9411D01*
X6426Y9308D01*
X6441Y9202D01*
X6468Y9122D01*
X6473Y9101D01*
X6480Y9087D01*
X6493Y9050D01*
X6848Y8192D01*
X6853Y8184D01*
X6856Y8175D01*
X6932Y8045D01*
X7006Y7916D01*
X7012Y7909D01*
X7017Y7901D01*
X7124Y7780D01*
X7780Y7124D01*
X7788Y7118D01*
X7793Y7111D01*
X7913Y7021D01*
X8032Y6929D01*
X8040Y6925D01*
X8047Y6919D01*
X8192Y6848D01*
X9050Y6493D01*
X9153Y6465D01*
X9252Y6428D01*
X9336Y6415D01*
X9357Y6409D01*
X9373Y6409D01*
X9411Y6403D01*
X9876Y6357D01*
X9895Y6357D01*
X10000Y6351D01*
X271494Y6351D01*
X271632Y6368D01*
G37*
G36*
X317833Y34945D02*
X317833Y34945D01*
X317853Y34944D01*
X317989Y34973D01*
X318126Y34996D01*
X318144Y35005D01*
X318164Y35009D01*
X318290Y35070D01*
X318416Y35127D01*
X318432Y35140D01*
X318450Y35148D01*
X318556Y35239D01*
X318664Y35326D01*
X318677Y35342D01*
X318692Y35355D01*
X318772Y35469D01*
X318856Y35580D01*
X318868Y35605D01*
X318875Y35615D01*
X318882Y35634D01*
X318927Y35724D01*
X320548Y39639D01*
X323835Y42926D01*
X325036Y43423D01*
X325079Y43448D01*
X325126Y43465D01*
X325217Y43526D01*
X325312Y43581D01*
X325348Y43615D01*
X325389Y43643D01*
X325462Y43726D01*
X325541Y43802D01*
X325567Y43844D01*
X325599Y43882D01*
X325649Y43980D01*
X325707Y44073D01*
X325721Y44121D01*
X325744Y44165D01*
X325768Y44272D01*
X325800Y44377D01*
X325803Y44427D01*
X325814Y44475D01*
X325810Y44585D01*
X325816Y44695D01*
X325806Y44743D01*
X325804Y44793D01*
X325774Y44899D01*
X325751Y45006D01*
X325729Y45051D01*
X325716Y45099D01*
X325660Y45193D01*
X325612Y45292D01*
X325579Y45330D01*
X325554Y45373D01*
X325448Y45493D01*
X317820Y53121D01*
X316737Y55735D01*
X316737Y145799D01*
X316720Y145937D01*
X316707Y146075D01*
X316700Y146094D01*
X316697Y146115D01*
X316646Y146244D01*
X316599Y146375D01*
X316588Y146392D01*
X316580Y146410D01*
X316499Y146523D01*
X316421Y146638D01*
X316405Y146651D01*
X316394Y146668D01*
X316286Y146756D01*
X316182Y146848D01*
X316164Y146857D01*
X316149Y146870D01*
X316023Y146930D01*
X315899Y146993D01*
X315879Y146997D01*
X315861Y147006D01*
X315724Y147032D01*
X315589Y147063D01*
X315568Y147062D01*
X315549Y147066D01*
X315410Y147057D01*
X315271Y147053D01*
X315251Y147047D01*
X315231Y147046D01*
X315099Y147003D01*
X314965Y146964D01*
X314948Y146954D01*
X314929Y146948D01*
X314811Y146874D01*
X314691Y146803D01*
X314670Y146784D01*
X314660Y146778D01*
X314646Y146763D01*
X314571Y146696D01*
X313772Y145898D01*
X309599Y144169D01*
X305081Y144169D01*
X300908Y145898D01*
X297714Y149092D01*
X295985Y153265D01*
X295985Y172363D01*
X297714Y176536D01*
X300908Y179730D01*
X302408Y180351D01*
X302451Y180376D01*
X302498Y180393D01*
X302589Y180454D01*
X302684Y180509D01*
X302720Y180543D01*
X302761Y180571D01*
X302834Y180654D01*
X302913Y180730D01*
X302939Y180772D01*
X302971Y180810D01*
X303021Y180908D01*
X303079Y181001D01*
X303093Y181049D01*
X303116Y181093D01*
X303140Y181200D01*
X303172Y181305D01*
X303175Y181355D01*
X303186Y181403D01*
X303182Y181513D01*
X303188Y181623D01*
X303178Y181672D01*
X303176Y181721D01*
X303146Y181827D01*
X303123Y181934D01*
X303101Y181979D01*
X303088Y182027D01*
X303032Y182121D01*
X302984Y182220D01*
X302951Y182258D01*
X302926Y182301D01*
X302820Y182421D01*
X250149Y235092D01*
X247970Y237271D01*
X246887Y239885D01*
X246887Y251520D01*
X246886Y251529D01*
X246887Y251538D01*
X246866Y251687D01*
X246847Y251835D01*
X246844Y251844D01*
X246843Y251853D01*
X246791Y252006D01*
X245185Y255881D01*
X245185Y274979D01*
X246914Y279152D01*
X250108Y282346D01*
X254281Y284075D01*
X258799Y284075D01*
X262972Y282346D01*
X266166Y279152D01*
X267895Y274979D01*
X267895Y255881D01*
X266166Y251708D01*
X262972Y248514D01*
X261896Y248068D01*
X261871Y248054D01*
X261843Y248045D01*
X261733Y247975D01*
X261620Y247911D01*
X261599Y247890D01*
X261574Y247874D01*
X261485Y247780D01*
X261392Y247690D01*
X261376Y247664D01*
X261356Y247643D01*
X261293Y247529D01*
X261225Y247418D01*
X261217Y247390D01*
X261202Y247364D01*
X261170Y247239D01*
X261132Y247115D01*
X261130Y247085D01*
X261123Y247056D01*
X261113Y246896D01*
X261113Y244772D01*
X261125Y244674D01*
X261128Y244575D01*
X261145Y244516D01*
X261153Y244456D01*
X261189Y244364D01*
X261217Y244269D01*
X261247Y244217D01*
X261270Y244161D01*
X261328Y244081D01*
X261378Y243995D01*
X261444Y243920D01*
X261456Y243903D01*
X261466Y243896D01*
X261484Y243874D01*
X328754Y176605D01*
X328848Y176532D01*
X328937Y176453D01*
X328973Y176435D01*
X329005Y176410D01*
X329115Y176363D01*
X329221Y176309D01*
X329260Y176300D01*
X329297Y176284D01*
X329415Y176265D01*
X329531Y176239D01*
X329571Y176240D01*
X329611Y176234D01*
X329730Y176245D01*
X329849Y176249D01*
X329888Y176260D01*
X329928Y176264D01*
X330040Y176304D01*
X330154Y176337D01*
X330189Y176358D01*
X330227Y176371D01*
X330326Y176438D01*
X330428Y176499D01*
X330473Y176538D01*
X330490Y176550D01*
X330504Y176565D01*
X330549Y176605D01*
X333242Y179298D01*
X337415Y181027D01*
X356513Y181027D01*
X360686Y179298D01*
X363880Y176104D01*
X365609Y171931D01*
X365609Y167413D01*
X363880Y163240D01*
X360686Y160046D01*
X356513Y158317D01*
X337415Y158317D01*
X333242Y160046D01*
X333130Y160158D01*
X333020Y160244D01*
X332913Y160332D01*
X332894Y160341D01*
X332878Y160353D01*
X332750Y160409D01*
X332625Y160468D01*
X332605Y160472D01*
X332586Y160480D01*
X332449Y160502D01*
X332312Y160528D01*
X332292Y160526D01*
X332272Y160530D01*
X332134Y160517D01*
X331995Y160508D01*
X331976Y160502D01*
X331956Y160500D01*
X331825Y160453D01*
X331693Y160410D01*
X331675Y160399D01*
X331656Y160392D01*
X331541Y160314D01*
X331424Y160240D01*
X331410Y160225D01*
X331393Y160214D01*
X331301Y160109D01*
X331206Y160008D01*
X331196Y159990D01*
X331183Y159975D01*
X331119Y159851D01*
X331052Y159730D01*
X331047Y159710D01*
X331038Y159692D01*
X331008Y159556D01*
X330973Y159422D01*
X330971Y159394D01*
X330968Y159382D01*
X330969Y159361D01*
X330963Y159261D01*
X330963Y128186D01*
X330979Y128055D01*
X330985Y127962D01*
X330990Y127948D01*
X330993Y127910D01*
X331000Y127890D01*
X331003Y127870D01*
X331054Y127741D01*
X331083Y127661D01*
X331083Y127659D01*
X331101Y127610D01*
X331112Y127593D01*
X331120Y127575D01*
X331201Y127463D01*
X331279Y127347D01*
X331295Y127334D01*
X331306Y127317D01*
X331414Y127229D01*
X331518Y127137D01*
X331536Y127127D01*
X331551Y127114D01*
X331677Y127055D01*
X331801Y126992D01*
X331821Y126988D01*
X331839Y126979D01*
X331975Y126953D01*
X332111Y126922D01*
X332132Y126923D01*
X332151Y126919D01*
X332290Y126928D01*
X332429Y126932D01*
X332449Y126938D01*
X332469Y126939D01*
X332601Y126982D01*
X332735Y127020D01*
X332752Y127031D01*
X332771Y127037D01*
X332838Y127079D01*
X332856Y127086D01*
X332897Y127116D01*
X333009Y127182D01*
X333030Y127201D01*
X333040Y127207D01*
X333054Y127222D01*
X333107Y127268D01*
X333113Y127273D01*
X333116Y127277D01*
X333129Y127288D01*
X373516Y167674D01*
X373576Y167753D01*
X373644Y167825D01*
X373673Y167878D01*
X373710Y167926D01*
X373750Y168017D01*
X373798Y168103D01*
X373813Y168162D01*
X373837Y168218D01*
X373852Y168316D01*
X373877Y168411D01*
X373883Y168511D01*
X373887Y168532D01*
X373885Y168544D01*
X373887Y168572D01*
X373887Y339428D01*
X373875Y339526D01*
X373872Y339625D01*
X373855Y339684D01*
X373847Y339744D01*
X373811Y339836D01*
X373783Y339931D01*
X373753Y339983D01*
X373730Y340039D01*
X373672Y340119D01*
X373622Y340205D01*
X373556Y340280D01*
X373544Y340297D01*
X373534Y340304D01*
X373516Y340326D01*
X372076Y341766D01*
X371997Y341826D01*
X371925Y341894D01*
X371872Y341923D01*
X371824Y341960D01*
X371733Y342000D01*
X371647Y342048D01*
X371588Y342063D01*
X371532Y342087D01*
X371434Y342102D01*
X371339Y342127D01*
X371239Y342133D01*
X371218Y342137D01*
X371206Y342135D01*
X371178Y342137D01*
X365183Y342137D01*
X365153Y342134D01*
X365124Y342136D01*
X364996Y342114D01*
X364867Y342097D01*
X364840Y342087D01*
X364811Y342082D01*
X364692Y342028D01*
X364571Y341980D01*
X364548Y341963D01*
X364521Y341951D01*
X364419Y341870D01*
X364314Y341794D01*
X364295Y341771D01*
X364272Y341752D01*
X364194Y341649D01*
X364111Y341549D01*
X364099Y341522D01*
X364081Y341498D01*
X364010Y341354D01*
X363880Y341040D01*
X360686Y337846D01*
X356513Y336117D01*
X337415Y336117D01*
X333242Y337846D01*
X332113Y338975D01*
X332004Y339060D01*
X331897Y339148D01*
X331878Y339157D01*
X331862Y339169D01*
X331735Y339225D01*
X331609Y339284D01*
X331589Y339288D01*
X331570Y339296D01*
X331432Y339318D01*
X331296Y339344D01*
X331276Y339342D01*
X331256Y339346D01*
X331117Y339333D01*
X330979Y339324D01*
X330960Y339318D01*
X330940Y339316D01*
X330808Y339269D01*
X330677Y339226D01*
X330659Y339215D01*
X330640Y339208D01*
X330525Y339130D01*
X330408Y339056D01*
X330394Y339041D01*
X330377Y339030D01*
X330285Y338925D01*
X330190Y338824D01*
X330180Y338806D01*
X330167Y338791D01*
X330103Y338667D01*
X330036Y338546D01*
X330031Y338526D01*
X330022Y338508D01*
X329992Y338372D01*
X329957Y338238D01*
X329955Y338210D01*
X329952Y338198D01*
X329953Y338177D01*
X329947Y338077D01*
X329947Y329312D01*
X329964Y329174D01*
X329977Y329035D01*
X329984Y329016D01*
X329987Y328996D01*
X330038Y328867D01*
X330085Y328736D01*
X330096Y328719D01*
X330104Y328701D01*
X330185Y328588D01*
X330263Y328473D01*
X330279Y328460D01*
X330290Y328443D01*
X330398Y328354D01*
X330502Y328262D01*
X330520Y328253D01*
X330535Y328240D01*
X330661Y328181D01*
X330785Y328118D01*
X330805Y328113D01*
X330823Y328105D01*
X330960Y328079D01*
X331095Y328048D01*
X331116Y328049D01*
X331135Y328045D01*
X331274Y328054D01*
X331413Y328058D01*
X331433Y328064D01*
X331453Y328065D01*
X331585Y328108D01*
X331719Y328146D01*
X331736Y328157D01*
X331755Y328163D01*
X331873Y328237D01*
X331993Y328308D01*
X332014Y328326D01*
X332024Y328333D01*
X332038Y328348D01*
X332113Y328414D01*
X333270Y329570D01*
X334521Y330480D01*
X335900Y331183D01*
X337372Y331661D01*
X338900Y331903D01*
X344590Y331903D01*
X344590Y323177D01*
X344605Y323059D01*
X344612Y322940D01*
X344624Y322902D01*
X344630Y322862D01*
X344673Y322751D01*
X344710Y322638D01*
X344732Y322604D01*
X344747Y322566D01*
X344816Y322470D01*
X344880Y322369D01*
X344910Y322341D01*
X344933Y322309D01*
X345025Y322233D01*
X345112Y322151D01*
X345147Y322132D01*
X345178Y322106D01*
X345243Y322076D01*
X345151Y322009D01*
X345051Y321946D01*
X345023Y321916D01*
X344990Y321892D01*
X344914Y321801D01*
X344833Y321714D01*
X344813Y321679D01*
X344788Y321647D01*
X344737Y321540D01*
X344679Y321435D01*
X344669Y321396D01*
X344652Y321360D01*
X344630Y321243D01*
X344600Y321127D01*
X344596Y321067D01*
X344592Y321047D01*
X344594Y321027D01*
X344590Y320967D01*
X344590Y312241D01*
X338900Y312241D01*
X337372Y312483D01*
X335900Y312961D01*
X334521Y313664D01*
X333270Y314574D01*
X332113Y315730D01*
X332004Y315815D01*
X331897Y315904D01*
X331878Y315912D01*
X331862Y315925D01*
X331735Y315980D01*
X331609Y316039D01*
X331589Y316043D01*
X331570Y316051D01*
X331432Y316073D01*
X331296Y316099D01*
X331276Y316098D01*
X331256Y316101D01*
X331117Y316088D01*
X330979Y316079D01*
X330960Y316073D01*
X330940Y316071D01*
X330808Y316024D01*
X330677Y315981D01*
X330659Y315970D01*
X330640Y315963D01*
X330525Y315885D01*
X330408Y315811D01*
X330394Y315796D01*
X330377Y315785D01*
X330285Y315681D01*
X330190Y315579D01*
X330180Y315562D01*
X330167Y315546D01*
X330104Y315423D01*
X330036Y315301D01*
X330031Y315281D01*
X330022Y315263D01*
X329992Y315127D01*
X329957Y314993D01*
X329955Y314965D01*
X329952Y314953D01*
X329953Y314932D01*
X329947Y314832D01*
X329947Y306067D01*
X329964Y305929D01*
X329977Y305791D01*
X329984Y305772D01*
X329987Y305751D01*
X330038Y305622D01*
X330085Y305491D01*
X330096Y305474D01*
X330104Y305456D01*
X330185Y305343D01*
X330263Y305228D01*
X330279Y305215D01*
X330290Y305198D01*
X330398Y305110D01*
X330502Y305018D01*
X330520Y305009D01*
X330535Y304996D01*
X330661Y304936D01*
X330785Y304873D01*
X330805Y304869D01*
X330823Y304860D01*
X330960Y304834D01*
X331095Y304803D01*
X331116Y304804D01*
X331135Y304800D01*
X331274Y304809D01*
X331413Y304813D01*
X331433Y304819D01*
X331453Y304820D01*
X331585Y304863D01*
X331719Y304902D01*
X331736Y304912D01*
X331755Y304918D01*
X331873Y304993D01*
X331993Y305063D01*
X332014Y305082D01*
X332024Y305088D01*
X332038Y305103D01*
X332113Y305169D01*
X333242Y306298D01*
X337415Y308027D01*
X356513Y308027D01*
X360686Y306298D01*
X363880Y303104D01*
X365609Y298931D01*
X365609Y294413D01*
X363880Y290240D01*
X360686Y287046D01*
X356513Y285317D01*
X337415Y285317D01*
X333242Y287046D01*
X330048Y290240D01*
X328319Y294413D01*
X328319Y297583D01*
X328302Y297721D01*
X328289Y297859D01*
X328282Y297878D01*
X328279Y297898D01*
X328228Y298028D01*
X328181Y298159D01*
X328170Y298175D01*
X328162Y298194D01*
X328081Y298307D01*
X328003Y298422D01*
X327987Y298435D01*
X327976Y298452D01*
X327868Y298540D01*
X327764Y298632D01*
X327746Y298641D01*
X327731Y298654D01*
X327605Y298713D01*
X327481Y298777D01*
X327461Y298781D01*
X327443Y298790D01*
X327307Y298816D01*
X327171Y298846D01*
X327150Y298846D01*
X327131Y298850D01*
X326992Y298841D01*
X326853Y298837D01*
X326833Y298831D01*
X326813Y298830D01*
X326681Y298787D01*
X326547Y298748D01*
X326530Y298738D01*
X326511Y298732D01*
X326393Y298658D01*
X326273Y298587D01*
X326252Y298568D01*
X326242Y298562D01*
X326228Y298547D01*
X326153Y298480D01*
X312461Y284789D01*
X312430Y284749D01*
X312394Y284716D01*
X312333Y284624D01*
X312266Y284537D01*
X312246Y284492D01*
X312219Y284450D01*
X312183Y284347D01*
X312140Y284246D01*
X312132Y284196D01*
X312116Y284150D01*
X312107Y284040D01*
X312090Y283932D01*
X312094Y283882D01*
X312090Y283832D01*
X312109Y283724D01*
X312119Y283615D01*
X312136Y283568D01*
X312145Y283519D01*
X312190Y283419D01*
X312227Y283316D01*
X312255Y283275D01*
X312275Y283229D01*
X312344Y283143D01*
X312406Y283052D01*
X312443Y283020D01*
X312474Y282981D01*
X312562Y282915D01*
X312644Y282842D01*
X312688Y282819D01*
X312728Y282790D01*
X312873Y282719D01*
X313772Y282346D01*
X316966Y279152D01*
X318695Y274979D01*
X318695Y255881D01*
X316966Y251708D01*
X313772Y248514D01*
X309599Y246785D01*
X305081Y246785D01*
X300908Y248514D01*
X297714Y251708D01*
X295985Y255881D01*
X295985Y265249D01*
X295968Y265386D01*
X295955Y265525D01*
X295948Y265544D01*
X295945Y265564D01*
X295894Y265694D01*
X295847Y265825D01*
X295836Y265841D01*
X295828Y265860D01*
X295747Y265972D01*
X295669Y266088D01*
X295653Y266101D01*
X295642Y266118D01*
X295534Y266206D01*
X295430Y266298D01*
X295412Y266307D01*
X295397Y266320D01*
X295271Y266379D01*
X295147Y266443D01*
X295127Y266447D01*
X295109Y266456D01*
X294973Y266482D01*
X294837Y266512D01*
X294816Y266512D01*
X294797Y266516D01*
X294658Y266507D01*
X294519Y266503D01*
X294499Y266497D01*
X294479Y266496D01*
X294347Y266453D01*
X294213Y266414D01*
X294196Y266404D01*
X294177Y266398D01*
X294059Y266323D01*
X293939Y266253D01*
X293918Y266234D01*
X293908Y266228D01*
X293894Y266213D01*
X293818Y266146D01*
X293666Y265994D01*
X293606Y265916D01*
X293538Y265844D01*
X293509Y265791D01*
X293471Y265743D01*
X293432Y265652D01*
X293384Y265566D01*
X293369Y265507D01*
X293345Y265451D01*
X293330Y265353D01*
X293305Y265258D01*
X293299Y265157D01*
X293295Y265137D01*
X293297Y265125D01*
X293295Y265097D01*
X293295Y255881D01*
X291566Y251708D01*
X288372Y248514D01*
X284199Y246785D01*
X279681Y246785D01*
X275508Y248514D01*
X272314Y251708D01*
X270585Y255881D01*
X270585Y274979D01*
X272314Y279152D01*
X275508Y282346D01*
X279681Y284075D01*
X284199Y284075D01*
X288372Y282346D01*
X289675Y281043D01*
X289770Y280970D01*
X289859Y280891D01*
X289895Y280872D01*
X289927Y280848D01*
X290036Y280800D01*
X290142Y280746D01*
X290181Y280737D01*
X290219Y280721D01*
X290336Y280703D01*
X290452Y280677D01*
X290493Y280678D01*
X290533Y280671D01*
X290651Y280683D01*
X290770Y280686D01*
X290809Y280697D01*
X290849Y280701D01*
X290961Y280742D01*
X291076Y280775D01*
X291110Y280795D01*
X291149Y280809D01*
X291247Y280876D01*
X291350Y280936D01*
X291395Y280976D01*
X291412Y280987D01*
X291425Y281003D01*
X291470Y281043D01*
X304374Y293947D01*
X304405Y293986D01*
X304442Y294019D01*
X304502Y294111D01*
X304569Y294198D01*
X304589Y294244D01*
X304616Y294285D01*
X304652Y294389D01*
X304696Y294490D01*
X304704Y294539D01*
X304720Y294586D01*
X304728Y294695D01*
X304746Y294804D01*
X304741Y294853D01*
X304745Y294903D01*
X304726Y295011D01*
X304716Y295120D01*
X304699Y295167D01*
X304690Y295216D01*
X304645Y295316D01*
X304608Y295420D01*
X304580Y295461D01*
X304560Y295506D01*
X304491Y295592D01*
X304430Y295683D01*
X304392Y295716D01*
X304361Y295755D01*
X304273Y295821D01*
X304191Y295893D01*
X304147Y295916D01*
X304107Y295946D01*
X303963Y296017D01*
X300908Y297282D01*
X297714Y300476D01*
X295985Y304649D01*
X295985Y323747D01*
X297714Y327920D01*
X300908Y331114D01*
X305081Y332843D01*
X309599Y332843D01*
X313772Y331114D01*
X315587Y329299D01*
X315696Y329214D01*
X315803Y329126D01*
X315822Y329117D01*
X315838Y329105D01*
X315966Y329049D01*
X316091Y328990D01*
X316111Y328986D01*
X316130Y328978D01*
X316268Y328956D01*
X316404Y328930D01*
X316424Y328932D01*
X316444Y328928D01*
X316583Y328941D01*
X316721Y328950D01*
X316740Y328956D01*
X316760Y328958D01*
X316892Y329005D01*
X317023Y329048D01*
X317041Y329059D01*
X317060Y329066D01*
X317175Y329144D01*
X317292Y329218D01*
X317306Y329233D01*
X317323Y329244D01*
X317415Y329349D01*
X317510Y329450D01*
X317520Y329468D01*
X317533Y329483D01*
X317597Y329607D01*
X317664Y329728D01*
X317669Y329748D01*
X317678Y329766D01*
X317708Y329902D01*
X317743Y330036D01*
X317745Y330064D01*
X317748Y330076D01*
X317747Y330097D01*
X317753Y330197D01*
X317753Y350463D01*
X318681Y352704D01*
X319664Y353687D01*
X319749Y353796D01*
X319838Y353903D01*
X319847Y353922D01*
X319859Y353938D01*
X319915Y354065D01*
X319974Y354191D01*
X319978Y354211D01*
X319986Y354230D01*
X320008Y354368D01*
X320034Y354504D01*
X320032Y354524D01*
X320036Y354544D01*
X320022Y354683D01*
X320014Y354821D01*
X320008Y354840D01*
X320006Y354860D01*
X319959Y354991D01*
X319916Y355123D01*
X319905Y355141D01*
X319898Y355160D01*
X319820Y355274D01*
X319746Y355392D01*
X319731Y355406D01*
X319720Y355423D01*
X319616Y355515D01*
X319514Y355610D01*
X319496Y355620D01*
X319481Y355633D01*
X319357Y355696D01*
X319236Y355764D01*
X319216Y355769D01*
X319198Y355778D01*
X319062Y355808D01*
X318928Y355843D01*
X318900Y355845D01*
X318888Y355848D01*
X318867Y355847D01*
X318767Y355853D01*
X316287Y355853D01*
X314046Y356781D01*
X299631Y371196D01*
X298703Y373437D01*
X298703Y379984D01*
X298688Y380102D01*
X298681Y380221D01*
X298668Y380259D01*
X298663Y380300D01*
X298620Y380410D01*
X298583Y380523D01*
X298561Y380558D01*
X298546Y380595D01*
X298477Y380691D01*
X298413Y380792D01*
X298383Y380820D01*
X298360Y380853D01*
X298268Y380929D01*
X298181Y381010D01*
X298146Y381030D01*
X298115Y381055D01*
X298007Y381106D01*
X297903Y381164D01*
X297863Y381174D01*
X297827Y381191D01*
X297710Y381213D01*
X297595Y381243D01*
X297535Y381247D01*
X297515Y381251D01*
X297494Y381249D01*
X297434Y381253D01*
X222420Y381253D01*
X222282Y381236D01*
X222143Y381223D01*
X222124Y381216D01*
X222104Y381213D01*
X221975Y381162D01*
X221844Y381115D01*
X221827Y381104D01*
X221809Y381096D01*
X221696Y381015D01*
X221581Y380937D01*
X221568Y380921D01*
X221551Y380910D01*
X221462Y380802D01*
X221371Y380698D01*
X221361Y380680D01*
X221348Y380665D01*
X221289Y380539D01*
X221226Y380415D01*
X221222Y380395D01*
X221213Y380377D01*
X221187Y380241D01*
X221156Y380105D01*
X221157Y380084D01*
X221153Y380065D01*
X221162Y379926D01*
X221166Y379787D01*
X221172Y379767D01*
X221173Y379747D01*
X221216Y379615D01*
X221254Y379481D01*
X221265Y379464D01*
X221271Y379445D01*
X221345Y379327D01*
X221416Y379207D01*
X221435Y379186D01*
X221441Y379176D01*
X221456Y379162D01*
X221522Y379086D01*
X222108Y378500D01*
X260030Y340579D01*
X261113Y337965D01*
X261113Y332732D01*
X261116Y332703D01*
X261114Y332674D01*
X261136Y332546D01*
X261153Y332417D01*
X261163Y332389D01*
X261168Y332360D01*
X261222Y332242D01*
X261270Y332121D01*
X261287Y332097D01*
X261299Y332070D01*
X261380Y331969D01*
X261456Y331864D01*
X261479Y331845D01*
X261498Y331822D01*
X261601Y331744D01*
X261701Y331661D01*
X261728Y331648D01*
X261752Y331631D01*
X261896Y331560D01*
X262972Y331114D01*
X266166Y327920D01*
X267895Y323747D01*
X267895Y304649D01*
X266166Y300476D01*
X262972Y297282D01*
X258799Y295553D01*
X254281Y295553D01*
X250108Y297282D01*
X246914Y300476D01*
X245185Y304649D01*
X245185Y323747D01*
X246791Y327622D01*
X246793Y327631D01*
X246798Y327639D01*
X246835Y327785D01*
X246875Y327929D01*
X246875Y327938D01*
X246877Y327947D01*
X246887Y328108D01*
X246887Y333078D01*
X246875Y333176D01*
X246872Y333275D01*
X246855Y333334D01*
X246847Y333394D01*
X246811Y333486D01*
X246783Y333581D01*
X246753Y333633D01*
X246730Y333689D01*
X246672Y333769D01*
X246622Y333855D01*
X246556Y333930D01*
X246544Y333947D01*
X246534Y333954D01*
X246516Y333976D01*
X213326Y367166D01*
X213247Y367226D01*
X213175Y367294D01*
X213122Y367323D01*
X213074Y367360D01*
X212983Y367400D01*
X212897Y367448D01*
X212838Y367463D01*
X212782Y367487D01*
X212684Y367502D01*
X212589Y367527D01*
X212489Y367533D01*
X212468Y367537D01*
X212456Y367535D01*
X212428Y367537D01*
X198578Y367537D01*
X198529Y367531D01*
X198480Y367533D01*
X198372Y367511D01*
X198263Y367497D01*
X198217Y367479D01*
X198168Y367469D01*
X198069Y367421D01*
X197967Y367380D01*
X197927Y367351D01*
X197882Y367329D01*
X197799Y367258D01*
X197710Y367194D01*
X197678Y367155D01*
X197640Y367123D01*
X197577Y367033D01*
X197507Y366949D01*
X197486Y366904D01*
X197457Y366863D01*
X197418Y366760D01*
X197372Y366661D01*
X197362Y366612D01*
X197345Y366566D01*
X197332Y366456D01*
X197312Y366349D01*
X197315Y366299D01*
X197309Y366250D01*
X197325Y366141D01*
X197332Y366031D01*
X197347Y365984D01*
X197354Y365935D01*
X197406Y365782D01*
X198366Y363465D01*
X198425Y363361D01*
X198477Y363254D01*
X198503Y363223D01*
X198523Y363188D01*
X198606Y363103D01*
X198683Y363012D01*
X198717Y362989D01*
X198745Y362960D01*
X198846Y362898D01*
X198944Y362829D01*
X198981Y362815D01*
X199016Y362794D01*
X199129Y362759D01*
X199241Y362717D01*
X199281Y362712D01*
X199320Y362700D01*
X199438Y362694D01*
X199557Y362681D01*
X199597Y362687D01*
X199637Y362685D01*
X199754Y362709D01*
X199872Y362726D01*
X199929Y362745D01*
X199949Y362749D01*
X199967Y362758D01*
X200024Y362778D01*
X201639Y363447D01*
X204761Y363447D01*
X207645Y362252D01*
X209852Y360045D01*
X211047Y357161D01*
X211047Y354039D01*
X209852Y351155D01*
X209668Y350972D01*
X209608Y350893D01*
X209540Y350821D01*
X209511Y350768D01*
X209474Y350720D01*
X209434Y350629D01*
X209386Y350543D01*
X209371Y350484D01*
X209347Y350428D01*
X209332Y350330D01*
X209307Y350235D01*
X209301Y350135D01*
X209297Y350114D01*
X209299Y350102D01*
X209297Y350074D01*
X209297Y333153D01*
X209300Y333124D01*
X209298Y333094D01*
X209320Y332966D01*
X209337Y332838D01*
X209347Y332810D01*
X209352Y332781D01*
X209406Y332663D01*
X209454Y332542D01*
X209471Y332518D01*
X209483Y332491D01*
X209564Y332390D01*
X209640Y332285D01*
X209663Y332266D01*
X209682Y332243D01*
X209785Y332165D01*
X209885Y332082D01*
X209912Y332069D01*
X209936Y332051D01*
X210080Y331980D01*
X212172Y331114D01*
X215366Y327920D01*
X217095Y323747D01*
X217095Y304649D01*
X215366Y300476D01*
X212172Y297282D01*
X207999Y295553D01*
X203481Y295553D01*
X199308Y297282D01*
X196114Y300476D01*
X194385Y304649D01*
X194385Y323747D01*
X196114Y327920D01*
X196732Y328538D01*
X196792Y328616D01*
X196860Y328688D01*
X196889Y328741D01*
X196926Y328789D01*
X196966Y328880D01*
X197014Y328966D01*
X197029Y329025D01*
X197053Y329081D01*
X197068Y329179D01*
X197093Y329274D01*
X197099Y329374D01*
X197103Y329395D01*
X197101Y329407D01*
X197103Y329435D01*
X197103Y350074D01*
X197091Y350172D01*
X197088Y350271D01*
X197071Y350329D01*
X197063Y350390D01*
X197027Y350482D01*
X196999Y350577D01*
X196969Y350629D01*
X196946Y350685D01*
X196888Y350765D01*
X196838Y350851D01*
X196772Y350926D01*
X196760Y350943D01*
X196750Y350950D01*
X196732Y350972D01*
X196548Y351155D01*
X195334Y354085D01*
X195275Y354189D01*
X195223Y354296D01*
X195197Y354326D01*
X195177Y354362D01*
X195094Y354447D01*
X195017Y354538D01*
X194983Y354561D01*
X194955Y354590D01*
X194854Y354652D01*
X194757Y354721D01*
X194719Y354735D01*
X194684Y354756D01*
X194571Y354791D01*
X194459Y354833D01*
X194419Y354838D01*
X194380Y354850D01*
X194262Y354855D01*
X194143Y354869D01*
X194103Y354863D01*
X194063Y354865D01*
X193946Y354841D01*
X193828Y354824D01*
X193771Y354805D01*
X193751Y354801D01*
X193733Y354792D01*
X193676Y354772D01*
X192061Y354103D01*
X191801Y354103D01*
X191703Y354091D01*
X191604Y354088D01*
X191546Y354071D01*
X191486Y354063D01*
X191393Y354027D01*
X191298Y353999D01*
X191246Y353969D01*
X191190Y353946D01*
X191110Y353888D01*
X191024Y353838D01*
X190949Y353772D01*
X190933Y353760D01*
X190925Y353750D01*
X190904Y353732D01*
X171568Y334396D01*
X171508Y334318D01*
X171440Y334246D01*
X171411Y334193D01*
X171374Y334145D01*
X171334Y334054D01*
X171286Y333968D01*
X171271Y333909D01*
X171247Y333853D01*
X171232Y333755D01*
X171207Y333660D01*
X171201Y333560D01*
X171197Y333539D01*
X171199Y333527D01*
X171197Y333499D01*
X171197Y331467D01*
X171214Y331329D01*
X171227Y331191D01*
X171234Y331172D01*
X171237Y331151D01*
X171288Y331022D01*
X171335Y330891D01*
X171346Y330875D01*
X171354Y330856D01*
X171435Y330743D01*
X171513Y330628D01*
X171529Y330615D01*
X171540Y330598D01*
X171648Y330510D01*
X171752Y330418D01*
X171770Y330409D01*
X171785Y330396D01*
X171911Y330336D01*
X172035Y330273D01*
X172055Y330269D01*
X172073Y330260D01*
X172210Y330234D01*
X172345Y330203D01*
X172366Y330204D01*
X172385Y330200D01*
X172524Y330209D01*
X172663Y330213D01*
X172683Y330219D01*
X172703Y330220D01*
X172835Y330263D01*
X172969Y330302D01*
X172986Y330312D01*
X173005Y330318D01*
X173123Y330392D01*
X173243Y330463D01*
X173264Y330482D01*
X173274Y330488D01*
X173288Y330503D01*
X173363Y330570D01*
X173908Y331114D01*
X178081Y332843D01*
X182599Y332843D01*
X186772Y331114D01*
X189966Y327920D01*
X191695Y323747D01*
X191695Y304649D01*
X189966Y300476D01*
X186772Y297282D01*
X182599Y295553D01*
X178081Y295553D01*
X173908Y297282D01*
X173363Y297826D01*
X173254Y297911D01*
X173147Y298000D01*
X173128Y298009D01*
X173112Y298021D01*
X172984Y298077D01*
X172859Y298136D01*
X172839Y298140D01*
X172820Y298148D01*
X172682Y298170D01*
X172546Y298196D01*
X172526Y298194D01*
X172506Y298198D01*
X172367Y298185D01*
X172229Y298176D01*
X172210Y298170D01*
X172190Y298168D01*
X172059Y298121D01*
X171927Y298078D01*
X171909Y298067D01*
X171890Y298060D01*
X171776Y297982D01*
X171658Y297908D01*
X171644Y297893D01*
X171627Y297882D01*
X171535Y297778D01*
X171440Y297676D01*
X171430Y297658D01*
X171417Y297643D01*
X171354Y297520D01*
X171286Y297398D01*
X171281Y297378D01*
X171272Y297360D01*
X171242Y297224D01*
X171207Y297090D01*
X171205Y297062D01*
X171202Y297050D01*
X171203Y297029D01*
X171197Y296929D01*
X171197Y282699D01*
X171214Y282561D01*
X171227Y282423D01*
X171234Y282404D01*
X171237Y282383D01*
X171288Y282254D01*
X171335Y282123D01*
X171346Y282107D01*
X171354Y282088D01*
X171435Y281975D01*
X171513Y281860D01*
X171529Y281847D01*
X171540Y281830D01*
X171648Y281742D01*
X171752Y281650D01*
X171770Y281641D01*
X171785Y281628D01*
X171911Y281568D01*
X172035Y281505D01*
X172055Y281501D01*
X172073Y281492D01*
X172210Y281466D01*
X172345Y281435D01*
X172366Y281436D01*
X172385Y281432D01*
X172524Y281441D01*
X172663Y281445D01*
X172683Y281451D01*
X172703Y281452D01*
X172835Y281495D01*
X172969Y281534D01*
X172986Y281544D01*
X173005Y281550D01*
X173123Y281624D01*
X173243Y281695D01*
X173264Y281714D01*
X173274Y281720D01*
X173288Y281735D01*
X173363Y281802D01*
X173908Y282346D01*
X178081Y284075D01*
X182599Y284075D01*
X186772Y282346D01*
X189966Y279152D01*
X191695Y274979D01*
X191695Y255881D01*
X189966Y251708D01*
X186772Y248514D01*
X182599Y246785D01*
X178081Y246785D01*
X173908Y248514D01*
X170714Y251708D01*
X168985Y255881D01*
X168985Y266367D01*
X168973Y266465D01*
X168970Y266564D01*
X168953Y266622D01*
X168945Y266682D01*
X168909Y266775D01*
X168881Y266870D01*
X168851Y266922D01*
X168828Y266978D01*
X168770Y267058D01*
X168720Y267144D01*
X168654Y267219D01*
X168642Y267235D01*
X168632Y267243D01*
X168614Y267264D01*
X161825Y274053D01*
X161680Y274198D01*
X161570Y274284D01*
X161463Y274372D01*
X161444Y274381D01*
X161428Y274393D01*
X161300Y274449D01*
X161175Y274508D01*
X161155Y274512D01*
X161136Y274520D01*
X160999Y274542D01*
X160862Y274568D01*
X160842Y274566D01*
X160822Y274570D01*
X160684Y274557D01*
X160545Y274548D01*
X160526Y274542D01*
X160506Y274540D01*
X160374Y274493D01*
X160243Y274450D01*
X160226Y274439D01*
X160206Y274432D01*
X160092Y274354D01*
X159974Y274280D01*
X159960Y274265D01*
X159943Y274254D01*
X159852Y274150D01*
X159756Y274048D01*
X159746Y274030D01*
X159733Y274015D01*
X159670Y273891D01*
X159602Y273770D01*
X159597Y273750D01*
X159588Y273732D01*
X159558Y273596D01*
X159523Y273462D01*
X159521Y273434D01*
X159518Y273422D01*
X159519Y273401D01*
X159513Y273301D01*
X159513Y219372D01*
X159525Y219274D01*
X159528Y219175D01*
X159545Y219116D01*
X159553Y219056D01*
X159589Y218964D01*
X159617Y218869D01*
X159647Y218817D01*
X159670Y218761D01*
X159728Y218681D01*
X159778Y218595D01*
X159844Y218520D01*
X159856Y218503D01*
X159866Y218496D01*
X159884Y218474D01*
X164780Y213579D01*
X165863Y210965D01*
X165863Y141224D01*
X165878Y141106D01*
X165885Y140987D01*
X165898Y140949D01*
X165903Y140908D01*
X165946Y140798D01*
X165983Y140685D01*
X166005Y140650D01*
X166020Y140613D01*
X166089Y140517D01*
X166153Y140416D01*
X166183Y140388D01*
X166206Y140355D01*
X166298Y140279D01*
X166385Y140198D01*
X166420Y140178D01*
X166451Y140153D01*
X166559Y140102D01*
X166663Y140044D01*
X166703Y140034D01*
X166739Y140017D01*
X166856Y139995D01*
X166971Y139965D01*
X167031Y139961D01*
X167051Y139957D01*
X167072Y139959D01*
X167132Y139955D01*
X167424Y139955D01*
X171719Y138176D01*
X175006Y134889D01*
X176627Y130974D01*
X176696Y130853D01*
X176761Y130730D01*
X176775Y130715D01*
X176785Y130698D01*
X176882Y130598D01*
X176975Y130495D01*
X176992Y130484D01*
X177006Y130469D01*
X177125Y130397D01*
X177241Y130320D01*
X177260Y130314D01*
X177277Y130303D01*
X177410Y130262D01*
X177542Y130217D01*
X177562Y130216D01*
X177581Y130210D01*
X177720Y130203D01*
X177859Y130192D01*
X177879Y130195D01*
X177899Y130194D01*
X178035Y130223D01*
X178172Y130246D01*
X178191Y130255D01*
X178210Y130259D01*
X178336Y130320D01*
X178462Y130377D01*
X178478Y130390D01*
X178496Y130398D01*
X178602Y130489D01*
X178710Y130576D01*
X178723Y130592D01*
X178738Y130605D01*
X178818Y130719D01*
X178902Y130830D01*
X178914Y130855D01*
X178921Y130865D01*
X178928Y130884D01*
X178973Y130974D01*
X180594Y134889D01*
X183881Y138176D01*
X188176Y139955D01*
X192824Y139955D01*
X197119Y138176D01*
X200406Y134889D01*
X202027Y130974D01*
X202096Y130853D01*
X202161Y130730D01*
X202175Y130715D01*
X202185Y130698D01*
X202282Y130598D01*
X202375Y130495D01*
X202392Y130484D01*
X202406Y130469D01*
X202525Y130397D01*
X202641Y130320D01*
X202660Y130314D01*
X202677Y130303D01*
X202810Y130262D01*
X202942Y130217D01*
X202962Y130216D01*
X202981Y130210D01*
X203120Y130203D01*
X203259Y130192D01*
X203279Y130195D01*
X203299Y130194D01*
X203435Y130223D01*
X203572Y130246D01*
X203591Y130255D01*
X203610Y130259D01*
X203736Y130320D01*
X203862Y130377D01*
X203878Y130390D01*
X203896Y130398D01*
X204002Y130489D01*
X204110Y130576D01*
X204123Y130592D01*
X204138Y130605D01*
X204218Y130719D01*
X204302Y130830D01*
X204314Y130855D01*
X204321Y130865D01*
X204328Y130884D01*
X204373Y130974D01*
X205994Y134889D01*
X209281Y138176D01*
X213576Y139955D01*
X218224Y139955D01*
X222519Y138176D01*
X225806Y134889D01*
X227585Y130594D01*
X227585Y110706D01*
X225806Y106411D01*
X222519Y103124D01*
X218224Y101345D01*
X213576Y101345D01*
X209281Y103124D01*
X205994Y106411D01*
X204373Y110326D01*
X204304Y110446D01*
X204239Y110570D01*
X204225Y110584D01*
X204215Y110602D01*
X204118Y110702D01*
X204025Y110805D01*
X204008Y110816D01*
X203994Y110831D01*
X203876Y110903D01*
X203759Y110980D01*
X203740Y110986D01*
X203723Y110997D01*
X203590Y111038D01*
X203458Y111083D01*
X203438Y111084D01*
X203419Y111090D01*
X203280Y111097D01*
X203141Y111108D01*
X203121Y111105D01*
X203101Y111106D01*
X202965Y111077D01*
X202828Y111054D01*
X202810Y111045D01*
X202790Y111041D01*
X202664Y110980D01*
X202538Y110923D01*
X202522Y110910D01*
X202504Y110902D01*
X202398Y110811D01*
X202290Y110724D01*
X202277Y110708D01*
X202262Y110695D01*
X202182Y110581D01*
X202098Y110470D01*
X202086Y110445D01*
X202079Y110435D01*
X202072Y110416D01*
X202027Y110326D01*
X200406Y106411D01*
X197119Y103124D01*
X192824Y101345D01*
X188176Y101345D01*
X183881Y103124D01*
X180594Y106411D01*
X178973Y110326D01*
X178904Y110446D01*
X178839Y110570D01*
X178825Y110584D01*
X178815Y110602D01*
X178718Y110702D01*
X178625Y110805D01*
X178608Y110816D01*
X178594Y110831D01*
X178476Y110903D01*
X178359Y110980D01*
X178340Y110986D01*
X178323Y110997D01*
X178190Y111038D01*
X178058Y111083D01*
X178038Y111084D01*
X178019Y111090D01*
X177880Y111097D01*
X177741Y111108D01*
X177721Y111105D01*
X177701Y111106D01*
X177565Y111077D01*
X177428Y111054D01*
X177410Y111045D01*
X177390Y111041D01*
X177264Y110980D01*
X177138Y110923D01*
X177122Y110910D01*
X177104Y110902D01*
X176998Y110811D01*
X176890Y110724D01*
X176877Y110708D01*
X176862Y110695D01*
X176782Y110581D01*
X176698Y110470D01*
X176686Y110445D01*
X176679Y110435D01*
X176672Y110416D01*
X176627Y110326D01*
X175006Y106411D01*
X171719Y103124D01*
X167424Y101345D01*
X167132Y101345D01*
X167014Y101330D01*
X166895Y101323D01*
X166857Y101310D01*
X166816Y101305D01*
X166706Y101262D01*
X166593Y101225D01*
X166558Y101203D01*
X166521Y101188D01*
X166425Y101119D01*
X166324Y101055D01*
X166296Y101025D01*
X166263Y101002D01*
X166187Y100910D01*
X166106Y100823D01*
X166086Y100788D01*
X166061Y100757D01*
X166010Y100649D01*
X165952Y100545D01*
X165942Y100505D01*
X165925Y100469D01*
X165903Y100352D01*
X165873Y100237D01*
X165869Y100177D01*
X165865Y100157D01*
X165867Y100136D01*
X165863Y100076D01*
X165863Y71882D01*
X165878Y71764D01*
X165885Y71645D01*
X165898Y71607D01*
X165903Y71566D01*
X165946Y71456D01*
X165983Y71343D01*
X166005Y71308D01*
X166020Y71271D01*
X166089Y71175D01*
X166153Y71074D01*
X166183Y71046D01*
X166206Y71013D01*
X166298Y70937D01*
X166385Y70856D01*
X166420Y70836D01*
X166451Y70811D01*
X166559Y70760D01*
X166663Y70702D01*
X166703Y70692D01*
X166739Y70675D01*
X166856Y70653D01*
X166971Y70623D01*
X167031Y70619D01*
X167051Y70615D01*
X167072Y70617D01*
X167132Y70613D01*
X296418Y70613D01*
X296536Y70628D01*
X296655Y70635D01*
X296693Y70648D01*
X296734Y70653D01*
X296844Y70696D01*
X296957Y70733D01*
X296992Y70755D01*
X297029Y70770D01*
X297125Y70839D01*
X297226Y70903D01*
X297254Y70933D01*
X297287Y70956D01*
X297363Y71048D01*
X297444Y71135D01*
X297464Y71170D01*
X297489Y71201D01*
X297540Y71309D01*
X297598Y71413D01*
X297608Y71453D01*
X297625Y71489D01*
X297647Y71606D01*
X297677Y71721D01*
X297681Y71781D01*
X297685Y71801D01*
X297683Y71822D01*
X297687Y71882D01*
X297687Y98128D01*
X297675Y98226D01*
X297672Y98325D01*
X297655Y98384D01*
X297647Y98444D01*
X297611Y98536D01*
X297583Y98631D01*
X297553Y98683D01*
X297530Y98739D01*
X297472Y98819D01*
X297422Y98905D01*
X297356Y98980D01*
X297344Y98997D01*
X297334Y99004D01*
X297316Y99026D01*
X254320Y142021D01*
X253455Y144109D01*
X253406Y144195D01*
X253365Y144285D01*
X253328Y144333D01*
X253298Y144385D01*
X253229Y144457D01*
X253167Y144534D01*
X253119Y144570D01*
X253076Y144614D01*
X252992Y144666D01*
X252913Y144725D01*
X252823Y144769D01*
X252805Y144780D01*
X252794Y144784D01*
X252768Y144796D01*
X250108Y145898D01*
X246914Y149092D01*
X245185Y153265D01*
X245185Y172363D01*
X246914Y176536D01*
X250108Y179730D01*
X254281Y181459D01*
X258799Y181459D01*
X262972Y179730D01*
X266166Y176536D01*
X267895Y172363D01*
X267895Y153265D01*
X267559Y152456D01*
X267557Y152447D01*
X267552Y152439D01*
X267515Y152293D01*
X267475Y152149D01*
X267475Y152140D01*
X267473Y152131D01*
X267463Y151970D01*
X267463Y149522D01*
X267475Y149424D01*
X267478Y149325D01*
X267495Y149266D01*
X267503Y149206D01*
X267539Y149114D01*
X267567Y149019D01*
X267597Y148967D01*
X267620Y148911D01*
X267678Y148831D01*
X267728Y148745D01*
X267794Y148670D01*
X267806Y148653D01*
X267816Y148646D01*
X267834Y148624D01*
X310830Y105629D01*
X311913Y103015D01*
X311913Y43212D01*
X311925Y43114D01*
X311928Y43014D01*
X311945Y42956D01*
X311953Y42896D01*
X311989Y42804D01*
X312017Y42709D01*
X312047Y42657D01*
X312070Y42600D01*
X312128Y42520D01*
X312178Y42435D01*
X312244Y42360D01*
X312256Y42343D01*
X312266Y42335D01*
X312284Y42314D01*
X314960Y39639D01*
X316581Y35724D01*
X316650Y35604D01*
X316715Y35480D01*
X316729Y35466D01*
X316739Y35448D01*
X316836Y35348D01*
X316929Y35245D01*
X316946Y35234D01*
X316960Y35219D01*
X317078Y35147D01*
X317195Y35070D01*
X317214Y35064D01*
X317231Y35053D01*
X317364Y35012D01*
X317496Y34967D01*
X317516Y34966D01*
X317535Y34960D01*
X317674Y34953D01*
X317813Y34942D01*
X317833Y34945D01*
G37*
G36*
X110173Y165765D02*
X110173Y165765D01*
X110292Y165769D01*
X110331Y165780D01*
X110371Y165784D01*
X110483Y165824D01*
X110597Y165857D01*
X110632Y165877D01*
X110670Y165891D01*
X110769Y165958D01*
X110871Y166018D01*
X110917Y166058D01*
X110933Y166070D01*
X110947Y166085D01*
X110992Y166125D01*
X111491Y166624D01*
X115406Y168245D01*
X115526Y168314D01*
X115650Y168379D01*
X115664Y168393D01*
X115682Y168403D01*
X115782Y168500D01*
X115885Y168593D01*
X115896Y168610D01*
X115911Y168624D01*
X115983Y168742D01*
X116060Y168859D01*
X116066Y168878D01*
X116077Y168895D01*
X116118Y169028D01*
X116163Y169160D01*
X116164Y169180D01*
X116170Y169199D01*
X116177Y169338D01*
X116188Y169477D01*
X116185Y169497D01*
X116186Y169517D01*
X116157Y169653D01*
X116134Y169790D01*
X116125Y169808D01*
X116121Y169828D01*
X116060Y169954D01*
X116003Y170080D01*
X115990Y170096D01*
X115982Y170114D01*
X115891Y170220D01*
X115804Y170328D01*
X115788Y170341D01*
X115775Y170356D01*
X115661Y170436D01*
X115550Y170520D01*
X115525Y170532D01*
X115515Y170539D01*
X115496Y170546D01*
X115406Y170591D01*
X111491Y172212D01*
X108204Y175499D01*
X106425Y179794D01*
X106425Y184442D01*
X108204Y188737D01*
X111491Y192024D01*
X115786Y193803D01*
X135674Y193803D01*
X139969Y192024D01*
X143256Y188737D01*
X144515Y185696D01*
X144530Y185671D01*
X144539Y185643D01*
X144608Y185533D01*
X144673Y185420D01*
X144693Y185399D01*
X144709Y185374D01*
X144804Y185285D01*
X144894Y185192D01*
X144919Y185176D01*
X144941Y185156D01*
X145055Y185093D01*
X145165Y185025D01*
X145193Y185017D01*
X145219Y185002D01*
X145345Y184970D01*
X145469Y184932D01*
X145499Y184930D01*
X145527Y184923D01*
X145688Y184913D01*
X150368Y184913D01*
X150486Y184928D01*
X150605Y184935D01*
X150643Y184948D01*
X150684Y184953D01*
X150794Y184996D01*
X150907Y185033D01*
X150942Y185055D01*
X150979Y185070D01*
X151075Y185139D01*
X151176Y185203D01*
X151204Y185233D01*
X151237Y185256D01*
X151313Y185348D01*
X151394Y185435D01*
X151414Y185470D01*
X151439Y185501D01*
X151490Y185609D01*
X151548Y185713D01*
X151558Y185753D01*
X151575Y185789D01*
X151597Y185906D01*
X151627Y186021D01*
X151631Y186081D01*
X151635Y186101D01*
X151633Y186122D01*
X151637Y186182D01*
X151637Y206078D01*
X151625Y206176D01*
X151622Y206275D01*
X151605Y206334D01*
X151597Y206394D01*
X151561Y206486D01*
X151533Y206581D01*
X151503Y206633D01*
X151480Y206689D01*
X151422Y206769D01*
X151372Y206855D01*
X151306Y206930D01*
X151294Y206947D01*
X151284Y206954D01*
X151266Y206976D01*
X146370Y211871D01*
X145287Y214485D01*
X145287Y330451D01*
X145270Y330589D01*
X145257Y330727D01*
X145250Y330746D01*
X145247Y330766D01*
X145196Y330896D01*
X145149Y331027D01*
X145138Y331043D01*
X145130Y331062D01*
X145049Y331174D01*
X144971Y331290D01*
X144955Y331303D01*
X144944Y331320D01*
X144836Y331408D01*
X144732Y331500D01*
X144714Y331509D01*
X144699Y331522D01*
X144573Y331581D01*
X144449Y331645D01*
X144429Y331649D01*
X144411Y331658D01*
X144275Y331684D01*
X144139Y331714D01*
X144118Y331714D01*
X144099Y331718D01*
X143960Y331709D01*
X143821Y331705D01*
X143801Y331699D01*
X143781Y331698D01*
X143649Y331655D01*
X143515Y331616D01*
X143498Y331606D01*
X143479Y331600D01*
X143361Y331526D01*
X143241Y331455D01*
X143220Y331436D01*
X143210Y331430D01*
X143196Y331415D01*
X143121Y331348D01*
X101718Y289946D01*
X101658Y289868D01*
X101590Y289796D01*
X101561Y289743D01*
X101524Y289695D01*
X101484Y289604D01*
X101436Y289518D01*
X101421Y289459D01*
X101397Y289403D01*
X101382Y289305D01*
X101357Y289210D01*
X101351Y289110D01*
X101347Y289089D01*
X101349Y289077D01*
X101347Y289049D01*
X101347Y174501D01*
X101359Y174403D01*
X101362Y174304D01*
X101379Y174246D01*
X101387Y174186D01*
X101423Y174093D01*
X101451Y173998D01*
X101481Y173946D01*
X101504Y173890D01*
X101562Y173810D01*
X101612Y173724D01*
X101678Y173649D01*
X101690Y173633D01*
X101700Y173625D01*
X101718Y173604D01*
X109197Y166125D01*
X109291Y166052D01*
X109380Y165973D01*
X109416Y165955D01*
X109448Y165930D01*
X109558Y165883D01*
X109664Y165829D01*
X109703Y165820D01*
X109740Y165804D01*
X109858Y165785D01*
X109974Y165759D01*
X110014Y165760D01*
X110054Y165754D01*
X110173Y165765D01*
G37*
%LPC*%
G36*
X504406Y83565D02*
X504406Y83565D01*
X500111Y85344D01*
X496824Y88631D01*
X495045Y92926D01*
X495045Y97574D01*
X496824Y101869D01*
X500111Y105156D01*
X504026Y106777D01*
X504147Y106846D01*
X504269Y106911D01*
X504284Y106925D01*
X504302Y106935D01*
X504402Y107032D01*
X504505Y107125D01*
X504516Y107142D01*
X504531Y107156D01*
X504603Y107275D01*
X504680Y107391D01*
X504686Y107410D01*
X504697Y107427D01*
X504738Y107560D01*
X504783Y107692D01*
X504784Y107712D01*
X504790Y107731D01*
X504797Y107870D01*
X504808Y108009D01*
X504805Y108029D01*
X504805Y108049D01*
X504777Y108185D01*
X504754Y108322D01*
X504745Y108341D01*
X504741Y108360D01*
X504680Y108486D01*
X504623Y108612D01*
X504610Y108628D01*
X504601Y108646D01*
X504511Y108752D01*
X504424Y108860D01*
X504408Y108873D01*
X504395Y108888D01*
X504281Y108968D01*
X504170Y109052D01*
X504145Y109064D01*
X504135Y109071D01*
X504116Y109078D01*
X504026Y109123D01*
X500111Y110744D01*
X496824Y114031D01*
X495045Y118326D01*
X495045Y122974D01*
X496824Y127269D01*
X500111Y130556D01*
X504026Y132177D01*
X504147Y132246D01*
X504269Y132311D01*
X504284Y132325D01*
X504302Y132335D01*
X504402Y132432D01*
X504505Y132525D01*
X504516Y132542D01*
X504531Y132556D01*
X504603Y132675D01*
X504680Y132791D01*
X504686Y132810D01*
X504697Y132827D01*
X504738Y132960D01*
X504783Y133092D01*
X504784Y133112D01*
X504790Y133131D01*
X504797Y133270D01*
X504808Y133409D01*
X504805Y133429D01*
X504805Y133449D01*
X504777Y133585D01*
X504754Y133722D01*
X504745Y133741D01*
X504741Y133760D01*
X504680Y133886D01*
X504623Y134012D01*
X504610Y134028D01*
X504601Y134046D01*
X504511Y134152D01*
X504424Y134260D01*
X504408Y134273D01*
X504395Y134288D01*
X504281Y134368D01*
X504170Y134452D01*
X504145Y134464D01*
X504135Y134471D01*
X504116Y134478D01*
X504026Y134523D01*
X500111Y136144D01*
X496824Y139431D01*
X495045Y143726D01*
X495045Y148374D01*
X496824Y152669D01*
X500111Y155956D01*
X504026Y157577D01*
X504147Y157646D01*
X504269Y157711D01*
X504284Y157725D01*
X504302Y157735D01*
X504402Y157832D01*
X504505Y157925D01*
X504516Y157942D01*
X504531Y157956D01*
X504603Y158075D01*
X504680Y158191D01*
X504686Y158210D01*
X504697Y158227D01*
X504738Y158360D01*
X504783Y158492D01*
X504784Y158512D01*
X504790Y158531D01*
X504797Y158670D01*
X504808Y158809D01*
X504805Y158829D01*
X504805Y158849D01*
X504777Y158985D01*
X504754Y159122D01*
X504745Y159141D01*
X504741Y159160D01*
X504680Y159286D01*
X504623Y159412D01*
X504610Y159428D01*
X504601Y159446D01*
X504511Y159552D01*
X504424Y159660D01*
X504408Y159673D01*
X504395Y159688D01*
X504281Y159768D01*
X504170Y159852D01*
X504145Y159864D01*
X504135Y159871D01*
X504116Y159878D01*
X504026Y159923D01*
X500111Y161544D01*
X496824Y164831D01*
X495045Y169126D01*
X495045Y173774D01*
X496824Y178069D01*
X500111Y181356D01*
X504406Y183135D01*
X524294Y183135D01*
X528589Y181356D01*
X531876Y178069D01*
X533655Y173774D01*
X533655Y169126D01*
X531876Y164831D01*
X528589Y161544D01*
X524674Y159923D01*
X524554Y159854D01*
X524431Y159789D01*
X524416Y159775D01*
X524398Y159765D01*
X524298Y159668D01*
X524195Y159575D01*
X524184Y159558D01*
X524170Y159544D01*
X524097Y159426D01*
X524020Y159309D01*
X524014Y159290D01*
X524003Y159273D01*
X523962Y159140D01*
X523917Y159008D01*
X523916Y158988D01*
X523910Y158969D01*
X523903Y158830D01*
X523892Y158691D01*
X523895Y158671D01*
X523895Y158651D01*
X523923Y158515D01*
X523946Y158378D01*
X523955Y158360D01*
X523959Y158340D01*
X524020Y158214D01*
X524077Y158088D01*
X524090Y158072D01*
X524099Y158054D01*
X524189Y157948D01*
X524276Y157840D01*
X524292Y157827D01*
X524305Y157812D01*
X524419Y157732D01*
X524530Y157648D01*
X524555Y157636D01*
X524565Y157629D01*
X524584Y157622D01*
X524674Y157577D01*
X528589Y155956D01*
X531876Y152669D01*
X533655Y148374D01*
X533655Y143726D01*
X531876Y139431D01*
X528589Y136144D01*
X524674Y134523D01*
X524554Y134454D01*
X524431Y134389D01*
X524416Y134375D01*
X524398Y134365D01*
X524298Y134268D01*
X524195Y134175D01*
X524184Y134158D01*
X524170Y134144D01*
X524097Y134026D01*
X524020Y133909D01*
X524014Y133890D01*
X524003Y133873D01*
X523962Y133740D01*
X523917Y133608D01*
X523916Y133588D01*
X523910Y133569D01*
X523903Y133430D01*
X523892Y133291D01*
X523895Y133271D01*
X523895Y133251D01*
X523923Y133115D01*
X523946Y132978D01*
X523955Y132960D01*
X523959Y132940D01*
X524020Y132814D01*
X524077Y132688D01*
X524090Y132672D01*
X524099Y132654D01*
X524189Y132548D01*
X524276Y132440D01*
X524292Y132427D01*
X524305Y132412D01*
X524419Y132332D01*
X524530Y132248D01*
X524555Y132236D01*
X524565Y132229D01*
X524584Y132222D01*
X524674Y132177D01*
X528589Y130556D01*
X531876Y127269D01*
X533655Y122974D01*
X533655Y118326D01*
X531876Y114031D01*
X528589Y110744D01*
X524674Y109123D01*
X524554Y109054D01*
X524431Y108989D01*
X524416Y108975D01*
X524398Y108965D01*
X524298Y108868D01*
X524195Y108775D01*
X524184Y108758D01*
X524170Y108744D01*
X524097Y108626D01*
X524020Y108509D01*
X524014Y108490D01*
X524003Y108473D01*
X523962Y108340D01*
X523917Y108208D01*
X523916Y108188D01*
X523910Y108169D01*
X523903Y108030D01*
X523892Y107891D01*
X523895Y107871D01*
X523895Y107851D01*
X523923Y107715D01*
X523946Y107578D01*
X523955Y107560D01*
X523959Y107540D01*
X524020Y107414D01*
X524077Y107288D01*
X524090Y107272D01*
X524099Y107254D01*
X524189Y107148D01*
X524276Y107040D01*
X524292Y107027D01*
X524305Y107012D01*
X524419Y106932D01*
X524530Y106848D01*
X524555Y106836D01*
X524565Y106829D01*
X524584Y106822D01*
X524674Y106777D01*
X528589Y105156D01*
X531876Y101869D01*
X533655Y97574D01*
X533655Y92926D01*
X531876Y88631D01*
X528589Y85344D01*
X524294Y83565D01*
X504406Y83565D01*
G37*
%LPD*%
%LPC*%
G36*
X115786Y106933D02*
X115786Y106933D01*
X111491Y108712D01*
X108204Y111999D01*
X106425Y116294D01*
X106425Y120942D01*
X108204Y125237D01*
X111491Y128524D01*
X115786Y130303D01*
X135674Y130303D01*
X139969Y128524D01*
X143256Y125237D01*
X145035Y120942D01*
X145035Y116294D01*
X143256Y111999D01*
X139969Y108712D01*
X135674Y106933D01*
X115786Y106933D01*
G37*
%LPD*%
%LPC*%
G36*
X203481Y398169D02*
X203481Y398169D01*
X199308Y399898D01*
X196114Y403092D01*
X194385Y407265D01*
X194385Y426363D01*
X196114Y430536D01*
X199308Y433730D01*
X203481Y435459D01*
X207999Y435459D01*
X212172Y433730D01*
X215366Y430536D01*
X217095Y426363D01*
X217095Y407265D01*
X215366Y403092D01*
X212172Y399898D01*
X207999Y398169D01*
X203481Y398169D01*
G37*
%LPD*%
%LPC*%
G36*
X254281Y398169D02*
X254281Y398169D01*
X250108Y399898D01*
X246914Y403092D01*
X245185Y407265D01*
X245185Y426363D01*
X246914Y430536D01*
X250108Y433730D01*
X254281Y435459D01*
X258799Y435459D01*
X262972Y433730D01*
X266166Y430536D01*
X267895Y426363D01*
X267895Y407265D01*
X266166Y403092D01*
X262972Y399898D01*
X258799Y398169D01*
X254281Y398169D01*
G37*
%LPD*%
%LPC*%
G36*
X305081Y398169D02*
X305081Y398169D01*
X300908Y399898D01*
X297714Y403092D01*
X295985Y407265D01*
X295985Y426363D01*
X297714Y430536D01*
X300908Y433730D01*
X305081Y435459D01*
X309599Y435459D01*
X313772Y433730D01*
X316966Y430536D01*
X318695Y426363D01*
X318695Y407265D01*
X316966Y403092D01*
X313772Y399898D01*
X309599Y398169D01*
X305081Y398169D01*
G37*
%LPD*%
%LPC*%
G36*
X178081Y144169D02*
X178081Y144169D01*
X173908Y145898D01*
X170714Y149092D01*
X168985Y153265D01*
X168985Y172363D01*
X170714Y176536D01*
X173908Y179730D01*
X178081Y181459D01*
X182599Y181459D01*
X186772Y179730D01*
X189966Y176536D01*
X191695Y172363D01*
X191695Y153265D01*
X189966Y149092D01*
X186772Y145898D01*
X182599Y144169D01*
X178081Y144169D01*
G37*
%LPD*%
%LPC*%
G36*
X279681Y144169D02*
X279681Y144169D01*
X275508Y145898D01*
X272314Y149092D01*
X270585Y153265D01*
X270585Y172363D01*
X272314Y176536D01*
X275508Y179730D01*
X279681Y181459D01*
X284199Y181459D01*
X288372Y179730D01*
X291566Y176536D01*
X293295Y172363D01*
X293295Y153265D01*
X291566Y149092D01*
X288372Y145898D01*
X284199Y144169D01*
X279681Y144169D01*
G37*
%LPD*%
%LPC*%
G36*
X279681Y295553D02*
X279681Y295553D01*
X275508Y297282D01*
X272314Y300476D01*
X270585Y304649D01*
X270585Y323747D01*
X272314Y327920D01*
X275508Y331114D01*
X279681Y332843D01*
X284199Y332843D01*
X288372Y331114D01*
X291566Y327920D01*
X293295Y323747D01*
X293295Y304649D01*
X291566Y300476D01*
X288372Y297282D01*
X284199Y295553D01*
X279681Y295553D01*
G37*
%LPD*%
%LPC*%
G36*
X337415Y183717D02*
X337415Y183717D01*
X333242Y185446D01*
X330048Y188640D01*
X328319Y192813D01*
X328319Y197331D01*
X330048Y201504D01*
X333242Y204698D01*
X337415Y206427D01*
X356513Y206427D01*
X360686Y204698D01*
X363880Y201504D01*
X365609Y197331D01*
X365609Y192813D01*
X363880Y188640D01*
X360686Y185446D01*
X356513Y183717D01*
X337415Y183717D01*
G37*
%LPD*%
%LPC*%
G36*
X337415Y209117D02*
X337415Y209117D01*
X333242Y210846D01*
X330048Y214040D01*
X328319Y218213D01*
X328319Y222731D01*
X330048Y226904D01*
X333242Y230098D01*
X337415Y231827D01*
X356513Y231827D01*
X360686Y230098D01*
X363880Y226904D01*
X365609Y222731D01*
X365609Y218213D01*
X363880Y214040D01*
X360686Y210846D01*
X356513Y209117D01*
X337415Y209117D01*
G37*
%LPD*%
%LPC*%
G36*
X337415Y234517D02*
X337415Y234517D01*
X333242Y236246D01*
X330048Y239440D01*
X328319Y243613D01*
X328319Y248131D01*
X330048Y252304D01*
X333242Y255498D01*
X337415Y257227D01*
X356513Y257227D01*
X360686Y255498D01*
X363880Y252304D01*
X365609Y248131D01*
X365609Y243613D01*
X363880Y239440D01*
X360686Y236246D01*
X356513Y234517D01*
X337415Y234517D01*
G37*
%LPD*%
%LPC*%
G36*
X337415Y259917D02*
X337415Y259917D01*
X333242Y261646D01*
X330048Y264840D01*
X328319Y269013D01*
X328319Y273531D01*
X330048Y277704D01*
X333242Y280898D01*
X337415Y282627D01*
X356513Y282627D01*
X360686Y280898D01*
X363880Y277704D01*
X365609Y273531D01*
X365609Y269013D01*
X363880Y264840D01*
X360686Y261646D01*
X356513Y259917D01*
X337415Y259917D01*
G37*
%LPD*%
%LPC*%
G36*
X203481Y246785D02*
X203481Y246785D01*
X199308Y248514D01*
X196114Y251708D01*
X194385Y255881D01*
X194385Y274979D01*
X196114Y279152D01*
X199308Y282346D01*
X203481Y284075D01*
X207999Y284075D01*
X212172Y282346D01*
X215366Y279152D01*
X217095Y274979D01*
X217095Y255881D01*
X215366Y251708D01*
X212172Y248514D01*
X207999Y246785D01*
X203481Y246785D01*
G37*
%LPD*%
%LPC*%
G36*
X203481Y144169D02*
X203481Y144169D01*
X199308Y145898D01*
X196114Y149092D01*
X194385Y153265D01*
X194385Y172363D01*
X196114Y176536D01*
X199308Y179730D01*
X203481Y181459D01*
X207999Y181459D01*
X212172Y179730D01*
X215366Y176536D01*
X217095Y172363D01*
X217095Y153265D01*
X215366Y149092D01*
X212172Y145898D01*
X207999Y144169D01*
X203481Y144169D01*
G37*
%LPD*%
%LPC*%
G36*
X32919Y272541D02*
X32919Y272541D01*
X26669Y278791D01*
X26669Y287629D01*
X32919Y293879D01*
X41757Y293879D01*
X48007Y287629D01*
X48007Y278791D01*
X41757Y272541D01*
X32919Y272541D01*
G37*
%LPD*%
%LPC*%
G36*
X58319Y272541D02*
X58319Y272541D01*
X52069Y278791D01*
X52069Y287629D01*
X58319Y293879D01*
X67157Y293879D01*
X73407Y287629D01*
X73407Y278791D01*
X67157Y272541D01*
X58319Y272541D01*
G37*
%LPD*%
%LPC*%
G36*
X599439Y307085D02*
X599439Y307085D01*
X599439Y316993D01*
X607786Y316993D01*
X609721Y316686D01*
X611584Y316081D01*
X613330Y315191D01*
X614914Y314040D01*
X616300Y312654D01*
X617451Y311070D01*
X618341Y309324D01*
X618946Y307461D01*
X619006Y307085D01*
X599439Y307085D01*
G37*
%LPD*%
%LPC*%
G36*
X599439Y427735D02*
X599439Y427735D01*
X599439Y437643D01*
X607786Y437643D01*
X609721Y437336D01*
X611584Y436731D01*
X613330Y435841D01*
X614914Y434690D01*
X616300Y433304D01*
X617451Y431720D01*
X618341Y429974D01*
X618946Y428111D01*
X619006Y427735D01*
X599439Y427735D01*
G37*
%LPD*%
%LPC*%
G36*
X574794Y307085D02*
X574794Y307085D01*
X574854Y307461D01*
X575459Y309324D01*
X576349Y311070D01*
X577500Y312654D01*
X578886Y314040D01*
X580470Y315191D01*
X582216Y316081D01*
X584079Y316686D01*
X586014Y316993D01*
X594361Y316993D01*
X594361Y307085D01*
X574794Y307085D01*
G37*
%LPD*%
%LPC*%
G36*
X574794Y427735D02*
X574794Y427735D01*
X574854Y428111D01*
X575459Y429974D01*
X576349Y431720D01*
X577500Y433304D01*
X578886Y434690D01*
X580470Y435841D01*
X582216Y436731D01*
X584079Y437336D01*
X586014Y437643D01*
X594361Y437643D01*
X594361Y427735D01*
X574794Y427735D01*
G37*
%LPD*%
%LPC*%
G36*
X599439Y292099D02*
X599439Y292099D01*
X599439Y302007D01*
X619006Y302007D01*
X618946Y301631D01*
X618341Y299768D01*
X617451Y298022D01*
X616300Y296438D01*
X614914Y295052D01*
X613330Y293901D01*
X611584Y293011D01*
X609721Y292406D01*
X607786Y292099D01*
X599439Y292099D01*
G37*
%LPD*%
%LPC*%
G36*
X599439Y412749D02*
X599439Y412749D01*
X599439Y422657D01*
X619006Y422657D01*
X618946Y422281D01*
X618341Y420418D01*
X617451Y418672D01*
X616300Y417088D01*
X614914Y415702D01*
X613330Y414551D01*
X611584Y413661D01*
X609721Y413056D01*
X607786Y412749D01*
X599439Y412749D01*
G37*
%LPD*%
%LPC*%
G36*
X586014Y412749D02*
X586014Y412749D01*
X584079Y413056D01*
X582216Y413661D01*
X580470Y414551D01*
X578886Y415702D01*
X577500Y417088D01*
X576349Y418672D01*
X575459Y420418D01*
X574854Y422281D01*
X574794Y422657D01*
X594361Y422657D01*
X594361Y412749D01*
X586014Y412749D01*
G37*
%LPD*%
%LPC*%
G36*
X586014Y292099D02*
X586014Y292099D01*
X584079Y292406D01*
X582216Y293011D01*
X580470Y293901D01*
X578886Y295052D01*
X577500Y296438D01*
X576349Y298022D01*
X575459Y299768D01*
X574854Y301631D01*
X574794Y302007D01*
X594361Y302007D01*
X594361Y292099D01*
X586014Y292099D01*
G37*
%LPD*%
%LPC*%
G36*
X128269Y95757D02*
X128269Y95757D01*
X128269Y103379D01*
X134150Y103379D01*
X135729Y103129D01*
X137250Y102634D01*
X138675Y101908D01*
X139969Y100968D01*
X141100Y99837D01*
X142040Y98543D01*
X142766Y97118D01*
X143209Y95757D01*
X128269Y95757D01*
G37*
%LPD*%
%LPC*%
G36*
X129539Y364489D02*
X129539Y364489D01*
X129539Y372111D01*
X135420Y372111D01*
X136999Y371861D01*
X138520Y371366D01*
X139945Y370640D01*
X141239Y369700D01*
X142370Y368569D01*
X143310Y367275D01*
X144036Y365850D01*
X144479Y364489D01*
X129539Y364489D01*
G37*
%LPD*%
%LPC*%
G36*
X409193Y27939D02*
X409193Y27939D01*
X409193Y42879D01*
X410554Y42436D01*
X411979Y41710D01*
X413273Y40770D01*
X414404Y39639D01*
X415344Y38345D01*
X416070Y36920D01*
X416565Y35399D01*
X416815Y33820D01*
X416815Y27939D01*
X409193Y27939D01*
G37*
%LPD*%
%LPC*%
G36*
X434593Y27939D02*
X434593Y27939D01*
X434593Y42879D01*
X435954Y42436D01*
X437379Y41710D01*
X438673Y40770D01*
X439804Y39639D01*
X440744Y38345D01*
X441470Y36920D01*
X441965Y35399D01*
X442215Y33820D01*
X442215Y27939D01*
X434593Y27939D01*
G37*
%LPD*%
%LPC*%
G36*
X243839Y123189D02*
X243839Y123189D01*
X243839Y138129D01*
X245200Y137686D01*
X246625Y136960D01*
X247919Y136020D01*
X249050Y134889D01*
X249990Y133595D01*
X250716Y132170D01*
X251211Y130649D01*
X251461Y129070D01*
X251461Y123189D01*
X243839Y123189D01*
G37*
%LPD*%
%LPC*%
G36*
X421639Y402589D02*
X421639Y402589D01*
X421639Y417529D01*
X423000Y417086D01*
X424425Y416360D01*
X425719Y415420D01*
X426850Y414289D01*
X427790Y412995D01*
X428516Y411570D01*
X429011Y410049D01*
X429261Y408470D01*
X429261Y402589D01*
X421639Y402589D01*
G37*
%LPD*%
%LPC*%
G36*
X128269Y210057D02*
X128269Y210057D01*
X128269Y217679D01*
X134150Y217679D01*
X135729Y217429D01*
X137250Y216934D01*
X138675Y216208D01*
X139969Y215268D01*
X141100Y214137D01*
X142040Y212843D01*
X142766Y211418D01*
X143209Y210057D01*
X128269Y210057D01*
G37*
%LPD*%
%LPC*%
G36*
X109521Y364489D02*
X109521Y364489D01*
X109964Y365850D01*
X110690Y367275D01*
X111630Y368569D01*
X112761Y369700D01*
X114055Y370640D01*
X115480Y371366D01*
X117001Y371861D01*
X118580Y372111D01*
X124461Y372111D01*
X124461Y364489D01*
X109521Y364489D01*
G37*
%LPD*%
%LPC*%
G36*
X108251Y210057D02*
X108251Y210057D01*
X108694Y211418D01*
X109420Y212843D01*
X110360Y214137D01*
X111491Y215268D01*
X112785Y216208D01*
X114210Y216934D01*
X115731Y217429D01*
X117310Y217679D01*
X123191Y217679D01*
X123191Y210057D01*
X108251Y210057D01*
G37*
%LPD*%
%LPC*%
G36*
X266699Y505461D02*
X266699Y505461D01*
X274321Y505461D01*
X274321Y499580D01*
X274071Y498001D01*
X273576Y496480D01*
X272850Y495055D01*
X271910Y493761D01*
X270779Y492630D01*
X269485Y491690D01*
X268060Y490964D01*
X266699Y490521D01*
X266699Y505461D01*
G37*
%LPD*%
%LPC*%
G36*
X243839Y118111D02*
X243839Y118111D01*
X251461Y118111D01*
X251461Y112230D01*
X251211Y110651D01*
X250716Y109130D01*
X249990Y107705D01*
X249050Y106411D01*
X247919Y105280D01*
X246625Y104340D01*
X245200Y103614D01*
X243839Y103171D01*
X243839Y118111D01*
G37*
%LPD*%
%LPC*%
G36*
X108251Y95757D02*
X108251Y95757D01*
X108694Y97118D01*
X109420Y98543D01*
X110360Y99837D01*
X111491Y100968D01*
X112785Y101908D01*
X114210Y102634D01*
X115731Y103129D01*
X117310Y103379D01*
X123191Y103379D01*
X123191Y95757D01*
X108251Y95757D01*
G37*
%LPD*%
%LPC*%
G36*
X421639Y397511D02*
X421639Y397511D01*
X429261Y397511D01*
X429261Y391630D01*
X429011Y390051D01*
X428516Y388530D01*
X427790Y387105D01*
X426850Y385811D01*
X425719Y384680D01*
X424425Y383740D01*
X423000Y383014D01*
X421639Y382571D01*
X421639Y397511D01*
G37*
%LPD*%
%LPC*%
G36*
X421893Y27939D02*
X421893Y27939D01*
X421893Y33820D01*
X422143Y35399D01*
X422638Y36920D01*
X423364Y38345D01*
X424304Y39639D01*
X425435Y40770D01*
X426729Y41710D01*
X428154Y42436D01*
X429515Y42879D01*
X429515Y27939D01*
X421893Y27939D01*
G37*
%LPD*%
%LPC*%
G36*
X408939Y402589D02*
X408939Y402589D01*
X408939Y408470D01*
X409189Y410049D01*
X409684Y411570D01*
X410410Y412995D01*
X411350Y414289D01*
X412481Y415420D01*
X413775Y416360D01*
X415200Y417086D01*
X416561Y417529D01*
X416561Y402589D01*
X408939Y402589D01*
G37*
%LPD*%
%LPC*%
G36*
X129539Y351789D02*
X129539Y351789D01*
X129539Y359411D01*
X144479Y359411D01*
X144036Y358050D01*
X143310Y356625D01*
X142370Y355331D01*
X141239Y354200D01*
X139945Y353260D01*
X138520Y352534D01*
X136999Y352039D01*
X135420Y351789D01*
X129539Y351789D01*
G37*
%LPD*%
%LPC*%
G36*
X231139Y123189D02*
X231139Y123189D01*
X231139Y129070D01*
X231389Y130649D01*
X231884Y132170D01*
X232610Y133595D01*
X233550Y134889D01*
X234681Y136020D01*
X235975Y136960D01*
X237400Y137686D01*
X238761Y138129D01*
X238761Y123189D01*
X231139Y123189D01*
G37*
%LPD*%
%LPC*%
G36*
X396493Y27939D02*
X396493Y27939D01*
X396493Y33820D01*
X396743Y35399D01*
X397238Y36920D01*
X397964Y38345D01*
X398904Y39639D01*
X400035Y40770D01*
X401329Y41710D01*
X402754Y42436D01*
X404115Y42879D01*
X404115Y27939D01*
X396493Y27939D01*
G37*
%LPD*%
%LPC*%
G36*
X128269Y197357D02*
X128269Y197357D01*
X128269Y204979D01*
X143209Y204979D01*
X142766Y203618D01*
X142040Y202193D01*
X141100Y200899D01*
X139969Y199768D01*
X138675Y198828D01*
X137250Y198102D01*
X135729Y197607D01*
X134150Y197357D01*
X128269Y197357D01*
G37*
%LPD*%
%LPC*%
G36*
X128269Y83057D02*
X128269Y83057D01*
X128269Y90679D01*
X143209Y90679D01*
X142766Y89318D01*
X142040Y87893D01*
X141100Y86599D01*
X139969Y85468D01*
X138675Y84528D01*
X137250Y83802D01*
X135729Y83307D01*
X134150Y83057D01*
X128269Y83057D01*
G37*
%LPD*%
%LPC*%
G36*
X118580Y351789D02*
X118580Y351789D01*
X117001Y352039D01*
X115480Y352534D01*
X114055Y353260D01*
X112761Y354200D01*
X111630Y355331D01*
X110690Y356625D01*
X109964Y358050D01*
X109521Y359411D01*
X124461Y359411D01*
X124461Y351789D01*
X118580Y351789D01*
G37*
%LPD*%
%LPC*%
G36*
X117310Y83057D02*
X117310Y83057D01*
X115731Y83307D01*
X114210Y83802D01*
X112785Y84528D01*
X111491Y85468D01*
X110360Y86599D01*
X109420Y87893D01*
X108694Y89318D01*
X108251Y90679D01*
X123191Y90679D01*
X123191Y83057D01*
X117310Y83057D01*
G37*
%LPD*%
%LPC*%
G36*
X415200Y383014D02*
X415200Y383014D01*
X413775Y383740D01*
X412481Y384680D01*
X411350Y385811D01*
X410410Y387105D01*
X409684Y388530D01*
X409189Y390051D01*
X408939Y391630D01*
X408939Y397511D01*
X416561Y397511D01*
X416561Y382571D01*
X415200Y383014D01*
G37*
%LPD*%
%LPC*%
G36*
X117310Y197357D02*
X117310Y197357D01*
X115731Y197607D01*
X114210Y198102D01*
X112785Y198828D01*
X111491Y199768D01*
X110360Y200899D01*
X109420Y202193D01*
X108694Y203618D01*
X108251Y204979D01*
X123191Y204979D01*
X123191Y197357D01*
X117310Y197357D01*
G37*
%LPD*%
%LPC*%
G36*
X237400Y103614D02*
X237400Y103614D01*
X235975Y104340D01*
X234681Y105280D01*
X233550Y106411D01*
X232610Y107705D01*
X231884Y109130D01*
X231389Y110651D01*
X231139Y112230D01*
X231139Y118111D01*
X238761Y118111D01*
X238761Y103171D01*
X237400Y103614D01*
G37*
%LPD*%
%LPC*%
G36*
X260260Y490964D02*
X260260Y490964D01*
X258835Y491690D01*
X257541Y492630D01*
X256410Y493761D01*
X255470Y495055D01*
X254744Y496480D01*
X254249Y498001D01*
X253999Y499580D01*
X253999Y505461D01*
X261621Y505461D01*
X261621Y490521D01*
X260260Y490964D01*
G37*
%LPD*%
%LPC*%
G36*
X233514Y267804D02*
X233514Y267804D01*
X233514Y282285D01*
X234914Y281831D01*
X236293Y281128D01*
X236810Y280752D01*
X237544Y280219D01*
X238639Y279124D01*
X239548Y277873D01*
X240251Y276494D01*
X240729Y275022D01*
X240971Y273494D01*
X240971Y267804D01*
X233514Y267804D01*
G37*
%LPD*%
%LPC*%
G36*
X233514Y316572D02*
X233514Y316572D01*
X233514Y331053D01*
X234914Y330599D01*
X236293Y329896D01*
X237544Y328987D01*
X238639Y327892D01*
X239548Y326641D01*
X240251Y325262D01*
X240729Y323790D01*
X240971Y322262D01*
X240971Y316572D01*
X233514Y316572D01*
G37*
%LPD*%
%LPC*%
G36*
X233514Y165188D02*
X233514Y165188D01*
X233514Y179669D01*
X234914Y179215D01*
X236293Y178512D01*
X237544Y177603D01*
X238639Y176508D01*
X239548Y175257D01*
X240251Y173878D01*
X240729Y172406D01*
X240971Y170878D01*
X240971Y165188D01*
X233514Y165188D01*
G37*
%LPD*%
%LPC*%
G36*
X233514Y419188D02*
X233514Y419188D01*
X233514Y433669D01*
X234914Y433215D01*
X236293Y432512D01*
X237544Y431603D01*
X238639Y430508D01*
X239548Y429257D01*
X240251Y427878D01*
X240729Y426406D01*
X240971Y424878D01*
X240971Y419188D01*
X233514Y419188D01*
G37*
%LPD*%
%LPC*%
G36*
X349338Y324446D02*
X349338Y324446D01*
X349338Y331903D01*
X355028Y331903D01*
X356556Y331661D01*
X358028Y331183D01*
X359407Y330480D01*
X360658Y329571D01*
X361753Y328476D01*
X362662Y327225D01*
X363365Y325846D01*
X363819Y324446D01*
X349338Y324446D01*
G37*
%LPD*%
%LPC*%
G36*
X233514Y414440D02*
X233514Y414440D01*
X240971Y414440D01*
X240971Y408750D01*
X240729Y407222D01*
X240251Y405750D01*
X239548Y404371D01*
X238639Y403120D01*
X237544Y402025D01*
X236293Y401116D01*
X234914Y400413D01*
X233514Y399959D01*
X233514Y414440D01*
G37*
%LPD*%
%LPC*%
G36*
X233514Y263056D02*
X233514Y263056D01*
X240971Y263056D01*
X240971Y257366D01*
X240729Y255838D01*
X240251Y254366D01*
X239548Y252987D01*
X238639Y251736D01*
X237544Y250641D01*
X236293Y249732D01*
X234914Y249029D01*
X233514Y248575D01*
X233514Y263056D01*
G37*
%LPD*%
%LPC*%
G36*
X233514Y311824D02*
X233514Y311824D01*
X240971Y311824D01*
X240971Y306134D01*
X240729Y304606D01*
X240251Y303134D01*
X239548Y301755D01*
X238639Y300504D01*
X237544Y299409D01*
X236293Y298500D01*
X234914Y297797D01*
X233514Y297343D01*
X233514Y311824D01*
G37*
%LPD*%
%LPC*%
G36*
X233514Y160440D02*
X233514Y160440D01*
X240971Y160440D01*
X240971Y154750D01*
X240729Y153222D01*
X240251Y151750D01*
X239548Y150371D01*
X238639Y149120D01*
X237544Y148025D01*
X236293Y147116D01*
X234914Y146413D01*
X233514Y145959D01*
X233514Y160440D01*
G37*
%LPD*%
%LPC*%
G36*
X221309Y267804D02*
X221309Y267804D01*
X221309Y273494D01*
X221551Y275022D01*
X222029Y276494D01*
X222732Y277873D01*
X223641Y279124D01*
X224736Y280219D01*
X225987Y281128D01*
X227366Y281831D01*
X228766Y282285D01*
X228766Y267804D01*
X221309Y267804D01*
G37*
%LPD*%
%LPC*%
G36*
X349338Y312241D02*
X349338Y312241D01*
X349338Y319698D01*
X363819Y319698D01*
X363365Y318298D01*
X362662Y316919D01*
X361753Y315668D01*
X360658Y314573D01*
X359407Y313664D01*
X358028Y312961D01*
X356556Y312483D01*
X355028Y312241D01*
X349338Y312241D01*
G37*
%LPD*%
%LPC*%
G36*
X221309Y165188D02*
X221309Y165188D01*
X221309Y170878D01*
X221551Y172406D01*
X222029Y173878D01*
X222732Y175257D01*
X223641Y176508D01*
X224736Y177603D01*
X225987Y178512D01*
X227366Y179215D01*
X228766Y179669D01*
X228766Y165188D01*
X221309Y165188D01*
G37*
%LPD*%
%LPC*%
G36*
X221309Y419188D02*
X221309Y419188D01*
X221309Y424878D01*
X221551Y426406D01*
X222029Y427878D01*
X222732Y429257D01*
X223641Y430508D01*
X224736Y431603D01*
X225987Y432512D01*
X227366Y433215D01*
X228766Y433669D01*
X228766Y419188D01*
X221309Y419188D01*
G37*
%LPD*%
%LPC*%
G36*
X221309Y316572D02*
X221309Y316572D01*
X221309Y322262D01*
X221551Y323790D01*
X222029Y325262D01*
X222732Y326641D01*
X223641Y327892D01*
X224736Y328987D01*
X225987Y329896D01*
X227366Y330599D01*
X228766Y331053D01*
X228766Y316572D01*
X221309Y316572D01*
G37*
%LPD*%
%LPC*%
G36*
X227366Y249029D02*
X227366Y249029D01*
X225987Y249732D01*
X225889Y249803D01*
X225889Y249804D01*
X224736Y250641D01*
X223641Y251736D01*
X222732Y252987D01*
X222029Y254366D01*
X221551Y255838D01*
X221309Y257366D01*
X221309Y263056D01*
X228766Y263056D01*
X228766Y248575D01*
X227366Y249029D01*
G37*
%LPD*%
%LPC*%
G36*
X227366Y400413D02*
X227366Y400413D01*
X225987Y401116D01*
X224736Y402025D01*
X223641Y403120D01*
X222732Y404371D01*
X222029Y405750D01*
X221551Y407222D01*
X221309Y408750D01*
X221309Y414440D01*
X228766Y414440D01*
X228766Y399959D01*
X227366Y400413D01*
G37*
%LPD*%
%LPC*%
G36*
X227366Y297797D02*
X227366Y297797D01*
X225987Y298500D01*
X224736Y299409D01*
X223641Y300504D01*
X222732Y301755D01*
X222029Y303134D01*
X221551Y304606D01*
X221309Y306134D01*
X221309Y311824D01*
X228766Y311824D01*
X228766Y297343D01*
X227366Y297797D01*
G37*
%LPD*%
%LPC*%
G36*
X227366Y146413D02*
X227366Y146413D01*
X225987Y147116D01*
X224736Y148025D01*
X223641Y149120D01*
X222732Y150371D01*
X222029Y151750D01*
X221551Y153222D01*
X221309Y154750D01*
X221309Y160440D01*
X228766Y160440D01*
X228766Y145959D01*
X227366Y146413D01*
G37*
%LPD*%
%LPC*%
G36*
X125729Y93217D02*
X125729Y93217D01*
X125729Y93219D01*
X125731Y93219D01*
X125731Y93217D01*
X125729Y93217D01*
G37*
%LPD*%
%LPC*%
G36*
X126999Y361949D02*
X126999Y361949D01*
X126999Y361951D01*
X127001Y361951D01*
X127001Y361949D01*
X126999Y361949D01*
G37*
%LPD*%
%LPC*%
G36*
X241299Y120649D02*
X241299Y120649D01*
X241299Y120651D01*
X241301Y120651D01*
X241301Y120649D01*
X241299Y120649D01*
G37*
%LPD*%
%LPC*%
G36*
X596899Y425195D02*
X596899Y425195D01*
X596899Y425197D01*
X596901Y425197D01*
X596901Y425195D01*
X596899Y425195D01*
G37*
%LPD*%
%LPC*%
G36*
X596899Y304545D02*
X596899Y304545D01*
X596899Y304547D01*
X596901Y304547D01*
X596901Y304545D01*
X596899Y304545D01*
G37*
%LPD*%
%LPC*%
G36*
X419099Y400049D02*
X419099Y400049D01*
X419099Y400051D01*
X419101Y400051D01*
X419101Y400049D01*
X419099Y400049D01*
G37*
%LPD*%
%LPC*%
G36*
X125729Y207517D02*
X125729Y207517D01*
X125729Y207519D01*
X125731Y207519D01*
X125731Y207517D01*
X125729Y207517D01*
G37*
%LPD*%
D10*
X660400Y10000D02*
X660400Y520700D01*
X647700Y533400D01*
X10000Y533400D01*
X9758Y533397D01*
X9517Y533388D01*
X9276Y533374D01*
X9035Y533353D01*
X8795Y533327D01*
X8555Y533295D01*
X8316Y533257D01*
X8079Y533214D01*
X7842Y533164D01*
X7607Y533109D01*
X7373Y533049D01*
X7141Y532982D01*
X6910Y532911D01*
X6681Y532833D01*
X6454Y532750D01*
X6229Y532662D01*
X6006Y532568D01*
X5786Y532469D01*
X5568Y532364D01*
X5353Y532255D01*
X5140Y532140D01*
X4930Y532020D01*
X4724Y531895D01*
X4520Y531765D01*
X4319Y531630D01*
X4122Y531490D01*
X3928Y531346D01*
X3738Y531197D01*
X3552Y531043D01*
X3369Y530885D01*
X3190Y530723D01*
X3015Y530556D01*
X2844Y530385D01*
X2677Y530210D01*
X2515Y530031D01*
X2357Y529848D01*
X2203Y529662D01*
X2054Y529472D01*
X1910Y529278D01*
X1770Y529081D01*
X1635Y528880D01*
X1505Y528676D01*
X1380Y528470D01*
X1260Y528260D01*
X1145Y528047D01*
X1036Y527832D01*
X931Y527614D01*
X832Y527394D01*
X738Y527171D01*
X650Y526946D01*
X567Y526719D01*
X489Y526490D01*
X418Y526259D01*
X351Y526027D01*
X291Y525793D01*
X236Y525558D01*
X186Y525321D01*
X143Y525084D01*
X105Y524845D01*
X73Y524605D01*
X47Y524365D01*
X26Y524124D01*
X12Y523883D01*
X3Y523642D01*
X0Y523400D01*
X0Y10000D01*
X3Y9758D01*
X12Y9517D01*
X26Y9276D01*
X47Y9035D01*
X73Y8795D01*
X105Y8555D01*
X143Y8316D01*
X186Y8079D01*
X236Y7842D01*
X291Y7607D01*
X351Y7373D01*
X418Y7141D01*
X489Y6910D01*
X567Y6681D01*
X650Y6454D01*
X738Y6229D01*
X832Y6006D01*
X931Y5786D01*
X1036Y5568D01*
X1145Y5353D01*
X1260Y5140D01*
X1380Y4930D01*
X1505Y4724D01*
X1635Y4520D01*
X1770Y4319D01*
X1910Y4122D01*
X2054Y3928D01*
X2203Y3738D01*
X2357Y3552D01*
X2515Y3369D01*
X2677Y3190D01*
X2844Y3015D01*
X3015Y2844D01*
X3190Y2677D01*
X3369Y2515D01*
X3552Y2357D01*
X3738Y2203D01*
X3928Y2054D01*
X4122Y1910D01*
X4319Y1770D01*
X4520Y1635D01*
X4724Y1505D01*
X4930Y1380D01*
X5140Y1260D01*
X5353Y1145D01*
X5568Y1036D01*
X5786Y931D01*
X6006Y832D01*
X6229Y738D01*
X6454Y650D01*
X6681Y567D01*
X6910Y489D01*
X7141Y418D01*
X7373Y351D01*
X7607Y291D01*
X7842Y236D01*
X8079Y186D01*
X8316Y143D01*
X8555Y105D01*
X8795Y73D01*
X9035Y47D01*
X9276Y26D01*
X9517Y12D01*
X9758Y3D01*
X10000Y0D01*
X650400Y0D01*
X650642Y3D01*
X650883Y12D01*
X651124Y26D01*
X651365Y47D01*
X651605Y73D01*
X651845Y105D01*
X652084Y143D01*
X652321Y186D01*
X652558Y236D01*
X652793Y291D01*
X653027Y351D01*
X653259Y418D01*
X653490Y489D01*
X653719Y567D01*
X653946Y650D01*
X654171Y738D01*
X654394Y832D01*
X654614Y931D01*
X654832Y1036D01*
X655047Y1145D01*
X655260Y1260D01*
X655470Y1380D01*
X655676Y1505D01*
X655880Y1635D01*
X656081Y1770D01*
X656278Y1910D01*
X656472Y2054D01*
X656662Y2203D01*
X656848Y2357D01*
X657031Y2515D01*
X657210Y2677D01*
X657385Y2844D01*
X657556Y3015D01*
X657723Y3190D01*
X657885Y3369D01*
X658043Y3552D01*
X658197Y3738D01*
X658346Y3928D01*
X658490Y4122D01*
X658630Y4319D01*
X658765Y4520D01*
X658895Y4724D01*
X659020Y4930D01*
X659140Y5140D01*
X659255Y5353D01*
X659364Y5568D01*
X659469Y5786D01*
X659568Y6006D01*
X659662Y6229D01*
X659750Y6454D01*
X659833Y6681D01*
X659911Y6910D01*
X659982Y7141D01*
X660049Y7373D01*
X660109Y7607D01*
X660164Y7842D01*
X660214Y8079D01*
X660257Y8316D01*
X660295Y8555D01*
X660327Y8795D01*
X660353Y9035D01*
X660374Y9276D01*
X660388Y9517D01*
X660397Y9758D01*
X660400Y10000D01*
D11*
X187960Y500380D02*
X187960Y515620D01*
X213360Y515620D02*
X213360Y500380D01*
X238760Y500380D02*
X238760Y515620D01*
X264160Y515620D02*
X264160Y500380D01*
X289560Y500380D02*
X289560Y515620D01*
X314960Y515620D02*
X314960Y500380D01*
X340360Y500380D02*
X340360Y515620D01*
X365760Y515620D02*
X365760Y500380D01*
X391160Y500380D02*
X391160Y515620D01*
X416560Y515620D02*
X416560Y500380D01*
X279654Y33020D02*
X279654Y17780D01*
X305054Y17780D02*
X305054Y33020D01*
X330454Y33020D02*
X330454Y17780D01*
X355854Y17780D02*
X355854Y33020D01*
X381254Y33020D02*
X381254Y17780D01*
X406654Y17780D02*
X406654Y33020D01*
X432054Y33020D02*
X432054Y17780D01*
X457454Y17780D02*
X457454Y33020D01*
X457200Y500380D02*
X457200Y515620D01*
X482600Y515620D02*
X482600Y500380D01*
X508000Y500380D02*
X508000Y515620D01*
X533400Y515620D02*
X533400Y500380D01*
X558800Y500380D02*
X558800Y515620D01*
X584200Y515620D02*
X584200Y500380D01*
X609600Y500380D02*
X609600Y515620D01*
X635000Y515620D02*
X635000Y500380D01*
X508000Y32766D02*
X508000Y17526D01*
X533400Y17526D02*
X533400Y32766D01*
X558800Y32766D02*
X558800Y17526D01*
X584200Y17526D02*
X584200Y32766D01*
X609600Y32766D02*
X609600Y17526D01*
X635000Y17526D02*
X635000Y32766D01*
D12*
X180340Y155524D02*
X180340Y170104D01*
X205740Y170104D02*
X205740Y155524D01*
X231140Y155524D02*
X231140Y170104D01*
X256540Y170104D02*
X256540Y155524D01*
X281940Y155524D02*
X281940Y170104D01*
X307340Y170104D02*
X307340Y155524D01*
X180340Y258140D02*
X180340Y272720D01*
X205740Y272720D02*
X205740Y258140D01*
X231140Y258140D02*
X231140Y272720D01*
X256540Y272720D02*
X256540Y258140D01*
X281940Y258140D02*
X281940Y272720D01*
X307340Y272720D02*
X307340Y258140D01*
X339674Y169672D02*
X354254Y169672D01*
X354254Y195072D02*
X339674Y195072D01*
X339674Y220472D02*
X354254Y220472D01*
X354254Y245872D02*
X339674Y245872D01*
X339674Y271272D02*
X354254Y271272D01*
X354254Y296672D02*
X339674Y296672D01*
X339674Y322072D02*
X354254Y322072D01*
X354254Y347472D02*
X339674Y347472D01*
X180340Y321488D02*
X180340Y306908D01*
X205740Y306908D02*
X205740Y321488D01*
X231140Y321488D02*
X231140Y306908D01*
X256540Y306908D02*
X256540Y321488D01*
X281940Y321488D02*
X281940Y306908D01*
X307340Y306908D02*
X307340Y321488D01*
X180340Y409524D02*
X180340Y424104D01*
X205740Y424104D02*
X205740Y409524D01*
X231140Y409524D02*
X231140Y424104D01*
X256540Y424104D02*
X256540Y409524D01*
X281940Y409524D02*
X281940Y424104D01*
X307340Y424104D02*
X307340Y409524D01*
D13*
X62738Y283210D03*
X37338Y283210D03*
D11*
X118110Y67818D02*
X133350Y67818D01*
X133350Y93218D02*
X118110Y93218D01*
X118110Y118618D02*
X133350Y118618D01*
X133350Y156718D02*
X118110Y156718D01*
X118110Y182118D02*
X133350Y182118D01*
X133350Y207518D02*
X118110Y207518D01*
X506730Y171450D02*
X521970Y171450D01*
X521970Y146050D02*
X506730Y146050D01*
X506730Y120650D02*
X521970Y120650D01*
X521970Y95250D02*
X506730Y95250D01*
X241300Y113030D02*
X241300Y128270D01*
X215900Y128270D02*
X215900Y113030D01*
X190500Y113030D02*
X190500Y128270D01*
X165100Y128270D02*
X165100Y113030D01*
X134620Y361950D02*
X119380Y361950D01*
X119380Y387350D02*
X134620Y387350D01*
X134620Y412750D02*
X119380Y412750D01*
X119380Y438150D02*
X134620Y438150D01*
D14*
X586994Y254254D02*
X606806Y254254D01*
X606806Y304546D02*
X586994Y304546D01*
X586994Y374904D02*
X606806Y374904D01*
X606806Y425196D02*
X586994Y425196D01*
D11*
X393700Y407670D02*
X393700Y392430D01*
X419100Y392430D02*
X419100Y407670D01*
X444500Y407670D02*
X444500Y392430D01*
X469900Y392430D02*
X469900Y407670D01*
X495300Y407670D02*
X495300Y392430D01*
D15*
X146050Y342900D02*
X95250Y292100D01*
X95250Y171450D01*
X107950Y158750D01*
X120650Y158750D01*
X125730Y156718D01*
D16*
X146050Y342900D03*
D15*
X285750Y419100D02*
X285750Y431800D01*
X330200Y476250D01*
X412750Y476250D01*
X412750Y508000D01*
X285750Y419100D02*
X281940Y416814D01*
X412750Y508000D02*
X416560Y508000D01*
X463550Y342900D02*
X393700Y273050D01*
X463550Y342900D02*
X463550Y381000D01*
X469900Y387350D01*
X469900Y400050D01*
X215900Y488950D02*
X215900Y508000D01*
X215900Y488950D02*
X247650Y457200D01*
X215900Y508000D02*
X213360Y508000D01*
D16*
X393700Y273050D03*
X247650Y457200D03*
D15*
X190500Y488950D02*
X190500Y508000D01*
X190500Y488950D02*
X234950Y444500D01*
X190500Y508000D02*
X187960Y508000D01*
D16*
X234950Y444500D03*
D15*
X457454Y25400D02*
X482600Y25400D01*
X482600Y177800D01*
X533400Y228600D01*
X596900Y228600D01*
X596900Y254254D01*
X323850Y304800D02*
X285750Y266700D01*
X323850Y304800D02*
X323850Y349250D01*
X381000Y406400D01*
X381000Y412750D01*
X425450Y457200D01*
X603250Y457200D01*
X603250Y488950D01*
X609600Y495300D01*
X609600Y508000D01*
X285750Y266700D02*
X281940Y265430D01*
X184150Y400050D02*
X184150Y412750D01*
X184150Y400050D02*
X196850Y387350D01*
X304800Y387350D01*
X304800Y374650D01*
X317500Y361950D01*
X323850Y361950D01*
X323850Y368300D01*
X419100Y463550D01*
X476250Y463550D01*
X476250Y488950D01*
X482600Y495300D01*
X482600Y508000D01*
X184150Y412750D02*
X180340Y416814D01*
X165100Y279400D02*
X177800Y266700D01*
X165100Y279400D02*
X165100Y336550D01*
X190500Y361950D01*
X317500Y374650D02*
X412750Y469900D01*
X444500Y469900D01*
X444500Y495300D01*
X457200Y508000D01*
X180340Y265430D02*
X177800Y266700D01*
D16*
X190500Y361950D03*
X317500Y374650D03*
D17*
X254000Y336550D02*
X254000Y317500D01*
X254000Y336550D02*
X215900Y374650D01*
X158750Y374650D01*
X158750Y419100D01*
X139700Y438150D01*
X127000Y438150D01*
X254000Y317500D02*
X256540Y314198D01*
X158750Y63500D02*
X127000Y63500D01*
X158750Y63500D02*
X158750Y107950D01*
X165100Y114300D01*
X165100Y120650D01*
X125730Y67818D02*
X127000Y63500D01*
X127000Y177800D02*
X158750Y177800D01*
X158750Y133350D01*
X165100Y127000D01*
X165100Y120650D01*
X127000Y177800D02*
X125730Y182118D01*
X260350Y158750D02*
X260350Y146050D01*
X304800Y101600D01*
X304800Y63500D02*
X304800Y25400D01*
X304800Y63500D02*
X304800Y101600D01*
X260350Y158750D02*
X256540Y162814D01*
X304800Y25400D02*
X305054Y25400D01*
X393700Y171450D02*
X596900Y374650D01*
X393700Y171450D02*
X393700Y50800D01*
X381000Y38100D01*
X381000Y25400D01*
X596900Y374650D02*
X596900Y374904D01*
X381254Y25400D02*
X381000Y25400D01*
X304800Y63500D02*
X158750Y63500D01*
X158750Y342900D02*
X158750Y374650D01*
X158750Y342900D02*
X152400Y336550D01*
X152400Y215900D01*
X158750Y209550D01*
X158750Y177800D01*
X323850Y57150D02*
X355600Y25400D01*
X323850Y107950D02*
X323850Y171450D01*
X323850Y107950D02*
X323850Y57150D01*
X323850Y171450D02*
X254000Y241300D01*
X254000Y260350D01*
X355600Y25400D02*
X355854Y25400D01*
X254000Y260350D02*
X256540Y265430D01*
X349250Y349250D02*
X374650Y349250D01*
X381000Y342900D01*
X381000Y165100D01*
X323850Y107950D01*
X346964Y347472D02*
X349250Y349250D01*
D15*
X203200Y355600D02*
X203200Y317500D01*
X205740Y314198D01*
D16*
X203200Y355600D03*
M02*
