G04 EAGLE Gerber RS-274X export*
G75*
%MOMM*%
%FSLAX34Y34*%
%LPD*%
%INBottom layer*%
%IPPOS*%
%AMOC8*
5,1,8,0,0,1.08239X$1,22.5*%
G01*
%ADD10C,0.254000*%
%ADD11C,1.524000*%
%ADD12C,1.458000*%
%ADD13P,1.429621X8X202.500000*%
%ADD14C,1.981200*%
%ADD15C,0.406400*%
%ADD16C,0.756400*%
%ADD17C,0.609600*%

G36*
X650420Y6353D02*
X650420Y6353D01*
X650524Y6357D01*
X650989Y6403D01*
X651092Y6426D01*
X651198Y6441D01*
X651278Y6468D01*
X651299Y6473D01*
X651313Y6480D01*
X651350Y6493D01*
X652208Y6848D01*
X652216Y6853D01*
X652225Y6856D01*
X652354Y6932D01*
X652484Y7006D01*
X652491Y7012D01*
X652499Y7017D01*
X652620Y7124D01*
X653276Y7780D01*
X653282Y7788D01*
X653289Y7793D01*
X653379Y7913D01*
X653471Y8032D01*
X653475Y8040D01*
X653481Y8047D01*
X653552Y8192D01*
X653907Y9050D01*
X653935Y9153D01*
X653972Y9252D01*
X653985Y9336D01*
X653991Y9357D01*
X653991Y9373D01*
X653997Y9411D01*
X654043Y9876D01*
X654043Y9895D01*
X654049Y10000D01*
X654049Y517544D01*
X654037Y517642D01*
X654034Y517741D01*
X654017Y517799D01*
X654009Y517859D01*
X653973Y517951D01*
X653945Y518046D01*
X653915Y518099D01*
X653892Y518155D01*
X653834Y518235D01*
X653784Y518320D01*
X653718Y518396D01*
X653706Y518412D01*
X653696Y518420D01*
X653678Y518441D01*
X645441Y526678D01*
X645363Y526738D01*
X645291Y526806D01*
X645238Y526835D01*
X645190Y526872D01*
X645099Y526912D01*
X645012Y526960D01*
X644954Y526975D01*
X644898Y526999D01*
X644800Y527014D01*
X644704Y527039D01*
X644604Y527045D01*
X644584Y527049D01*
X644572Y527047D01*
X644544Y527049D01*
X643160Y527049D01*
X643022Y527032D01*
X642883Y527019D01*
X642864Y527012D01*
X642844Y527009D01*
X642715Y526958D01*
X642584Y526911D01*
X642567Y526900D01*
X642548Y526892D01*
X642436Y526811D01*
X642321Y526733D01*
X642308Y526717D01*
X642291Y526706D01*
X642202Y526598D01*
X642110Y526494D01*
X642101Y526476D01*
X642088Y526461D01*
X642029Y526335D01*
X641966Y526211D01*
X641961Y526191D01*
X641953Y526173D01*
X641927Y526037D01*
X641896Y525901D01*
X641897Y525880D01*
X641893Y525861D01*
X641902Y525722D01*
X641906Y525583D01*
X641911Y525563D01*
X641913Y525543D01*
X641956Y525411D01*
X641994Y525277D01*
X642005Y525260D01*
X642011Y525241D01*
X642085Y525123D01*
X642156Y525003D01*
X642174Y524982D01*
X642181Y524972D01*
X642196Y524958D01*
X642262Y524883D01*
X644906Y522239D01*
X646685Y517944D01*
X646685Y498056D01*
X644906Y493761D01*
X641619Y490474D01*
X637324Y488695D01*
X636016Y488695D01*
X635898Y488680D01*
X635779Y488673D01*
X635741Y488660D01*
X635700Y488655D01*
X635590Y488612D01*
X635477Y488575D01*
X635442Y488553D01*
X635405Y488538D01*
X635309Y488469D01*
X635208Y488405D01*
X635180Y488375D01*
X635147Y488352D01*
X635071Y488260D01*
X634990Y488173D01*
X634970Y488138D01*
X634945Y488107D01*
X634894Y487999D01*
X634836Y487895D01*
X634826Y487855D01*
X634809Y487819D01*
X634787Y487702D01*
X634757Y487587D01*
X634753Y487527D01*
X634749Y487507D01*
X634751Y487486D01*
X634750Y487482D01*
X634749Y487477D01*
X634750Y487472D01*
X634747Y487426D01*
X634747Y411537D01*
X633819Y409296D01*
X619404Y394881D01*
X617163Y393953D01*
X580901Y393953D01*
X580803Y393941D01*
X580704Y393938D01*
X580646Y393921D01*
X580586Y393913D01*
X580493Y393877D01*
X580398Y393849D01*
X580346Y393819D01*
X580290Y393796D01*
X580210Y393738D01*
X580124Y393688D01*
X580049Y393622D01*
X580033Y393610D01*
X580025Y393600D01*
X580004Y393582D01*
X441604Y255181D01*
X439363Y254253D01*
X364972Y254253D01*
X364923Y254247D01*
X364873Y254249D01*
X364766Y254227D01*
X364657Y254213D01*
X364611Y254195D01*
X364562Y254185D01*
X364463Y254137D01*
X364361Y254096D01*
X364321Y254067D01*
X364276Y254045D01*
X364193Y253974D01*
X364104Y253910D01*
X364072Y253871D01*
X364034Y253839D01*
X363971Y253749D01*
X363901Y253665D01*
X363880Y253620D01*
X363851Y253579D01*
X363812Y253476D01*
X363765Y253377D01*
X363756Y253328D01*
X363738Y253282D01*
X363726Y253172D01*
X363706Y253065D01*
X363709Y253015D01*
X363703Y252966D01*
X363718Y252857D01*
X363725Y252747D01*
X363741Y252700D01*
X363748Y252651D01*
X363800Y252498D01*
X365609Y248131D01*
X365609Y243613D01*
X363880Y239440D01*
X360686Y236246D01*
X356513Y234517D01*
X337415Y234517D01*
X333242Y236246D01*
X330048Y239440D01*
X328319Y243613D01*
X328319Y248131D01*
X330128Y252498D01*
X330142Y252546D01*
X330163Y252591D01*
X330183Y252699D01*
X330212Y252805D01*
X330213Y252855D01*
X330222Y252904D01*
X330216Y253013D01*
X330217Y253123D01*
X330206Y253171D01*
X330203Y253221D01*
X330169Y253325D01*
X330143Y253432D01*
X330120Y253476D01*
X330105Y253523D01*
X330046Y253616D01*
X329995Y253713D01*
X329961Y253750D01*
X329935Y253792D01*
X329854Y253867D01*
X329781Y253949D01*
X329739Y253976D01*
X329703Y254010D01*
X329607Y254063D01*
X329515Y254123D01*
X329468Y254140D01*
X329424Y254164D01*
X329318Y254191D01*
X329214Y254227D01*
X329165Y254231D01*
X329116Y254243D01*
X328956Y254253D01*
X318868Y254253D01*
X318839Y254250D01*
X318810Y254252D01*
X318682Y254230D01*
X318553Y254213D01*
X318525Y254203D01*
X318496Y254198D01*
X318378Y254144D01*
X318257Y254096D01*
X318233Y254079D01*
X318206Y254067D01*
X318105Y253986D01*
X318000Y253910D01*
X317981Y253887D01*
X317958Y253868D01*
X317880Y253765D01*
X317797Y253665D01*
X317784Y253638D01*
X317767Y253614D01*
X317696Y253470D01*
X316966Y251708D01*
X313772Y248514D01*
X309599Y246785D01*
X305081Y246785D01*
X300908Y248514D01*
X297714Y251708D01*
X295985Y255881D01*
X295985Y274979D01*
X297714Y279152D01*
X299347Y280785D01*
X299421Y280880D01*
X299499Y280969D01*
X299518Y281005D01*
X299542Y281037D01*
X299590Y281146D01*
X299644Y281252D01*
X299653Y281291D01*
X299669Y281329D01*
X299687Y281446D01*
X299713Y281562D01*
X299712Y281603D01*
X299719Y281643D01*
X299707Y281761D01*
X299704Y281880D01*
X299693Y281919D01*
X299689Y281959D01*
X299648Y282072D01*
X299615Y282186D01*
X299595Y282220D01*
X299581Y282259D01*
X299514Y282357D01*
X299454Y282460D01*
X299414Y282505D01*
X299403Y282522D01*
X299387Y282535D01*
X299347Y282580D01*
X296296Y285632D01*
X296218Y285692D01*
X296146Y285760D01*
X296093Y285789D01*
X296045Y285826D01*
X295954Y285866D01*
X295868Y285914D01*
X295809Y285929D01*
X295753Y285953D01*
X295655Y285968D01*
X295560Y285993D01*
X295460Y285999D01*
X295439Y286003D01*
X295427Y286001D01*
X295399Y286003D01*
X285924Y286003D01*
X285854Y285995D01*
X285785Y285996D01*
X285697Y285975D01*
X285608Y285963D01*
X285543Y285938D01*
X285475Y285921D01*
X285396Y285879D01*
X285312Y285846D01*
X285256Y285805D01*
X285194Y285773D01*
X285128Y285712D01*
X285055Y285660D01*
X285011Y285606D01*
X284959Y285559D01*
X284910Y285484D01*
X284852Y285415D01*
X284823Y285351D01*
X284784Y285293D01*
X284755Y285208D01*
X284717Y285127D01*
X284704Y285058D01*
X284681Y284992D01*
X284674Y284903D01*
X284657Y284815D01*
X284661Y284745D01*
X284656Y284675D01*
X284671Y284587D01*
X284677Y284497D01*
X284698Y284431D01*
X284710Y284362D01*
X284747Y284280D01*
X284775Y284195D01*
X284812Y284136D01*
X284841Y284072D01*
X284897Y284002D01*
X284945Y283926D01*
X284996Y283878D01*
X285039Y283824D01*
X285111Y283769D01*
X285177Y283708D01*
X285238Y283674D01*
X285293Y283632D01*
X285438Y283561D01*
X288372Y282346D01*
X291566Y279152D01*
X293295Y274979D01*
X293295Y255881D01*
X291566Y251708D01*
X288372Y248514D01*
X284199Y246785D01*
X279681Y246785D01*
X275508Y248514D01*
X272314Y251708D01*
X270585Y255881D01*
X270585Y274979D01*
X272314Y279152D01*
X275508Y282346D01*
X278442Y283561D01*
X278503Y283596D01*
X278568Y283622D01*
X278640Y283674D01*
X278718Y283719D01*
X278768Y283767D01*
X278825Y283808D01*
X278882Y283878D01*
X278947Y283940D01*
X278983Y284000D01*
X279028Y284053D01*
X279066Y284135D01*
X279113Y284211D01*
X279134Y284278D01*
X279163Y284341D01*
X279180Y284429D01*
X279207Y284515D01*
X279210Y284585D01*
X279223Y284654D01*
X279217Y284743D01*
X279222Y284833D01*
X279208Y284901D01*
X279203Y284971D01*
X279176Y285056D01*
X279157Y285144D01*
X279127Y285207D01*
X279105Y285273D01*
X279057Y285349D01*
X279018Y285430D01*
X278972Y285483D01*
X278935Y285542D01*
X278870Y285604D01*
X278811Y285672D01*
X278754Y285712D01*
X278703Y285760D01*
X278625Y285803D01*
X278551Y285855D01*
X278486Y285880D01*
X278425Y285914D01*
X278338Y285936D01*
X278254Y285968D01*
X278184Y285976D01*
X278117Y285993D01*
X277956Y286003D01*
X260524Y286003D01*
X260454Y285995D01*
X260385Y285996D01*
X260297Y285975D01*
X260208Y285963D01*
X260143Y285938D01*
X260075Y285921D01*
X259996Y285879D01*
X259912Y285846D01*
X259856Y285805D01*
X259794Y285773D01*
X259728Y285712D01*
X259655Y285660D01*
X259611Y285606D01*
X259559Y285559D01*
X259510Y285484D01*
X259452Y285415D01*
X259423Y285351D01*
X259384Y285293D01*
X259355Y285208D01*
X259317Y285127D01*
X259304Y285058D01*
X259281Y284992D01*
X259274Y284903D01*
X259257Y284815D01*
X259261Y284745D01*
X259256Y284675D01*
X259271Y284587D01*
X259277Y284497D01*
X259298Y284431D01*
X259310Y284362D01*
X259347Y284280D01*
X259375Y284195D01*
X259412Y284136D01*
X259441Y284072D01*
X259497Y284002D01*
X259545Y283926D01*
X259596Y283878D01*
X259639Y283824D01*
X259711Y283769D01*
X259777Y283708D01*
X259838Y283674D01*
X259893Y283632D01*
X260038Y283561D01*
X262972Y282346D01*
X266166Y279152D01*
X267895Y274979D01*
X267895Y255881D01*
X266166Y251708D01*
X262972Y248514D01*
X258799Y246785D01*
X257370Y246785D01*
X257272Y246773D01*
X257173Y246770D01*
X257114Y246753D01*
X257054Y246745D01*
X256962Y246709D01*
X256867Y246681D01*
X256815Y246651D01*
X256759Y246628D01*
X256679Y246570D01*
X256593Y246520D01*
X256518Y246454D01*
X256501Y246442D01*
X256494Y246432D01*
X256472Y246414D01*
X238979Y228920D01*
X236365Y227837D01*
X106535Y227837D01*
X103921Y228920D01*
X101742Y231099D01*
X60672Y272170D01*
X60593Y272230D01*
X60521Y272298D01*
X60468Y272327D01*
X60420Y272364D01*
X60329Y272404D01*
X60243Y272452D01*
X60184Y272467D01*
X60128Y272491D01*
X60031Y272506D01*
X59935Y272531D01*
X59835Y272537D01*
X59814Y272541D01*
X59802Y272539D01*
X59774Y272541D01*
X58166Y272541D01*
X58048Y272526D01*
X57929Y272519D01*
X57891Y272506D01*
X57850Y272501D01*
X57740Y272458D01*
X57627Y272421D01*
X57592Y272399D01*
X57555Y272384D01*
X57459Y272315D01*
X57358Y272251D01*
X57330Y272221D01*
X57297Y272198D01*
X57221Y272106D01*
X57140Y272019D01*
X57120Y271984D01*
X57095Y271953D01*
X57044Y271845D01*
X56986Y271741D01*
X56976Y271701D01*
X56959Y271665D01*
X56937Y271548D01*
X56907Y271433D01*
X56903Y271373D01*
X56899Y271353D01*
X56901Y271332D01*
X56897Y271272D01*
X56897Y147066D01*
X56912Y146948D01*
X56919Y146829D01*
X56932Y146791D01*
X56937Y146750D01*
X56980Y146640D01*
X57017Y146527D01*
X57039Y146492D01*
X57054Y146455D01*
X57124Y146358D01*
X57187Y146258D01*
X57217Y146230D01*
X57240Y146197D01*
X57332Y146121D01*
X57419Y146040D01*
X57454Y146020D01*
X57485Y145995D01*
X57593Y145944D01*
X57697Y145886D01*
X57737Y145876D01*
X57773Y145859D01*
X57890Y145837D01*
X58005Y145807D01*
X58065Y145803D01*
X58085Y145799D01*
X58106Y145801D01*
X58166Y145797D01*
X109442Y145797D01*
X109580Y145814D01*
X109719Y145827D01*
X109738Y145834D01*
X109758Y145837D01*
X109887Y145888D01*
X110018Y145935D01*
X110035Y145946D01*
X110054Y145954D01*
X110166Y146035D01*
X110281Y146113D01*
X110294Y146129D01*
X110311Y146140D01*
X110400Y146248D01*
X110492Y146352D01*
X110501Y146370D01*
X110514Y146385D01*
X110573Y146511D01*
X110636Y146635D01*
X110641Y146655D01*
X110649Y146673D01*
X110675Y146809D01*
X110706Y146945D01*
X110705Y146966D01*
X110709Y146985D01*
X110700Y147124D01*
X110696Y147263D01*
X110691Y147283D01*
X110689Y147303D01*
X110646Y147435D01*
X110608Y147569D01*
X110597Y147586D01*
X110591Y147605D01*
X110517Y147723D01*
X110446Y147843D01*
X110428Y147864D01*
X110421Y147874D01*
X110406Y147888D01*
X110340Y147963D01*
X108204Y150099D01*
X106425Y154394D01*
X106425Y159042D01*
X108204Y163337D01*
X111491Y166624D01*
X115406Y168245D01*
X115526Y168314D01*
X115650Y168379D01*
X115664Y168393D01*
X115682Y168403D01*
X115782Y168500D01*
X115885Y168593D01*
X115896Y168610D01*
X115911Y168624D01*
X115983Y168742D01*
X116060Y168859D01*
X116066Y168878D01*
X116077Y168895D01*
X116118Y169028D01*
X116163Y169160D01*
X116164Y169180D01*
X116170Y169199D01*
X116177Y169338D01*
X116188Y169477D01*
X116185Y169497D01*
X116186Y169517D01*
X116157Y169653D01*
X116134Y169790D01*
X116125Y169808D01*
X116121Y169828D01*
X116060Y169954D01*
X116003Y170080D01*
X115990Y170096D01*
X115982Y170114D01*
X115891Y170220D01*
X115804Y170328D01*
X115788Y170341D01*
X115775Y170356D01*
X115661Y170436D01*
X115550Y170520D01*
X115525Y170532D01*
X115515Y170539D01*
X115496Y170546D01*
X115406Y170591D01*
X111491Y172212D01*
X108204Y175499D01*
X106425Y179794D01*
X106425Y184442D01*
X108204Y188737D01*
X111491Y192024D01*
X115786Y193803D01*
X135674Y193803D01*
X139969Y192024D01*
X143256Y188737D01*
X145035Y184442D01*
X145035Y179794D01*
X143256Y175499D01*
X139969Y172212D01*
X136054Y170591D01*
X135933Y170522D01*
X135810Y170457D01*
X135795Y170443D01*
X135778Y170433D01*
X135678Y170336D01*
X135575Y170243D01*
X135564Y170226D01*
X135549Y170212D01*
X135477Y170093D01*
X135400Y169977D01*
X135394Y169958D01*
X135383Y169941D01*
X135342Y169808D01*
X135297Y169676D01*
X135296Y169656D01*
X135290Y169637D01*
X135283Y169498D01*
X135272Y169359D01*
X135275Y169339D01*
X135274Y169319D01*
X135303Y169183D01*
X135326Y169046D01*
X135335Y169027D01*
X135339Y169008D01*
X135400Y168882D01*
X135457Y168756D01*
X135470Y168740D01*
X135478Y168722D01*
X135569Y168616D01*
X135656Y168508D01*
X135672Y168495D01*
X135685Y168480D01*
X135799Y168400D01*
X135910Y168316D01*
X135935Y168304D01*
X135945Y168297D01*
X135964Y168290D01*
X136054Y168245D01*
X139969Y166624D01*
X143256Y163337D01*
X145035Y159042D01*
X145035Y154394D01*
X143256Y150099D01*
X141120Y147963D01*
X141035Y147854D01*
X140946Y147747D01*
X140938Y147728D01*
X140925Y147712D01*
X140870Y147584D01*
X140811Y147459D01*
X140807Y147439D01*
X140799Y147420D01*
X140777Y147282D01*
X140751Y147146D01*
X140752Y147126D01*
X140749Y147106D01*
X140762Y146967D01*
X140771Y146829D01*
X140777Y146810D01*
X140779Y146790D01*
X140826Y146658D01*
X140869Y146527D01*
X140880Y146509D01*
X140886Y146490D01*
X140965Y146375D01*
X141039Y146258D01*
X141054Y146244D01*
X141065Y146227D01*
X141169Y146135D01*
X141271Y146040D01*
X141288Y146030D01*
X141303Y146017D01*
X141428Y145953D01*
X141549Y145886D01*
X141569Y145881D01*
X141587Y145872D01*
X141723Y145842D01*
X141857Y145807D01*
X141885Y145805D01*
X141897Y145802D01*
X141917Y145803D01*
X142018Y145797D01*
X170945Y145797D01*
X171083Y145814D01*
X171221Y145827D01*
X171240Y145834D01*
X171261Y145837D01*
X171390Y145888D01*
X171521Y145935D01*
X171538Y145946D01*
X171556Y145954D01*
X171669Y146035D01*
X171784Y146113D01*
X171797Y146129D01*
X171814Y146140D01*
X171902Y146248D01*
X171994Y146352D01*
X172003Y146370D01*
X172016Y146385D01*
X172076Y146511D01*
X172139Y146635D01*
X172143Y146655D01*
X172152Y146673D01*
X172178Y146810D01*
X172209Y146945D01*
X172208Y146966D01*
X172212Y146985D01*
X172203Y147124D01*
X172199Y147263D01*
X172193Y147283D01*
X172192Y147303D01*
X172149Y147435D01*
X172110Y147569D01*
X172100Y147586D01*
X172094Y147605D01*
X172019Y147723D01*
X171949Y147843D01*
X171930Y147864D01*
X171924Y147874D01*
X171909Y147888D01*
X171843Y147963D01*
X170714Y149092D01*
X168985Y153265D01*
X168985Y172363D01*
X170714Y176536D01*
X173908Y179730D01*
X178081Y181459D01*
X182599Y181459D01*
X186772Y179730D01*
X189966Y176536D01*
X191695Y172363D01*
X191695Y153265D01*
X190343Y150003D01*
X190341Y149994D01*
X190336Y149986D01*
X190299Y149841D01*
X190259Y149696D01*
X190259Y149687D01*
X190257Y149678D01*
X190247Y149517D01*
X190247Y149101D01*
X190259Y149003D01*
X190262Y148904D01*
X190279Y148846D01*
X190287Y148786D01*
X190323Y148693D01*
X190351Y148598D01*
X190381Y148546D01*
X190404Y148490D01*
X190462Y148410D01*
X190512Y148324D01*
X190578Y148249D01*
X190590Y148233D01*
X190600Y148225D01*
X190618Y148204D01*
X192654Y146168D01*
X192732Y146108D01*
X192804Y146040D01*
X192857Y146011D01*
X192905Y145974D01*
X192996Y145934D01*
X193082Y145886D01*
X193141Y145871D01*
X193197Y145847D01*
X193295Y145832D01*
X193390Y145807D01*
X193490Y145801D01*
X193511Y145797D01*
X193523Y145799D01*
X193551Y145797D01*
X196345Y145797D01*
X196483Y145814D01*
X196621Y145827D01*
X196640Y145834D01*
X196661Y145837D01*
X196790Y145888D01*
X196921Y145935D01*
X196938Y145946D01*
X196956Y145954D01*
X197069Y146035D01*
X197184Y146113D01*
X197197Y146129D01*
X197214Y146140D01*
X197302Y146248D01*
X197394Y146352D01*
X197403Y146370D01*
X197416Y146385D01*
X197476Y146511D01*
X197539Y146635D01*
X197543Y146655D01*
X197552Y146673D01*
X197578Y146810D01*
X197609Y146945D01*
X197608Y146966D01*
X197612Y146985D01*
X197603Y147124D01*
X197599Y147263D01*
X197593Y147283D01*
X197592Y147303D01*
X197549Y147435D01*
X197510Y147569D01*
X197500Y147586D01*
X197494Y147605D01*
X197419Y147723D01*
X197349Y147843D01*
X197330Y147864D01*
X197324Y147874D01*
X197309Y147888D01*
X197243Y147963D01*
X196114Y149092D01*
X194385Y153265D01*
X194385Y172363D01*
X196114Y176536D01*
X199308Y179730D01*
X203481Y181459D01*
X207999Y181459D01*
X212172Y179730D01*
X215366Y176536D01*
X217095Y172363D01*
X217095Y160353D01*
X217107Y160255D01*
X217110Y160156D01*
X217127Y160098D01*
X217135Y160038D01*
X217171Y159945D01*
X217199Y159850D01*
X217229Y159798D01*
X217252Y159742D01*
X217310Y159662D01*
X217360Y159576D01*
X217426Y159501D01*
X217438Y159485D01*
X217448Y159477D01*
X217466Y159456D01*
X219143Y157780D01*
X219252Y157694D01*
X219359Y157606D01*
X219378Y157597D01*
X219394Y157585D01*
X219522Y157529D01*
X219647Y157470D01*
X219667Y157466D01*
X219686Y157458D01*
X219824Y157436D01*
X219960Y157410D01*
X219980Y157412D01*
X220000Y157408D01*
X220139Y157422D01*
X220277Y157430D01*
X220296Y157436D01*
X220316Y157438D01*
X220448Y157485D01*
X220579Y157528D01*
X220597Y157539D01*
X220616Y157546D01*
X220731Y157624D01*
X220848Y157698D01*
X220862Y157713D01*
X220879Y157724D01*
X220971Y157828D01*
X221066Y157930D01*
X221076Y157948D01*
X221089Y157963D01*
X221153Y158087D01*
X221220Y158208D01*
X221225Y158228D01*
X221234Y158246D01*
X221264Y158382D01*
X221299Y158516D01*
X221301Y158544D01*
X221304Y158556D01*
X221303Y158577D01*
X221309Y158677D01*
X221309Y160440D01*
X230035Y160440D01*
X230153Y160455D01*
X230272Y160462D01*
X230310Y160474D01*
X230350Y160480D01*
X230461Y160523D01*
X230574Y160560D01*
X230608Y160582D01*
X230646Y160597D01*
X230742Y160666D01*
X230843Y160730D01*
X230871Y160760D01*
X230903Y160783D01*
X230979Y160875D01*
X231061Y160962D01*
X231080Y160997D01*
X231106Y161028D01*
X231136Y161093D01*
X231203Y161001D01*
X231266Y160901D01*
X231296Y160873D01*
X231320Y160840D01*
X231411Y160764D01*
X231498Y160683D01*
X231533Y160663D01*
X231565Y160638D01*
X231672Y160587D01*
X231777Y160529D01*
X231816Y160519D01*
X231852Y160502D01*
X231969Y160480D01*
X232085Y160450D01*
X232145Y160446D01*
X232165Y160442D01*
X232185Y160444D01*
X232245Y160440D01*
X240971Y160440D01*
X240971Y154750D01*
X240729Y153222D01*
X240251Y151750D01*
X239548Y150371D01*
X238638Y149120D01*
X237482Y147963D01*
X237397Y147854D01*
X237308Y147747D01*
X237300Y147728D01*
X237287Y147712D01*
X237232Y147585D01*
X237173Y147459D01*
X237169Y147439D01*
X237161Y147420D01*
X237139Y147282D01*
X237113Y147146D01*
X237114Y147126D01*
X237111Y147106D01*
X237124Y146967D01*
X237133Y146829D01*
X237139Y146810D01*
X237141Y146790D01*
X237188Y146658D01*
X237231Y146527D01*
X237242Y146509D01*
X237249Y146490D01*
X237327Y146375D01*
X237401Y146258D01*
X237416Y146244D01*
X237427Y146227D01*
X237531Y146135D01*
X237633Y146040D01*
X237650Y146030D01*
X237666Y146017D01*
X237789Y145954D01*
X237911Y145886D01*
X237931Y145881D01*
X237949Y145872D01*
X238085Y145842D01*
X238219Y145807D01*
X238247Y145805D01*
X238259Y145802D01*
X238280Y145803D01*
X238380Y145797D01*
X247145Y145797D01*
X247283Y145814D01*
X247421Y145827D01*
X247440Y145834D01*
X247461Y145837D01*
X247590Y145888D01*
X247721Y145935D01*
X247738Y145946D01*
X247756Y145954D01*
X247869Y146035D01*
X247984Y146113D01*
X247997Y146129D01*
X248014Y146140D01*
X248102Y146248D01*
X248194Y146352D01*
X248203Y146370D01*
X248216Y146385D01*
X248276Y146511D01*
X248339Y146635D01*
X248343Y146655D01*
X248352Y146673D01*
X248378Y146810D01*
X248409Y146945D01*
X248408Y146966D01*
X248412Y146985D01*
X248403Y147124D01*
X248399Y147263D01*
X248393Y147283D01*
X248392Y147303D01*
X248349Y147435D01*
X248310Y147569D01*
X248300Y147586D01*
X248294Y147605D01*
X248219Y147723D01*
X248149Y147843D01*
X248130Y147864D01*
X248124Y147874D01*
X248109Y147888D01*
X248043Y147963D01*
X246914Y149092D01*
X245185Y153265D01*
X245185Y172363D01*
X246914Y176536D01*
X250108Y179730D01*
X254281Y181459D01*
X258799Y181459D01*
X262972Y179730D01*
X266166Y176536D01*
X267895Y172363D01*
X267895Y153265D01*
X266166Y149092D01*
X262972Y145898D01*
X258799Y144169D01*
X254867Y144169D01*
X254729Y144152D01*
X254591Y144139D01*
X254572Y144132D01*
X254552Y144129D01*
X254422Y144078D01*
X254291Y144031D01*
X254275Y144020D01*
X254256Y144012D01*
X254144Y143931D01*
X254028Y143853D01*
X254015Y143837D01*
X253998Y143826D01*
X253910Y143718D01*
X253818Y143614D01*
X253809Y143596D01*
X253796Y143581D01*
X253736Y143455D01*
X253673Y143331D01*
X253669Y143311D01*
X253660Y143293D01*
X253634Y143157D01*
X253604Y143021D01*
X253604Y143000D01*
X253600Y142981D01*
X253609Y142842D01*
X253613Y142703D01*
X253619Y142683D01*
X253620Y142663D01*
X253663Y142531D01*
X253702Y142397D01*
X253712Y142380D01*
X253718Y142361D01*
X253793Y142243D01*
X253863Y142123D01*
X253882Y142102D01*
X253888Y142092D01*
X253903Y142078D01*
X253970Y142003D01*
X262504Y133468D01*
X262582Y133408D01*
X262654Y133340D01*
X262707Y133311D01*
X262755Y133274D01*
X262846Y133234D01*
X262932Y133186D01*
X262991Y133171D01*
X263047Y133147D01*
X263145Y133132D01*
X263240Y133107D01*
X263340Y133101D01*
X263361Y133097D01*
X263373Y133099D01*
X263401Y133097D01*
X272034Y133097D01*
X272152Y133112D01*
X272271Y133119D01*
X272309Y133132D01*
X272350Y133137D01*
X272460Y133180D01*
X272573Y133217D01*
X272608Y133239D01*
X272645Y133254D01*
X272741Y133323D01*
X272842Y133387D01*
X272870Y133417D01*
X272903Y133440D01*
X272979Y133532D01*
X273060Y133619D01*
X273080Y133654D01*
X273105Y133685D01*
X273156Y133793D01*
X273214Y133897D01*
X273224Y133937D01*
X273241Y133973D01*
X273263Y134090D01*
X273293Y134205D01*
X273297Y134265D01*
X273301Y134285D01*
X273299Y134306D01*
X273303Y134366D01*
X273303Y147577D01*
X273291Y147675D01*
X273288Y147774D01*
X273271Y147832D01*
X273263Y147893D01*
X273227Y147985D01*
X273199Y148080D01*
X273169Y148132D01*
X273146Y148188D01*
X273088Y148268D01*
X273038Y148354D01*
X272972Y148429D01*
X272960Y148446D01*
X272950Y148453D01*
X272931Y148474D01*
X272314Y149092D01*
X270585Y153265D01*
X270585Y172363D01*
X272314Y176536D01*
X275508Y179730D01*
X279681Y181459D01*
X284199Y181459D01*
X288372Y179730D01*
X291566Y176536D01*
X293295Y172363D01*
X293295Y153265D01*
X291566Y149092D01*
X288372Y145898D01*
X286280Y145032D01*
X286255Y145017D01*
X286227Y145008D01*
X286117Y144938D01*
X286004Y144874D01*
X285983Y144853D01*
X285958Y144838D01*
X285869Y144743D01*
X285776Y144653D01*
X285760Y144628D01*
X285740Y144606D01*
X285677Y144492D01*
X285609Y144382D01*
X285601Y144353D01*
X285586Y144328D01*
X285554Y144202D01*
X285516Y144078D01*
X285514Y144048D01*
X285507Y144020D01*
X285497Y143859D01*
X285497Y140716D01*
X285512Y140598D01*
X285519Y140479D01*
X285532Y140441D01*
X285537Y140400D01*
X285580Y140290D01*
X285617Y140177D01*
X285639Y140142D01*
X285654Y140105D01*
X285723Y140009D01*
X285787Y139908D01*
X285817Y139880D01*
X285840Y139847D01*
X285932Y139771D01*
X286019Y139690D01*
X286054Y139670D01*
X286085Y139645D01*
X286193Y139594D01*
X286297Y139536D01*
X286337Y139526D01*
X286373Y139509D01*
X286490Y139487D01*
X286605Y139457D01*
X286665Y139453D01*
X286685Y139449D01*
X286706Y139451D01*
X286766Y139447D01*
X318767Y139447D01*
X318905Y139464D01*
X319043Y139477D01*
X319062Y139484D01*
X319082Y139487D01*
X319212Y139538D01*
X319343Y139585D01*
X319359Y139596D01*
X319378Y139604D01*
X319490Y139685D01*
X319606Y139763D01*
X319619Y139779D01*
X319636Y139790D01*
X319724Y139898D01*
X319816Y140002D01*
X319825Y140020D01*
X319838Y140035D01*
X319898Y140161D01*
X319961Y140285D01*
X319965Y140305D01*
X319974Y140323D01*
X320000Y140460D01*
X320030Y140595D01*
X320030Y140616D01*
X320034Y140635D01*
X320025Y140774D01*
X320021Y140913D01*
X320015Y140933D01*
X320014Y140953D01*
X319971Y141085D01*
X319932Y141219D01*
X319922Y141236D01*
X319916Y141255D01*
X319841Y141373D01*
X319771Y141493D01*
X319752Y141514D01*
X319746Y141524D01*
X319731Y141538D01*
X319664Y141613D01*
X318503Y142775D01*
X315473Y145804D01*
X315379Y145878D01*
X315290Y145956D01*
X315254Y145975D01*
X315222Y145999D01*
X315113Y146047D01*
X315007Y146101D01*
X314967Y146110D01*
X314930Y146126D01*
X314813Y146144D01*
X314696Y146170D01*
X314656Y146169D01*
X314616Y146176D01*
X314497Y146164D01*
X314378Y146161D01*
X314340Y146150D01*
X314300Y146146D01*
X314187Y146105D01*
X314073Y146072D01*
X314038Y146052D01*
X314000Y146038D01*
X313902Y145971D01*
X313799Y145911D01*
X313796Y145908D01*
X309599Y144169D01*
X305081Y144169D01*
X300908Y145898D01*
X297714Y149092D01*
X295985Y153265D01*
X295985Y172363D01*
X297714Y176536D01*
X300908Y179730D01*
X305081Y181459D01*
X309599Y181459D01*
X313772Y179730D01*
X316966Y176536D01*
X318695Y172363D01*
X318695Y160353D01*
X318707Y160255D01*
X318710Y160156D01*
X318727Y160098D01*
X318735Y160038D01*
X318771Y159945D01*
X318799Y159850D01*
X318829Y159798D01*
X318852Y159742D01*
X318910Y159662D01*
X318960Y159576D01*
X319026Y159501D01*
X319038Y159485D01*
X319048Y159477D01*
X319066Y159456D01*
X326004Y152518D01*
X326082Y152458D01*
X326154Y152390D01*
X326207Y152361D01*
X326255Y152324D01*
X326346Y152284D01*
X326432Y152236D01*
X326491Y152221D01*
X326547Y152197D01*
X326645Y152182D01*
X326740Y152157D01*
X326840Y152151D01*
X326861Y152147D01*
X326873Y152149D01*
X326901Y152147D01*
X473199Y152147D01*
X473297Y152159D01*
X473396Y152162D01*
X473454Y152179D01*
X473514Y152187D01*
X473607Y152223D01*
X473702Y152251D01*
X473754Y152281D01*
X473810Y152304D01*
X473890Y152362D01*
X473976Y152412D01*
X474051Y152478D01*
X474067Y152490D01*
X474075Y152500D01*
X474096Y152518D01*
X494674Y173096D01*
X494734Y173174D01*
X494802Y173246D01*
X494831Y173299D01*
X494868Y173347D01*
X494908Y173438D01*
X494956Y173524D01*
X494971Y173583D01*
X494995Y173639D01*
X494998Y173661D01*
X496824Y178069D01*
X500111Y181356D01*
X504406Y183135D01*
X524294Y183135D01*
X528589Y181356D01*
X531876Y178069D01*
X533655Y173774D01*
X533655Y169126D01*
X531876Y164831D01*
X528589Y161544D01*
X524674Y159923D01*
X524554Y159854D01*
X524431Y159789D01*
X524416Y159775D01*
X524398Y159765D01*
X524298Y159668D01*
X524195Y159575D01*
X524184Y159558D01*
X524170Y159544D01*
X524097Y159426D01*
X524020Y159309D01*
X524014Y159290D01*
X524003Y159273D01*
X523962Y159140D01*
X523917Y159008D01*
X523916Y158988D01*
X523910Y158969D01*
X523903Y158830D01*
X523892Y158691D01*
X523895Y158671D01*
X523895Y158651D01*
X523923Y158515D01*
X523946Y158378D01*
X523955Y158360D01*
X523959Y158340D01*
X524020Y158214D01*
X524077Y158088D01*
X524090Y158072D01*
X524099Y158054D01*
X524189Y157948D01*
X524276Y157840D01*
X524292Y157827D01*
X524305Y157812D01*
X524419Y157732D01*
X524530Y157648D01*
X524555Y157636D01*
X524565Y157629D01*
X524584Y157622D01*
X524674Y157577D01*
X528589Y155956D01*
X531876Y152669D01*
X533655Y148374D01*
X533655Y143726D01*
X531876Y139431D01*
X528589Y136144D01*
X524674Y134523D01*
X524554Y134454D01*
X524431Y134389D01*
X524416Y134375D01*
X524398Y134365D01*
X524298Y134268D01*
X524195Y134175D01*
X524184Y134158D01*
X524170Y134144D01*
X524097Y134026D01*
X524020Y133909D01*
X524014Y133890D01*
X524003Y133873D01*
X523962Y133740D01*
X523917Y133608D01*
X523916Y133588D01*
X523910Y133569D01*
X523903Y133430D01*
X523892Y133291D01*
X523895Y133271D01*
X523895Y133251D01*
X523923Y133115D01*
X523946Y132978D01*
X523955Y132960D01*
X523959Y132940D01*
X524020Y132814D01*
X524077Y132688D01*
X524090Y132672D01*
X524099Y132654D01*
X524189Y132548D01*
X524276Y132440D01*
X524292Y132427D01*
X524305Y132412D01*
X524419Y132332D01*
X524530Y132248D01*
X524555Y132236D01*
X524565Y132229D01*
X524584Y132222D01*
X524674Y132177D01*
X528589Y130556D01*
X531876Y127269D01*
X533655Y122974D01*
X533655Y118326D01*
X531876Y114031D01*
X528589Y110744D01*
X524674Y109123D01*
X524554Y109054D01*
X524431Y108989D01*
X524416Y108975D01*
X524398Y108965D01*
X524298Y108868D01*
X524195Y108775D01*
X524184Y108758D01*
X524170Y108744D01*
X524097Y108626D01*
X524020Y108509D01*
X524014Y108490D01*
X524003Y108473D01*
X523962Y108340D01*
X523917Y108208D01*
X523916Y108188D01*
X523910Y108169D01*
X523903Y108030D01*
X523892Y107891D01*
X523895Y107871D01*
X523895Y107851D01*
X523923Y107715D01*
X523946Y107578D01*
X523955Y107560D01*
X523959Y107540D01*
X524020Y107414D01*
X524077Y107288D01*
X524090Y107272D01*
X524099Y107254D01*
X524189Y107148D01*
X524276Y107040D01*
X524292Y107027D01*
X524305Y107012D01*
X524419Y106932D01*
X524530Y106848D01*
X524555Y106836D01*
X524565Y106829D01*
X524584Y106822D01*
X524674Y106777D01*
X528589Y105156D01*
X531876Y101869D01*
X533655Y97574D01*
X533655Y92926D01*
X531876Y88631D01*
X528589Y85344D01*
X524294Y83565D01*
X504406Y83565D01*
X501075Y84945D01*
X501047Y84953D01*
X501020Y84966D01*
X500894Y84995D01*
X500768Y85029D01*
X500739Y85029D01*
X500710Y85036D01*
X500580Y85032D01*
X500450Y85034D01*
X500422Y85027D01*
X500392Y85026D01*
X500267Y84990D01*
X500141Y84960D01*
X500115Y84946D01*
X500087Y84938D01*
X499975Y84872D01*
X499860Y84811D01*
X499838Y84791D01*
X499813Y84776D01*
X499692Y84670D01*
X498754Y83731D01*
X496513Y82803D01*
X201987Y82803D01*
X199746Y83731D01*
X198031Y85446D01*
X197103Y87687D01*
X197103Y101218D01*
X197097Y101268D01*
X197099Y101317D01*
X197077Y101425D01*
X197063Y101534D01*
X197045Y101580D01*
X197035Y101629D01*
X196987Y101727D01*
X196946Y101829D01*
X196917Y101869D01*
X196895Y101914D01*
X196824Y101998D01*
X196760Y102087D01*
X196721Y102118D01*
X196689Y102156D01*
X196599Y102219D01*
X196515Y102290D01*
X196470Y102311D01*
X196429Y102339D01*
X196326Y102378D01*
X196227Y102425D01*
X196178Y102434D01*
X196132Y102452D01*
X196022Y102464D01*
X195915Y102485D01*
X195865Y102482D01*
X195816Y102487D01*
X195707Y102472D01*
X195597Y102465D01*
X195550Y102450D01*
X195501Y102443D01*
X195348Y102391D01*
X192824Y101345D01*
X188176Y101345D01*
X183881Y103124D01*
X180594Y106411D01*
X178973Y110326D01*
X178904Y110446D01*
X178839Y110570D01*
X178825Y110584D01*
X178815Y110602D01*
X178718Y110702D01*
X178625Y110805D01*
X178608Y110816D01*
X178594Y110831D01*
X178476Y110903D01*
X178359Y110980D01*
X178340Y110986D01*
X178323Y110997D01*
X178190Y111038D01*
X178058Y111083D01*
X178038Y111084D01*
X178019Y111090D01*
X177880Y111097D01*
X177741Y111108D01*
X177721Y111105D01*
X177701Y111106D01*
X177565Y111077D01*
X177428Y111054D01*
X177410Y111045D01*
X177390Y111041D01*
X177264Y110980D01*
X177138Y110923D01*
X177122Y110910D01*
X177104Y110902D01*
X176998Y110811D01*
X176890Y110724D01*
X176877Y110708D01*
X176862Y110695D01*
X176782Y110581D01*
X176698Y110470D01*
X176686Y110445D01*
X176679Y110435D01*
X176672Y110416D01*
X176627Y110326D01*
X175006Y106411D01*
X171719Y103124D01*
X167424Y101345D01*
X164341Y101345D01*
X164203Y101328D01*
X164065Y101315D01*
X164046Y101308D01*
X164026Y101305D01*
X163896Y101254D01*
X163765Y101207D01*
X163749Y101196D01*
X163730Y101188D01*
X163618Y101107D01*
X163502Y101029D01*
X163489Y101013D01*
X163472Y101002D01*
X163384Y100894D01*
X163292Y100790D01*
X163283Y100772D01*
X163270Y100757D01*
X163211Y100631D01*
X163147Y100507D01*
X163143Y100487D01*
X163134Y100469D01*
X163108Y100333D01*
X163078Y100197D01*
X163078Y100176D01*
X163074Y100157D01*
X163083Y100018D01*
X163087Y99879D01*
X163093Y99859D01*
X163094Y99839D01*
X163137Y99707D01*
X163176Y99573D01*
X163186Y99556D01*
X163192Y99537D01*
X163266Y99419D01*
X163337Y99299D01*
X163356Y99278D01*
X163362Y99268D01*
X163377Y99254D01*
X163444Y99179D01*
X186304Y76318D01*
X186382Y76258D01*
X186454Y76190D01*
X186507Y76161D01*
X186555Y76124D01*
X186646Y76084D01*
X186732Y76036D01*
X186791Y76021D01*
X186847Y75997D01*
X186945Y75982D01*
X187040Y75957D01*
X187140Y75951D01*
X187161Y75947D01*
X187173Y75949D01*
X187201Y75947D01*
X458413Y75947D01*
X460654Y75019D01*
X496293Y39379D01*
X496387Y39306D01*
X496476Y39227D01*
X496512Y39209D01*
X496544Y39184D01*
X496654Y39137D01*
X496760Y39083D01*
X496799Y39074D01*
X496836Y39058D01*
X496954Y39039D01*
X497070Y39013D01*
X497110Y39014D01*
X497150Y39008D01*
X497269Y39019D01*
X497388Y39023D01*
X497427Y39034D01*
X497467Y39038D01*
X497579Y39078D01*
X497693Y39111D01*
X497728Y39131D01*
X497766Y39145D01*
X497865Y39212D01*
X497967Y39272D01*
X498013Y39312D01*
X498029Y39324D01*
X498043Y39339D01*
X498088Y39379D01*
X501381Y42672D01*
X505676Y44451D01*
X510324Y44451D01*
X514619Y42672D01*
X517906Y39385D01*
X519527Y35470D01*
X519596Y35350D01*
X519661Y35227D01*
X519675Y35212D01*
X519685Y35194D01*
X519782Y35094D01*
X519875Y34991D01*
X519892Y34980D01*
X519906Y34966D01*
X520024Y34893D01*
X520141Y34816D01*
X520160Y34810D01*
X520177Y34799D01*
X520310Y34758D01*
X520442Y34713D01*
X520462Y34712D01*
X520481Y34706D01*
X520620Y34699D01*
X520759Y34688D01*
X520779Y34691D01*
X520799Y34691D01*
X520935Y34719D01*
X521072Y34742D01*
X521090Y34751D01*
X521110Y34755D01*
X521236Y34816D01*
X521362Y34873D01*
X521378Y34886D01*
X521396Y34895D01*
X521502Y34985D01*
X521610Y35072D01*
X521623Y35088D01*
X521638Y35101D01*
X521718Y35215D01*
X521802Y35326D01*
X521814Y35351D01*
X521821Y35361D01*
X521828Y35380D01*
X521873Y35470D01*
X523494Y39385D01*
X526781Y42672D01*
X531076Y44451D01*
X535724Y44451D01*
X540019Y42672D01*
X543306Y39385D01*
X544927Y35470D01*
X544996Y35350D01*
X545061Y35227D01*
X545075Y35212D01*
X545085Y35194D01*
X545182Y35094D01*
X545275Y34991D01*
X545292Y34980D01*
X545306Y34966D01*
X545424Y34893D01*
X545541Y34816D01*
X545560Y34810D01*
X545577Y34799D01*
X545710Y34758D01*
X545842Y34713D01*
X545862Y34712D01*
X545881Y34706D01*
X546020Y34699D01*
X546159Y34688D01*
X546179Y34691D01*
X546199Y34691D01*
X546335Y34719D01*
X546472Y34742D01*
X546490Y34751D01*
X546510Y34755D01*
X546636Y34816D01*
X546762Y34873D01*
X546778Y34886D01*
X546796Y34895D01*
X546902Y34985D01*
X547010Y35072D01*
X547023Y35088D01*
X547038Y35101D01*
X547118Y35215D01*
X547202Y35326D01*
X547214Y35351D01*
X547221Y35361D01*
X547228Y35380D01*
X547273Y35470D01*
X548894Y39385D01*
X552181Y42672D01*
X556476Y44451D01*
X561124Y44451D01*
X565419Y42672D01*
X568706Y39385D01*
X570327Y35470D01*
X570396Y35350D01*
X570461Y35227D01*
X570475Y35212D01*
X570485Y35194D01*
X570582Y35094D01*
X570675Y34991D01*
X570692Y34980D01*
X570706Y34966D01*
X570824Y34893D01*
X570941Y34816D01*
X570960Y34810D01*
X570977Y34799D01*
X571110Y34758D01*
X571242Y34713D01*
X571262Y34712D01*
X571281Y34706D01*
X571420Y34699D01*
X571559Y34688D01*
X571579Y34691D01*
X571599Y34691D01*
X571735Y34719D01*
X571872Y34742D01*
X571890Y34751D01*
X571910Y34755D01*
X572036Y34816D01*
X572162Y34873D01*
X572178Y34886D01*
X572196Y34895D01*
X572302Y34985D01*
X572410Y35072D01*
X572423Y35088D01*
X572438Y35101D01*
X572518Y35215D01*
X572602Y35326D01*
X572614Y35351D01*
X572621Y35361D01*
X572628Y35380D01*
X572673Y35470D01*
X574294Y39385D01*
X577581Y42672D01*
X581876Y44451D01*
X586524Y44451D01*
X590819Y42672D01*
X594106Y39385D01*
X595727Y35470D01*
X595796Y35350D01*
X595861Y35227D01*
X595875Y35212D01*
X595885Y35194D01*
X595982Y35094D01*
X596075Y34991D01*
X596092Y34980D01*
X596106Y34966D01*
X596224Y34893D01*
X596341Y34816D01*
X596360Y34810D01*
X596377Y34799D01*
X596510Y34758D01*
X596642Y34713D01*
X596662Y34712D01*
X596681Y34706D01*
X596820Y34699D01*
X596959Y34688D01*
X596979Y34691D01*
X596999Y34691D01*
X597135Y34719D01*
X597272Y34742D01*
X597290Y34751D01*
X597310Y34755D01*
X597436Y34816D01*
X597562Y34873D01*
X597578Y34886D01*
X597596Y34895D01*
X597702Y34985D01*
X597810Y35072D01*
X597823Y35088D01*
X597838Y35101D01*
X597918Y35215D01*
X598002Y35326D01*
X598014Y35351D01*
X598021Y35361D01*
X598028Y35380D01*
X598073Y35470D01*
X599694Y39385D01*
X602981Y42672D01*
X607276Y44451D01*
X611924Y44451D01*
X616219Y42672D01*
X619506Y39385D01*
X621127Y35470D01*
X621196Y35350D01*
X621261Y35227D01*
X621275Y35212D01*
X621285Y35194D01*
X621382Y35094D01*
X621475Y34991D01*
X621492Y34980D01*
X621506Y34966D01*
X621624Y34893D01*
X621741Y34816D01*
X621760Y34810D01*
X621777Y34799D01*
X621910Y34758D01*
X622042Y34713D01*
X622062Y34712D01*
X622081Y34706D01*
X622220Y34699D01*
X622359Y34688D01*
X622379Y34691D01*
X622399Y34691D01*
X622535Y34719D01*
X622672Y34742D01*
X622690Y34751D01*
X622710Y34755D01*
X622836Y34816D01*
X622962Y34873D01*
X622978Y34886D01*
X622996Y34895D01*
X623102Y34985D01*
X623210Y35072D01*
X623223Y35088D01*
X623238Y35101D01*
X623318Y35215D01*
X623402Y35326D01*
X623414Y35351D01*
X623421Y35361D01*
X623428Y35380D01*
X623473Y35470D01*
X625094Y39385D01*
X628381Y42672D01*
X632676Y44451D01*
X637324Y44451D01*
X641619Y42672D01*
X644906Y39385D01*
X646685Y35090D01*
X646685Y15202D01*
X644906Y10907D01*
X642516Y8517D01*
X642431Y8408D01*
X642342Y8301D01*
X642334Y8282D01*
X642321Y8266D01*
X642266Y8138D01*
X642207Y8013D01*
X642203Y7993D01*
X642195Y7974D01*
X642173Y7836D01*
X642147Y7700D01*
X642148Y7680D01*
X642145Y7660D01*
X642158Y7521D01*
X642167Y7383D01*
X642173Y7364D01*
X642175Y7344D01*
X642222Y7212D01*
X642265Y7081D01*
X642276Y7063D01*
X642282Y7044D01*
X642361Y6929D01*
X642435Y6812D01*
X642450Y6798D01*
X642461Y6781D01*
X642565Y6689D01*
X642667Y6594D01*
X642684Y6584D01*
X642699Y6571D01*
X642824Y6507D01*
X642945Y6440D01*
X642965Y6435D01*
X642983Y6426D01*
X643119Y6396D01*
X643253Y6361D01*
X643281Y6359D01*
X643293Y6356D01*
X643313Y6357D01*
X643414Y6351D01*
X650400Y6351D01*
X650420Y6353D01*
G37*
G36*
X271632Y6368D02*
X271632Y6368D01*
X271771Y6381D01*
X271790Y6388D01*
X271810Y6391D01*
X271939Y6442D01*
X272070Y6489D01*
X272087Y6500D01*
X272106Y6508D01*
X272218Y6589D01*
X272333Y6667D01*
X272346Y6683D01*
X272363Y6694D01*
X272452Y6802D01*
X272544Y6906D01*
X272553Y6924D01*
X272566Y6939D01*
X272625Y7065D01*
X272688Y7189D01*
X272693Y7209D01*
X272701Y7227D01*
X272727Y7363D01*
X272758Y7499D01*
X272757Y7520D01*
X272761Y7539D01*
X272752Y7678D01*
X272748Y7817D01*
X272743Y7837D01*
X272741Y7857D01*
X272698Y7989D01*
X272660Y8123D01*
X272649Y8140D01*
X272643Y8159D01*
X272569Y8277D01*
X272498Y8397D01*
X272480Y8418D01*
X272473Y8428D01*
X272458Y8442D01*
X272392Y8517D01*
X269748Y11161D01*
X267969Y15456D01*
X267969Y35344D01*
X269748Y39639D01*
X273035Y42926D01*
X277330Y44705D01*
X281978Y44705D01*
X286273Y42926D01*
X289560Y39639D01*
X291181Y35724D01*
X291250Y35604D01*
X291315Y35480D01*
X291329Y35466D01*
X291339Y35448D01*
X291436Y35348D01*
X291529Y35245D01*
X291546Y35234D01*
X291560Y35219D01*
X291678Y35147D01*
X291795Y35070D01*
X291814Y35064D01*
X291831Y35053D01*
X291964Y35012D01*
X292096Y34967D01*
X292116Y34966D01*
X292135Y34960D01*
X292274Y34953D01*
X292413Y34942D01*
X292433Y34945D01*
X292453Y34944D01*
X292589Y34973D01*
X292726Y34996D01*
X292744Y35005D01*
X292764Y35009D01*
X292890Y35070D01*
X293016Y35127D01*
X293032Y35140D01*
X293050Y35148D01*
X293156Y35239D01*
X293264Y35326D01*
X293277Y35342D01*
X293292Y35355D01*
X293372Y35469D01*
X293456Y35580D01*
X293468Y35605D01*
X293475Y35615D01*
X293482Y35634D01*
X293527Y35724D01*
X295148Y39639D01*
X298435Y42926D01*
X300134Y43629D01*
X300142Y43634D01*
X300151Y43637D01*
X300280Y43713D01*
X300410Y43787D01*
X300417Y43794D01*
X300425Y43798D01*
X300546Y43905D01*
X300949Y44308D01*
X318228Y61587D01*
X318313Y61696D01*
X318402Y61803D01*
X318410Y61822D01*
X318423Y61838D01*
X318478Y61966D01*
X318537Y62091D01*
X318541Y62111D01*
X318549Y62130D01*
X318571Y62268D01*
X318597Y62404D01*
X318596Y62424D01*
X318599Y62444D01*
X318586Y62583D01*
X318577Y62721D01*
X318571Y62740D01*
X318569Y62760D01*
X318522Y62891D01*
X318479Y63023D01*
X318468Y63041D01*
X318461Y63060D01*
X318383Y63174D01*
X318309Y63292D01*
X318294Y63306D01*
X318283Y63323D01*
X318179Y63415D01*
X318077Y63510D01*
X318060Y63520D01*
X318044Y63533D01*
X317921Y63596D01*
X317799Y63664D01*
X317779Y63669D01*
X317761Y63678D01*
X317625Y63708D01*
X317491Y63743D01*
X317463Y63745D01*
X317451Y63748D01*
X317430Y63747D01*
X317330Y63753D01*
X182937Y63753D01*
X180696Y64681D01*
X178803Y66575D01*
X138233Y107145D01*
X138210Y107163D01*
X138190Y107186D01*
X138084Y107260D01*
X137982Y107340D01*
X137955Y107352D01*
X137930Y107369D01*
X137809Y107415D01*
X137690Y107466D01*
X137661Y107471D01*
X137633Y107481D01*
X137504Y107496D01*
X137376Y107516D01*
X137346Y107513D01*
X137317Y107517D01*
X137188Y107499D01*
X137059Y107486D01*
X137031Y107476D01*
X137002Y107472D01*
X136850Y107420D01*
X135674Y106933D01*
X115786Y106933D01*
X111491Y108712D01*
X108204Y111999D01*
X106425Y116294D01*
X106425Y120942D01*
X108204Y125237D01*
X111491Y128524D01*
X115786Y130303D01*
X135674Y130303D01*
X139969Y128524D01*
X143256Y125237D01*
X145035Y120942D01*
X145035Y118113D01*
X145047Y118015D01*
X145050Y117916D01*
X145067Y117858D01*
X145075Y117798D01*
X145111Y117705D01*
X145139Y117610D01*
X145169Y117558D01*
X145192Y117502D01*
X145250Y117422D01*
X145300Y117336D01*
X145366Y117261D01*
X145378Y117245D01*
X145388Y117237D01*
X145406Y117216D01*
X151249Y111374D01*
X151358Y111288D01*
X151465Y111200D01*
X151484Y111191D01*
X151500Y111179D01*
X151628Y111123D01*
X151753Y111064D01*
X151773Y111060D01*
X151792Y111052D01*
X151930Y111030D01*
X152066Y111004D01*
X152086Y111006D01*
X152106Y111002D01*
X152245Y111016D01*
X152383Y111024D01*
X152402Y111030D01*
X152422Y111032D01*
X152554Y111079D01*
X152685Y111122D01*
X152703Y111133D01*
X152722Y111140D01*
X152837Y111218D01*
X152954Y111292D01*
X152968Y111307D01*
X152985Y111318D01*
X153077Y111423D01*
X153172Y111524D01*
X153182Y111542D01*
X153195Y111557D01*
X153259Y111681D01*
X153326Y111802D01*
X153331Y111822D01*
X153340Y111840D01*
X153370Y111976D01*
X153405Y112110D01*
X153407Y112138D01*
X153410Y112150D01*
X153409Y112171D01*
X153415Y112271D01*
X153415Y130594D01*
X153935Y131848D01*
X153948Y131896D01*
X153969Y131941D01*
X153990Y132049D01*
X154019Y132155D01*
X154019Y132205D01*
X154029Y132254D01*
X154022Y132363D01*
X154024Y132473D01*
X154012Y132521D01*
X154009Y132571D01*
X153975Y132675D01*
X153950Y132782D01*
X153926Y132826D01*
X153911Y132873D01*
X153852Y132966D01*
X153801Y133063D01*
X153767Y133100D01*
X153741Y133142D01*
X153661Y133217D01*
X153587Y133299D01*
X153545Y133326D01*
X153509Y133360D01*
X153413Y133413D01*
X153321Y133473D01*
X153274Y133490D01*
X153231Y133514D01*
X153125Y133541D01*
X153020Y133577D01*
X152971Y133581D01*
X152923Y133593D01*
X152762Y133603D01*
X49587Y133603D01*
X47346Y134531D01*
X45631Y136246D01*
X44703Y138487D01*
X44703Y272423D01*
X44686Y272561D01*
X44673Y272700D01*
X44666Y272719D01*
X44663Y272739D01*
X44612Y272868D01*
X44565Y272999D01*
X44554Y273016D01*
X44546Y273034D01*
X44465Y273147D01*
X44387Y273262D01*
X44371Y273275D01*
X44360Y273292D01*
X44252Y273381D01*
X44148Y273472D01*
X44130Y273482D01*
X44115Y273495D01*
X43989Y273554D01*
X43865Y273617D01*
X43845Y273621D01*
X43827Y273630D01*
X43690Y273656D01*
X43555Y273687D01*
X43534Y273686D01*
X43515Y273690D01*
X43376Y273681D01*
X43237Y273677D01*
X43217Y273671D01*
X43197Y273670D01*
X43065Y273627D01*
X42931Y273589D01*
X42914Y273578D01*
X42895Y273572D01*
X42777Y273498D01*
X42657Y273427D01*
X42636Y273409D01*
X42626Y273402D01*
X42612Y273387D01*
X42537Y273321D01*
X41757Y272541D01*
X32919Y272541D01*
X26669Y278791D01*
X26669Y287629D01*
X32919Y293879D01*
X37081Y293879D01*
X37179Y293891D01*
X37278Y293894D01*
X37336Y293911D01*
X37396Y293919D01*
X37489Y293955D01*
X37584Y293983D01*
X37636Y294013D01*
X37692Y294036D01*
X37772Y294094D01*
X37858Y294144D01*
X37933Y294210D01*
X37949Y294222D01*
X37957Y294232D01*
X37978Y294250D01*
X88782Y345054D01*
X88842Y345132D01*
X88910Y345204D01*
X88939Y345257D01*
X88976Y345305D01*
X89016Y345396D01*
X89064Y345482D01*
X89079Y345541D01*
X89103Y345597D01*
X89118Y345695D01*
X89143Y345790D01*
X89149Y345890D01*
X89153Y345911D01*
X89151Y345923D01*
X89153Y345951D01*
X89153Y477463D01*
X90081Y479704D01*
X91796Y481419D01*
X94037Y482347D01*
X371599Y482347D01*
X371697Y482359D01*
X371796Y482362D01*
X371854Y482379D01*
X371914Y482387D01*
X372007Y482423D01*
X372102Y482451D01*
X372154Y482481D01*
X372210Y482504D01*
X372290Y482562D01*
X372376Y482612D01*
X372451Y482678D01*
X372467Y482690D01*
X372475Y482700D01*
X372496Y482718D01*
X381499Y491721D01*
X381572Y491815D01*
X381651Y491905D01*
X381669Y491941D01*
X381694Y491972D01*
X381741Y492082D01*
X381795Y492188D01*
X381804Y492227D01*
X381820Y492264D01*
X381839Y492382D01*
X381865Y492498D01*
X381864Y492538D01*
X381870Y492578D01*
X381859Y492697D01*
X381855Y492816D01*
X381844Y492855D01*
X381840Y492895D01*
X381800Y493007D01*
X381767Y493121D01*
X381746Y493156D01*
X381733Y493194D01*
X381666Y493293D01*
X381605Y493395D01*
X381566Y493441D01*
X381554Y493457D01*
X381539Y493471D01*
X381499Y493516D01*
X381254Y493761D01*
X379633Y497676D01*
X379564Y497797D01*
X379499Y497920D01*
X379485Y497935D01*
X379475Y497952D01*
X379378Y498052D01*
X379285Y498155D01*
X379268Y498166D01*
X379254Y498181D01*
X379135Y498253D01*
X379019Y498330D01*
X379000Y498336D01*
X378983Y498347D01*
X378850Y498388D01*
X378718Y498433D01*
X378698Y498434D01*
X378679Y498440D01*
X378540Y498447D01*
X378401Y498458D01*
X378381Y498455D01*
X378361Y498456D01*
X378225Y498427D01*
X378088Y498404D01*
X378069Y498395D01*
X378050Y498391D01*
X377924Y498330D01*
X377798Y498273D01*
X377782Y498260D01*
X377764Y498252D01*
X377658Y498161D01*
X377550Y498074D01*
X377537Y498058D01*
X377522Y498045D01*
X377442Y497931D01*
X377358Y497820D01*
X377346Y497795D01*
X377339Y497785D01*
X377332Y497766D01*
X377287Y497676D01*
X375666Y493761D01*
X372379Y490474D01*
X368084Y488695D01*
X363436Y488695D01*
X359141Y490474D01*
X355854Y493761D01*
X354233Y497676D01*
X354164Y497796D01*
X354099Y497920D01*
X354085Y497934D01*
X354075Y497952D01*
X353978Y498052D01*
X353885Y498155D01*
X353868Y498166D01*
X353854Y498181D01*
X353736Y498253D01*
X353619Y498330D01*
X353600Y498336D01*
X353583Y498347D01*
X353450Y498388D01*
X353318Y498433D01*
X353298Y498434D01*
X353279Y498440D01*
X353140Y498447D01*
X353001Y498458D01*
X352981Y498455D01*
X352961Y498456D01*
X352825Y498427D01*
X352688Y498404D01*
X352670Y498395D01*
X352650Y498391D01*
X352524Y498330D01*
X352398Y498273D01*
X352382Y498260D01*
X352364Y498252D01*
X352258Y498161D01*
X352150Y498074D01*
X352137Y498058D01*
X352122Y498045D01*
X352042Y497931D01*
X351958Y497820D01*
X351946Y497795D01*
X351939Y497785D01*
X351932Y497766D01*
X351887Y497676D01*
X350266Y493761D01*
X346979Y490474D01*
X342684Y488695D01*
X338036Y488695D01*
X333741Y490474D01*
X330454Y493761D01*
X328833Y497676D01*
X328764Y497797D01*
X328699Y497919D01*
X328685Y497934D01*
X328675Y497952D01*
X328578Y498052D01*
X328485Y498155D01*
X328468Y498166D01*
X328454Y498181D01*
X328335Y498253D01*
X328219Y498330D01*
X328200Y498336D01*
X328183Y498347D01*
X328050Y498388D01*
X327918Y498433D01*
X327898Y498434D01*
X327879Y498440D01*
X327740Y498447D01*
X327601Y498458D01*
X327581Y498455D01*
X327561Y498455D01*
X327425Y498427D01*
X327288Y498404D01*
X327269Y498395D01*
X327250Y498391D01*
X327124Y498330D01*
X326998Y498273D01*
X326982Y498260D01*
X326964Y498251D01*
X326858Y498161D01*
X326750Y498074D01*
X326737Y498058D01*
X326722Y498045D01*
X326642Y497931D01*
X326558Y497820D01*
X326546Y497795D01*
X326539Y497785D01*
X326532Y497766D01*
X326487Y497676D01*
X324866Y493761D01*
X321579Y490474D01*
X317284Y488695D01*
X312636Y488695D01*
X308341Y490474D01*
X305054Y493761D01*
X303433Y497676D01*
X303364Y497797D01*
X303299Y497919D01*
X303285Y497934D01*
X303275Y497952D01*
X303178Y498052D01*
X303085Y498155D01*
X303068Y498166D01*
X303054Y498181D01*
X302935Y498253D01*
X302819Y498330D01*
X302800Y498336D01*
X302783Y498347D01*
X302650Y498388D01*
X302518Y498433D01*
X302498Y498434D01*
X302479Y498440D01*
X302340Y498447D01*
X302201Y498458D01*
X302181Y498455D01*
X302161Y498455D01*
X302025Y498427D01*
X301888Y498404D01*
X301869Y498395D01*
X301850Y498391D01*
X301724Y498330D01*
X301598Y498273D01*
X301582Y498260D01*
X301564Y498251D01*
X301458Y498161D01*
X301350Y498074D01*
X301337Y498058D01*
X301322Y498045D01*
X301242Y497931D01*
X301158Y497820D01*
X301146Y497795D01*
X301139Y497785D01*
X301132Y497766D01*
X301087Y497676D01*
X299466Y493761D01*
X296179Y490474D01*
X291884Y488695D01*
X287236Y488695D01*
X282941Y490474D01*
X279654Y493761D01*
X277875Y498056D01*
X277875Y517944D01*
X279654Y522239D01*
X282298Y524883D01*
X282383Y524992D01*
X282472Y525099D01*
X282480Y525118D01*
X282493Y525134D01*
X282548Y525262D01*
X282607Y525387D01*
X282611Y525407D01*
X282619Y525426D01*
X282641Y525564D01*
X282667Y525700D01*
X282666Y525720D01*
X282669Y525740D01*
X282656Y525879D01*
X282647Y526017D01*
X282641Y526036D01*
X282639Y526056D01*
X282592Y526188D01*
X282549Y526319D01*
X282538Y526337D01*
X282532Y526356D01*
X282453Y526471D01*
X282379Y526588D01*
X282364Y526602D01*
X282353Y526619D01*
X282249Y526711D01*
X282147Y526806D01*
X282130Y526816D01*
X282115Y526829D01*
X281990Y526893D01*
X281869Y526960D01*
X281849Y526965D01*
X281831Y526974D01*
X281695Y527004D01*
X281561Y527039D01*
X281533Y527041D01*
X281521Y527044D01*
X281501Y527043D01*
X281400Y527049D01*
X269396Y527049D01*
X269377Y527047D01*
X269357Y527049D01*
X269219Y527027D01*
X269081Y527009D01*
X269062Y527002D01*
X269043Y526999D01*
X268915Y526944D01*
X268785Y526892D01*
X268769Y526881D01*
X268751Y526873D01*
X268641Y526788D01*
X268528Y526706D01*
X268515Y526690D01*
X268499Y526678D01*
X268414Y526568D01*
X268325Y526461D01*
X268317Y526442D01*
X268304Y526427D01*
X268249Y526299D01*
X268190Y526173D01*
X268186Y526153D01*
X268178Y526135D01*
X268156Y525997D01*
X268130Y525861D01*
X268131Y525841D01*
X268128Y525821D01*
X268141Y525682D01*
X268150Y525543D01*
X268156Y525524D01*
X268158Y525504D01*
X268205Y525373D01*
X268248Y525241D01*
X268258Y525224D01*
X268265Y525205D01*
X268343Y525090D01*
X268418Y524972D01*
X268432Y524958D01*
X268443Y524942D01*
X268548Y524850D01*
X268649Y524754D01*
X268667Y524744D01*
X268682Y524731D01*
X268820Y524649D01*
X269485Y524310D01*
X270779Y523370D01*
X271910Y522239D01*
X272850Y520945D01*
X273576Y519520D01*
X274071Y517999D01*
X274321Y516420D01*
X274321Y510539D01*
X265430Y510539D01*
X265312Y510524D01*
X265193Y510517D01*
X265155Y510504D01*
X265115Y510499D01*
X265004Y510456D01*
X264891Y510419D01*
X264857Y510397D01*
X264819Y510382D01*
X264723Y510312D01*
X264622Y510249D01*
X264594Y510219D01*
X264562Y510195D01*
X264486Y510104D01*
X264404Y510017D01*
X264385Y509982D01*
X264359Y509951D01*
X264308Y509843D01*
X264251Y509739D01*
X264240Y509699D01*
X264223Y509663D01*
X264201Y509546D01*
X264171Y509431D01*
X264167Y509370D01*
X264163Y509350D01*
X264165Y509330D01*
X264161Y509270D01*
X264161Y507999D01*
X264159Y507999D01*
X264159Y509270D01*
X264144Y509388D01*
X264137Y509507D01*
X264124Y509545D01*
X264119Y509585D01*
X264075Y509696D01*
X264039Y509809D01*
X264017Y509844D01*
X264002Y509881D01*
X263932Y509977D01*
X263869Y510078D01*
X263839Y510106D01*
X263815Y510139D01*
X263724Y510214D01*
X263637Y510296D01*
X263602Y510316D01*
X263570Y510341D01*
X263463Y510392D01*
X263358Y510450D01*
X263319Y510460D01*
X263283Y510477D01*
X263166Y510499D01*
X263051Y510529D01*
X262990Y510533D01*
X262970Y510537D01*
X262950Y510535D01*
X262890Y510539D01*
X253999Y510539D01*
X253999Y516420D01*
X254249Y517999D01*
X254744Y519520D01*
X255470Y520945D01*
X256410Y522239D01*
X257541Y523370D01*
X258835Y524310D01*
X259500Y524649D01*
X259516Y524660D01*
X259535Y524668D01*
X259647Y524749D01*
X259763Y524828D01*
X259776Y524843D01*
X259792Y524854D01*
X259881Y524962D01*
X259973Y525066D01*
X259982Y525084D01*
X259995Y525099D01*
X260054Y525225D01*
X260118Y525350D01*
X260122Y525369D01*
X260130Y525387D01*
X260157Y525524D01*
X260187Y525660D01*
X260186Y525680D01*
X260190Y525700D01*
X260182Y525839D01*
X260177Y525978D01*
X260172Y525997D01*
X260170Y526017D01*
X260127Y526150D01*
X260089Y526283D01*
X260079Y526301D01*
X260072Y526319D01*
X259998Y526437D01*
X259927Y526557D01*
X259913Y526571D01*
X259902Y526588D01*
X259801Y526684D01*
X259702Y526782D01*
X259685Y526792D01*
X259671Y526806D01*
X259549Y526873D01*
X259429Y526944D01*
X259410Y526950D01*
X259392Y526960D01*
X259257Y526994D01*
X259123Y527033D01*
X259103Y527034D01*
X259084Y527039D01*
X258924Y527049D01*
X246920Y527049D01*
X246782Y527032D01*
X246643Y527019D01*
X246624Y527012D01*
X246604Y527009D01*
X246475Y526958D01*
X246344Y526911D01*
X246327Y526900D01*
X246308Y526892D01*
X246196Y526811D01*
X246081Y526733D01*
X246068Y526717D01*
X246051Y526706D01*
X245962Y526598D01*
X245870Y526494D01*
X245861Y526476D01*
X245848Y526461D01*
X245789Y526335D01*
X245726Y526211D01*
X245721Y526191D01*
X245713Y526173D01*
X245687Y526037D01*
X245656Y525901D01*
X245657Y525880D01*
X245653Y525861D01*
X245662Y525722D01*
X245666Y525583D01*
X245671Y525563D01*
X245673Y525543D01*
X245716Y525411D01*
X245754Y525277D01*
X245765Y525260D01*
X245771Y525241D01*
X245845Y525123D01*
X245916Y525003D01*
X245934Y524982D01*
X245941Y524972D01*
X245956Y524958D01*
X246022Y524883D01*
X248666Y522239D01*
X250445Y517944D01*
X250445Y498056D01*
X248666Y493761D01*
X245379Y490474D01*
X241084Y488695D01*
X236436Y488695D01*
X232141Y490474D01*
X228854Y493761D01*
X227233Y497676D01*
X227164Y497797D01*
X227099Y497919D01*
X227085Y497934D01*
X227075Y497952D01*
X226978Y498052D01*
X226885Y498155D01*
X226868Y498166D01*
X226854Y498181D01*
X226735Y498253D01*
X226619Y498330D01*
X226600Y498336D01*
X226583Y498347D01*
X226450Y498388D01*
X226318Y498433D01*
X226298Y498434D01*
X226279Y498440D01*
X226140Y498447D01*
X226001Y498458D01*
X225981Y498455D01*
X225961Y498455D01*
X225825Y498427D01*
X225688Y498404D01*
X225669Y498395D01*
X225650Y498391D01*
X225524Y498330D01*
X225398Y498273D01*
X225382Y498260D01*
X225364Y498251D01*
X225258Y498161D01*
X225150Y498074D01*
X225137Y498058D01*
X225122Y498045D01*
X225042Y497931D01*
X224958Y497820D01*
X224946Y497795D01*
X224939Y497785D01*
X224932Y497766D01*
X224887Y497676D01*
X223266Y493761D01*
X219979Y490474D01*
X215684Y488695D01*
X211036Y488695D01*
X206741Y490474D01*
X203454Y493761D01*
X201833Y497676D01*
X201764Y497797D01*
X201699Y497919D01*
X201685Y497934D01*
X201675Y497952D01*
X201578Y498052D01*
X201485Y498155D01*
X201468Y498166D01*
X201454Y498181D01*
X201335Y498253D01*
X201219Y498330D01*
X201200Y498336D01*
X201183Y498347D01*
X201050Y498388D01*
X200918Y498433D01*
X200898Y498434D01*
X200879Y498440D01*
X200740Y498447D01*
X200601Y498458D01*
X200581Y498455D01*
X200561Y498455D01*
X200425Y498427D01*
X200288Y498404D01*
X200269Y498395D01*
X200250Y498391D01*
X200124Y498330D01*
X199998Y498273D01*
X199982Y498260D01*
X199964Y498251D01*
X199858Y498161D01*
X199750Y498074D01*
X199737Y498058D01*
X199722Y498045D01*
X199642Y497931D01*
X199558Y497820D01*
X199546Y497795D01*
X199539Y497785D01*
X199532Y497766D01*
X199487Y497676D01*
X197866Y493761D01*
X194579Y490474D01*
X190284Y488695D01*
X185636Y488695D01*
X181341Y490474D01*
X178054Y493761D01*
X176275Y498056D01*
X176275Y517944D01*
X178054Y522239D01*
X180698Y524883D01*
X180783Y524992D01*
X180872Y525099D01*
X180880Y525118D01*
X180893Y525134D01*
X180948Y525262D01*
X181007Y525387D01*
X181011Y525407D01*
X181019Y525426D01*
X181041Y525564D01*
X181067Y525700D01*
X181066Y525720D01*
X181069Y525740D01*
X181056Y525879D01*
X181047Y526017D01*
X181041Y526036D01*
X181039Y526056D01*
X180992Y526188D01*
X180949Y526319D01*
X180938Y526337D01*
X180932Y526356D01*
X180853Y526471D01*
X180779Y526588D01*
X180764Y526602D01*
X180753Y526619D01*
X180649Y526711D01*
X180547Y526806D01*
X180530Y526816D01*
X180515Y526829D01*
X180390Y526893D01*
X180269Y526960D01*
X180249Y526965D01*
X180231Y526974D01*
X180095Y527004D01*
X179961Y527039D01*
X179933Y527041D01*
X179921Y527044D01*
X179901Y527043D01*
X179800Y527049D01*
X10000Y527049D01*
X9980Y527047D01*
X9876Y527043D01*
X9411Y526997D01*
X9308Y526974D01*
X9202Y526959D01*
X9123Y526932D01*
X9101Y526927D01*
X9087Y526920D01*
X9050Y526907D01*
X8192Y526552D01*
X8184Y526547D01*
X8175Y526544D01*
X8046Y526468D01*
X7916Y526394D01*
X7909Y526388D01*
X7901Y526383D01*
X7780Y526276D01*
X7124Y525620D01*
X7118Y525612D01*
X7111Y525607D01*
X7021Y525487D01*
X6929Y525368D01*
X6925Y525360D01*
X6919Y525353D01*
X6848Y525208D01*
X6493Y524350D01*
X6465Y524247D01*
X6428Y524148D01*
X6415Y524064D01*
X6409Y524043D01*
X6409Y524028D01*
X6403Y523989D01*
X6357Y523524D01*
X6357Y523504D01*
X6351Y523400D01*
X6351Y10000D01*
X6353Y9980D01*
X6357Y9876D01*
X6403Y9411D01*
X6426Y9308D01*
X6441Y9202D01*
X6468Y9122D01*
X6473Y9101D01*
X6480Y9087D01*
X6493Y9050D01*
X6848Y8192D01*
X6853Y8184D01*
X6856Y8175D01*
X6932Y8045D01*
X7006Y7916D01*
X7012Y7909D01*
X7017Y7901D01*
X7124Y7780D01*
X7780Y7124D01*
X7788Y7118D01*
X7793Y7111D01*
X7913Y7021D01*
X8032Y6929D01*
X8040Y6925D01*
X8047Y6919D01*
X8192Y6848D01*
X9050Y6493D01*
X9153Y6465D01*
X9252Y6428D01*
X9336Y6415D01*
X9357Y6409D01*
X9373Y6409D01*
X9411Y6403D01*
X9876Y6357D01*
X9895Y6357D01*
X10000Y6351D01*
X271494Y6351D01*
X271632Y6368D01*
G37*
G36*
X231576Y242075D02*
X231576Y242075D01*
X231675Y242078D01*
X231734Y242095D01*
X231794Y242103D01*
X231886Y242139D01*
X231981Y242167D01*
X232033Y242197D01*
X232089Y242220D01*
X232169Y242278D01*
X232255Y242328D01*
X232330Y242394D01*
X232347Y242406D01*
X232354Y242416D01*
X232376Y242434D01*
X237519Y247577D01*
X237592Y247672D01*
X237671Y247761D01*
X237689Y247797D01*
X237714Y247829D01*
X237761Y247938D01*
X237815Y248045D01*
X237824Y248084D01*
X237840Y248121D01*
X237859Y248239D01*
X237885Y248355D01*
X237883Y248395D01*
X237890Y248435D01*
X237879Y248554D01*
X237875Y248673D01*
X237864Y248711D01*
X237860Y248751D01*
X237819Y248864D01*
X237786Y248978D01*
X237766Y249013D01*
X237752Y249051D01*
X237685Y249149D01*
X237625Y249252D01*
X237596Y249281D01*
X237574Y249314D01*
X237484Y249393D01*
X237400Y249477D01*
X237365Y249498D01*
X237335Y249524D01*
X237229Y249579D01*
X237126Y249639D01*
X237088Y249651D01*
X237052Y249669D01*
X236935Y249695D01*
X236821Y249728D01*
X236781Y249730D01*
X236742Y249738D01*
X236622Y249735D01*
X236503Y249739D01*
X236464Y249730D01*
X236424Y249729D01*
X236309Y249696D01*
X236193Y249670D01*
X236138Y249646D01*
X236118Y249640D01*
X236101Y249630D01*
X236045Y249606D01*
X234914Y249029D01*
X233514Y248575D01*
X233514Y263056D01*
X240971Y263056D01*
X240971Y257366D01*
X240729Y255838D01*
X240251Y254366D01*
X239674Y253235D01*
X239634Y253123D01*
X239586Y253013D01*
X239580Y252974D01*
X239566Y252936D01*
X239555Y252817D01*
X239536Y252699D01*
X239540Y252659D01*
X239536Y252619D01*
X239555Y252502D01*
X239566Y252383D01*
X239580Y252345D01*
X239586Y252305D01*
X239633Y252196D01*
X239674Y252083D01*
X239696Y252050D01*
X239712Y252013D01*
X239785Y251919D01*
X239852Y251820D01*
X239882Y251794D01*
X239907Y251762D01*
X240001Y251689D01*
X240091Y251610D01*
X240127Y251591D01*
X240158Y251567D01*
X240268Y251519D01*
X240374Y251465D01*
X240413Y251456D01*
X240450Y251440D01*
X240568Y251422D01*
X240684Y251395D01*
X240724Y251397D01*
X240764Y251390D01*
X240883Y251401D01*
X241002Y251405D01*
X241041Y251416D01*
X241081Y251420D01*
X241193Y251460D01*
X241308Y251493D01*
X241342Y251514D01*
X241380Y251527D01*
X241479Y251594D01*
X241582Y251655D01*
X241627Y251694D01*
X241643Y251706D01*
X241657Y251721D01*
X241703Y251761D01*
X244814Y254872D01*
X244874Y254951D01*
X244942Y255023D01*
X244971Y255076D01*
X245008Y255124D01*
X245048Y255215D01*
X245096Y255301D01*
X245111Y255360D01*
X245135Y255416D01*
X245150Y255513D01*
X245175Y255609D01*
X245181Y255709D01*
X245185Y255730D01*
X245183Y255742D01*
X245185Y255770D01*
X245185Y274979D01*
X246914Y279152D01*
X250108Y282346D01*
X253042Y283561D01*
X253103Y283596D01*
X253168Y283622D01*
X253240Y283674D01*
X253318Y283719D01*
X253368Y283767D01*
X253425Y283808D01*
X253482Y283878D01*
X253547Y283940D01*
X253583Y284000D01*
X253628Y284053D01*
X253666Y284135D01*
X253713Y284211D01*
X253734Y284278D01*
X253763Y284341D01*
X253780Y284429D01*
X253807Y284515D01*
X253810Y284585D01*
X253823Y284654D01*
X253817Y284743D01*
X253822Y284833D01*
X253808Y284901D01*
X253803Y284971D01*
X253776Y285056D01*
X253757Y285144D01*
X253727Y285207D01*
X253705Y285273D01*
X253657Y285349D01*
X253618Y285430D01*
X253572Y285483D01*
X253535Y285542D01*
X253470Y285604D01*
X253411Y285672D01*
X253354Y285712D01*
X253303Y285760D01*
X253225Y285803D01*
X253151Y285855D01*
X253086Y285880D01*
X253025Y285914D01*
X252938Y285936D01*
X252854Y285968D01*
X252784Y285976D01*
X252717Y285993D01*
X252556Y286003D01*
X238001Y286003D01*
X237903Y285991D01*
X237804Y285988D01*
X237746Y285971D01*
X237686Y285963D01*
X237593Y285927D01*
X237498Y285899D01*
X237446Y285869D01*
X237390Y285846D01*
X237310Y285788D01*
X237224Y285738D01*
X237149Y285672D01*
X237133Y285660D01*
X237125Y285650D01*
X237104Y285632D01*
X235082Y283610D01*
X234969Y283465D01*
X234887Y283359D01*
X234887Y283358D01*
X234815Y283192D01*
X234761Y283067D01*
X234760Y283066D01*
X234730Y282877D01*
X234711Y282753D01*
X234711Y282752D01*
X234732Y282525D01*
X234740Y282436D01*
X234807Y282249D01*
X234848Y282137D01*
X234848Y282136D01*
X234938Y282004D01*
X235026Y281874D01*
X235027Y281873D01*
X235146Y281768D01*
X235264Y281663D01*
X235265Y281663D01*
X235266Y281662D01*
X235403Y281581D01*
X236292Y281128D01*
X236810Y280752D01*
X237544Y280219D01*
X238639Y279124D01*
X239548Y277873D01*
X240251Y276494D01*
X240729Y275022D01*
X240971Y273494D01*
X240971Y267804D01*
X232245Y267804D01*
X232127Y267789D01*
X232008Y267782D01*
X231970Y267769D01*
X231930Y267764D01*
X231819Y267721D01*
X231706Y267684D01*
X231672Y267662D01*
X231634Y267647D01*
X231538Y267578D01*
X231437Y267514D01*
X231409Y267484D01*
X231377Y267461D01*
X231301Y267369D01*
X231219Y267282D01*
X231200Y267247D01*
X231174Y267216D01*
X231144Y267151D01*
X231077Y267242D01*
X231014Y267343D01*
X230984Y267371D01*
X230960Y267404D01*
X230869Y267480D01*
X230782Y267561D01*
X230747Y267581D01*
X230715Y267606D01*
X230608Y267657D01*
X230503Y267715D01*
X230464Y267725D01*
X230428Y267742D01*
X230311Y267764D01*
X230195Y267794D01*
X230135Y267798D01*
X230115Y267802D01*
X230095Y267800D01*
X230035Y267804D01*
X220775Y267804D01*
X220754Y267822D01*
X220736Y267831D01*
X220721Y267844D01*
X220595Y267904D01*
X220471Y267967D01*
X220451Y267971D01*
X220433Y267980D01*
X220296Y268006D01*
X220161Y268036D01*
X220140Y268036D01*
X220121Y268040D01*
X219982Y268031D01*
X219843Y268027D01*
X219823Y268021D01*
X219803Y268020D01*
X219671Y267977D01*
X219537Y267938D01*
X219520Y267928D01*
X219501Y267922D01*
X219383Y267847D01*
X219263Y267777D01*
X219242Y267758D01*
X219232Y267752D01*
X219218Y267737D01*
X219143Y267670D01*
X217466Y265994D01*
X217406Y265916D01*
X217338Y265844D01*
X217309Y265791D01*
X217272Y265743D01*
X217232Y265652D01*
X217184Y265566D01*
X217169Y265507D01*
X217145Y265451D01*
X217130Y265353D01*
X217105Y265258D01*
X217099Y265157D01*
X217095Y265137D01*
X217097Y265125D01*
X217095Y265097D01*
X217095Y255881D01*
X215366Y251708D01*
X212172Y248514D01*
X207999Y246785D01*
X203481Y246785D01*
X199308Y248514D01*
X196114Y251708D01*
X194385Y255881D01*
X194385Y274979D01*
X196114Y279152D01*
X199308Y282346D01*
X203481Y284075D01*
X207999Y284075D01*
X212172Y282346D01*
X213475Y281043D01*
X213570Y280970D01*
X213659Y280891D01*
X213695Y280872D01*
X213727Y280848D01*
X213836Y280800D01*
X213942Y280746D01*
X213981Y280737D01*
X214019Y280721D01*
X214136Y280703D01*
X214252Y280677D01*
X214293Y280678D01*
X214333Y280671D01*
X214451Y280683D01*
X214570Y280686D01*
X214609Y280697D01*
X214649Y280701D01*
X214761Y280742D01*
X214876Y280775D01*
X214910Y280795D01*
X214949Y280809D01*
X215047Y280876D01*
X215150Y280936D01*
X215195Y280976D01*
X215212Y280987D01*
X215225Y281003D01*
X215270Y281043D01*
X229418Y295190D01*
X229479Y295269D01*
X229547Y295341D01*
X229576Y295394D01*
X229613Y295442D01*
X229653Y295533D01*
X229701Y295620D01*
X229716Y295678D01*
X229740Y295733D01*
X229755Y295832D01*
X229780Y295928D01*
X229780Y295988D01*
X229789Y296048D01*
X229780Y296147D01*
X229780Y296246D01*
X229765Y296304D01*
X229760Y296364D01*
X229726Y296458D01*
X229701Y296554D01*
X229672Y296607D01*
X229652Y296663D01*
X229596Y296746D01*
X229548Y296833D01*
X229507Y296877D01*
X229473Y296927D01*
X229399Y296992D01*
X229331Y297065D01*
X229280Y297097D01*
X229235Y297137D01*
X229147Y297182D01*
X229063Y297236D01*
X228970Y297272D01*
X228952Y297282D01*
X228940Y297284D01*
X228913Y297295D01*
X227366Y297797D01*
X225987Y298500D01*
X224736Y299409D01*
X223641Y300504D01*
X222732Y301755D01*
X222029Y303134D01*
X221551Y304606D01*
X221309Y306134D01*
X221309Y311824D01*
X230035Y311824D01*
X230153Y311839D01*
X230272Y311846D01*
X230310Y311858D01*
X230350Y311864D01*
X230461Y311907D01*
X230574Y311944D01*
X230608Y311966D01*
X230646Y311981D01*
X230742Y312050D01*
X230843Y312114D01*
X230871Y312144D01*
X230903Y312167D01*
X230979Y312259D01*
X231061Y312346D01*
X231080Y312381D01*
X231106Y312412D01*
X231136Y312477D01*
X231203Y312385D01*
X231266Y312285D01*
X231296Y312257D01*
X231320Y312224D01*
X231411Y312148D01*
X231498Y312067D01*
X231533Y312047D01*
X231565Y312022D01*
X231672Y311971D01*
X231777Y311913D01*
X231816Y311903D01*
X231852Y311886D01*
X231969Y311864D01*
X232085Y311834D01*
X232145Y311830D01*
X232165Y311826D01*
X232185Y311828D01*
X232245Y311824D01*
X240971Y311824D01*
X240971Y306134D01*
X240729Y304606D01*
X240251Y303134D01*
X239548Y301755D01*
X238639Y300504D01*
X238498Y300364D01*
X238413Y300254D01*
X238324Y300147D01*
X238316Y300128D01*
X238303Y300112D01*
X238248Y299984D01*
X238189Y299859D01*
X238185Y299839D01*
X238177Y299820D01*
X238155Y299683D01*
X238129Y299546D01*
X238130Y299526D01*
X238127Y299506D01*
X238140Y299368D01*
X238149Y299229D01*
X238155Y299210D01*
X238157Y299190D01*
X238204Y299059D01*
X238247Y298927D01*
X238258Y298909D01*
X238264Y298890D01*
X238342Y298776D01*
X238417Y298658D01*
X238432Y298644D01*
X238443Y298627D01*
X238547Y298535D01*
X238649Y298440D01*
X238666Y298430D01*
X238681Y298417D01*
X238805Y298354D01*
X238927Y298286D01*
X238947Y298281D01*
X238965Y298272D01*
X239101Y298242D01*
X239235Y298207D01*
X239263Y298205D01*
X239275Y298202D01*
X239296Y298203D01*
X239396Y298197D01*
X246129Y298197D01*
X246267Y298214D01*
X246405Y298227D01*
X246424Y298234D01*
X246445Y298237D01*
X246574Y298288D01*
X246705Y298335D01*
X246721Y298346D01*
X246740Y298354D01*
X246853Y298435D01*
X246968Y298513D01*
X246981Y298529D01*
X246998Y298540D01*
X247086Y298648D01*
X247178Y298752D01*
X247187Y298770D01*
X247200Y298785D01*
X247260Y298911D01*
X247323Y299035D01*
X247327Y299055D01*
X247336Y299073D01*
X247362Y299209D01*
X247393Y299345D01*
X247392Y299366D01*
X247396Y299385D01*
X247387Y299524D01*
X247383Y299663D01*
X247377Y299683D01*
X247376Y299703D01*
X247333Y299835D01*
X247294Y299969D01*
X247284Y299986D01*
X247278Y300005D01*
X247203Y300123D01*
X247133Y300243D01*
X247114Y300264D01*
X247108Y300274D01*
X247093Y300288D01*
X247026Y300364D01*
X246914Y300476D01*
X245185Y304649D01*
X245185Y323747D01*
X246914Y327920D01*
X250108Y331114D01*
X254281Y332843D01*
X258799Y332843D01*
X262972Y331114D01*
X266166Y327920D01*
X267895Y323747D01*
X267895Y304649D01*
X266166Y300476D01*
X266054Y300364D01*
X265968Y300254D01*
X265880Y300147D01*
X265871Y300128D01*
X265859Y300112D01*
X265803Y299984D01*
X265744Y299859D01*
X265740Y299839D01*
X265732Y299820D01*
X265710Y299683D01*
X265684Y299546D01*
X265686Y299526D01*
X265682Y299506D01*
X265695Y299368D01*
X265704Y299229D01*
X265710Y299210D01*
X265712Y299190D01*
X265759Y299059D01*
X265802Y298927D01*
X265813Y298909D01*
X265820Y298890D01*
X265898Y298775D01*
X265972Y298658D01*
X265987Y298644D01*
X265998Y298627D01*
X266103Y298535D01*
X266204Y298440D01*
X266222Y298430D01*
X266237Y298417D01*
X266361Y298353D01*
X266482Y298286D01*
X266502Y298281D01*
X266520Y298272D01*
X266656Y298242D01*
X266790Y298207D01*
X266818Y298205D01*
X266830Y298202D01*
X266851Y298203D01*
X266951Y298197D01*
X271529Y298197D01*
X271667Y298214D01*
X271805Y298227D01*
X271824Y298234D01*
X271845Y298237D01*
X271974Y298288D01*
X272105Y298335D01*
X272121Y298346D01*
X272140Y298354D01*
X272253Y298435D01*
X272368Y298513D01*
X272381Y298529D01*
X272398Y298540D01*
X272486Y298648D01*
X272578Y298752D01*
X272587Y298770D01*
X272600Y298785D01*
X272660Y298911D01*
X272723Y299035D01*
X272727Y299055D01*
X272736Y299073D01*
X272762Y299209D01*
X272793Y299345D01*
X272792Y299366D01*
X272796Y299385D01*
X272787Y299524D01*
X272783Y299663D01*
X272777Y299683D01*
X272776Y299703D01*
X272733Y299835D01*
X272694Y299969D01*
X272684Y299986D01*
X272678Y300005D01*
X272603Y300123D01*
X272533Y300243D01*
X272514Y300264D01*
X272508Y300274D01*
X272493Y300288D01*
X272426Y300364D01*
X272314Y300476D01*
X270585Y304649D01*
X270585Y323747D01*
X272314Y327920D01*
X272931Y328538D01*
X272992Y328616D01*
X273060Y328688D01*
X273089Y328741D01*
X273126Y328789D01*
X273166Y328880D01*
X273214Y328966D01*
X273229Y329025D01*
X273253Y329081D01*
X273268Y329179D01*
X273293Y329274D01*
X273299Y329374D01*
X273303Y329395D01*
X273301Y329407D01*
X273303Y329435D01*
X273303Y335534D01*
X273288Y335652D01*
X273281Y335771D01*
X273268Y335809D01*
X273263Y335850D01*
X273220Y335960D01*
X273183Y336073D01*
X273161Y336108D01*
X273146Y336145D01*
X273077Y336241D01*
X273013Y336342D01*
X272983Y336370D01*
X272960Y336403D01*
X272868Y336479D01*
X272781Y336560D01*
X272746Y336580D01*
X272715Y336605D01*
X272607Y336656D01*
X272503Y336714D01*
X272463Y336724D01*
X272427Y336741D01*
X272310Y336763D01*
X272195Y336793D01*
X272135Y336797D01*
X272115Y336801D01*
X272094Y336799D01*
X272034Y336803D01*
X151576Y336803D01*
X151478Y336791D01*
X151379Y336788D01*
X151321Y336771D01*
X151260Y336763D01*
X151168Y336727D01*
X151073Y336699D01*
X151021Y336669D01*
X150965Y336646D01*
X150885Y336588D01*
X150799Y336538D01*
X150724Y336472D01*
X150707Y336460D01*
X150700Y336450D01*
X150678Y336431D01*
X150495Y336248D01*
X147611Y335053D01*
X144489Y335053D01*
X141605Y336248D01*
X139398Y338455D01*
X138203Y341339D01*
X138203Y344461D01*
X139398Y347345D01*
X141605Y349552D01*
X144489Y350747D01*
X147611Y350747D01*
X150495Y349552D01*
X150678Y349369D01*
X150757Y349308D01*
X150829Y349240D01*
X150882Y349211D01*
X150930Y349174D01*
X151021Y349134D01*
X151107Y349086D01*
X151166Y349071D01*
X151222Y349047D01*
X151319Y349032D01*
X151415Y349007D01*
X151516Y349001D01*
X151536Y348997D01*
X151548Y348999D01*
X151576Y348997D01*
X179067Y348997D01*
X179205Y349014D01*
X179343Y349027D01*
X179362Y349034D01*
X179382Y349037D01*
X179512Y349088D01*
X179643Y349135D01*
X179659Y349146D01*
X179678Y349154D01*
X179791Y349235D01*
X179906Y349313D01*
X179919Y349329D01*
X179936Y349340D01*
X180024Y349448D01*
X180116Y349552D01*
X180125Y349570D01*
X180138Y349585D01*
X180197Y349711D01*
X180261Y349835D01*
X180265Y349855D01*
X180274Y349873D01*
X180300Y350009D01*
X180330Y350145D01*
X180330Y350166D01*
X180334Y350185D01*
X180325Y350324D01*
X180321Y350463D01*
X180315Y350483D01*
X180314Y350503D01*
X180271Y350635D01*
X180232Y350769D01*
X180222Y350786D01*
X180216Y350805D01*
X180142Y350923D01*
X180071Y351043D01*
X180052Y351064D01*
X180046Y351074D01*
X180031Y351088D01*
X179964Y351163D01*
X147589Y383539D01*
X147549Y383570D01*
X147516Y383607D01*
X147424Y383667D01*
X147337Y383734D01*
X147292Y383754D01*
X147250Y383781D01*
X147146Y383817D01*
X147045Y383861D01*
X146996Y383868D01*
X146949Y383885D01*
X146840Y383893D01*
X146731Y383910D01*
X146682Y383906D01*
X146632Y383910D01*
X146524Y383891D01*
X146415Y383881D01*
X146368Y383864D01*
X146319Y383855D01*
X146219Y383810D01*
X146115Y383773D01*
X146074Y383745D01*
X146029Y383725D01*
X145943Y383656D01*
X145852Y383594D01*
X145819Y383557D01*
X145781Y383526D01*
X145714Y383438D01*
X145642Y383356D01*
X145619Y383312D01*
X145589Y383272D01*
X145518Y383128D01*
X144526Y380731D01*
X141239Y377444D01*
X136944Y375665D01*
X117056Y375665D01*
X112761Y377444D01*
X109474Y380731D01*
X107695Y385026D01*
X107695Y389674D01*
X109474Y393969D01*
X112761Y397256D01*
X116676Y398877D01*
X116796Y398946D01*
X116920Y399011D01*
X116934Y399025D01*
X116952Y399035D01*
X117052Y399132D01*
X117155Y399225D01*
X117166Y399242D01*
X117181Y399256D01*
X117253Y399374D01*
X117330Y399491D01*
X117336Y399510D01*
X117347Y399527D01*
X117388Y399660D01*
X117433Y399792D01*
X117434Y399812D01*
X117440Y399831D01*
X117447Y399970D01*
X117458Y400109D01*
X117455Y400129D01*
X117456Y400149D01*
X117427Y400285D01*
X117404Y400422D01*
X117395Y400440D01*
X117391Y400460D01*
X117330Y400586D01*
X117273Y400712D01*
X117260Y400728D01*
X117252Y400746D01*
X117161Y400852D01*
X117074Y400960D01*
X117058Y400973D01*
X117045Y400988D01*
X116931Y401068D01*
X116820Y401152D01*
X116795Y401164D01*
X116785Y401171D01*
X116766Y401178D01*
X116676Y401223D01*
X112761Y402844D01*
X109474Y406131D01*
X107695Y410426D01*
X107695Y415074D01*
X109474Y419369D01*
X112761Y422656D01*
X116676Y424277D01*
X116796Y424346D01*
X116920Y424411D01*
X116934Y424425D01*
X116952Y424435D01*
X117052Y424532D01*
X117155Y424625D01*
X117166Y424642D01*
X117181Y424656D01*
X117253Y424774D01*
X117330Y424891D01*
X117336Y424910D01*
X117347Y424927D01*
X117388Y425060D01*
X117433Y425192D01*
X117434Y425212D01*
X117440Y425231D01*
X117447Y425370D01*
X117458Y425509D01*
X117455Y425529D01*
X117456Y425549D01*
X117427Y425685D01*
X117404Y425822D01*
X117395Y425840D01*
X117391Y425860D01*
X117330Y425986D01*
X117273Y426112D01*
X117260Y426128D01*
X117252Y426146D01*
X117161Y426252D01*
X117074Y426360D01*
X117058Y426373D01*
X117045Y426388D01*
X116931Y426468D01*
X116820Y426552D01*
X116795Y426564D01*
X116785Y426571D01*
X116766Y426578D01*
X116676Y426623D01*
X112761Y428244D01*
X109474Y431531D01*
X107695Y435826D01*
X107695Y440474D01*
X109474Y444769D01*
X112761Y448056D01*
X117056Y449835D01*
X136944Y449835D01*
X141239Y448056D01*
X144526Y444769D01*
X146305Y440474D01*
X146305Y435826D01*
X144526Y431531D01*
X141239Y428244D01*
X137324Y426623D01*
X137203Y426554D01*
X137080Y426489D01*
X137065Y426475D01*
X137048Y426465D01*
X136948Y426368D01*
X136845Y426275D01*
X136834Y426258D01*
X136819Y426244D01*
X136747Y426125D01*
X136670Y426009D01*
X136664Y425990D01*
X136653Y425973D01*
X136612Y425840D01*
X136567Y425708D01*
X136566Y425688D01*
X136560Y425669D01*
X136553Y425530D01*
X136542Y425391D01*
X136545Y425371D01*
X136544Y425351D01*
X136573Y425215D01*
X136596Y425078D01*
X136605Y425059D01*
X136609Y425040D01*
X136670Y424914D01*
X136727Y424788D01*
X136740Y424772D01*
X136748Y424754D01*
X136839Y424648D01*
X136926Y424540D01*
X136942Y424527D01*
X136955Y424512D01*
X137069Y424432D01*
X137180Y424348D01*
X137205Y424336D01*
X137215Y424329D01*
X137234Y424322D01*
X137324Y424277D01*
X141239Y422656D01*
X144526Y419369D01*
X146305Y415074D01*
X146305Y410426D01*
X144526Y406131D01*
X144281Y405886D01*
X144208Y405792D01*
X144129Y405703D01*
X144111Y405667D01*
X144086Y405635D01*
X144039Y405526D01*
X143985Y405420D01*
X143976Y405380D01*
X143960Y405343D01*
X143941Y405225D01*
X143915Y405109D01*
X143916Y405069D01*
X143910Y405029D01*
X143921Y404910D01*
X143925Y404791D01*
X143936Y404753D01*
X143940Y404712D01*
X143980Y404600D01*
X144013Y404486D01*
X144033Y404451D01*
X144047Y404413D01*
X144114Y404315D01*
X144174Y404212D01*
X144214Y404167D01*
X144226Y404150D01*
X144241Y404136D01*
X144281Y404091D01*
X182015Y366357D01*
X182109Y366284D01*
X182198Y366205D01*
X182234Y366187D01*
X182266Y366162D01*
X182376Y366115D01*
X182482Y366061D01*
X182521Y366052D01*
X182558Y366036D01*
X182676Y366017D01*
X182792Y365991D01*
X182832Y365992D01*
X182872Y365986D01*
X182991Y365997D01*
X183110Y366001D01*
X183149Y366012D01*
X183189Y366016D01*
X183301Y366056D01*
X183415Y366089D01*
X183450Y366110D01*
X183488Y366123D01*
X183587Y366190D01*
X183689Y366251D01*
X183734Y366290D01*
X183751Y366302D01*
X183765Y366317D01*
X183810Y366357D01*
X186055Y368602D01*
X188939Y369797D01*
X189199Y369797D01*
X189297Y369809D01*
X189396Y369812D01*
X189454Y369829D01*
X189514Y369837D01*
X189607Y369873D01*
X189702Y369901D01*
X189754Y369931D01*
X189810Y369954D01*
X189890Y370012D01*
X189976Y370062D01*
X190051Y370128D01*
X190067Y370140D01*
X190075Y370150D01*
X190096Y370168D01*
X199746Y379819D01*
X201987Y380747D01*
X247480Y380747D01*
X247618Y380764D01*
X247757Y380777D01*
X247776Y380784D01*
X247796Y380787D01*
X247925Y380838D01*
X248056Y380885D01*
X248073Y380896D01*
X248091Y380904D01*
X248204Y380985D01*
X248319Y381063D01*
X248332Y381079D01*
X248349Y381090D01*
X248438Y381198D01*
X248529Y381302D01*
X248539Y381320D01*
X248552Y381335D01*
X248611Y381461D01*
X248674Y381585D01*
X248678Y381605D01*
X248687Y381623D01*
X248713Y381759D01*
X248744Y381895D01*
X248743Y381916D01*
X248747Y381935D01*
X248738Y382074D01*
X248734Y382213D01*
X248728Y382233D01*
X248727Y382253D01*
X248684Y382385D01*
X248646Y382519D01*
X248635Y382536D01*
X248629Y382555D01*
X248555Y382673D01*
X248484Y382793D01*
X248465Y382814D01*
X248459Y382824D01*
X248444Y382838D01*
X248378Y382914D01*
X247970Y383321D01*
X246887Y385935D01*
X246887Y402904D01*
X246886Y402913D01*
X246887Y402922D01*
X246866Y403071D01*
X246847Y403219D01*
X246844Y403228D01*
X246843Y403237D01*
X246791Y403390D01*
X245185Y407265D01*
X245185Y426363D01*
X246914Y430536D01*
X250108Y433730D01*
X254281Y435459D01*
X258799Y435459D01*
X262972Y433730D01*
X266166Y430536D01*
X267895Y426363D01*
X267895Y407265D01*
X266166Y403092D01*
X262972Y399898D01*
X261896Y399452D01*
X261871Y399438D01*
X261843Y399429D01*
X261733Y399359D01*
X261620Y399295D01*
X261599Y399274D01*
X261574Y399258D01*
X261485Y399164D01*
X261392Y399074D01*
X261376Y399048D01*
X261356Y399027D01*
X261293Y398913D01*
X261225Y398802D01*
X261217Y398774D01*
X261202Y398748D01*
X261170Y398623D01*
X261132Y398499D01*
X261130Y398469D01*
X261123Y398440D01*
X261113Y398280D01*
X261113Y395732D01*
X261128Y395614D01*
X261135Y395495D01*
X261148Y395457D01*
X261153Y395416D01*
X261196Y395306D01*
X261233Y395193D01*
X261255Y395158D01*
X261270Y395121D01*
X261339Y395025D01*
X261403Y394924D01*
X261433Y394896D01*
X261456Y394863D01*
X261548Y394787D01*
X261635Y394706D01*
X261670Y394686D01*
X261701Y394661D01*
X261809Y394610D01*
X261913Y394552D01*
X261953Y394542D01*
X261989Y394525D01*
X262106Y394503D01*
X262221Y394473D01*
X262281Y394469D01*
X262301Y394465D01*
X262322Y394467D01*
X262382Y394463D01*
X318915Y394463D01*
X321529Y393380D01*
X332774Y382134D01*
X332853Y382074D01*
X332925Y382006D01*
X332978Y381977D01*
X333026Y381940D01*
X333117Y381900D01*
X333203Y381852D01*
X333262Y381837D01*
X333318Y381813D01*
X333416Y381798D01*
X333511Y381773D01*
X333611Y381767D01*
X333632Y381763D01*
X333644Y381765D01*
X333672Y381763D01*
X364828Y381763D01*
X364926Y381775D01*
X365025Y381778D01*
X365084Y381795D01*
X365144Y381803D01*
X365236Y381839D01*
X365331Y381867D01*
X365383Y381897D01*
X365439Y381920D01*
X365519Y381978D01*
X365605Y382028D01*
X365680Y382094D01*
X365697Y382106D01*
X365704Y382116D01*
X365726Y382134D01*
X381644Y398052D01*
X381704Y398131D01*
X381772Y398203D01*
X381801Y398256D01*
X381838Y398304D01*
X381878Y398395D01*
X381926Y398481D01*
X381941Y398540D01*
X381965Y398596D01*
X381980Y398693D01*
X382005Y398789D01*
X382011Y398889D01*
X382015Y398910D01*
X382013Y398922D01*
X382015Y398950D01*
X382015Y409994D01*
X383794Y414289D01*
X387081Y417576D01*
X391376Y419355D01*
X396024Y419355D01*
X400319Y417576D01*
X403606Y414289D01*
X405385Y409994D01*
X405385Y390106D01*
X403606Y385811D01*
X400319Y382524D01*
X396024Y380745D01*
X391376Y380745D01*
X387265Y382448D01*
X387237Y382456D01*
X387210Y382469D01*
X387083Y382498D01*
X386958Y382532D01*
X386929Y382532D01*
X386900Y382539D01*
X386770Y382535D01*
X386640Y382537D01*
X386612Y382530D01*
X386582Y382529D01*
X386457Y382493D01*
X386331Y382463D01*
X386305Y382449D01*
X386277Y382441D01*
X386165Y382375D01*
X386050Y382314D01*
X386028Y382294D01*
X386003Y382279D01*
X385882Y382173D01*
X374508Y370800D01*
X374508Y370799D01*
X372329Y368620D01*
X369715Y367537D01*
X350436Y367537D01*
X350298Y367520D01*
X350159Y367507D01*
X350140Y367500D01*
X350120Y367497D01*
X349991Y367446D01*
X349860Y367399D01*
X349843Y367388D01*
X349825Y367380D01*
X349712Y367299D01*
X349597Y367221D01*
X349584Y367205D01*
X349567Y367194D01*
X349478Y367086D01*
X349387Y366982D01*
X349377Y366964D01*
X349364Y366949D01*
X349305Y366823D01*
X349242Y366699D01*
X349238Y366679D01*
X349229Y366661D01*
X349203Y366525D01*
X349172Y366389D01*
X349173Y366368D01*
X349169Y366349D01*
X349178Y366210D01*
X349182Y366071D01*
X349188Y366051D01*
X349189Y366031D01*
X349232Y365899D01*
X349270Y365765D01*
X349281Y365748D01*
X349287Y365729D01*
X349362Y365611D01*
X349432Y365491D01*
X349451Y365470D01*
X349457Y365460D01*
X349472Y365446D01*
X349538Y365371D01*
X353101Y361808D01*
X355280Y359629D01*
X355288Y359610D01*
X355302Y359585D01*
X355311Y359557D01*
X355381Y359447D01*
X355445Y359334D01*
X355466Y359313D01*
X355482Y359288D01*
X355576Y359199D01*
X355666Y359106D01*
X355692Y359090D01*
X355713Y359070D01*
X355827Y359007D01*
X355938Y358939D01*
X355966Y358931D01*
X355992Y358916D01*
X356117Y358884D01*
X356241Y358846D01*
X356271Y358844D01*
X356300Y358837D01*
X356460Y358827D01*
X356513Y358827D01*
X360686Y357098D01*
X363880Y353904D01*
X365609Y349731D01*
X365609Y345213D01*
X363880Y341040D01*
X360686Y337846D01*
X356513Y336117D01*
X337415Y336117D01*
X333242Y337846D01*
X330048Y341040D01*
X328319Y345213D01*
X328319Y349731D01*
X330048Y353904D01*
X333242Y357098D01*
X334634Y357675D01*
X334678Y357699D01*
X334724Y357716D01*
X334815Y357778D01*
X334911Y357832D01*
X334946Y357867D01*
X334987Y357895D01*
X335060Y357977D01*
X335139Y358054D01*
X335165Y358096D01*
X335198Y358133D01*
X335248Y358231D01*
X335305Y358325D01*
X335320Y358372D01*
X335343Y358416D01*
X335367Y358524D01*
X335399Y358629D01*
X335401Y358678D01*
X335412Y358727D01*
X335409Y358836D01*
X335414Y358946D01*
X335404Y358995D01*
X335403Y359045D01*
X335372Y359150D01*
X335350Y359258D01*
X335328Y359302D01*
X335314Y359350D01*
X335258Y359445D01*
X335210Y359543D01*
X335178Y359581D01*
X335153Y359624D01*
X335046Y359745D01*
X325267Y369525D01*
X325172Y369598D01*
X325083Y369676D01*
X325047Y369695D01*
X325015Y369720D01*
X324906Y369767D01*
X324800Y369821D01*
X324761Y369830D01*
X324723Y369846D01*
X324606Y369865D01*
X324490Y369891D01*
X324449Y369889D01*
X324409Y369896D01*
X324291Y369885D01*
X324172Y369881D01*
X324133Y369870D01*
X324093Y369866D01*
X323981Y369826D01*
X323866Y369793D01*
X323832Y369772D01*
X323793Y369758D01*
X323695Y369691D01*
X323592Y369631D01*
X323547Y369591D01*
X323530Y369580D01*
X323517Y369564D01*
X323472Y369525D01*
X321945Y367998D01*
X319061Y366803D01*
X315939Y366803D01*
X313055Y367998D01*
X312872Y368182D01*
X312793Y368242D01*
X312721Y368310D01*
X312668Y368339D01*
X312620Y368376D01*
X312529Y368416D01*
X312443Y368464D01*
X312384Y368479D01*
X312328Y368503D01*
X312230Y368518D01*
X312135Y368543D01*
X312035Y368549D01*
X312014Y368553D01*
X312002Y368551D01*
X311974Y368553D01*
X206251Y368553D01*
X206153Y368541D01*
X206054Y368538D01*
X205996Y368521D01*
X205936Y368513D01*
X205843Y368477D01*
X205748Y368449D01*
X205696Y368419D01*
X205640Y368396D01*
X205560Y368338D01*
X205474Y368288D01*
X205399Y368222D01*
X205383Y368210D01*
X205375Y368200D01*
X205354Y368182D01*
X202786Y365613D01*
X202700Y365504D01*
X202612Y365397D01*
X202603Y365378D01*
X202591Y365362D01*
X202535Y365234D01*
X202476Y365109D01*
X202472Y365089D01*
X202464Y365070D01*
X202442Y364932D01*
X202416Y364796D01*
X202418Y364776D01*
X202414Y364756D01*
X202428Y364617D01*
X202436Y364479D01*
X202442Y364460D01*
X202444Y364440D01*
X202491Y364308D01*
X202534Y364177D01*
X202545Y364159D01*
X202552Y364140D01*
X202630Y364025D01*
X202704Y363908D01*
X202719Y363894D01*
X202730Y363877D01*
X202835Y363785D01*
X202936Y363690D01*
X202954Y363680D01*
X202969Y363667D01*
X203093Y363603D01*
X203214Y363536D01*
X203234Y363531D01*
X203252Y363522D01*
X203388Y363492D01*
X203522Y363457D01*
X203550Y363455D01*
X203562Y363452D01*
X203583Y363453D01*
X203683Y363447D01*
X204761Y363447D01*
X207645Y362252D01*
X209852Y360045D01*
X211047Y357161D01*
X211047Y354039D01*
X209850Y351150D01*
X209775Y351054D01*
X209687Y350947D01*
X209678Y350928D01*
X209666Y350912D01*
X209610Y350784D01*
X209551Y350659D01*
X209547Y350639D01*
X209539Y350620D01*
X209517Y350483D01*
X209491Y350346D01*
X209492Y350326D01*
X209489Y350306D01*
X209502Y350168D01*
X209511Y350029D01*
X209517Y350010D01*
X209519Y349990D01*
X209566Y349859D01*
X209609Y349727D01*
X209620Y349710D01*
X209627Y349690D01*
X209705Y349575D01*
X209779Y349458D01*
X209794Y349444D01*
X209805Y349427D01*
X209910Y349335D01*
X210011Y349240D01*
X210028Y349230D01*
X210044Y349217D01*
X210168Y349153D01*
X210289Y349086D01*
X210309Y349081D01*
X210327Y349072D01*
X210463Y349042D01*
X210597Y349007D01*
X210625Y349005D01*
X210637Y349002D01*
X210658Y349003D01*
X210758Y348997D01*
X280613Y348997D01*
X282854Y348069D01*
X284569Y346354D01*
X285497Y344113D01*
X285497Y333153D01*
X285500Y333124D01*
X285498Y333094D01*
X285520Y332966D01*
X285537Y332838D01*
X285547Y332810D01*
X285552Y332781D01*
X285606Y332663D01*
X285654Y332542D01*
X285671Y332518D01*
X285683Y332491D01*
X285764Y332390D01*
X285840Y332285D01*
X285863Y332266D01*
X285882Y332243D01*
X285985Y332165D01*
X286085Y332082D01*
X286112Y332069D01*
X286136Y332051D01*
X286280Y331980D01*
X288372Y331114D01*
X291566Y327920D01*
X293295Y323747D01*
X293295Y304649D01*
X291566Y300476D01*
X291454Y300364D01*
X291368Y300254D01*
X291280Y300147D01*
X291271Y300128D01*
X291259Y300112D01*
X291203Y299984D01*
X291144Y299859D01*
X291140Y299839D01*
X291132Y299820D01*
X291110Y299683D01*
X291084Y299546D01*
X291086Y299526D01*
X291082Y299506D01*
X291095Y299368D01*
X291104Y299229D01*
X291110Y299210D01*
X291112Y299190D01*
X291159Y299059D01*
X291202Y298927D01*
X291213Y298909D01*
X291220Y298890D01*
X291298Y298775D01*
X291372Y298658D01*
X291387Y298644D01*
X291398Y298627D01*
X291503Y298535D01*
X291604Y298440D01*
X291622Y298430D01*
X291637Y298417D01*
X291761Y298353D01*
X291882Y298286D01*
X291902Y298281D01*
X291920Y298272D01*
X292056Y298242D01*
X292190Y298207D01*
X292218Y298205D01*
X292230Y298202D01*
X292251Y298203D01*
X292351Y298197D01*
X296929Y298197D01*
X297067Y298214D01*
X297205Y298227D01*
X297224Y298234D01*
X297245Y298237D01*
X297374Y298288D01*
X297505Y298335D01*
X297521Y298346D01*
X297540Y298354D01*
X297653Y298435D01*
X297768Y298513D01*
X297781Y298529D01*
X297798Y298540D01*
X297886Y298648D01*
X297978Y298752D01*
X297987Y298770D01*
X298000Y298785D01*
X298060Y298911D01*
X298123Y299035D01*
X298127Y299055D01*
X298136Y299073D01*
X298162Y299209D01*
X298193Y299345D01*
X298192Y299366D01*
X298196Y299385D01*
X298187Y299524D01*
X298183Y299663D01*
X298177Y299683D01*
X298176Y299703D01*
X298133Y299835D01*
X298094Y299969D01*
X298084Y299986D01*
X298078Y300005D01*
X298003Y300123D01*
X297933Y300243D01*
X297914Y300264D01*
X297908Y300274D01*
X297893Y300288D01*
X297826Y300364D01*
X297714Y300476D01*
X295985Y304649D01*
X295985Y323747D01*
X297714Y327920D01*
X300908Y331114D01*
X305081Y332843D01*
X309599Y332843D01*
X313772Y331114D01*
X316966Y327920D01*
X318695Y323747D01*
X318695Y304649D01*
X316966Y300476D01*
X313772Y297282D01*
X309599Y295553D01*
X306683Y295553D01*
X306545Y295536D01*
X306407Y295523D01*
X306388Y295516D01*
X306368Y295513D01*
X306238Y295462D01*
X306107Y295415D01*
X306091Y295404D01*
X306072Y295396D01*
X305959Y295315D01*
X305844Y295237D01*
X305831Y295221D01*
X305814Y295210D01*
X305726Y295102D01*
X305634Y294998D01*
X305625Y294980D01*
X305612Y294965D01*
X305553Y294839D01*
X305489Y294715D01*
X305485Y294695D01*
X305476Y294677D01*
X305450Y294541D01*
X305420Y294405D01*
X305420Y294384D01*
X305416Y294365D01*
X305425Y294226D01*
X305429Y294087D01*
X305435Y294067D01*
X305436Y294047D01*
X305479Y293915D01*
X305518Y293781D01*
X305528Y293764D01*
X305534Y293745D01*
X305608Y293627D01*
X305679Y293507D01*
X305698Y293486D01*
X305704Y293476D01*
X305719Y293462D01*
X305786Y293387D01*
X306954Y292218D01*
X307032Y292158D01*
X307104Y292090D01*
X307157Y292061D01*
X307205Y292024D01*
X307296Y291984D01*
X307382Y291936D01*
X307441Y291921D01*
X307497Y291897D01*
X307595Y291882D01*
X307690Y291857D01*
X307790Y291851D01*
X307811Y291847D01*
X307823Y291849D01*
X307851Y291847D01*
X327483Y291847D01*
X327532Y291853D01*
X327582Y291851D01*
X327689Y291873D01*
X327798Y291887D01*
X327845Y291905D01*
X327893Y291915D01*
X327992Y291963D01*
X328094Y292004D01*
X328134Y292033D01*
X328179Y292055D01*
X328262Y292126D01*
X328351Y292190D01*
X328383Y292229D01*
X328421Y292261D01*
X328484Y292351D01*
X328554Y292435D01*
X328575Y292480D01*
X328604Y292521D01*
X328643Y292624D01*
X328690Y292723D01*
X328699Y292772D01*
X328717Y292818D01*
X328729Y292928D01*
X328750Y293035D01*
X328746Y293085D01*
X328752Y293134D01*
X328737Y293243D01*
X328730Y293353D01*
X328714Y293400D01*
X328708Y293449D01*
X328655Y293602D01*
X328319Y294413D01*
X328319Y298931D01*
X330048Y303104D01*
X333242Y306298D01*
X337415Y308027D01*
X349679Y308027D01*
X349777Y308039D01*
X349876Y308042D01*
X349934Y308059D01*
X349994Y308067D01*
X350087Y308103D01*
X350182Y308131D01*
X350234Y308161D01*
X350290Y308184D01*
X350370Y308242D01*
X350456Y308292D01*
X350531Y308358D01*
X350547Y308370D01*
X350555Y308380D01*
X350576Y308398D01*
X352252Y310075D01*
X352338Y310184D01*
X352426Y310291D01*
X352435Y310310D01*
X352447Y310326D01*
X352503Y310454D01*
X352562Y310579D01*
X352566Y310599D01*
X352574Y310618D01*
X352596Y310756D01*
X352622Y310892D01*
X352620Y310912D01*
X352624Y310932D01*
X352611Y311070D01*
X352602Y311209D01*
X352596Y311228D01*
X352594Y311248D01*
X352547Y311380D01*
X352504Y311511D01*
X352493Y311529D01*
X352486Y311548D01*
X352408Y311663D01*
X352334Y311780D01*
X352319Y311794D01*
X352308Y311811D01*
X352203Y311903D01*
X352102Y311998D01*
X352084Y312008D01*
X352069Y312021D01*
X351945Y312085D01*
X351824Y312152D01*
X351804Y312157D01*
X351786Y312166D01*
X351650Y312196D01*
X351516Y312231D01*
X351488Y312233D01*
X351476Y312236D01*
X351455Y312235D01*
X351355Y312241D01*
X349338Y312241D01*
X349338Y319698D01*
X363819Y319698D01*
X363365Y318298D01*
X362662Y316919D01*
X361753Y315668D01*
X360658Y314573D01*
X359406Y313664D01*
X358686Y313297D01*
X358669Y313286D01*
X358651Y313278D01*
X358538Y313197D01*
X358423Y313118D01*
X358410Y313103D01*
X358394Y313092D01*
X358305Y312984D01*
X358213Y312880D01*
X358203Y312862D01*
X358191Y312847D01*
X358131Y312721D01*
X358068Y312596D01*
X358064Y312577D01*
X358055Y312559D01*
X358029Y312422D01*
X357999Y312286D01*
X357999Y312266D01*
X357995Y312246D01*
X358004Y312107D01*
X358008Y311968D01*
X358014Y311949D01*
X358015Y311929D01*
X358058Y311797D01*
X358097Y311663D01*
X358107Y311645D01*
X358113Y311627D01*
X358188Y311509D01*
X358259Y311389D01*
X358273Y311375D01*
X358283Y311358D01*
X358385Y311262D01*
X358483Y311164D01*
X358501Y311154D01*
X358515Y311140D01*
X358637Y311073D01*
X358757Y311002D01*
X358776Y310996D01*
X358794Y310986D01*
X358928Y310952D01*
X359062Y310913D01*
X359082Y310912D01*
X359101Y310907D01*
X359262Y310897D01*
X365249Y310897D01*
X365347Y310909D01*
X365446Y310912D01*
X365504Y310929D01*
X365564Y310937D01*
X365657Y310973D01*
X365752Y311001D01*
X365804Y311031D01*
X365860Y311054D01*
X365940Y311112D01*
X366026Y311162D01*
X366101Y311228D01*
X366117Y311240D01*
X366125Y311250D01*
X366146Y311268D01*
X436744Y381866D01*
X436817Y381960D01*
X436896Y382049D01*
X436914Y382085D01*
X436939Y382117D01*
X436986Y382227D01*
X437040Y382333D01*
X437049Y382372D01*
X437065Y382409D01*
X437084Y382527D01*
X437110Y382643D01*
X437109Y382683D01*
X437115Y382723D01*
X437104Y382842D01*
X437100Y382961D01*
X437089Y383000D01*
X437085Y383040D01*
X437045Y383152D01*
X437012Y383266D01*
X436992Y383301D01*
X436978Y383339D01*
X436911Y383438D01*
X436851Y383540D01*
X436811Y383586D01*
X436799Y383602D01*
X436784Y383616D01*
X436744Y383661D01*
X434594Y385811D01*
X432815Y390106D01*
X432815Y409994D01*
X434195Y413325D01*
X434203Y413353D01*
X434216Y413380D01*
X434245Y413507D01*
X434279Y413632D01*
X434279Y413661D01*
X434286Y413690D01*
X434282Y413820D01*
X434284Y413950D01*
X434277Y413978D01*
X434276Y414008D01*
X434240Y414132D01*
X434210Y414259D01*
X434196Y414285D01*
X434188Y414313D01*
X434122Y414425D01*
X434061Y414540D01*
X434041Y414562D01*
X434026Y414587D01*
X433920Y414708D01*
X410596Y438032D01*
X410518Y438092D01*
X410446Y438160D01*
X410393Y438189D01*
X410345Y438226D01*
X410254Y438266D01*
X410168Y438314D01*
X410109Y438329D01*
X410053Y438353D01*
X409955Y438368D01*
X409860Y438393D01*
X409760Y438399D01*
X409739Y438403D01*
X409727Y438401D01*
X409699Y438403D01*
X240476Y438403D01*
X240378Y438391D01*
X240279Y438388D01*
X240221Y438371D01*
X240160Y438363D01*
X240068Y438327D01*
X239973Y438299D01*
X239921Y438269D01*
X239865Y438246D01*
X239785Y438188D01*
X239699Y438138D01*
X239624Y438072D01*
X239607Y438060D01*
X239600Y438050D01*
X239578Y438032D01*
X239395Y437848D01*
X236511Y436653D01*
X233389Y436653D01*
X230505Y437848D01*
X228298Y440055D01*
X227103Y442939D01*
X227103Y446061D01*
X228298Y448945D01*
X230505Y451152D01*
X233389Y452347D01*
X236511Y452347D01*
X239300Y451191D01*
X239434Y451155D01*
X239567Y451114D01*
X239588Y451113D01*
X239607Y451107D01*
X239747Y451105D01*
X239885Y451099D01*
X239905Y451103D01*
X239925Y451102D01*
X240061Y451135D01*
X240196Y451163D01*
X240215Y451172D01*
X240234Y451176D01*
X240357Y451241D01*
X240482Y451303D01*
X240498Y451316D01*
X240515Y451325D01*
X240618Y451419D01*
X240724Y451509D01*
X240736Y451525D01*
X240751Y451539D01*
X240827Y451655D01*
X240907Y451769D01*
X240914Y451788D01*
X240926Y451805D01*
X240971Y451936D01*
X241020Y452066D01*
X241022Y452086D01*
X241029Y452106D01*
X241040Y452244D01*
X241055Y452382D01*
X241052Y452402D01*
X241054Y452423D01*
X241030Y452560D01*
X241011Y452697D01*
X241002Y452724D01*
X241000Y452736D01*
X240991Y452755D01*
X240959Y452850D01*
X239803Y455639D01*
X239803Y458761D01*
X241000Y461650D01*
X241075Y461746D01*
X241163Y461853D01*
X241172Y461872D01*
X241184Y461888D01*
X241240Y462016D01*
X241299Y462141D01*
X241303Y462161D01*
X241311Y462180D01*
X241333Y462317D01*
X241359Y462454D01*
X241358Y462474D01*
X241361Y462494D01*
X241348Y462632D01*
X241339Y462771D01*
X241333Y462790D01*
X241331Y462810D01*
X241284Y462941D01*
X241241Y463073D01*
X241230Y463090D01*
X241223Y463110D01*
X241145Y463225D01*
X241071Y463342D01*
X241056Y463356D01*
X241045Y463373D01*
X240940Y463465D01*
X240839Y463560D01*
X240822Y463570D01*
X240806Y463583D01*
X240682Y463647D01*
X240561Y463714D01*
X240541Y463719D01*
X240523Y463728D01*
X240387Y463758D01*
X240253Y463793D01*
X240225Y463795D01*
X240213Y463798D01*
X240192Y463797D01*
X240092Y463803D01*
X216916Y463803D01*
X216798Y463788D01*
X216679Y463781D01*
X216641Y463768D01*
X216600Y463763D01*
X216490Y463720D01*
X216377Y463683D01*
X216342Y463661D01*
X216305Y463646D01*
X216209Y463577D01*
X216108Y463513D01*
X216080Y463483D01*
X216047Y463460D01*
X215971Y463368D01*
X215890Y463281D01*
X215870Y463246D01*
X215845Y463215D01*
X215794Y463107D01*
X215736Y463003D01*
X215726Y462963D01*
X215709Y462927D01*
X215687Y462810D01*
X215657Y462695D01*
X215653Y462635D01*
X215649Y462615D01*
X215651Y462594D01*
X215647Y462534D01*
X215647Y430111D01*
X215648Y430102D01*
X215647Y430092D01*
X215668Y429944D01*
X215687Y429795D01*
X215690Y429787D01*
X215691Y429777D01*
X215743Y429625D01*
X217095Y426363D01*
X217095Y407265D01*
X215366Y403092D01*
X212172Y399898D01*
X207999Y398169D01*
X203481Y398169D01*
X199308Y399898D01*
X196114Y403092D01*
X194385Y407265D01*
X194385Y426363D01*
X196114Y430536D01*
X199308Y433730D01*
X202670Y435123D01*
X202695Y435137D01*
X202723Y435146D01*
X202833Y435216D01*
X202946Y435280D01*
X202967Y435301D01*
X202992Y435316D01*
X203081Y435411D01*
X203174Y435501D01*
X203190Y435527D01*
X203210Y435548D01*
X203273Y435662D01*
X203341Y435772D01*
X203349Y435801D01*
X203364Y435827D01*
X203396Y435952D01*
X203434Y436076D01*
X203436Y436106D01*
X203443Y436134D01*
X203453Y436295D01*
X203453Y468884D01*
X203438Y469002D01*
X203431Y469121D01*
X203418Y469159D01*
X203413Y469200D01*
X203370Y469310D01*
X203333Y469423D01*
X203311Y469458D01*
X203296Y469495D01*
X203227Y469591D01*
X203163Y469692D01*
X203133Y469720D01*
X203110Y469753D01*
X203018Y469829D01*
X202931Y469910D01*
X202896Y469930D01*
X202865Y469955D01*
X202757Y470006D01*
X202653Y470064D01*
X202613Y470074D01*
X202577Y470091D01*
X202460Y470113D01*
X202345Y470143D01*
X202285Y470147D01*
X202265Y470151D01*
X202244Y470149D01*
X202184Y470153D01*
X102616Y470153D01*
X102498Y470138D01*
X102379Y470131D01*
X102341Y470118D01*
X102300Y470113D01*
X102190Y470070D01*
X102077Y470033D01*
X102042Y470011D01*
X102005Y469996D01*
X101909Y469927D01*
X101808Y469863D01*
X101780Y469833D01*
X101747Y469810D01*
X101671Y469718D01*
X101590Y469631D01*
X101570Y469596D01*
X101545Y469565D01*
X101494Y469457D01*
X101436Y469353D01*
X101426Y469313D01*
X101409Y469277D01*
X101387Y469160D01*
X101357Y469045D01*
X101353Y468985D01*
X101349Y468965D01*
X101351Y468944D01*
X101347Y468884D01*
X101347Y341687D01*
X100419Y339446D01*
X98525Y337553D01*
X80386Y319413D01*
X80300Y319304D01*
X80212Y319197D01*
X80203Y319178D01*
X80191Y319162D01*
X80135Y319034D01*
X80076Y318909D01*
X80072Y318889D01*
X80064Y318870D01*
X80042Y318732D01*
X80016Y318596D01*
X80018Y318576D01*
X80014Y318556D01*
X80028Y318417D01*
X80036Y318279D01*
X80042Y318260D01*
X80044Y318240D01*
X80091Y318108D01*
X80134Y317977D01*
X80145Y317959D01*
X80152Y317940D01*
X80230Y317825D01*
X80304Y317708D01*
X80319Y317694D01*
X80330Y317677D01*
X80434Y317585D01*
X80536Y317490D01*
X80554Y317480D01*
X80569Y317467D01*
X80693Y317403D01*
X80814Y317336D01*
X80834Y317331D01*
X80852Y317322D01*
X80988Y317292D01*
X81122Y317257D01*
X81150Y317255D01*
X81162Y317252D01*
X81183Y317253D01*
X81283Y317247D01*
X167716Y317247D01*
X167834Y317262D01*
X167953Y317269D01*
X167991Y317282D01*
X168032Y317287D01*
X168142Y317330D01*
X168255Y317367D01*
X168290Y317389D01*
X168327Y317404D01*
X168423Y317473D01*
X168524Y317537D01*
X168552Y317567D01*
X168585Y317590D01*
X168661Y317682D01*
X168742Y317769D01*
X168762Y317804D01*
X168787Y317835D01*
X168838Y317943D01*
X168896Y318047D01*
X168906Y318087D01*
X168923Y318123D01*
X168945Y318240D01*
X168975Y318355D01*
X168979Y318415D01*
X168983Y318435D01*
X168981Y318456D01*
X168985Y318516D01*
X168985Y323747D01*
X170714Y327920D01*
X173908Y331114D01*
X178081Y332843D01*
X182599Y332843D01*
X186772Y331114D01*
X189966Y327920D01*
X191695Y323747D01*
X191695Y304649D01*
X189966Y300476D01*
X186772Y297282D01*
X182599Y295553D01*
X178081Y295553D01*
X173908Y297282D01*
X170714Y300476D01*
X169143Y304270D01*
X169128Y304295D01*
X169119Y304323D01*
X169049Y304433D01*
X168985Y304546D01*
X168964Y304567D01*
X168949Y304592D01*
X168854Y304681D01*
X168764Y304774D01*
X168738Y304790D01*
X168717Y304810D01*
X168603Y304873D01*
X168493Y304941D01*
X168464Y304949D01*
X168439Y304964D01*
X168313Y304996D01*
X168189Y305034D01*
X168159Y305036D01*
X168131Y305043D01*
X167970Y305053D01*
X79251Y305053D01*
X79153Y305041D01*
X79054Y305038D01*
X78996Y305021D01*
X78936Y305013D01*
X78843Y304977D01*
X78748Y304949D01*
X78696Y304919D01*
X78640Y304896D01*
X78560Y304838D01*
X78474Y304788D01*
X78399Y304722D01*
X78383Y304710D01*
X78375Y304700D01*
X78354Y304682D01*
X68251Y294579D01*
X68178Y294485D01*
X68100Y294396D01*
X68081Y294360D01*
X68057Y294328D01*
X68009Y294219D01*
X67955Y294113D01*
X67946Y294073D01*
X67930Y294036D01*
X67911Y293918D01*
X67885Y293803D01*
X67887Y293762D01*
X67880Y293722D01*
X67892Y293603D01*
X67895Y293485D01*
X67906Y293446D01*
X67910Y293406D01*
X67950Y293293D01*
X67984Y293179D01*
X68004Y293144D01*
X68018Y293106D01*
X68085Y293008D01*
X68145Y292905D01*
X68185Y292860D01*
X68196Y292843D01*
X68212Y292830D01*
X68251Y292784D01*
X73407Y287629D01*
X73407Y280078D01*
X73419Y279980D01*
X73422Y279881D01*
X73439Y279822D01*
X73447Y279762D01*
X73483Y279670D01*
X73511Y279575D01*
X73541Y279523D01*
X73564Y279467D01*
X73622Y279387D01*
X73672Y279301D01*
X73738Y279226D01*
X73750Y279209D01*
X73760Y279202D01*
X73778Y279180D01*
X110524Y242434D01*
X110603Y242374D01*
X110675Y242306D01*
X110728Y242277D01*
X110776Y242240D01*
X110867Y242200D01*
X110953Y242152D01*
X111012Y242137D01*
X111068Y242113D01*
X111166Y242098D01*
X111261Y242073D01*
X111361Y242067D01*
X111382Y242063D01*
X111394Y242065D01*
X111422Y242063D01*
X231478Y242063D01*
X231576Y242075D01*
G37*
G36*
X435197Y266459D02*
X435197Y266459D01*
X435296Y266462D01*
X435354Y266479D01*
X435414Y266487D01*
X435507Y266523D01*
X435602Y266551D01*
X435654Y266581D01*
X435710Y266604D01*
X435790Y266662D01*
X435876Y266712D01*
X435951Y266778D01*
X435967Y266790D01*
X435975Y266800D01*
X435996Y266818D01*
X574396Y405219D01*
X576637Y406147D01*
X612899Y406147D01*
X612997Y406159D01*
X613096Y406162D01*
X613154Y406179D01*
X613214Y406187D01*
X613307Y406223D01*
X613402Y406251D01*
X613454Y406281D01*
X613510Y406304D01*
X613590Y406362D01*
X613676Y406412D01*
X613751Y406478D01*
X613767Y406490D01*
X613775Y406500D01*
X613782Y406506D01*
X613785Y406508D01*
X613786Y406510D01*
X613796Y406518D01*
X622182Y414904D01*
X622242Y414982D01*
X622310Y415054D01*
X622339Y415107D01*
X622376Y415155D01*
X622416Y415246D01*
X622464Y415332D01*
X622479Y415391D01*
X622503Y415447D01*
X622518Y415545D01*
X622543Y415640D01*
X622549Y415740D01*
X622553Y415761D01*
X622551Y415773D01*
X622553Y415801D01*
X622553Y494737D01*
X622545Y494807D01*
X622546Y494876D01*
X622525Y494964D01*
X622513Y495053D01*
X622488Y495118D01*
X622471Y495186D01*
X622429Y495265D01*
X622396Y495349D01*
X622355Y495405D01*
X622323Y495467D01*
X622262Y495533D01*
X622210Y495606D01*
X622156Y495650D01*
X622109Y495702D01*
X622034Y495751D01*
X621965Y495809D01*
X621901Y495838D01*
X621843Y495877D01*
X621758Y495906D01*
X621677Y495944D01*
X621608Y495957D01*
X621542Y495980D01*
X621453Y495987D01*
X621365Y496004D01*
X621295Y496000D01*
X621225Y496005D01*
X621137Y495990D01*
X621047Y495984D01*
X620981Y495963D01*
X620912Y495951D01*
X620830Y495914D01*
X620745Y495886D01*
X620686Y495849D01*
X620622Y495820D01*
X620552Y495764D01*
X620476Y495716D01*
X620428Y495665D01*
X620374Y495622D01*
X620319Y495550D01*
X620258Y495484D01*
X620224Y495423D01*
X620182Y495368D01*
X620111Y495223D01*
X619506Y493761D01*
X616219Y490474D01*
X611924Y488695D01*
X607276Y488695D01*
X602981Y490474D01*
X599694Y493761D01*
X598073Y497676D01*
X598004Y497797D01*
X597939Y497919D01*
X597925Y497934D01*
X597915Y497952D01*
X597818Y498052D01*
X597725Y498155D01*
X597708Y498166D01*
X597694Y498181D01*
X597575Y498253D01*
X597459Y498330D01*
X597440Y498336D01*
X597423Y498347D01*
X597290Y498388D01*
X597158Y498433D01*
X597138Y498434D01*
X597119Y498440D01*
X596980Y498447D01*
X596841Y498458D01*
X596821Y498455D01*
X596801Y498455D01*
X596665Y498427D01*
X596528Y498404D01*
X596509Y498395D01*
X596490Y498391D01*
X596364Y498330D01*
X596238Y498273D01*
X596222Y498260D01*
X596204Y498251D01*
X596098Y498161D01*
X595990Y498074D01*
X595977Y498058D01*
X595962Y498045D01*
X595882Y497931D01*
X595798Y497820D01*
X595786Y497795D01*
X595779Y497785D01*
X595772Y497766D01*
X595727Y497676D01*
X594106Y493761D01*
X590819Y490474D01*
X586428Y488656D01*
X586428Y488655D01*
X586335Y488619D01*
X586240Y488591D01*
X586188Y488561D01*
X586132Y488538D01*
X586052Y488480D01*
X585966Y488430D01*
X585891Y488364D01*
X585875Y488352D01*
X585867Y488342D01*
X585846Y488324D01*
X571618Y474096D01*
X571558Y474018D01*
X571490Y473946D01*
X571461Y473893D01*
X571424Y473845D01*
X571384Y473754D01*
X571336Y473668D01*
X571321Y473609D01*
X571297Y473553D01*
X571282Y473455D01*
X571257Y473360D01*
X571251Y473260D01*
X571247Y473239D01*
X571249Y473227D01*
X571247Y473199D01*
X571247Y430587D01*
X570319Y428346D01*
X505104Y363131D01*
X502863Y362203D01*
X453901Y362203D01*
X453803Y362191D01*
X453704Y362188D01*
X453646Y362171D01*
X453586Y362163D01*
X453493Y362127D01*
X453398Y362099D01*
X453346Y362069D01*
X453290Y362046D01*
X453210Y361988D01*
X453124Y361938D01*
X453049Y361872D01*
X453033Y361860D01*
X453025Y361850D01*
X453004Y361832D01*
X372486Y281313D01*
X372400Y281204D01*
X372312Y281097D01*
X372303Y281078D01*
X372291Y281062D01*
X372235Y280934D01*
X372176Y280809D01*
X372172Y280789D01*
X372164Y280770D01*
X372142Y280632D01*
X372116Y280496D01*
X372118Y280476D01*
X372114Y280456D01*
X372128Y280317D01*
X372136Y280179D01*
X372142Y280160D01*
X372144Y280140D01*
X372191Y280008D01*
X372234Y279877D01*
X372245Y279859D01*
X372252Y279840D01*
X372330Y279725D01*
X372404Y279608D01*
X372419Y279594D01*
X372430Y279577D01*
X372534Y279485D01*
X372636Y279390D01*
X372654Y279380D01*
X372669Y279367D01*
X372793Y279303D01*
X372914Y279236D01*
X372934Y279231D01*
X372952Y279222D01*
X373088Y279192D01*
X373222Y279157D01*
X373250Y279155D01*
X373262Y279152D01*
X373283Y279153D01*
X373383Y279147D01*
X388174Y279147D01*
X388272Y279159D01*
X388371Y279162D01*
X388429Y279179D01*
X388490Y279187D01*
X388582Y279223D01*
X388677Y279251D01*
X388729Y279281D01*
X388785Y279304D01*
X388865Y279362D01*
X388951Y279412D01*
X389026Y279478D01*
X389043Y279490D01*
X389050Y279500D01*
X389072Y279518D01*
X389255Y279702D01*
X392139Y280897D01*
X395261Y280897D01*
X398145Y279702D01*
X400352Y277495D01*
X401547Y274611D01*
X401547Y271489D01*
X400350Y268600D01*
X400275Y268504D01*
X400187Y268397D01*
X400178Y268378D01*
X400166Y268362D01*
X400110Y268234D01*
X400051Y268109D01*
X400047Y268089D01*
X400039Y268070D01*
X400017Y267933D01*
X399991Y267796D01*
X399992Y267776D01*
X399989Y267756D01*
X400002Y267618D01*
X400011Y267479D01*
X400017Y267460D01*
X400019Y267440D01*
X400066Y267309D01*
X400109Y267177D01*
X400120Y267160D01*
X400127Y267140D01*
X400205Y267025D01*
X400279Y266908D01*
X400294Y266894D01*
X400305Y266877D01*
X400410Y266785D01*
X400511Y266690D01*
X400528Y266680D01*
X400544Y266667D01*
X400668Y266603D01*
X400789Y266536D01*
X400809Y266531D01*
X400827Y266522D01*
X400963Y266492D01*
X401097Y266457D01*
X401125Y266455D01*
X401137Y266452D01*
X401158Y266453D01*
X401258Y266447D01*
X435099Y266447D01*
X435197Y266459D01*
G37*
G36*
X492347Y95009D02*
X492347Y95009D01*
X492446Y95012D01*
X492504Y95029D01*
X492564Y95037D01*
X492657Y95073D01*
X492752Y95101D01*
X492804Y95131D01*
X492860Y95154D01*
X492940Y95212D01*
X493026Y95262D01*
X493101Y95328D01*
X493117Y95340D01*
X493125Y95350D01*
X493146Y95368D01*
X494674Y96896D01*
X494734Y96974D01*
X494802Y97046D01*
X494831Y97099D01*
X494868Y97147D01*
X494908Y97238D01*
X494956Y97324D01*
X494971Y97383D01*
X494995Y97439D01*
X494998Y97461D01*
X496824Y101869D01*
X500111Y105156D01*
X504026Y106777D01*
X504147Y106846D01*
X504269Y106911D01*
X504284Y106925D01*
X504302Y106935D01*
X504402Y107032D01*
X504505Y107125D01*
X504516Y107142D01*
X504531Y107156D01*
X504603Y107275D01*
X504680Y107391D01*
X504686Y107410D01*
X504697Y107427D01*
X504738Y107560D01*
X504783Y107692D01*
X504784Y107712D01*
X504790Y107731D01*
X504797Y107870D01*
X504808Y108009D01*
X504805Y108029D01*
X504805Y108049D01*
X504777Y108185D01*
X504754Y108322D01*
X504745Y108341D01*
X504741Y108360D01*
X504680Y108486D01*
X504623Y108612D01*
X504610Y108628D01*
X504601Y108646D01*
X504511Y108752D01*
X504424Y108860D01*
X504408Y108873D01*
X504395Y108888D01*
X504281Y108968D01*
X504170Y109052D01*
X504145Y109064D01*
X504135Y109071D01*
X504116Y109078D01*
X504026Y109123D01*
X500111Y110744D01*
X496824Y114031D01*
X495006Y118422D01*
X495005Y118422D01*
X494969Y118515D01*
X494941Y118610D01*
X494911Y118662D01*
X494888Y118718D01*
X494830Y118798D01*
X494780Y118884D01*
X494714Y118959D01*
X494702Y118975D01*
X494692Y118983D01*
X494674Y119004D01*
X493146Y120532D01*
X493068Y120592D01*
X492996Y120660D01*
X492943Y120689D01*
X492895Y120726D01*
X492804Y120766D01*
X492718Y120814D01*
X492659Y120829D01*
X492603Y120853D01*
X492505Y120868D01*
X492410Y120893D01*
X492310Y120899D01*
X492289Y120903D01*
X492277Y120901D01*
X492249Y120903D01*
X259137Y120903D01*
X256896Y121831D01*
X255003Y123725D01*
X253627Y125100D01*
X253518Y125185D01*
X253411Y125274D01*
X253392Y125283D01*
X253376Y125295D01*
X253249Y125351D01*
X253123Y125410D01*
X253103Y125414D01*
X253084Y125422D01*
X252946Y125444D01*
X252810Y125470D01*
X252790Y125468D01*
X252770Y125472D01*
X252631Y125458D01*
X252493Y125450D01*
X252474Y125444D01*
X252454Y125442D01*
X252322Y125395D01*
X252191Y125352D01*
X252173Y125341D01*
X252154Y125334D01*
X252039Y125256D01*
X251922Y125182D01*
X251908Y125167D01*
X251891Y125156D01*
X251799Y125051D01*
X251704Y124950D01*
X251694Y124932D01*
X251681Y124917D01*
X251617Y124793D01*
X251550Y124672D01*
X251545Y124652D01*
X251536Y124634D01*
X251506Y124498D01*
X251471Y124364D01*
X251469Y124336D01*
X251466Y124324D01*
X251467Y124303D01*
X251461Y124203D01*
X251461Y123189D01*
X242570Y123189D01*
X242452Y123174D01*
X242333Y123167D01*
X242295Y123154D01*
X242255Y123149D01*
X242144Y123106D01*
X242031Y123069D01*
X241997Y123047D01*
X241959Y123032D01*
X241863Y122962D01*
X241762Y122899D01*
X241734Y122869D01*
X241702Y122845D01*
X241626Y122754D01*
X241544Y122667D01*
X241525Y122632D01*
X241499Y122601D01*
X241448Y122493D01*
X241391Y122389D01*
X241380Y122349D01*
X241363Y122313D01*
X241341Y122196D01*
X241311Y122081D01*
X241307Y122020D01*
X241303Y122000D01*
X241305Y121980D01*
X241301Y121920D01*
X241301Y120649D01*
X241299Y120649D01*
X241299Y121920D01*
X241284Y122038D01*
X241277Y122157D01*
X241264Y122195D01*
X241259Y122235D01*
X241215Y122346D01*
X241179Y122459D01*
X241157Y122494D01*
X241142Y122531D01*
X241072Y122627D01*
X241009Y122728D01*
X240979Y122756D01*
X240955Y122789D01*
X240864Y122864D01*
X240777Y122946D01*
X240742Y122966D01*
X240710Y122991D01*
X240603Y123042D01*
X240498Y123100D01*
X240459Y123110D01*
X240423Y123127D01*
X240306Y123149D01*
X240191Y123179D01*
X240130Y123183D01*
X240110Y123187D01*
X240090Y123185D01*
X240030Y123189D01*
X231139Y123189D01*
X231139Y129070D01*
X231389Y130649D01*
X231809Y131942D01*
X231842Y132111D01*
X231869Y132254D01*
X231858Y132429D01*
X231849Y132571D01*
X231849Y132572D01*
X231810Y132693D01*
X231751Y132873D01*
X231751Y132874D01*
X231674Y132996D01*
X231581Y133142D01*
X231581Y133143D01*
X231468Y133248D01*
X231349Y133360D01*
X231219Y133432D01*
X231071Y133514D01*
X231070Y133514D01*
X230904Y133557D01*
X230763Y133593D01*
X230762Y133593D01*
X230761Y133593D01*
X230602Y133603D01*
X228238Y133603D01*
X228189Y133597D01*
X228139Y133599D01*
X228032Y133577D01*
X227922Y133563D01*
X227876Y133545D01*
X227828Y133535D01*
X227729Y133487D01*
X227627Y133446D01*
X227587Y133417D01*
X227542Y133395D01*
X227458Y133324D01*
X227369Y133260D01*
X227338Y133221D01*
X227300Y133189D01*
X227237Y133099D01*
X227167Y133015D01*
X227145Y132970D01*
X227117Y132929D01*
X227078Y132826D01*
X227031Y132727D01*
X227022Y132678D01*
X227004Y132632D01*
X226992Y132522D01*
X226971Y132415D01*
X226974Y132365D01*
X226969Y132316D01*
X226984Y132207D01*
X226991Y132097D01*
X227006Y132050D01*
X227013Y132001D01*
X227065Y131848D01*
X227585Y130594D01*
X227585Y110706D01*
X225806Y106411D01*
X222519Y103124D01*
X218224Y101345D01*
X213576Y101345D01*
X211052Y102391D01*
X211004Y102404D01*
X210959Y102425D01*
X210851Y102446D01*
X210745Y102475D01*
X210695Y102475D01*
X210646Y102485D01*
X210537Y102478D01*
X210427Y102480D01*
X210379Y102468D01*
X210329Y102465D01*
X210225Y102431D01*
X210118Y102406D01*
X210074Y102382D01*
X210027Y102367D01*
X209934Y102308D01*
X209837Y102257D01*
X209800Y102223D01*
X209758Y102197D01*
X209683Y102117D01*
X209601Y102043D01*
X209574Y102001D01*
X209540Y101965D01*
X209487Y101869D01*
X209427Y101777D01*
X209410Y101730D01*
X209386Y101687D01*
X209359Y101580D01*
X209323Y101476D01*
X209319Y101427D01*
X209307Y101379D01*
X209297Y101218D01*
X209297Y96266D01*
X209312Y96148D01*
X209319Y96029D01*
X209332Y95991D01*
X209337Y95950D01*
X209380Y95840D01*
X209417Y95727D01*
X209439Y95692D01*
X209454Y95655D01*
X209523Y95559D01*
X209587Y95458D01*
X209617Y95430D01*
X209640Y95397D01*
X209732Y95321D01*
X209819Y95240D01*
X209854Y95220D01*
X209885Y95195D01*
X209993Y95144D01*
X210097Y95086D01*
X210137Y95076D01*
X210173Y95059D01*
X210290Y95037D01*
X210405Y95007D01*
X210465Y95003D01*
X210485Y94999D01*
X210506Y95001D01*
X210566Y94997D01*
X492249Y94997D01*
X492347Y95009D01*
G37*
G36*
X401437Y6353D02*
X401437Y6353D01*
X401457Y6351D01*
X401595Y6373D01*
X401733Y6391D01*
X401752Y6398D01*
X401771Y6401D01*
X401899Y6456D01*
X402029Y6508D01*
X402045Y6519D01*
X402063Y6527D01*
X402173Y6612D01*
X402286Y6694D01*
X402299Y6710D01*
X402315Y6722D01*
X402400Y6832D01*
X402489Y6939D01*
X402497Y6958D01*
X402510Y6973D01*
X402565Y7101D01*
X402624Y7227D01*
X402628Y7247D01*
X402636Y7265D01*
X402658Y7403D01*
X402684Y7539D01*
X402683Y7559D01*
X402686Y7579D01*
X402673Y7718D01*
X402664Y7857D01*
X402658Y7876D01*
X402656Y7896D01*
X402609Y8027D01*
X402566Y8159D01*
X402556Y8176D01*
X402549Y8195D01*
X402471Y8310D01*
X402396Y8428D01*
X402382Y8442D01*
X402371Y8458D01*
X402266Y8550D01*
X402165Y8646D01*
X402147Y8656D01*
X402132Y8669D01*
X401994Y8751D01*
X401329Y9090D01*
X400035Y10030D01*
X398904Y11161D01*
X397964Y12455D01*
X397238Y13880D01*
X396743Y15401D01*
X396493Y16980D01*
X396493Y22861D01*
X405384Y22861D01*
X405502Y22876D01*
X405621Y22883D01*
X405659Y22896D01*
X405699Y22901D01*
X405810Y22944D01*
X405923Y22981D01*
X405957Y23003D01*
X405995Y23018D01*
X406091Y23088D01*
X406192Y23151D01*
X406220Y23181D01*
X406252Y23204D01*
X406328Y23296D01*
X406410Y23383D01*
X406429Y23418D01*
X406455Y23449D01*
X406506Y23557D01*
X406563Y23661D01*
X406574Y23701D01*
X406591Y23737D01*
X406613Y23854D01*
X406643Y23969D01*
X406647Y24030D01*
X406651Y24050D01*
X406649Y24070D01*
X406653Y24130D01*
X406653Y25401D01*
X406655Y25401D01*
X406655Y24130D01*
X406670Y24012D01*
X406677Y23893D01*
X406690Y23855D01*
X406695Y23814D01*
X406739Y23704D01*
X406775Y23591D01*
X406797Y23556D01*
X406812Y23519D01*
X406882Y23423D01*
X406945Y23322D01*
X406975Y23294D01*
X406999Y23261D01*
X407090Y23186D01*
X407177Y23104D01*
X407212Y23084D01*
X407244Y23059D01*
X407351Y23008D01*
X407456Y22950D01*
X407495Y22940D01*
X407531Y22923D01*
X407648Y22901D01*
X407763Y22871D01*
X407824Y22867D01*
X407844Y22863D01*
X407864Y22865D01*
X407924Y22861D01*
X416815Y22861D01*
X416815Y16980D01*
X416565Y15401D01*
X416070Y13880D01*
X415344Y12455D01*
X414404Y11161D01*
X413273Y10030D01*
X411979Y9090D01*
X411314Y8751D01*
X411298Y8740D01*
X411279Y8732D01*
X411167Y8651D01*
X411051Y8572D01*
X411038Y8557D01*
X411022Y8546D01*
X410933Y8438D01*
X410841Y8334D01*
X410832Y8316D01*
X410819Y8301D01*
X410760Y8175D01*
X410696Y8050D01*
X410692Y8031D01*
X410684Y8013D01*
X410657Y7876D01*
X410627Y7740D01*
X410628Y7720D01*
X410624Y7700D01*
X410632Y7561D01*
X410637Y7422D01*
X410642Y7403D01*
X410644Y7383D01*
X410687Y7250D01*
X410725Y7117D01*
X410735Y7099D01*
X410742Y7081D01*
X410816Y6963D01*
X410887Y6843D01*
X410901Y6829D01*
X410912Y6812D01*
X411013Y6716D01*
X411112Y6618D01*
X411129Y6608D01*
X411143Y6594D01*
X411265Y6527D01*
X411385Y6456D01*
X411404Y6450D01*
X411422Y6440D01*
X411557Y6406D01*
X411691Y6367D01*
X411711Y6366D01*
X411730Y6361D01*
X411890Y6351D01*
X426818Y6351D01*
X426837Y6353D01*
X426857Y6351D01*
X426995Y6373D01*
X427133Y6391D01*
X427152Y6398D01*
X427171Y6401D01*
X427299Y6456D01*
X427429Y6508D01*
X427445Y6519D01*
X427463Y6527D01*
X427573Y6612D01*
X427686Y6694D01*
X427699Y6710D01*
X427715Y6722D01*
X427800Y6832D01*
X427889Y6939D01*
X427897Y6958D01*
X427910Y6973D01*
X427965Y7101D01*
X428024Y7227D01*
X428028Y7247D01*
X428036Y7265D01*
X428058Y7403D01*
X428084Y7539D01*
X428083Y7559D01*
X428086Y7579D01*
X428073Y7718D01*
X428064Y7857D01*
X428058Y7876D01*
X428056Y7896D01*
X428009Y8027D01*
X427966Y8159D01*
X427956Y8176D01*
X427949Y8195D01*
X427871Y8310D01*
X427796Y8428D01*
X427782Y8442D01*
X427771Y8458D01*
X427666Y8550D01*
X427565Y8646D01*
X427547Y8656D01*
X427532Y8669D01*
X427394Y8751D01*
X426729Y9090D01*
X425435Y10030D01*
X424304Y11161D01*
X423364Y12455D01*
X422638Y13880D01*
X422143Y15401D01*
X421893Y16980D01*
X421893Y22861D01*
X430784Y22861D01*
X430902Y22876D01*
X431021Y22883D01*
X431059Y22896D01*
X431099Y22901D01*
X431210Y22944D01*
X431323Y22981D01*
X431357Y23003D01*
X431395Y23018D01*
X431491Y23088D01*
X431592Y23151D01*
X431620Y23181D01*
X431652Y23204D01*
X431728Y23296D01*
X431810Y23383D01*
X431829Y23418D01*
X431855Y23449D01*
X431906Y23557D01*
X431963Y23661D01*
X431974Y23701D01*
X431991Y23737D01*
X432013Y23854D01*
X432043Y23969D01*
X432047Y24030D01*
X432051Y24050D01*
X432049Y24070D01*
X432053Y24130D01*
X432053Y25401D01*
X432055Y25401D01*
X432055Y24130D01*
X432070Y24012D01*
X432077Y23893D01*
X432090Y23855D01*
X432095Y23814D01*
X432139Y23704D01*
X432175Y23591D01*
X432197Y23556D01*
X432212Y23519D01*
X432282Y23423D01*
X432345Y23322D01*
X432375Y23294D01*
X432399Y23261D01*
X432490Y23186D01*
X432577Y23104D01*
X432612Y23084D01*
X432644Y23059D01*
X432751Y23008D01*
X432856Y22950D01*
X432895Y22940D01*
X432931Y22923D01*
X433048Y22901D01*
X433163Y22871D01*
X433224Y22867D01*
X433244Y22863D01*
X433264Y22865D01*
X433324Y22861D01*
X442215Y22861D01*
X442215Y16980D01*
X441965Y15401D01*
X441470Y13880D01*
X440744Y12455D01*
X439804Y11161D01*
X438673Y10030D01*
X437379Y9090D01*
X436714Y8751D01*
X436698Y8740D01*
X436679Y8732D01*
X436567Y8651D01*
X436451Y8572D01*
X436438Y8557D01*
X436422Y8546D01*
X436333Y8438D01*
X436241Y8334D01*
X436232Y8316D01*
X436219Y8301D01*
X436160Y8175D01*
X436096Y8050D01*
X436092Y8031D01*
X436084Y8013D01*
X436057Y7876D01*
X436027Y7740D01*
X436028Y7720D01*
X436024Y7700D01*
X436032Y7561D01*
X436037Y7422D01*
X436042Y7403D01*
X436044Y7383D01*
X436087Y7250D01*
X436125Y7117D01*
X436135Y7099D01*
X436142Y7081D01*
X436216Y6963D01*
X436287Y6843D01*
X436301Y6829D01*
X436312Y6812D01*
X436413Y6716D01*
X436512Y6618D01*
X436529Y6608D01*
X436543Y6594D01*
X436665Y6527D01*
X436785Y6456D01*
X436804Y6450D01*
X436822Y6440D01*
X436957Y6406D01*
X437091Y6367D01*
X437111Y6366D01*
X437130Y6361D01*
X437290Y6351D01*
X449294Y6351D01*
X449432Y6368D01*
X449571Y6381D01*
X449590Y6388D01*
X449610Y6391D01*
X449739Y6442D01*
X449870Y6489D01*
X449887Y6500D01*
X449906Y6508D01*
X450018Y6589D01*
X450133Y6667D01*
X450146Y6683D01*
X450163Y6694D01*
X450252Y6802D01*
X450344Y6906D01*
X450353Y6924D01*
X450366Y6939D01*
X450425Y7065D01*
X450488Y7189D01*
X450493Y7209D01*
X450501Y7227D01*
X450527Y7363D01*
X450558Y7499D01*
X450557Y7520D01*
X450561Y7539D01*
X450552Y7678D01*
X450548Y7817D01*
X450543Y7837D01*
X450541Y7857D01*
X450498Y7989D01*
X450460Y8123D01*
X450449Y8140D01*
X450443Y8159D01*
X450369Y8277D01*
X450298Y8397D01*
X450280Y8418D01*
X450273Y8428D01*
X450258Y8442D01*
X450192Y8517D01*
X447548Y11161D01*
X445769Y15456D01*
X445769Y35344D01*
X447548Y39639D01*
X450835Y42926D01*
X455130Y44705D01*
X459778Y44705D01*
X464073Y42926D01*
X467360Y39639D01*
X469139Y35344D01*
X469139Y15456D01*
X467360Y11161D01*
X464716Y8517D01*
X464631Y8408D01*
X464542Y8301D01*
X464534Y8282D01*
X464521Y8266D01*
X464466Y8138D01*
X464407Y8013D01*
X464403Y7993D01*
X464395Y7974D01*
X464373Y7836D01*
X464347Y7700D01*
X464348Y7680D01*
X464345Y7660D01*
X464358Y7521D01*
X464367Y7383D01*
X464373Y7364D01*
X464375Y7344D01*
X464422Y7212D01*
X464465Y7081D01*
X464476Y7063D01*
X464482Y7044D01*
X464561Y6929D01*
X464635Y6812D01*
X464650Y6798D01*
X464661Y6781D01*
X464765Y6689D01*
X464867Y6594D01*
X464884Y6584D01*
X464899Y6571D01*
X465024Y6507D01*
X465145Y6440D01*
X465165Y6435D01*
X465183Y6426D01*
X465319Y6396D01*
X465453Y6361D01*
X465481Y6359D01*
X465493Y6356D01*
X465513Y6357D01*
X465614Y6351D01*
X499586Y6351D01*
X499724Y6368D01*
X499863Y6381D01*
X499882Y6388D01*
X499902Y6391D01*
X500031Y6442D01*
X500162Y6489D01*
X500179Y6500D01*
X500198Y6508D01*
X500310Y6589D01*
X500425Y6667D01*
X500438Y6683D01*
X500455Y6694D01*
X500544Y6802D01*
X500636Y6906D01*
X500645Y6924D01*
X500658Y6939D01*
X500717Y7065D01*
X500780Y7189D01*
X500785Y7209D01*
X500793Y7227D01*
X500819Y7363D01*
X500850Y7499D01*
X500849Y7520D01*
X500853Y7539D01*
X500844Y7678D01*
X500840Y7817D01*
X500835Y7837D01*
X500833Y7857D01*
X500790Y7989D01*
X500752Y8123D01*
X500741Y8140D01*
X500735Y8159D01*
X500661Y8277D01*
X500590Y8397D01*
X500572Y8418D01*
X500565Y8428D01*
X500550Y8442D01*
X500484Y8517D01*
X498094Y10907D01*
X496315Y15202D01*
X496315Y21587D01*
X496303Y21685D01*
X496300Y21784D01*
X496294Y21805D01*
X496293Y21819D01*
X496282Y21854D01*
X496275Y21902D01*
X496239Y21995D01*
X496211Y22090D01*
X496197Y22113D01*
X496195Y22121D01*
X496179Y22147D01*
X496158Y22198D01*
X496100Y22278D01*
X496050Y22364D01*
X495984Y22439D01*
X495972Y22455D01*
X495962Y22463D01*
X495944Y22484D01*
X455046Y63382D01*
X454968Y63442D01*
X454896Y63510D01*
X454843Y63539D01*
X454795Y63576D01*
X454704Y63616D01*
X454618Y63664D01*
X454559Y63679D01*
X454503Y63703D01*
X454405Y63718D01*
X454310Y63743D01*
X454210Y63749D01*
X454189Y63753D01*
X454177Y63751D01*
X454149Y63753D01*
X387520Y63753D01*
X387382Y63736D01*
X387243Y63723D01*
X387224Y63716D01*
X387204Y63713D01*
X387075Y63662D01*
X386944Y63615D01*
X386927Y63604D01*
X386909Y63596D01*
X386796Y63515D01*
X386681Y63437D01*
X386668Y63421D01*
X386651Y63410D01*
X386562Y63302D01*
X386471Y63198D01*
X386461Y63180D01*
X386448Y63165D01*
X386389Y63039D01*
X386326Y62915D01*
X386322Y62895D01*
X386313Y62877D01*
X386287Y62741D01*
X386256Y62605D01*
X386257Y62584D01*
X386253Y62565D01*
X386262Y62426D01*
X386266Y62287D01*
X386272Y62267D01*
X386273Y62247D01*
X386316Y62115D01*
X386354Y61981D01*
X386365Y61964D01*
X386371Y61945D01*
X386445Y61827D01*
X386516Y61707D01*
X386535Y61686D01*
X386541Y61676D01*
X386556Y61662D01*
X386622Y61586D01*
X387030Y61179D01*
X388113Y58565D01*
X388113Y43212D01*
X388125Y43114D01*
X388128Y43014D01*
X388145Y42956D01*
X388153Y42896D01*
X388189Y42804D01*
X388217Y42709D01*
X388247Y42657D01*
X388270Y42600D01*
X388328Y42520D01*
X388378Y42435D01*
X388444Y42360D01*
X388456Y42343D01*
X388466Y42335D01*
X388484Y42314D01*
X391160Y39639D01*
X392939Y35344D01*
X392939Y15456D01*
X391160Y11161D01*
X388516Y8517D01*
X388431Y8408D01*
X388342Y8301D01*
X388334Y8282D01*
X388321Y8266D01*
X388266Y8138D01*
X388207Y8013D01*
X388203Y7993D01*
X388195Y7974D01*
X388173Y7836D01*
X388147Y7700D01*
X388148Y7680D01*
X388145Y7660D01*
X388158Y7521D01*
X388167Y7383D01*
X388173Y7364D01*
X388175Y7344D01*
X388222Y7212D01*
X388265Y7081D01*
X388276Y7063D01*
X388282Y7044D01*
X388361Y6929D01*
X388435Y6812D01*
X388450Y6798D01*
X388461Y6781D01*
X388565Y6689D01*
X388667Y6594D01*
X388684Y6584D01*
X388699Y6571D01*
X388824Y6507D01*
X388945Y6440D01*
X388965Y6435D01*
X388983Y6426D01*
X389119Y6396D01*
X389253Y6361D01*
X389281Y6359D01*
X389293Y6356D01*
X389313Y6357D01*
X389414Y6351D01*
X401418Y6351D01*
X401437Y6353D01*
G37*
%LPC*%
G36*
X584215Y360933D02*
X584215Y360933D01*
X579080Y363060D01*
X575150Y366990D01*
X573023Y372125D01*
X573023Y377683D01*
X575150Y382818D01*
X579080Y386748D01*
X584215Y388875D01*
X609585Y388875D01*
X614720Y386748D01*
X618650Y382818D01*
X620777Y377683D01*
X620777Y372125D01*
X618650Y366990D01*
X614720Y363060D01*
X609585Y360933D01*
X584215Y360933D01*
G37*
%LPD*%
%LPC*%
G36*
X584215Y240283D02*
X584215Y240283D01*
X579080Y242410D01*
X575150Y246340D01*
X573023Y251475D01*
X573023Y257033D01*
X575150Y262168D01*
X579080Y266098D01*
X584215Y268225D01*
X609585Y268225D01*
X614720Y266098D01*
X618650Y262168D01*
X620777Y257033D01*
X620777Y251475D01*
X618650Y246340D01*
X614720Y242410D01*
X609585Y240283D01*
X584215Y240283D01*
G37*
%LPD*%
%LPC*%
G36*
X115786Y56133D02*
X115786Y56133D01*
X111491Y57912D01*
X108204Y61199D01*
X106425Y65494D01*
X106425Y70142D01*
X108204Y74437D01*
X111491Y77724D01*
X115786Y79503D01*
X135674Y79503D01*
X139969Y77724D01*
X143256Y74437D01*
X145035Y70142D01*
X145035Y65494D01*
X143256Y61199D01*
X139969Y57912D01*
X135674Y56133D01*
X115786Y56133D01*
G37*
%LPD*%
%LPC*%
G36*
X279681Y398169D02*
X279681Y398169D01*
X275508Y399898D01*
X272314Y403092D01*
X270585Y407265D01*
X270585Y426363D01*
X272314Y430536D01*
X275508Y433730D01*
X279681Y435459D01*
X284199Y435459D01*
X288372Y433730D01*
X291566Y430536D01*
X293295Y426363D01*
X293295Y407265D01*
X291566Y403092D01*
X288372Y399898D01*
X284199Y398169D01*
X279681Y398169D01*
G37*
%LPD*%
%LPC*%
G36*
X305081Y398169D02*
X305081Y398169D01*
X300908Y399898D01*
X297714Y403092D01*
X295985Y407265D01*
X295985Y426363D01*
X297714Y430536D01*
X300908Y433730D01*
X305081Y435459D01*
X309599Y435459D01*
X313772Y433730D01*
X316966Y430536D01*
X318695Y426363D01*
X318695Y407265D01*
X316966Y403092D01*
X313772Y399898D01*
X309599Y398169D01*
X305081Y398169D01*
G37*
%LPD*%
%LPC*%
G36*
X178081Y398169D02*
X178081Y398169D01*
X173908Y399898D01*
X170714Y403092D01*
X168985Y407265D01*
X168985Y426363D01*
X170714Y430536D01*
X173908Y433730D01*
X178081Y435459D01*
X182599Y435459D01*
X186772Y433730D01*
X189966Y430536D01*
X191695Y426363D01*
X191695Y407265D01*
X189966Y403092D01*
X186772Y399898D01*
X182599Y398169D01*
X178081Y398169D01*
G37*
%LPD*%
%LPC*%
G36*
X337415Y158317D02*
X337415Y158317D01*
X333242Y160046D01*
X330048Y163240D01*
X328319Y167413D01*
X328319Y171931D01*
X330048Y176104D01*
X333242Y179298D01*
X337415Y181027D01*
X356513Y181027D01*
X360686Y179298D01*
X363880Y176104D01*
X365609Y171931D01*
X365609Y167413D01*
X363880Y163240D01*
X360686Y160046D01*
X356513Y158317D01*
X337415Y158317D01*
G37*
%LPD*%
%LPC*%
G36*
X337415Y183717D02*
X337415Y183717D01*
X333242Y185446D01*
X330048Y188640D01*
X328319Y192813D01*
X328319Y197331D01*
X330048Y201504D01*
X333242Y204698D01*
X337415Y206427D01*
X356513Y206427D01*
X360686Y204698D01*
X363880Y201504D01*
X365609Y197331D01*
X365609Y192813D01*
X363880Y188640D01*
X360686Y185446D01*
X356513Y183717D01*
X337415Y183717D01*
G37*
%LPD*%
%LPC*%
G36*
X178081Y246785D02*
X178081Y246785D01*
X173908Y248514D01*
X170714Y251708D01*
X168985Y255881D01*
X168985Y274979D01*
X170714Y279152D01*
X173908Y282346D01*
X178081Y284075D01*
X182599Y284075D01*
X186772Y282346D01*
X189966Y279152D01*
X191695Y274979D01*
X191695Y255881D01*
X189966Y251708D01*
X186772Y248514D01*
X182599Y246785D01*
X178081Y246785D01*
G37*
%LPD*%
%LPC*%
G36*
X203481Y295553D02*
X203481Y295553D01*
X199308Y297282D01*
X196114Y300476D01*
X194385Y304649D01*
X194385Y323747D01*
X196114Y327920D01*
X199308Y331114D01*
X203481Y332843D01*
X207999Y332843D01*
X212172Y331114D01*
X215366Y327920D01*
X217095Y323747D01*
X217095Y304649D01*
X215366Y300476D01*
X212172Y297282D01*
X207999Y295553D01*
X203481Y295553D01*
G37*
%LPD*%
%LPC*%
G36*
X337415Y209117D02*
X337415Y209117D01*
X333242Y210846D01*
X330048Y214040D01*
X328319Y218213D01*
X328319Y222731D01*
X330048Y226904D01*
X333242Y230098D01*
X337415Y231827D01*
X356513Y231827D01*
X360686Y230098D01*
X363880Y226904D01*
X365609Y222731D01*
X365609Y218213D01*
X363880Y214040D01*
X360686Y210846D01*
X356513Y209117D01*
X337415Y209117D01*
G37*
%LPD*%
%LPC*%
G36*
X599439Y307085D02*
X599439Y307085D01*
X599439Y316993D01*
X607786Y316993D01*
X609721Y316686D01*
X611584Y316081D01*
X613330Y315191D01*
X614914Y314040D01*
X616300Y312654D01*
X617451Y311070D01*
X618341Y309324D01*
X618946Y307461D01*
X619006Y307085D01*
X599439Y307085D01*
G37*
%LPD*%
%LPC*%
G36*
X599439Y427735D02*
X599439Y427735D01*
X599439Y437643D01*
X607786Y437643D01*
X609721Y437336D01*
X611584Y436731D01*
X613330Y435841D01*
X614914Y434690D01*
X616300Y433304D01*
X617451Y431720D01*
X618341Y429974D01*
X618946Y428111D01*
X619006Y427735D01*
X599439Y427735D01*
G37*
%LPD*%
%LPC*%
G36*
X574794Y427735D02*
X574794Y427735D01*
X574854Y428111D01*
X575459Y429974D01*
X576349Y431720D01*
X577500Y433304D01*
X578886Y434690D01*
X580470Y435841D01*
X582216Y436731D01*
X584079Y437336D01*
X586014Y437643D01*
X594361Y437643D01*
X594361Y427735D01*
X574794Y427735D01*
G37*
%LPD*%
%LPC*%
G36*
X574794Y307085D02*
X574794Y307085D01*
X574854Y307461D01*
X575459Y309324D01*
X576349Y311070D01*
X577500Y312654D01*
X578886Y314040D01*
X580470Y315191D01*
X582216Y316081D01*
X584079Y316686D01*
X586014Y316993D01*
X594361Y316993D01*
X594361Y307085D01*
X574794Y307085D01*
G37*
%LPD*%
%LPC*%
G36*
X599439Y292099D02*
X599439Y292099D01*
X599439Y302007D01*
X619006Y302007D01*
X618946Y301631D01*
X618341Y299768D01*
X617451Y298022D01*
X616300Y296438D01*
X614914Y295052D01*
X613330Y293901D01*
X611584Y293011D01*
X609721Y292406D01*
X607786Y292099D01*
X599439Y292099D01*
G37*
%LPD*%
%LPC*%
G36*
X599439Y412749D02*
X599439Y412749D01*
X599439Y422657D01*
X619006Y422657D01*
X618946Y422281D01*
X618341Y420418D01*
X617451Y418672D01*
X616300Y417088D01*
X614914Y415702D01*
X613330Y414551D01*
X611584Y413661D01*
X609721Y413056D01*
X607786Y412749D01*
X599439Y412749D01*
G37*
%LPD*%
%LPC*%
G36*
X586014Y292099D02*
X586014Y292099D01*
X584079Y292406D01*
X582216Y293011D01*
X580470Y293901D01*
X578886Y295052D01*
X577500Y296438D01*
X576349Y298022D01*
X575459Y299768D01*
X574854Y301631D01*
X574794Y302007D01*
X594361Y302007D01*
X594361Y292099D01*
X586014Y292099D01*
G37*
%LPD*%
%LPC*%
G36*
X586014Y412749D02*
X586014Y412749D01*
X584079Y413056D01*
X582216Y413661D01*
X580470Y414551D01*
X578886Y415702D01*
X577500Y417088D01*
X576349Y418672D01*
X575459Y420418D01*
X574854Y422281D01*
X574794Y422657D01*
X594361Y422657D01*
X594361Y412749D01*
X586014Y412749D01*
G37*
%LPD*%
%LPC*%
G36*
X434593Y27939D02*
X434593Y27939D01*
X434593Y42879D01*
X435954Y42436D01*
X437379Y41710D01*
X438673Y40770D01*
X439804Y39639D01*
X440744Y38345D01*
X441470Y36920D01*
X441965Y35399D01*
X442215Y33820D01*
X442215Y27939D01*
X434593Y27939D01*
G37*
%LPD*%
%LPC*%
G36*
X409193Y27939D02*
X409193Y27939D01*
X409193Y42879D01*
X410554Y42436D01*
X411979Y41710D01*
X413273Y40770D01*
X414404Y39639D01*
X415344Y38345D01*
X416070Y36920D01*
X416565Y35399D01*
X416815Y33820D01*
X416815Y27939D01*
X409193Y27939D01*
G37*
%LPD*%
%LPC*%
G36*
X128269Y95757D02*
X128269Y95757D01*
X128269Y103379D01*
X134150Y103379D01*
X135729Y103129D01*
X137250Y102634D01*
X138675Y101908D01*
X139969Y100968D01*
X141100Y99837D01*
X142040Y98543D01*
X142766Y97118D01*
X143209Y95757D01*
X128269Y95757D01*
G37*
%LPD*%
%LPC*%
G36*
X421639Y402589D02*
X421639Y402589D01*
X421639Y417529D01*
X423000Y417086D01*
X424425Y416360D01*
X425719Y415420D01*
X426850Y414289D01*
X427790Y412995D01*
X428516Y411570D01*
X429011Y410049D01*
X429261Y408470D01*
X429261Y402589D01*
X421639Y402589D01*
G37*
%LPD*%
%LPC*%
G36*
X129539Y364489D02*
X129539Y364489D01*
X129539Y372111D01*
X135420Y372111D01*
X136999Y371861D01*
X138520Y371366D01*
X139945Y370640D01*
X141239Y369700D01*
X142370Y368569D01*
X143310Y367275D01*
X144036Y365850D01*
X144479Y364489D01*
X129539Y364489D01*
G37*
%LPD*%
%LPC*%
G36*
X128269Y210057D02*
X128269Y210057D01*
X128269Y217679D01*
X134150Y217679D01*
X135729Y217429D01*
X137250Y216934D01*
X138675Y216208D01*
X139969Y215268D01*
X141100Y214137D01*
X142040Y212843D01*
X142766Y211418D01*
X143209Y210057D01*
X128269Y210057D01*
G37*
%LPD*%
%LPC*%
G36*
X108251Y95757D02*
X108251Y95757D01*
X108694Y97118D01*
X109420Y98543D01*
X110360Y99837D01*
X111491Y100968D01*
X112785Y101908D01*
X114210Y102634D01*
X115731Y103129D01*
X117310Y103379D01*
X123191Y103379D01*
X123191Y95757D01*
X108251Y95757D01*
G37*
%LPD*%
%LPC*%
G36*
X266699Y505461D02*
X266699Y505461D01*
X274321Y505461D01*
X274321Y499580D01*
X274071Y498001D01*
X273576Y496480D01*
X272850Y495055D01*
X271910Y493761D01*
X270779Y492630D01*
X269485Y491690D01*
X268060Y490964D01*
X266699Y490521D01*
X266699Y505461D01*
G37*
%LPD*%
%LPC*%
G36*
X109521Y364489D02*
X109521Y364489D01*
X109964Y365850D01*
X110690Y367275D01*
X111630Y368569D01*
X112761Y369700D01*
X114055Y370640D01*
X115480Y371366D01*
X117001Y371861D01*
X118580Y372111D01*
X124461Y372111D01*
X124461Y364489D01*
X109521Y364489D01*
G37*
%LPD*%
%LPC*%
G36*
X243839Y118111D02*
X243839Y118111D01*
X251461Y118111D01*
X251461Y112230D01*
X251211Y110651D01*
X250716Y109130D01*
X249990Y107705D01*
X249050Y106411D01*
X247919Y105280D01*
X246625Y104340D01*
X245200Y103614D01*
X243839Y103171D01*
X243839Y118111D01*
G37*
%LPD*%
%LPC*%
G36*
X421639Y397511D02*
X421639Y397511D01*
X429261Y397511D01*
X429261Y391630D01*
X429011Y390051D01*
X428516Y388530D01*
X427790Y387105D01*
X426850Y385811D01*
X425719Y384680D01*
X424425Y383740D01*
X423000Y383014D01*
X421639Y382571D01*
X421639Y397511D01*
G37*
%LPD*%
%LPC*%
G36*
X108251Y210057D02*
X108251Y210057D01*
X108694Y211418D01*
X109420Y212843D01*
X110360Y214137D01*
X111491Y215268D01*
X112785Y216208D01*
X114210Y216934D01*
X115731Y217429D01*
X117310Y217679D01*
X123191Y217679D01*
X123191Y210057D01*
X108251Y210057D01*
G37*
%LPD*%
%LPC*%
G36*
X421893Y27939D02*
X421893Y27939D01*
X421893Y33820D01*
X422143Y35399D01*
X422638Y36920D01*
X423364Y38345D01*
X424304Y39639D01*
X425435Y40770D01*
X426729Y41710D01*
X428154Y42436D01*
X429515Y42879D01*
X429515Y27939D01*
X421893Y27939D01*
G37*
%LPD*%
%LPC*%
G36*
X128269Y197357D02*
X128269Y197357D01*
X128269Y204979D01*
X143209Y204979D01*
X142766Y203618D01*
X142040Y202193D01*
X141100Y200899D01*
X139969Y199768D01*
X138675Y198828D01*
X137250Y198102D01*
X135729Y197607D01*
X134150Y197357D01*
X128269Y197357D01*
G37*
%LPD*%
%LPC*%
G36*
X408939Y402589D02*
X408939Y402589D01*
X408939Y408470D01*
X409189Y410049D01*
X409684Y411570D01*
X410410Y412995D01*
X411350Y414289D01*
X412481Y415420D01*
X413775Y416360D01*
X415200Y417086D01*
X416561Y417529D01*
X416561Y402589D01*
X408939Y402589D01*
G37*
%LPD*%
%LPC*%
G36*
X129539Y351789D02*
X129539Y351789D01*
X129539Y359411D01*
X144479Y359411D01*
X144036Y358050D01*
X143310Y356625D01*
X142370Y355331D01*
X141239Y354200D01*
X139945Y353260D01*
X138520Y352534D01*
X136999Y352039D01*
X135420Y351789D01*
X129539Y351789D01*
G37*
%LPD*%
%LPC*%
G36*
X396493Y27939D02*
X396493Y27939D01*
X396493Y33820D01*
X396743Y35399D01*
X397238Y36920D01*
X397964Y38345D01*
X398904Y39639D01*
X400035Y40770D01*
X401329Y41710D01*
X402754Y42436D01*
X404115Y42879D01*
X404115Y27939D01*
X396493Y27939D01*
G37*
%LPD*%
%LPC*%
G36*
X128269Y83057D02*
X128269Y83057D01*
X128269Y90679D01*
X143209Y90679D01*
X142766Y89318D01*
X142040Y87893D01*
X141100Y86599D01*
X139969Y85468D01*
X138675Y84528D01*
X137250Y83802D01*
X135729Y83307D01*
X134150Y83057D01*
X128269Y83057D01*
G37*
%LPD*%
%LPC*%
G36*
X415200Y383014D02*
X415200Y383014D01*
X413775Y383740D01*
X412481Y384680D01*
X411350Y385811D01*
X410410Y387105D01*
X409684Y388530D01*
X409189Y390051D01*
X408939Y391630D01*
X408939Y397511D01*
X416561Y397511D01*
X416561Y382571D01*
X415200Y383014D01*
G37*
%LPD*%
%LPC*%
G36*
X260260Y490964D02*
X260260Y490964D01*
X258835Y491690D01*
X257541Y492630D01*
X256410Y493761D01*
X255470Y495055D01*
X254744Y496480D01*
X254249Y498001D01*
X253999Y499580D01*
X253999Y505461D01*
X261621Y505461D01*
X261621Y490521D01*
X260260Y490964D01*
G37*
%LPD*%
%LPC*%
G36*
X237400Y103614D02*
X237400Y103614D01*
X235975Y104340D01*
X234681Y105280D01*
X233550Y106411D01*
X232610Y107705D01*
X231884Y109130D01*
X231389Y110651D01*
X231139Y112230D01*
X231139Y118111D01*
X238761Y118111D01*
X238761Y103171D01*
X237400Y103614D01*
G37*
%LPD*%
%LPC*%
G36*
X117310Y83057D02*
X117310Y83057D01*
X115731Y83307D01*
X114210Y83802D01*
X112785Y84528D01*
X111491Y85468D01*
X110360Y86599D01*
X109420Y87893D01*
X108694Y89318D01*
X108251Y90679D01*
X123191Y90679D01*
X123191Y83057D01*
X117310Y83057D01*
G37*
%LPD*%
%LPC*%
G36*
X118580Y351789D02*
X118580Y351789D01*
X117001Y352039D01*
X115480Y352534D01*
X114055Y353260D01*
X112761Y354200D01*
X111630Y355331D01*
X110690Y356625D01*
X109964Y358050D01*
X109521Y359411D01*
X124461Y359411D01*
X124461Y351789D01*
X118580Y351789D01*
G37*
%LPD*%
%LPC*%
G36*
X117310Y197357D02*
X117310Y197357D01*
X115731Y197607D01*
X114210Y198102D01*
X112785Y198828D01*
X111491Y199768D01*
X110360Y200899D01*
X109420Y202193D01*
X108694Y203618D01*
X108251Y204979D01*
X123191Y204979D01*
X123191Y197357D01*
X117310Y197357D01*
G37*
%LPD*%
%LPC*%
G36*
X349338Y324446D02*
X349338Y324446D01*
X349338Y331903D01*
X355028Y331903D01*
X356556Y331661D01*
X358028Y331183D01*
X359407Y330480D01*
X360658Y329571D01*
X361753Y328476D01*
X362662Y327225D01*
X363365Y325846D01*
X363819Y324446D01*
X349338Y324446D01*
G37*
%LPD*%
%LPC*%
G36*
X233514Y165188D02*
X233514Y165188D01*
X233514Y179669D01*
X234914Y179215D01*
X236293Y178512D01*
X237544Y177603D01*
X238639Y176508D01*
X239548Y175257D01*
X240251Y173878D01*
X240729Y172406D01*
X240971Y170878D01*
X240971Y165188D01*
X233514Y165188D01*
G37*
%LPD*%
%LPC*%
G36*
X233514Y419188D02*
X233514Y419188D01*
X233514Y433669D01*
X234914Y433215D01*
X236293Y432512D01*
X237544Y431603D01*
X238639Y430508D01*
X239548Y429257D01*
X240251Y427878D01*
X240729Y426406D01*
X240971Y424878D01*
X240971Y419188D01*
X233514Y419188D01*
G37*
%LPD*%
%LPC*%
G36*
X233514Y316572D02*
X233514Y316572D01*
X233514Y331053D01*
X234914Y330599D01*
X236293Y329896D01*
X237544Y328987D01*
X238639Y327892D01*
X239548Y326641D01*
X240251Y325262D01*
X240729Y323790D01*
X240971Y322262D01*
X240971Y316572D01*
X233514Y316572D01*
G37*
%LPD*%
%LPC*%
G36*
X233514Y414440D02*
X233514Y414440D01*
X240971Y414440D01*
X240971Y408750D01*
X240729Y407222D01*
X240251Y405750D01*
X239548Y404371D01*
X238639Y403120D01*
X237544Y402025D01*
X236293Y401116D01*
X234914Y400413D01*
X233514Y399959D01*
X233514Y414440D01*
G37*
%LPD*%
%LPC*%
G36*
X330109Y324446D02*
X330109Y324446D01*
X330563Y325846D01*
X331266Y327225D01*
X332175Y328476D01*
X333270Y329571D01*
X334521Y330480D01*
X335900Y331183D01*
X337372Y331661D01*
X338900Y331903D01*
X344590Y331903D01*
X344590Y324446D01*
X330109Y324446D01*
G37*
%LPD*%
%LPC*%
G36*
X221309Y165188D02*
X221309Y165188D01*
X221309Y170878D01*
X221551Y172406D01*
X222029Y173878D01*
X222732Y175257D01*
X223641Y176508D01*
X224736Y177603D01*
X225987Y178512D01*
X227366Y179215D01*
X228766Y179669D01*
X228766Y165188D01*
X221309Y165188D01*
G37*
%LPD*%
%LPC*%
G36*
X221309Y419188D02*
X221309Y419188D01*
X221309Y424878D01*
X221551Y426406D01*
X222029Y427878D01*
X222732Y429257D01*
X223641Y430508D01*
X224736Y431603D01*
X225987Y432512D01*
X227366Y433215D01*
X228766Y433669D01*
X228766Y419188D01*
X221309Y419188D01*
G37*
%LPD*%
%LPC*%
G36*
X221309Y316572D02*
X221309Y316572D01*
X221309Y322262D01*
X221551Y323790D01*
X222029Y325262D01*
X222732Y326641D01*
X223641Y327892D01*
X224736Y328987D01*
X225987Y329896D01*
X227366Y330599D01*
X228766Y331053D01*
X228766Y316572D01*
X221309Y316572D01*
G37*
%LPD*%
%LPC*%
G36*
X227366Y249029D02*
X227366Y249029D01*
X225987Y249732D01*
X225889Y249803D01*
X225889Y249804D01*
X224736Y250641D01*
X223641Y251736D01*
X222732Y252987D01*
X222029Y254366D01*
X221551Y255838D01*
X221309Y257366D01*
X221309Y263056D01*
X228766Y263056D01*
X228766Y248575D01*
X227366Y249029D01*
G37*
%LPD*%
%LPC*%
G36*
X227366Y400413D02*
X227366Y400413D01*
X225987Y401116D01*
X224736Y402025D01*
X223641Y403120D01*
X222732Y404371D01*
X222029Y405750D01*
X221551Y407222D01*
X221309Y408750D01*
X221309Y414440D01*
X228766Y414440D01*
X228766Y399959D01*
X227366Y400413D01*
G37*
%LPD*%
%LPC*%
G36*
X338900Y312241D02*
X338900Y312241D01*
X337372Y312483D01*
X335900Y312961D01*
X334521Y313664D01*
X333270Y314573D01*
X332175Y315668D01*
X331266Y316919D01*
X330563Y318298D01*
X330109Y319698D01*
X344590Y319698D01*
X344590Y312241D01*
X338900Y312241D01*
G37*
%LPD*%
%LPC*%
G36*
X125729Y93217D02*
X125729Y93217D01*
X125729Y93219D01*
X125731Y93219D01*
X125731Y93217D01*
X125729Y93217D01*
G37*
%LPD*%
%LPC*%
G36*
X596899Y425195D02*
X596899Y425195D01*
X596899Y425197D01*
X596901Y425197D01*
X596901Y425195D01*
X596899Y425195D01*
G37*
%LPD*%
%LPC*%
G36*
X126999Y361949D02*
X126999Y361949D01*
X126999Y361951D01*
X127001Y361951D01*
X127001Y361949D01*
X126999Y361949D01*
G37*
%LPD*%
%LPC*%
G36*
X419099Y400049D02*
X419099Y400049D01*
X419099Y400051D01*
X419101Y400051D01*
X419101Y400049D01*
X419099Y400049D01*
G37*
%LPD*%
%LPC*%
G36*
X596899Y304545D02*
X596899Y304545D01*
X596899Y304547D01*
X596901Y304547D01*
X596901Y304545D01*
X596899Y304545D01*
G37*
%LPD*%
%LPC*%
G36*
X125729Y207517D02*
X125729Y207517D01*
X125729Y207519D01*
X125731Y207519D01*
X125731Y207517D01*
X125729Y207517D01*
G37*
%LPD*%
D10*
X660400Y10000D02*
X660400Y520700D01*
X647700Y533400D01*
X10000Y533400D01*
X9758Y533397D01*
X9517Y533388D01*
X9276Y533374D01*
X9035Y533353D01*
X8795Y533327D01*
X8555Y533295D01*
X8316Y533257D01*
X8079Y533214D01*
X7842Y533164D01*
X7607Y533109D01*
X7373Y533049D01*
X7141Y532982D01*
X6910Y532911D01*
X6681Y532833D01*
X6454Y532750D01*
X6229Y532662D01*
X6006Y532568D01*
X5786Y532469D01*
X5568Y532364D01*
X5353Y532255D01*
X5140Y532140D01*
X4930Y532020D01*
X4724Y531895D01*
X4520Y531765D01*
X4319Y531630D01*
X4122Y531490D01*
X3928Y531346D01*
X3738Y531197D01*
X3552Y531043D01*
X3369Y530885D01*
X3190Y530723D01*
X3015Y530556D01*
X2844Y530385D01*
X2677Y530210D01*
X2515Y530031D01*
X2357Y529848D01*
X2203Y529662D01*
X2054Y529472D01*
X1910Y529278D01*
X1770Y529081D01*
X1635Y528880D01*
X1505Y528676D01*
X1380Y528470D01*
X1260Y528260D01*
X1145Y528047D01*
X1036Y527832D01*
X931Y527614D01*
X832Y527394D01*
X738Y527171D01*
X650Y526946D01*
X567Y526719D01*
X489Y526490D01*
X418Y526259D01*
X351Y526027D01*
X291Y525793D01*
X236Y525558D01*
X186Y525321D01*
X143Y525084D01*
X105Y524845D01*
X73Y524605D01*
X47Y524365D01*
X26Y524124D01*
X12Y523883D01*
X3Y523642D01*
X0Y523400D01*
X0Y10000D01*
X3Y9758D01*
X12Y9517D01*
X26Y9276D01*
X47Y9035D01*
X73Y8795D01*
X105Y8555D01*
X143Y8316D01*
X186Y8079D01*
X236Y7842D01*
X291Y7607D01*
X351Y7373D01*
X418Y7141D01*
X489Y6910D01*
X567Y6681D01*
X650Y6454D01*
X738Y6229D01*
X832Y6006D01*
X931Y5786D01*
X1036Y5568D01*
X1145Y5353D01*
X1260Y5140D01*
X1380Y4930D01*
X1505Y4724D01*
X1635Y4520D01*
X1770Y4319D01*
X1910Y4122D01*
X2054Y3928D01*
X2203Y3738D01*
X2357Y3552D01*
X2515Y3369D01*
X2677Y3190D01*
X2844Y3015D01*
X3015Y2844D01*
X3190Y2677D01*
X3369Y2515D01*
X3552Y2357D01*
X3738Y2203D01*
X3928Y2054D01*
X4122Y1910D01*
X4319Y1770D01*
X4520Y1635D01*
X4724Y1505D01*
X4930Y1380D01*
X5140Y1260D01*
X5353Y1145D01*
X5568Y1036D01*
X5786Y931D01*
X6006Y832D01*
X6229Y738D01*
X6454Y650D01*
X6681Y567D01*
X6910Y489D01*
X7141Y418D01*
X7373Y351D01*
X7607Y291D01*
X7842Y236D01*
X8079Y186D01*
X8316Y143D01*
X8555Y105D01*
X8795Y73D01*
X9035Y47D01*
X9276Y26D01*
X9517Y12D01*
X9758Y3D01*
X10000Y0D01*
X650400Y0D01*
X650642Y3D01*
X650883Y12D01*
X651124Y26D01*
X651365Y47D01*
X651605Y73D01*
X651845Y105D01*
X652084Y143D01*
X652321Y186D01*
X652558Y236D01*
X652793Y291D01*
X653027Y351D01*
X653259Y418D01*
X653490Y489D01*
X653719Y567D01*
X653946Y650D01*
X654171Y738D01*
X654394Y832D01*
X654614Y931D01*
X654832Y1036D01*
X655047Y1145D01*
X655260Y1260D01*
X655470Y1380D01*
X655676Y1505D01*
X655880Y1635D01*
X656081Y1770D01*
X656278Y1910D01*
X656472Y2054D01*
X656662Y2203D01*
X656848Y2357D01*
X657031Y2515D01*
X657210Y2677D01*
X657385Y2844D01*
X657556Y3015D01*
X657723Y3190D01*
X657885Y3369D01*
X658043Y3552D01*
X658197Y3738D01*
X658346Y3928D01*
X658490Y4122D01*
X658630Y4319D01*
X658765Y4520D01*
X658895Y4724D01*
X659020Y4930D01*
X659140Y5140D01*
X659255Y5353D01*
X659364Y5568D01*
X659469Y5786D01*
X659568Y6006D01*
X659662Y6229D01*
X659750Y6454D01*
X659833Y6681D01*
X659911Y6910D01*
X659982Y7141D01*
X660049Y7373D01*
X660109Y7607D01*
X660164Y7842D01*
X660214Y8079D01*
X660257Y8316D01*
X660295Y8555D01*
X660327Y8795D01*
X660353Y9035D01*
X660374Y9276D01*
X660388Y9517D01*
X660397Y9758D01*
X660400Y10000D01*
D11*
X187960Y500380D02*
X187960Y515620D01*
X213360Y515620D02*
X213360Y500380D01*
X238760Y500380D02*
X238760Y515620D01*
X264160Y515620D02*
X264160Y500380D01*
X289560Y500380D02*
X289560Y515620D01*
X314960Y515620D02*
X314960Y500380D01*
X340360Y500380D02*
X340360Y515620D01*
X365760Y515620D02*
X365760Y500380D01*
X391160Y500380D02*
X391160Y515620D01*
X416560Y515620D02*
X416560Y500380D01*
X279654Y33020D02*
X279654Y17780D01*
X305054Y17780D02*
X305054Y33020D01*
X330454Y33020D02*
X330454Y17780D01*
X355854Y17780D02*
X355854Y33020D01*
X381254Y33020D02*
X381254Y17780D01*
X406654Y17780D02*
X406654Y33020D01*
X432054Y33020D02*
X432054Y17780D01*
X457454Y17780D02*
X457454Y33020D01*
X457200Y500380D02*
X457200Y515620D01*
X482600Y515620D02*
X482600Y500380D01*
X508000Y500380D02*
X508000Y515620D01*
X533400Y515620D02*
X533400Y500380D01*
X558800Y500380D02*
X558800Y515620D01*
X584200Y515620D02*
X584200Y500380D01*
X609600Y500380D02*
X609600Y515620D01*
X635000Y515620D02*
X635000Y500380D01*
X508000Y32766D02*
X508000Y17526D01*
X533400Y17526D02*
X533400Y32766D01*
X558800Y32766D02*
X558800Y17526D01*
X584200Y17526D02*
X584200Y32766D01*
X609600Y32766D02*
X609600Y17526D01*
X635000Y17526D02*
X635000Y32766D01*
D12*
X180340Y155524D02*
X180340Y170104D01*
X205740Y170104D02*
X205740Y155524D01*
X231140Y155524D02*
X231140Y170104D01*
X256540Y170104D02*
X256540Y155524D01*
X281940Y155524D02*
X281940Y170104D01*
X307340Y170104D02*
X307340Y155524D01*
X180340Y258140D02*
X180340Y272720D01*
X205740Y272720D02*
X205740Y258140D01*
X231140Y258140D02*
X231140Y272720D01*
X256540Y272720D02*
X256540Y258140D01*
X281940Y258140D02*
X281940Y272720D01*
X307340Y272720D02*
X307340Y258140D01*
X339674Y169672D02*
X354254Y169672D01*
X354254Y195072D02*
X339674Y195072D01*
X339674Y220472D02*
X354254Y220472D01*
X354254Y245872D02*
X339674Y245872D01*
X339674Y271272D02*
X354254Y271272D01*
X354254Y296672D02*
X339674Y296672D01*
X339674Y322072D02*
X354254Y322072D01*
X354254Y347472D02*
X339674Y347472D01*
X180340Y321488D02*
X180340Y306908D01*
X205740Y306908D02*
X205740Y321488D01*
X231140Y321488D02*
X231140Y306908D01*
X256540Y306908D02*
X256540Y321488D01*
X281940Y321488D02*
X281940Y306908D01*
X307340Y306908D02*
X307340Y321488D01*
X180340Y409524D02*
X180340Y424104D01*
X205740Y424104D02*
X205740Y409524D01*
X231140Y409524D02*
X231140Y424104D01*
X256540Y424104D02*
X256540Y409524D01*
X281940Y409524D02*
X281940Y424104D01*
X307340Y424104D02*
X307340Y409524D01*
D13*
X62738Y283210D03*
X37338Y283210D03*
D11*
X118110Y67818D02*
X133350Y67818D01*
X133350Y93218D02*
X118110Y93218D01*
X118110Y118618D02*
X133350Y118618D01*
X133350Y156718D02*
X118110Y156718D01*
X118110Y182118D02*
X133350Y182118D01*
X133350Y207518D02*
X118110Y207518D01*
X506730Y171450D02*
X521970Y171450D01*
X521970Y146050D02*
X506730Y146050D01*
X506730Y120650D02*
X521970Y120650D01*
X521970Y95250D02*
X506730Y95250D01*
X241300Y113030D02*
X241300Y128270D01*
X215900Y128270D02*
X215900Y113030D01*
X190500Y113030D02*
X190500Y128270D01*
X165100Y128270D02*
X165100Y113030D01*
X134620Y361950D02*
X119380Y361950D01*
X119380Y387350D02*
X134620Y387350D01*
X134620Y412750D02*
X119380Y412750D01*
X119380Y438150D02*
X134620Y438150D01*
D14*
X586994Y254254D02*
X606806Y254254D01*
X606806Y304546D02*
X586994Y304546D01*
X586994Y374904D02*
X606806Y374904D01*
X606806Y425196D02*
X586994Y425196D01*
D11*
X393700Y407670D02*
X393700Y392430D01*
X419100Y392430D02*
X419100Y407670D01*
X444500Y407670D02*
X444500Y392430D01*
X469900Y392430D02*
X469900Y407670D01*
X495300Y407670D02*
X495300Y392430D01*
D15*
X279400Y342900D02*
X279400Y317500D01*
X279400Y342900D02*
X146050Y342900D01*
X279400Y317500D02*
X281940Y314198D01*
D16*
X146050Y342900D03*
D15*
X95250Y342900D02*
X38100Y285750D01*
X95250Y342900D02*
X95250Y476250D01*
X374650Y476250D01*
X393700Y495300D01*
X393700Y508000D01*
X38100Y285750D02*
X37338Y283210D01*
X391160Y508000D02*
X393700Y508000D01*
X393700Y273050D02*
X349250Y273050D01*
X346964Y271272D01*
X254000Y450850D02*
X247650Y457200D01*
X254000Y450850D02*
X431800Y450850D01*
X469900Y412750D01*
X469900Y400050D01*
D16*
X393700Y273050D03*
X247650Y457200D03*
D15*
X355600Y304800D02*
X349250Y298450D01*
X355600Y304800D02*
X368300Y304800D01*
X450850Y387350D01*
X450850Y400050D01*
X444500Y400050D01*
X349250Y298450D02*
X346964Y296672D01*
X412750Y444500D02*
X234950Y444500D01*
X412750Y444500D02*
X444500Y412750D01*
X444500Y400050D01*
D16*
X234950Y444500D03*
D15*
X311150Y260350D02*
X438150Y260350D01*
X577850Y400050D01*
X615950Y400050D01*
X628650Y412750D01*
X628650Y508000D01*
X635000Y508000D01*
X307340Y265430D02*
X311150Y260350D01*
X234950Y292100D02*
X209550Y266700D01*
X234950Y292100D02*
X298450Y292100D01*
X304800Y285750D01*
X368300Y285750D01*
X450850Y368300D01*
X501650Y368300D01*
X565150Y431800D01*
X565150Y476250D01*
X584200Y495300D01*
X584200Y508000D01*
X209550Y266700D02*
X205740Y265430D01*
X209550Y419100D02*
X209550Y469900D01*
X482600Y469900D01*
X508000Y495300D01*
X508000Y508000D01*
X209550Y419100D02*
X205740Y416814D01*
X203200Y374650D02*
X190500Y361950D01*
X203200Y374650D02*
X317500Y374650D01*
D16*
X190500Y361950D03*
X317500Y374650D03*
D15*
X139700Y114300D02*
X127000Y114300D01*
X139700Y114300D02*
X184150Y69850D01*
X457200Y69850D01*
X501650Y25400D01*
X508000Y25400D01*
X127000Y114300D02*
X125730Y118618D01*
X508000Y25400D02*
X508000Y25146D01*
D17*
X381000Y25400D02*
X381000Y57150D01*
X323850Y57150D01*
X304800Y38100D01*
X304800Y25400D01*
X381000Y25400D02*
X381254Y25400D01*
X305054Y25400D02*
X304800Y25400D01*
X254000Y387350D02*
X254000Y412750D01*
X254000Y387350D02*
X317500Y387350D01*
X330200Y374650D02*
X349250Y355600D01*
X330200Y374650D02*
X317500Y387350D01*
X349250Y355600D02*
X349250Y349250D01*
X254000Y412750D02*
X256540Y416814D01*
X346964Y347472D02*
X349250Y349250D01*
X368300Y374650D02*
X393700Y400050D01*
X368300Y374650D02*
X330200Y374650D01*
X107950Y234950D02*
X63500Y279400D01*
X107950Y234950D02*
X234950Y234950D01*
X260350Y260350D01*
X63500Y279400D02*
X62738Y283210D01*
X256540Y265430D02*
X260350Y260350D01*
D15*
X311150Y158750D02*
X323850Y146050D01*
X476250Y146050D01*
X501650Y171450D01*
X514350Y171450D01*
X311150Y158750D02*
X307340Y162814D01*
X279400Y158750D02*
X279400Y133350D01*
X501650Y133350D01*
X514350Y146050D01*
X281940Y162814D02*
X279400Y158750D01*
X228600Y139700D02*
X209550Y158750D01*
X228600Y139700D02*
X247650Y139700D01*
X260350Y127000D01*
X495300Y127000D01*
X501650Y120650D01*
X514350Y120650D01*
X209550Y158750D02*
X205740Y162814D01*
X184150Y158750D02*
X184150Y146050D01*
X190500Y139700D01*
X196850Y139700D01*
X203200Y133350D01*
X203200Y88900D01*
X495300Y88900D01*
X501650Y95250D01*
X514350Y95250D01*
X184150Y158750D02*
X180340Y162814D01*
X177800Y311150D02*
X76200Y311150D01*
X50800Y285750D01*
X50800Y139700D01*
X171450Y139700D01*
X190500Y120650D01*
X177800Y311150D02*
X180340Y314198D01*
X196850Y349250D02*
X203200Y355600D01*
X196850Y349250D02*
X190500Y349250D01*
X127000Y412750D01*
D16*
X203200Y355600D03*
M02*
